/* XPM */
static char *exit[] = {
/* columns rows colors chars-per-pixel */
"32 32 27 1 ",
"  c #991B1E",
". c #AD2120",
"X c #AD2D2C",
"o c #CC3627",
"O c #D53726",
"+ c #EE3923",
"@ c #D54326",
"# c #CF6733",
"$ c #F26622",
"% c #E96735",
"& c #F26634",
"* c #F2663A",
"= c #CF6741",
"- c #CF675B",
"; c #E9675B",
": c #F26658",
"> c #CE6667",
", c #F16667",
"< c #ED8C37",
"1 c #F68D39",
"2 c #F79639",
"3 c #F89939",
"4 c #FAA639",
"5 c #FEC036",
"6 c #FFCD32",
"7 c #ED8C4A",
"8 c None",
/* pixels */
"88888888336633888833663388888888",
"88888888336633888833663388888888",
"88888866334433333333443366888888",
"88888866333333333333333366888888",
"8888333333**33333333**3333338888",
"8888333333**33333333**3333338888",
"888866333311333**333113333668888",
"888866333333333**333333333668888",
"88333333333333311333333333333388",
"88333333333333333333333333333388",
"885533**33##>>##>>##>>33**336688",
"886633**33##>>##>>##>>33**336688",
"8833331133>>%%;;%%;;##3311333388",
"8833333333>>$$,,$$,,##3333333388",
"8888333333##,,XX@@&&>>3333338888",
"888833**33##,, ++o$$>>33**338888",
"888833**33--$$o++ ::==33**338888",
"8888331133>>$$oO. ,,##3311338888",
"8833333333==,,$$,,&&--3333333388",
"8833333333##,,$$,,$$>>3333333388",
"886633**33--##>>##>>==33**336688",
"886633**33>>##>>##>>##33**336688",
"884433113377<<77<<77<<3322334488",
"88333333333333333333333333333388",
"888855333333333**333333333558888",
"888866333333333**333333333668888",
"8888333333**33311333**3333448888",
"8888333333**33333333**3333338888",
"88888855331133333333113355888888",
"88888866333333333333333366888888",
"88888888336633888833663388888888",
"88888888336633888833663388888888"
};
