/* XPM */
static char *fish[] = {
/* columns rows colors chars-per-pixel */
"32 32 70 1 ",
"  c gray20",
". c #3A3634",
"X c #3C3A35",
"o c #544136",
"O c #5A4436",
"+ c #55463B",
"@ c #57473B",
"# c #58483B",
"$ c #584F3D",
"% c #5F533E",
"& c #5F543E",
"* c #604C3D",
"= c #60543E",
"- c #7B5035",
"; c #72513A",
": c #77523A",
"> c #7B5F3D",
", c #574A41",
"< c #5F4F43",
"1 c #564F4C",
"2 c #5E5753",
"3 c #786742",
"4 c #7E6A43",
"5 c #7E6C43",
"6 c #7F6C43",
"7 c #7E6748",
"8 c #7C7572",
"9 c #815134",
"0 c #AA5E2F",
"q c #A76D3C",
"w c #C1652B",
"e c #C6672A",
"r c #CD6828",
"t c #D6732C",
"y c #D7742C",
"u c #AD7441",
"i c #AE7441",
"p c #B87941",
"a c #BB7B40",
"s c #BD7C40",
"d c #C9823F",
"f c #EA8A33",
"g c #EC8C34",
"h c #ED8D34",
"j c #E7903C",
"k c #EB933B",
"l c #F89939",
"z c #F9A138",
"x c #F9A238",
"c c #FAA639",
"v c #FDBD36",
"b c #FBC532",
"n c #FEC035",
"m c #FEC036",
"M c #FFCD32",
"N c #B09145",
"B c #CC9A41",
"V c #F89D42",
"C c #F89F45",
"Z c #FAA95B",
"A c #FAAF65",
"S c #FBB069",
"D c #FCC085",
"F c #FCC187",
"G c #FDCC9A",
"H c #FDD1A3",
"J c #FDD1A5",
"K c #FFE2C5",
"L c white",
"P c None",
/* pixels */
"PPPPPPPPPPPPPPPPPPPPPPPPPPPPPPPP",
"PPPPPPPPPPPPPPPPPPPPPPPPPPPPPPPP",
"PPPPPPPPPPPPPPPPPPPPPPPPPPPPPPPP",
"PPPPPPPPPPPPPPPPPPPPPPPPPPPPPPPP",
"PPPPPPPPPPPPPPPPPPPPPPPPPPPPPPPP",
"PPPPPPPPPPPPPPPPPPPPPPPPPPPPPPPP",
"PPPPPPPPPPPPPPP$PPPPPPPPPPPPPPPP",
"PPPPPPPPPPPPPP%m$PPPPPPPPPPPPPPP",
"PP3PPPPPPPPPPP#lM$PPPPPPPPPPPPPP",
"P6M$PPPPPPPPPP%lzm$PPPPPPPPPPPPP",
"P&MM$PPPPP=&&4vlllm PPPPPPPPPPPP",
"P=MxM$ X&5MMMmjiallB,1#<2**#PPPP",
"P&nlcM*7MMMMMM$ @llCDGlSKCSl#PPP",
"P$vllllSKlMMb>MN@lCDGCSKlSLll PP",
"PP:glllllKcM;tgq@CFKVSLlSL8Klu P",
"POrrfglSKllll;r-@ZHlSKlllSKllu P",
"POrrrr oylllll+ #lZJZAKAllllls P",
"POrrr P othllllllllAJZlJAlllll P",
"POrr PPPPoyllllffhllAGlZGjplll P",
"Por PPPPPP    .reyllllllld#l  PP",
"PP PPPPPPPPPPP 0w #lkklllll  PPP",
"PPPPPPPPPPPPPPP 9 P         PPPP",
"PPPPPPPPPPPPPPPP PPPPPPPPPPPPPPP",
"PPPPPPPPPPPPPPPPPPPPPPPPPPPPPPPP",
"PPPPPPPPPPPPPPPPPPPPPPPPPPPPPPPP",
"PPPPPPPPPPPPPPPPPPPPPPPPPPPPPPPP",
"PPPPPPPPPPPPPPPPPPPPPPPPPPPPPPPP",
"PPPPPPPPPPPPPPPPPPPPPPPPPPPPPPPP",
"PPPPPPPPPPPPPPPPPPPPPPPPPPPPPPPP",
"PPPPPPPPPPPPPPPPPPPPPPPPPPPPPPPP",
"PPPPPPPPPPPPPPPPPPPPPPPPPPPPPPPP",
"PPPPPPPPPPPPPPPPPPPPPPPPPPPPPPPP"
};
