/* XPM */
static char *_716cfe78b8c4dfcaef1534323affc992BAwymcI9rWeX0aM[] = {
/* columns rows colors chars-per-pixel */
"32 32 19 1 ",
"  c None",
". c #040707",
"X c #91386F",
"o c #CB3394",
"O c #CD4298",
"+ c #D15EA4",
"@ c #D363A6",
"# c #D469A9",
"$ c #C87AA8",
"% c #DA7FB4",
"& c #A18B96",
"* c #DA83B7",
"= c #E39EC6",
"- c #DBBCCD",
"; c #E5A9CD",
": c #E6ABCE",
"> c #E8B2D2",
", c #EABAD6",
"< c #F1CEE2",
/* pixels */
"                                ",
"      <<<<<<<<<<<<<<<<<<<<      ",
"     <+oooooooooooooooooo%<     ",
"    <@ooo@<ooooooooo@<oooO%<    ",
"    <ooooO%<ooooooo@<@oooo@<    ",
"    <ooooo#<<ooooo@<<ooooo@<    ",
"    <ooooo#&.<ooo@&.<ooooo@<    ",
"    <oooooO$&<ooo#-&@ooooo@<    ",
"    <ooooooO*<ooo#<@oooooo@<    ",
"    <oooooooO%<o@<@ooooooo@<    ",
"    <ooooooooO@oO@oooooooo@<    ",
"    <oooooooooX..ooooooooo@<    ",
"   <@oooooooo@<<<<ooooooooO*<   ",
"  <@oooooooooO@@@@oooooooooO%<  ",
" <>;;;;;;;;;;;;;;;;;;;;;;;;;;,< ",
"     @<  @< =<o  @< =<o =<o     ",
"     <@  <@  %<  <@  %<  %<     ",
"     %<  %<  <@  %<  <@  <@     ",
"     <@  <@  %<  <@  %<  %<     ",
"     %<  %<  <@  %<  <@  <@     ",
"     <@  <@  %<  <@  %<  %<     ",
"     %<  %<  <@  %<  <@  <@     ",
"     <@  <@  %<  <@  %<  %<     ",
" @<@<%<  %<  <@  %<  <@  <%<@<o ",
"  %<%<@  <@  %<  <@  %<  %<%<@  ",
"         %<  <@  %<  <@         ",
"         <@  %<  <@  %<         ",
"         %<  <@  %<  <@         ",
"        @<@  %<  <@  %<o        ",
"             <@  %<             ",
"             @    @             ",
"                                "
};
