/* XPM */
static char *player_right_1[] = {
/* columns rows colors chars-per-pixel */
"32 32 92 1 ",
"  c gray20",
". c #353534",
"X c #353535",
"o c #363635",
"O c #373737",
"+ c gray22",
"@ c #393938",
"# c #3B3B3A",
"$ c #3C3B3B",
"% c #3C3C3B",
"& c #3E3E3D",
"* c #3F3E3E",
"= c #403F3E",
"- c #414040",
"; c #414141",
": c #434242",
"> c #444443",
", c #444444",
"< c #474646",
"1 c #4B4C4C",
"2 c #4F4F4E",
"3 c #4F4E4F",
"4 c gray31",
"5 c #504F4F",
"6 c #555252",
"7 c #5C5B5A",
"8 c gray37",
"9 c #62605F",
"0 c #606060",
"q c gray38",
"w c #626262",
"e c #636262",
"r c gray40",
"t c #676767",
"y c #686666",
"u c #686868",
"i c #696868",
"p c #6A6969",
"a c #6C6969",
"s c #6C6B6B",
"d c #6D6C6C",
"f c #717070",
"g c #737170",
"h c #777777",
"j c gray47",
"k c #7E7E7E",
"l c gray50",
"z c #858484",
"x c #878686",
"c c gray53",
"v c #8A8989",
"b c #8C8B8B",
"n c #8D8C8B",
"m c #8B8B8C",
"M c #8C8B8C",
"N c #8D8C8C",
"B c #8E8D8D",
"V c gray57",
"C c #929191",
"Z c #929292",
"A c #949493",
"S c gray58",
"D c #979797",
"F c #989898",
"G c gray60",
"H c #9E9F9E",
"J c #9F9F9F",
"K c gray63",
"L c #A7A7A7",
"P c #ACABAB",
"I c #AEAAAA",
"U c #ADAEAD",
"Y c #B2B2B1",
"T c #B2B2B2",
"R c #B4B4B3",
"E c #B5B4B4",
"W c #B7B8B8",
"Q c #C3C3C3",
"! c #CACACA",
"~ c gray80",
"^ c #D2D2D1",
"/ c #D4D5D4",
"( c #DEDDDD",
") c #E1E1E1",
"_ c #E2E0E0",
"` c #EAEBEB",
"' c gray95",
"] c gray96",
"[ c #F8F8F8",
"{ c #FCFBFB",
"} c #FDFDFD",
"| c None",
/* pixels */
"||||||||||||||||||||||||||||||||",
"||||||||||||||||||||||||||||||||",
"||||||||||||||||||||||||||||||||",
"||||||||||||||||||||||||||||||||",
"||||||||||||||||||||||||||||||||",
"||||||||||||||||||||||||||||||||",
"|||||||||||||||| |||||||||||||||",
"|||||||||||||||$:%||||||||||||||",
"|||||||||||||||O~<$|||||||||||||",
"|||||||||||||||O~~<%||||||||||||",
"||||||         O~~~<%     ||||||",
"|||||>dsiiiddddfUPPP5#=---$|||||",
"||||$7GGGGGGGGGGGGGGLNK)`^6$||||",
"|||$5LGGGGGGGGGGGGGGGRW{_(^6$|||",
"||%5LGGGFCCZGGGGGGGGG!~}I'/~<$||",
"|%5LGGVjhttujlGGGGGGG!~][/~~~<$|",
"|;LGGZx000000pbHJHHnvQETYg9999+|",
"|2GGDk8       @a~~ao3e&.      ||",
"|2GGA  ||||||||O~a@ 8w*|||||||||",
"|2GDz |||||||||Xy+|| ,X|||||||||",
"|2GS1   |||||||  |||| ||||||||||",
"|<NBq444 |||||||||||||||||||||||",
"||2Gmtr8 |||||||||||||||||||||||",
"||<Ncr8 ||||||||||||||||||||||||",
"|||2M8 |||||||||||||||||||||||||",
"|||<z ||||||||||||||||||||||||||",
"|||| |||||||||||||||||||||||||||",
"||||||||||||||||||||||||||||||||",
"||||||||||||||||||||||||||||||||",
"||||||||||||||||||||||||||||||||",
"||||||||||||||||||||||||||||||||",
"||||||||||||||||||||||||||||||||"
};
