/* XPM */
static char *player_left_3[] = {
/* columns rows colors chars-per-pixel */
"32 32 100 2 ",
"   c gray20",
".  c #353534",
"X  c #353535",
"o  c #353635",
"O  c #363635",
"+  c gray22",
"@  c #393938",
"#  c #3A3A39",
"$  c #3B3B3A",
"%  c gray23",
"&  c #3C3B3B",
"*  c #3C3C3B",
"=  c #3C3D3C",
"-  c #3E3E3D",
";  c #3E3E3E",
":  c #3F3E3E",
">  c #403F3E",
",  c #414040",
"<  c #444443",
"1  c #444444",
"2  c #474646",
"3  c #4F4F4E",
"4  c #4F4E4F",
"5  c #504F4F",
"6  c #4F5050",
"7  c #505050",
"8  c #515050",
"9  c #515152",
"0  c #525253",
"q  c #555252",
"w  c #565453",
"e  c #555555",
"r  c gray34",
"t  c #595A5A",
"y  c #5C5A5A",
"u  c #5E5D5D",
"i  c gray37",
"p  c #62605F",
"a  c #616061",
"s  c #626262",
"d  c #636262",
"f  c #676666",
"g  c #676767",
"h  c #696968",
"j  c #6A6969",
"k  c #6B6B6A",
"l  c gray42",
"z  c #6C6969",
"x  c #6C6C6C",
"c  c #6D6C6C",
"v  c #6D6D6C",
"b  c #6F6E6E",
"n  c #737170",
"m  c #767676",
"M  c #7B7C7C",
"N  c #828283",
"B  c #858484",
"V  c #898888",
"C  c #8A8989",
"Z  c #8B8989",
"A  c #8D8C8B",
"S  c #8D8C8C",
"D  c #8E8D8D",
"F  c #8F8D8D",
"G  c #908E8D",
"H  c #919090",
"J  c #949393",
"K  c #949493",
"L  c gray59",
"P  c #989898",
"I  c gray60",
"U  c #9A9A9A",
"Y  c #9B9B9B",
"T  c #9B9B9C",
"R  c #9E9F9E",
"E  c gray63",
"W  c #A7A7A7",
"Q  c #ACABAB",
"!  c #AEAAAA",
"~  c #B0AFAF",
"^  c #B2B2B1",
"/  c #B2B2B2",
"(  c #B4B4B3",
")  c #B5B4B4",
"_  c #B7B8B8",
"`  c #C3C3C3",
"'  c #CACACA",
"]  c gray80",
"[  c #D2D2D1",
"{  c #D4D5D4",
"}  c #DEDDDD",
"|  c #E1E1E1",
" . c #E2E0E0",
".. c #EAEBEB",
"X. c gray95",
"o. c gray96",
"O. c #F8F8F8",
"+. c #FCFBFB",
"@. c #FDFDFD",
"#. c None",
/* pixels */
"#.#.#.#.#.#.#.#.#.#.#.#.#.#.#.#.#.#.#.#.#.#.#.#.#.#.#.#.#.#.#.#.",
"#.#.#.#.#.#.#.#.#.#.#.#.#.#.#.#.#.#.#.#.#.#.#.#.#.#.#.  #.#.#.#.",
"#.#.#.#.#.#.#.#.#.#.#.#.#.#.#.#.#.#.#.#.#.#.#.#.#.#.< f   #.#.#.",
"#.#.#.#.#.#.#.#.#.#.#.#.#.#.#.#.#.#.#.#.#.#.#.#.#.= u K   #.#.#.",
"#.#.#.#.#.#.#.#.#.#.#.#.#.#.#.#.#.#.#.#.#.#.#.#.= r h L f   #.#.",
"#.#.#.#.#.#.#.#.#.#.#.#.#.#.#.#.#.#.#.#.#.#.#.= e g l I K   #.#.",
"#.#.#.#.#.#.#.#.#.#.#.#.#.#.#.  #.#.#.#.#.#.#.; i i a M L f   #.",
"#.#.#.#.#.#.#.#.#.#.#.#.#.#.* ,   #.#.#.#.#.#.#.    o j I K   #.",
"#.#.#.#.#.#.#.#.#.#.#.#.#.& 2 F   #.#.#.#.#.#.#.#.#.< m I K   #.",
"#.#.#.#.#.#.#.#.#.#.#.#.* 2 ] F   #.#.#.#.#.#.#.#.  3 I I K   #.",
"#.#.#.#.#.#.          * 2 ] ] G                 % # 8 I I H   #.",
"#.#.#.#.#.& , , , > $ 5 Q Q Q T c f 0 0 9 6 7 0 t N I I U J   #.",
"#.#.#.#.& q [ ..| E S W I I I I I D x k g g g x b I I U Y y   #.",
"#.#.#.& q [ }  .+._ ( I I I I I I I I D v v b I I I U Y y   #.#.",
"#.#.& 2 ] { X.! @.] ' I I I I I I I I I I I I I I U Y y   #.#.#.",
"#.& 2 ] ] ] { O.o.] ' I I I I I I I I I I I I I I P y   #.#.#.#.",
"#.+ p p p p n ^ / ) ` C A R R R U C C Z Z Z V B Z B   #.#.#.#.#.",
"#.#.            . - d 4 O z ] ~ y                   #.#.#.#.#.#.",
"#.#.#.#.#.#.#.#.#.: s i   @ z F   #.#.#.#.#.#.#.#.#.#.#.#.#.#.#.",
"#.#.#.#.#.#.#.#.#.X 1   #.#.+ w   #.#.#.#.#.#.#.#.#.#.#.#.#.#.#.",
"#.#.#.#.#.#.#.#.#.#.  #.#.#.#.    #.#.#.#.#.#.#.#.#.#.#.#.#.#.#.",
"#.#.#.#.#.#.#.#.#.#.#.#.#.#.#.#.#.#.#.#.#.#.#.#.#.#.#.#.#.#.#.#.",
"#.#.#.#.#.#.#.#.#.#.#.#.#.#.#.#.#.#.#.#.#.#.#.#.#.#.#.#.#.#.#.#.",
"#.#.#.#.#.#.#.#.#.#.#.#.#.#.#.#.#.#.#.#.#.#.#.#.#.#.#.#.#.#.#.#.",
"#.#.#.#.#.#.#.#.#.#.#.#.#.#.#.#.#.#.#.#.#.#.#.#.#.#.#.#.#.#.#.#.",
"#.#.#.#.#.#.#.#.#.#.#.#.#.#.#.#.#.#.#.#.#.#.#.#.#.#.#.#.#.#.#.#.",
"#.#.#.#.#.#.#.#.#.#.#.#.#.#.#.#.#.#.#.#.#.#.#.#.#.#.#.#.#.#.#.#.",
"#.#.#.#.#.#.#.#.#.#.#.#.#.#.#.#.#.#.#.#.#.#.#.#.#.#.#.#.#.#.#.#.",
"#.#.#.#.#.#.#.#.#.#.#.#.#.#.#.#.#.#.#.#.#.#.#.#.#.#.#.#.#.#.#.#.",
"#.#.#.#.#.#.#.#.#.#.#.#.#.#.#.#.#.#.#.#.#.#.#.#.#.#.#.#.#.#.#.#.",
"#.#.#.#.#.#.#.#.#.#.#.#.#.#.#.#.#.#.#.#.#.#.#.#.#.#.#.#.#.#.#.#.",
"#.#.#.#.#.#.#.#.#.#.#.#.#.#.#.#.#.#.#.#.#.#.#.#.#.#.#.#.#.#.#.#."
};
