/* XPM */
static char *player_right_3[] = {
/* columns rows colors chars-per-pixel */
"32 32 96 2 ",
"   c gray20",
".  c #353535",
"X  c #353635",
"o  c gray21",
"O  c #373737",
"+  c gray22",
"@  c #393938",
"#  c #393A39",
"$  c #3A3A3A",
"%  c #3C3B3B",
"&  c #3C3D3C",
"*  c #3E3E3E",
"=  c gray25",
"-  c #414040",
";  c #424140",
":  c #444443",
">  c #474646",
",  c gray28",
"<  c #4D4D4C",
"1  c #4F4F4E",
"2  c #505050",
"3  c #515152",
"4  c #525253",
"5  c gray33",
"6  c #555555",
"7  c #565454",
"8  c #565656",
"9  c #5C5A5A",
"0  c #5D5D5D",
"q  c #5D5D5E",
"w  c gray37",
"e  c #5F5E5E",
"r  c #5E5F5F",
"t  c #62605F",
"y  c #5F5F60",
"u  c #606060",
"i  c gray40",
"p  c #676666",
"a  c #676767",
"s  c #686868",
"d  c #6A6969",
"f  c gray42",
"g  c #6C6969",
"h  c #6C6C6C",
"j  c #6D6C6C",
"k  c #6D6D6C",
"l  c #6F6E6E",
"z  c #717070",
"x  c #737171",
"c  c gray46",
"v  c #787675",
"b  c #7B7C7C",
"n  c #7C7C7C",
"m  c #858484",
"M  c #868686",
"N  c #898888",
"B  c #8A8989",
"V  c #8B8989",
"C  c #8C8B8B",
"Z  c #8E8D8D",
"A  c #8F8E8E",
"S  c #939292",
"D  c #949493",
"F  c #969595",
"G  c #969695",
"H  c gray59",
"J  c gray60",
"K  c #9A9A9A",
"L  c #9C9B9B",
"P  c #9D9E9E",
"I  c gray62",
"U  c #9E9F9E",
"Y  c #9F9F9F",
"T  c #A3A1A0",
"R  c gray66",
"E  c #A9A9A9",
"W  c #AAA8A8",
"Q  c #ABACAB",
"!  c #ACACAB",
"~  c #B0AFAF",
"^  c #B2B2B1",
"/  c #B2B2B2",
"(  c #B7B6B6",
")  c #B8B7B7",
"_  c #C6C7C6",
"`  c #CAC9CA",
"'  c gray80",
"]  c #D4D5D4",
"[  c #D9D7D7",
"{  c #DADADB",
"}  c #E6E6E7",
"|  c #EAEAEA",
" . c gray96",
".. c #F8F8F8",
"X. c #FBFBFB",
"o. c None",
/* pixels */
"o.o.o.o.o.o.o.o.o.o.o.o.o.o.o.o.o.o.o.o.o.o.o.o.o.o.o.o.o.o.o.o.",
"o.o.o.o.  o.o.o.o.o.o.o.o.o.o.o.o.o.o.o.o.o.o.o.o.o.o.o.o.o.o.o.",
"o.o.o.  p : o.o.o.o.o.o.o.o.o.o.o.o.o.o.o.o.o.o.o.o.o.o.o.o.o.o.",
"o.o.o.  D 0 & o.o.o.o.o.o.o.o.o.o.o.o.o.o.o.o.o.o.o.o.o.o.o.o.o.",
"o.o.  p H a 8 * o.o.o.o.o.o.o.o.o.o.o.o.o.o.o.o.o.o.o.o.o.o.o.o.",
"o.o.  D J f i 5   o.o.o.o.o.o.o.o.o.o.o.o.o.o.o.o.o.o.o.o.o.o.o.",
"o.  p H b y q w   o.o.o.o.o.o.o.  o.o.o.o.o.o.o.o.o.o.o.o.o.o.o.",
"o.  D J d X     o.o.o.o.o.o.o.% -   o.o.o.o.o.o.o.o.o.o.o.o.o.o.",
"o.  D J c : o.o.o.o.o.o.o.o.o.O T -   o.o.o.o.o.o.o.o.o.o.o.o.o.",
"o.  D J G 1   o.o.o.o.o.o.o.o.O ' T -   o.o.o.o.o.o.o.o.o.o.o.o.",
"o.o S J D < $                 O ' ' T -             o.o.o.o.o.o.",
"o., I J J A n 4 3 2 2 4 4 6 j z Q Q Q L = $ ; ; ; -   o.o.o.o.o.",
"o.+ x I J J Z k f a a s k l J J J J J K E M ) | } ( -   o.o.o.o.",
"o.o.+ x P J J J Z h h l J J J J J J J J Y ) ` X.[ } ( -   o.o.o.",
"o.o.o.@ x P J J J J J J J J J J J J J J R ' { ..W  .' T -   o.o.",
"o.o.o.o.@ v J J J J J J J J J J J J J J R ' ] .. .' ' ' T -   o.",
"o.o.o.o.o.> B N m B B B V V C U U U K V F _ ^ / ! t t t t 9   o.",
"o.o.o.o.o.o.                @ g ' ~ 7 # 5 e X               o.o.",
"o.o.o.o.o.o.o.o.o.o.o.o.o.o.o.O ~ 9   * u r X o.o.o.o.o.o.o.o.o.",
"o.o.o.o.o.o.o.o.o.o.o.o.o.o.o.. 9   o.o.X :   o.o.o.o.o.o.o.o.o.",
"o.o.o.o.o.o.o.o.o.o.o.o.o.o.o.    o.o.o.o.  o.o.o.o.o.o.o.o.o.o.",
"o.o.o.o.o.o.o.o.o.o.o.o.o.o.o.o.o.o.o.o.o.o.o.o.o.o.o.o.o.o.o.o.",
"o.o.o.o.o.o.o.o.o.o.o.o.o.o.o.o.o.o.o.o.o.o.o.o.o.o.o.o.o.o.o.o.",
"o.o.o.o.o.o.o.o.o.o.o.o.o.o.o.o.o.o.o.o.o.o.o.o.o.o.o.o.o.o.o.o.",
"o.o.o.o.o.o.o.o.o.o.o.o.o.o.o.o.o.o.o.o.o.o.o.o.o.o.o.o.o.o.o.o.",
"o.o.o.o.o.o.o.o.o.o.o.o.o.o.o.o.o.o.o.o.o.o.o.o.o.o.o.o.o.o.o.o.",
"o.o.o.o.o.o.o.o.o.o.o.o.o.o.o.o.o.o.o.o.o.o.o.o.o.o.o.o.o.o.o.o.",
"o.o.o.o.o.o.o.o.o.o.o.o.o.o.o.o.o.o.o.o.o.o.o.o.o.o.o.o.o.o.o.o.",
"o.o.o.o.o.o.o.o.o.o.o.o.o.o.o.o.o.o.o.o.o.o.o.o.o.o.o.o.o.o.o.o.",
"o.o.o.o.o.o.o.o.o.o.o.o.o.o.o.o.o.o.o.o.o.o.o.o.o.o.o.o.o.o.o.o.",
"o.o.o.o.o.o.o.o.o.o.o.o.o.o.o.o.o.o.o.o.o.o.o.o.o.o.o.o.o.o.o.o.",
"o.o.o.o.o.o.o.o.o.o.o.o.o.o.o.o.o.o.o.o.o.o.o.o.o.o.o.o.o.o.o.o."
};
