/* XPM */
static char *player_up_3[] = {
/* columns rows colors chars-per-pixel */
"32 32 101 2 ",
"   c gray20",
".  c #333433",
"X  c #343534",
"o  c #373737",
"O  c #373837",
"+  c #393938",
"@  c #393939",
"#  c #3C3B3B",
"$  c #3C3C3B",
"%  c #3C3C3C",
"&  c #3C3D3C",
"*  c gray24",
"=  c #3E3D3D",
"-  c #3E3E3E",
";  c #3E3F3E",
":  c #414040",
">  c #414141",
",  c #424140",
"<  c #444443",
"1  c #474646",
"2  c #484848",
"3  c #4E4E4E",
"4  c #4F4F4E",
"5  c gray31",
"6  c #504F4F",
"7  c #515151",
"8  c #535353",
"9  c #5B5A59",
"0  c #5C5A5A",
"q  c #5C5B5A",
"w  c gray36",
"e  c #5D5D5D",
"r  c #5D5D5E",
"t  c gray37",
"y  c #5E5F5F",
"u  c #5F5F5F",
"i  c #605E5E",
"p  c #62605F",
"a  c #606060",
"s  c #616061",
"d  c #606161",
"f  c #626262",
"g  c #656464",
"h  c #666565",
"j  c #676767",
"k  c #686868",
"l  c #696868",
"z  c #6A6A69",
"x  c #6C6B6B",
"c  c #6D6C6C",
"v  c #6F6E6E",
"b  c #717070",
"n  c #747474",
"m  c #767474",
"M  c gray47",
"N  c #7D7A7A",
"B  c #7B7C7C",
"V  c #807F80",
"C  c #848383",
"Z  c #858383",
"A  c #858484",
"S  c #878686",
"D  c #8B8989",
"F  c #8C8B8B",
"G  c #919090",
"H  c gray57",
"J  c #929191",
"K  c #929292",
"L  c #939393",
"P  c #949493",
"I  c #969695",
"U  c #979797",
"Y  c gray60",
"T  c #9A9A9A",
"R  c #9B9B9B",
"E  c #9B9B9C",
"W  c gray62",
"Q  c #9E9F9E",
"!  c #A39FA0",
"~  c #A3A1A0",
"^  c gray64",
"/  c #A7A7A7",
"(  c gray66",
")  c #ACABAB",
"_  c #B0AFAF",
"`  c #B2B1B1",
"'  c #B9B9B9",
"]  c #C5C5C5",
"[  c #C6C6C6",
"{  c gray80",
"}  c #D2D2D1",
"|  c gray83",
" . c #D9DADA",
".. c #DEDDDE",
"X. c #E6E6E7",
"o. c #EAEBEB",
"O. c gray96",
"+. c #F8F8F8",
"@. c #F9F9F9",
"#. c #FBFBFB",
"$. c None",
/* pixels */
"$.$.$.$.$.$.$.$.$.$.$.$.$.$.$.$.$.$.$.$.$.$.$.$.$.$.$.$.$.$.$.$.",
"$.$.$.$.$.$.$.$.$.$.$.$.$.$.$.$.$.$.$.$.    $.$.$.$.$.$.$.$.$.$.",
"$.$.$.$.$.$.$.$.$.$.$.$.$.$.$.$.$.$.$.  0 :   $.$.$.$.$.$.$.$.$.",
"$.$.$.$.$.$.$.$.$.$.$.$.$.$.$.$.$.$.  0 _ :   $.$.$.$.$.$.$.$.$.",
"$.$.$.$.$.$.$.$.$.$.$.$.$.$.$.$.$.  0 _ { ,   $.$.$.$.$.$.$.$.$.",
"$.$.$.$.$.$.$.$.$.$.$.$.$.$.$.$.  0 ] { { ,   $.$.$.$.$.$.$.$.$.",
"$.$.$.$.$.$.$.$.$.$.$.$.$.$.$.  0 ] O.X.{ ,   $.$.$.$.$.$.$.$.$.",
"$.$.$.$.$.$.$.$.$.$.$.$.$.$.$.  p O.! ..X.N   $.$.$.$.$.$.$.$.$.",
"$.$.$.$.$.$.$.$.$.$.$.$.$.$.$.  p +.@.#.o.Z   $.$.$.$.$.$.$.$.$.",
"$.$.$.$.$.$.$.$.$.$.$.$.$.$.$.  p ` |  .} C o .   $.$.$.$.$.$.$.",
"$.$.$.$.$.$.$.$.$.$.$.$.$.$.$.  2 L [ { { ' e w @   $.$.$.$.$.$.",
"$.$.$.$.$.$.$.$.$.$.$.$.$.$.$.  i W ^ ( ( m s 8 o $.$.$.$.$.$.$.",
"$.$.$.$.$.$.$.$.$.$.$.$.$.$.  0 R T Y Y Y c * & $.$.$.$.$.$.$.$.",
"$.$.$.$.$.$.$.$.$.$.$.$.$.  0 _ Q Y Y Y Y E =   $.$.$.$.$.$.$.$.",
"$.$.$.$.$.$.$.$.$.$.$.$.  0 _ { Q Y Y Y Y ) ~ :   $.$.$.$.$.$.$.",
"$.$.$.$.$.$.$.$.$.$.$.  0 _ { { Q Y Y Y Y ) { ~ :   $.$.$.$.$.$.",
"$.$.$.$.$.$.$.$.$.$.$.$.+ o o o F Y Y Y Y ) 1 o X   $.$.$.$.$.$.",
"$.$.$.$.$.$.$.$.$.$.$.$.$.$.$.  D Y Y Y Y b # $.$.$.$.$.$.$.$.$.",
"$.$.$.$.$.$.$.$.$.$.$.$.$.$.$.  f B Y Y Y c   $.$.$.$.$.$.$.$.$.",
"$.$.$.$.$.$.$.$.$.$.$.$.$.$.$.  a M Y Y Y c   $.$.$.$.$.$.$.$.$.",
"$.$.$.$.$.$.$.$.$.$.$.$.$.$.$.  a k B Y Y c   $.$.$.$.$.$.$.$.$.",
"$.$.$.$.$.$.$.$.$.$.$.$.$.$.$.  t j M Y Y c   $.$.$.$.$.$.$.$.$.",
"$.$.$.$.$.$.$.$.$.$.$.$.$.$.$.  r j M Y Y c   $.$.$.$.$.$.$.$.$.",
"$.$.$.$.$.$.$.$.$.$.    $.$.$.  u n H Y Y l   $.$.$.$.$.$.$.$.$.",
"$.$.$.$.$.$.$.$.$.; y 5   $.$.  a M Y Y Y x   $.$.$.$.$.$.$.$.$.",
"$.$.$.$.$.$.$.$.- d h 3   $.  2 S H Y Y Y c   $.$.$.$.$.$.$.$.$.",
"$.$.$.$.$.$.$.1 g k z 7 O 1 4 9 K Y Y / q < $.$.$.$.$.$.$.$.$.$.",
"$.$.$.$.$.$.  V P U Y v f F I J Y Y / 6 # $.$.$.$.$.$.$.$.$.$.$.",
"$.$.$.$.$.$.$.    A P U Y Y Y Y Y / 6 # $.$.$.$.$.$.$.$.$.$.$.$.",
"$.$.$.$.$.$.$.$.$.    A P P P G / 6 $ $.$.$.$.$.$.$.$.$.$.$.$.$.",
"$.$.$.$.$.$.$.$.$.$.$.        % > $ $.$.$.$.$.$.$.$.$.$.$.$.$.$.",
"$.$.$.$.$.$.$.$.$.$.$.$.$.$.$.$.$.$.$.$.$.$.$.$.$.$.$.$.$.$.$.$."
};
