/* XPM */
static char *player_up_1[] = {
/* columns rows colors chars-per-pixel */
"32 32 44 1 ",
"  c gray20",
". c #3F403F",
"X c gray26",
"o c #444544",
"O c #494949",
"+ c #4B4B4B",
"@ c gray30",
"# c #504F4E",
"$ c #514F4E",
"% c #575554",
"& c #565757",
"* c gray35",
"= c #5B5B5B",
"- c #5F5E5D",
"; c #676767",
": c #717171",
"> c #727272",
", c #767272",
"< c #747475",
"1 c #7C7A79",
"2 c #7C7C7C",
"3 c #898888",
"4 c #8B8B8B",
"5 c gray55",
"6 c #8F8E8E",
"7 c #939191",
"8 c #959595",
"9 c gray60",
"0 c #9B9999",
"q c #9B9A99",
"w c #9C9A9A",
"e c #A5A5A5",
"r c #A8A7A7",
"t c #A9A7A7",
"y c #AFAEAF",
"u c #BCBCBC",
"i c gray75",
"p c gray80",
"a c #CECECF",
"s c #D7D8D7",
"d c gray85",
"f c #D9DADA",
"g c white",
"h c None",
/* pixels */
"hhhhhhhhhhhhhhhhhhhhhhhhhhhhhhhh",
"hhhhhhhhhhhhhhh hhhhhhhhhhhhhhhh",
"hhhhhhhhhhhhhh 1 hhhhhhhhhhhhhhh",
"hhhhhhhhhhhhh 1i hhhhhhhhhhhhhhh",
"hhhhhhhhhhhh 1ip hhhhhhhhhhhhhhh",
"hhhhhhhhhhh 1ppp hhhhhhhhhhhhhhh",
"hhhhhhhhhh 1pgsp hhhhhhhhhhhhhhh",
"hhhhhhhhhh 7g,gs$hhhhhhhhhhhhhhh",
"hhhhhhhhhh 7gggd%hhhhhhhhhhhhhhh",
"hhhhhhhhhh 7yffa%  hhhhhhhhhhhhh",
"hhhhhhhhhh &9pppt;= hhhhhhhhhhhh",
"hhhhhhhhhh 79err#;Xhhhhhhhhhhhhh",
"hhhhhhhhh 199999@.hhhhhhhhhhhhhh",
"hhhhhhhh 1i999990 hhhhhhhhhhhhhh",
"hhhhhhh 1ip99999u0 hhhhhhhhhhhhh",
"hhhhhh 1ipp99999up0 hhhhhhhhhhhh",
"hhhhhhh    99999u   hhhhhhhhhhhh",
"hhhhhhhhhh 99999@hhhhhhhhhhhhhhh",
"hhhhhhhhhh 9999>ohhhhhhhhhhhhhhh",
"hhhhhhhhhh 9999;Xhhhhhhhhhhhhhhh",
"hhhhhhhhhh 999<;Xhhhhhhhhhhhhhhh",
"hhhhhhhhhh 999<;Xhhhhhhhhhhhhhhh",
"hhhhhhhhhh 999<;Xhhhhhhhhhhhhhhh",
"hhhhhhhhhh 9999;Xhhhh hhhhhhhhhh",
"hhhhhhhhhh 9999;Xhhh ;.hhhhhhhhh",
"hhhhhhhhhh 99994:.hh ;;.hhhhhhhh",
"hhhhhhhhhhhOw9995+ h ;;;.hhhhhhh",
"hhhhhhhhhhhh q99999O*2538Ohhhhhh",
"hhhhhhhhhhhhh q99999689-@hhhhhhh",
"hhhhhhhhhhhhhh q99999-@hhhhhhhhh",
"hhhhhhhhhhhhhhh O@@@@hhhhhhhhhhh",
"hhhhhhhhhhhhhhhhhhhhhhhhhhhhhhhh"
};
