/* XPM */
static char *player_down_1[] = {
/* columns rows colors chars-per-pixel */
"32 32 43 1 ",
"  c gray20",
". c gray21",
"X c #3A3A39",
"o c #3D3E3D",
"O c #3F403F",
"+ c gray26",
"@ c #434443",
"# c #494949",
"$ c #4B4B4B",
"% c #4C4B4B",
"& c gray30",
"* c #4E4D4D",
"= c #545353",
"- c #575554",
"; c #5D5D5D",
": c #5F5E5D",
"> c #656363",
", c #676767",
"< c #696968",
"1 c #6A6A69",
"2 c #727272",
"3 c #747474",
"4 c #7C7879",
"5 c #7C7A79",
"6 c gray49",
"7 c #828080",
"8 c #8B8B8B",
"9 c #908F8F",
"0 c #939191",
"q c gray60",
"w c #9B9999",
"e c #9B9A99",
"r c #9C9A9A",
"t c #A6A5A4",
"y c #A7A5A5",
"u c #BCBCBC",
"i c gray80",
"p c #CECECF",
"a c #D7D8D7",
"s c #D9DADA",
"d c #E0E1E1",
"f c white",
"g c None",
/* pixels */
"gggggggggggggggggggggggggggggggg",
"ggggggggggggggg      ggggggggggg",
"gggggggggggggg 5qqqqq# ggggggggg",
"ggggggggggggg 5qqqqqqqq# ggggggg",
"gggggggggggg 5qqqqq:18qqq#gggggg",
"ggggggggggg 5qqqq:*g ,<,=ggggggg",
"gggggggggg qqqqq2@gg ,,$gggggggg",
"gggggggggg qqqq,&ggg ,#ggggggggg",
"gggggggggg qqqq,+gggg gggggggggg",
"gggggggggg qqq6,+ggggggggggggggg",
"gggggggggg qqq3,+ggggggggggggggg",
"gggggggggg qqq3,+ggggggggggggggg",
"gggggggggg qqq9,+ggggggggggggggg",
"gggggggggg qqqq,+ggggggggggggggg",
"gggggggggg qqqqq%ggggggggggggggg",
"ggggggg    qqqqqr   gggggggggggg",
"gggggg 5000qqqqquw0 gggggggggggg",
"ggggggg wiiqqqqqui ggggggggggggg",
"gggggggg wiqqqqqu gggggggggggggg",
"ggggggggg wqqqqq* gggggggggggggg",
"gggggggggg eqqqq*,Oggggggggggggg",
"gggggggggg >qiiiy,; gggggggggggg",
"gggggggggg 7qiii-O..gggggggggggg",
"gggggggggg 0fffa-o.ggggggggggggg",
"gggggggggg 0f4fs-ggggggggggggggg",
"gggggggggg 0afdpXggggggggggggggg",
"ggggggggggg tapi ggggggggggggggg",
"gggggggggggg tii ggggggggggggggg",
"ggggggggggggg wi ggggggggggggggg",
"gggggggggggggg w ggggggggggggggg",
"ggggggggggggggg gggggggggggggggg",
"gggggggggggggggggggggggggggggggg"
};
