/* XPM */
static char *player_right_2[] = {
/* columns rows colors chars-per-pixel */
"32 32 87 1 ",
"  c gray20",
". c #353534",
"X c #353535",
"o c #353635",
"O c #373737",
"+ c #383938",
"@ c #3A3A3A",
"# c #3C3B3B",
"$ c #3C3C3C",
"% c gray24",
"& c #3E3E3E",
"* c #3E3F3E",
"= c gray25",
"- c #414040",
"; c #414141",
": c #424140",
"> c #434141",
", c gray26",
"< c #434343",
"1 c #434444",
"2 c #484747",
"3 c #484848",
"4 c gray29",
"5 c gray31",
"6 c #555352",
"7 c #5C5A5A",
"8 c #5E5C5B",
"9 c #5D5C5C",
"0 c #5C5C5D",
"q c #5C5D5D",
"w c #5F5E5D",
"e c #5F5F5F",
"r c #615F5F",
"t c #62605F",
"y c #606161",
"u c #626262",
"i c #626263",
"p c #646363",
"a c #666565",
"s c gray40",
"d c #686868",
"f c #696868",
"g c DimGray",
"h c #6D6C6C",
"j c #6F6F6F",
"k c #767676",
"l c #807F7F",
"z c #868686",
"x c #8A8989",
"c c #8B8989",
"v c #8C8B8B",
"b c #8D8B8C",
"n c #8D8C8C",
"m c #939292",
"M c #969595",
"N c #969695",
"B c gray60",
"V c #9A9A9A",
"C c #9C9D9D",
"Z c #9E9F9E",
"A c #9F9F9F",
"S c #A3A1A0",
"D c gray66",
"F c #A9A9A9",
"G c #AAA8A8",
"H c #ABACAB",
"J c #ACACAB",
"K c #AFAFAF",
"L c #B0AFAF",
"P c #B1B1B0",
"I c #B2B2B1",
"U c #B2B2B2",
"Y c #B7B6B6",
"T c #B8B7B7",
"R c #BCBCBC",
"E c #C6C7C6",
"W c #CAC9CA",
"Q c gray80",
"! c #D4D5D4",
"~ c #D9D7D7",
"^ c #DADADB",
"/ c #E6E6E7",
"( c #EAEAEA",
") c gray96",
"_ c #F8F8F8",
"` c #FBFBFB",
"' c None",
/* pixels */
"''''''''''''''''''''''''''''''''",
"''''''''''''''''''''''''''''''''",
"''''''''''''''''''''''''''''''''",
"''''''''''''''''''''''''''''''''",
"''''''''''''''''''''''''''''''''",
"''''''''''''''''''''''''''''''''",
"''''''''''''''' ''''''''''''''''",
"''''''''''''''#- '''''''''''''''",
"''''''''''''''OS- ''''''''''''''",
"'  '''''''''''OQS- '''''''''''''",
"'@5 '''       ;KQS>6      ''''''",
"'*35$  +llllhhkVHHn2=@:::- '''''",
"''.p,&2fBBBBBBBBBBBVFzT(/Y- ''''",
"''<agmRCBBBBBBBBBBBBATW`~/Y- '''",
"''<sdjDPBBBBBBBBBBBBDQ^_G)QS- ''",
"''&u47r9BBBBBBBBBBBBDQ!_)QQQS- '",
"'&,q   oxNNNNxvZZbwcMEIUJtttt7 '",
"'%0 '''       OQL8-$eg        ''",
"'  '''''''''''OL7 '&yi '''''''''",
"''''''''''''''X7 '''o1 '''''''''",
"''''''''''''''  ''''' ''''''''''",
"''''''''''''''''''''''''''''''''",
"''''''''''''''''''''''''''''''''",
"''''''''''''''''''''''''''''''''",
"''''''''''''''''''''''''''''''''",
"''''''''''''''''''''''''''''''''",
"''''''''''''''''''''''''''''''''",
"''''''''''''''''''''''''''''''''",
"''''''''''''''''''''''''''''''''",
"''''''''''''''''''''''''''''''''",
"''''''''''''''''''''''''''''''''",
"''''''''''''''''''''''''''''''''"
};
