/* XPM */
static char *player_left_2[] = {
/* columns rows colors chars-per-pixel */
"32 32 91 1 ",
"  c gray20",
". c #343433",
"X c #353535",
"o c gray22",
"O c #393938",
"+ c #3A3A3A",
"@ c #3B3B3A",
"# c #3C3B3B",
"$ c #3C3C3B",
"% c #3C3D3C",
"& c #3D3D3C",
"* c gray24",
"= c #3E3E3E",
"- c #403F3E",
"; c gray25",
": c #414040",
"> c #434444",
", c #474646",
"< c #484746",
"1 c #484747",
"2 c #484848",
"3 c #4A4949",
"4 c #4F4E4F",
"5 c gray32",
"6 c #535353",
"7 c #555252",
"8 c #565453",
"9 c #565656",
"0 c #585756",
"q c #59595A",
"w c #5D5D5E",
"e c gray37",
"r c #5E5F5F",
"t c #615F5F",
"y c #62605F",
"u c #626262",
"i c gray39",
"p c #656565",
"a c #676767",
"s c #686766",
"d c #6A6969",
"f c gray42",
"g c #6C6969",
"h c #6D6C6C",
"j c #6D6D6D",
"k c #6F6E6F",
"l c #737170",
"z c #7E7D7D",
"x c #807F7F",
"c c #828182",
"v c gray53",
"b c #8A8989",
"n c #8B8989",
"m c #8D8C8C",
"M c #8F8D8D",
"N c #908E8D",
"B c #929191",
"V c #929292",
"C c gray58",
"Z c #969695",
"A c gray59",
"S c gray60",
"D c #9A9A9A",
"F c #9E9F9E",
"G c gray63",
"H c #A7A7A7",
"J c #ACABAB",
"K c #AEAAAA",
"L c #AFAFAE",
"P c #B2B2B1",
"I c #B2B2B2",
"U c #B4B4B3",
"Y c #B5B4B4",
"T c #B7B8B8",
"R c #C3C3C3",
"E c gray77",
"W c #C5C5C5",
"Q c #CACACA",
"! c gray80",
"~ c #D2D2D1",
"^ c #D4D5D4",
"/ c #DEDDDD",
"( c #E1E1E1",
") c #E2E0E0",
"_ c #EAEBEB",
"` c gray95",
"' c gray96",
"] c #F8F8F8",
"[ c #FCFBFB",
"{ c #FDFDFD",
"} c None",
/* pixels */
"}}}}}}}}}}}}}}}}}}}}}}}}}}}}}}}}",
"}}}}}}}}}}}}}}}}}}}}}}}}}}}}}}}}",
"}}}}}}}}}}}}}}}}}}}}}}}}}}}}}}}}",
"}}}}}}}}}}}}}}}}}}}}}}}}}}}}}}}}",
"}}}}}}}}}}}}}}}}}}}}}}}}}}}}}}}}",
"}}}}}}}}}}}}}}}}}}}}}}}}}}}}}}}}",
"}}}}}}}}}}}}}}}} }}}}}}}}}}}}}}}",
"}}}}}}}}}}}}}}}$: }}}}}}}}}}}}}}",
"}}}}}}}}}}}}}}#,M }}}}}}}}}}}}}}",
"}}}}}}}}}}}}}$,!M }}}}}}}}}}}  }",
"}}}}}}     &7,!WV        }}}%4 }",
"}}}}}#:::-@33JJHAhhhcxxj   %62 }",
"}}}}#7~_(GmHSSSSSSSSSSSS;1&2i }}",
"}}}#7~/)[TUSSSSSSSSSSSSSGLvap }}",
"}}#,!^`K{!QSSSSSSSSSSSSSEBfap }}",
"}#,!!!^]'!QSSSSSSSSSSSSb0s95u }}",
"}oyyyylPIYRbztFFDnmZZZCd   =r+ }",
"}}       *kq.<g!N        }}}=w }",
"}}}}}}}}}=pe }OgM }}}}}}}}}}}  }",
"}}}}}}}}}X> }}}o8 }}}}}}}}}}}}}}",
"}}}}}}}}}} }}}}}  }}}}}}}}}}}}}}",
"}}}}}}}}}}}}}}}}}}}}}}}}}}}}}}}}",
"}}}}}}}}}}}}}}}}}}}}}}}}}}}}}}}}",
"}}}}}}}}}}}}}}}}}}}}}}}}}}}}}}}}",
"}}}}}}}}}}}}}}}}}}}}}}}}}}}}}}}}",
"}}}}}}}}}}}}}}}}}}}}}}}}}}}}}}}}",
"}}}}}}}}}}}}}}}}}}}}}}}}}}}}}}}}",
"}}}}}}}}}}}}}}}}}}}}}}}}}}}}}}}}",
"}}}}}}}}}}}}}}}}}}}}}}}}}}}}}}}}",
"}}}}}}}}}}}}}}}}}}}}}}}}}}}}}}}}",
"}}}}}}}}}}}}}}}}}}}}}}}}}}}}}}}}",
"}}}}}}}}}}}}}}}}}}}}}}}}}}}}}}}}"
};
