/* XPM */
static char *player_down_3[] = {
/* columns rows colors chars-per-pixel */
"32 32 95 2 ",
"   c gray20",
".  c #343534",
"X  c gray21",
"o  c #373837",
"O  c gray22",
"+  c #393938",
"@  c #3A3B3B",
"#  c #3C3B3B",
"$  c #3C3C3B",
"%  c #3C3D3C",
"&  c #3E3D3D",
"*  c #3E3E3E",
"=  c #414040",
"-  c #404140",
";  c #424140",
":  c #474646",
">  c gray28",
",  c #4C4C4C",
"<  c #4F4D4C",
"1  c gray31",
"2  c #504F4F",
"3  c #515151",
"4  c #5C5959",
"5  c #5C5A5A",
"6  c #5D5D5E",
"7  c gray37",
"8  c #62605F",
"9  c #5F5F60",
"0  c #5F6060",
"q  c #606060",
"w  c gray38",
"e  c #626262",
"r  c #636262",
"t  c #646363",
"y  c #656464",
"u  c #676666",
"i  c #676767",
"p  c #686868",
"a  c #696868",
"s  c DimGray",
"d  c #6A6A69",
"f  c #6C6969",
"g  c #6C6C6B",
"h  c #6D6C6C",
"j  c #6F6E6E",
"k  c #706F70",
"l  c #737171",
"z  c #747474",
"x  c gray47",
"c  c #7B7878",
"v  c #7B7C7C",
"b  c #7E7E7E",
"n  c #807F80",
"m  c #848383",
"M  c #858383",
"N  c #858484",
"B  c #888686",
"V  c #8A8989",
"C  c #8D8C8C",
"Z  c #8E8D8D",
"A  c #8F8D8D",
"S  c #908E8D",
"D  c gray57",
"F  c #939292",
"G  c #949493",
"H  c #959495",
"J  c gray59",
"K  c #979797",
"L  c gray60",
"P  c #9A9A9A",
"I  c #9C9B9B",
"U  c #9B9B9C",
"Y  c gray61",
"T  c gray62",
"R  c #9E9F9E",
"E  c #A3A1A0",
"W  c #AEAAAA",
"Q  c #ABACAB",
"!  c #B6B5B5",
"~  c gray76",
"^  c #C6C6C6",
"/  c #CACACA",
"(  c gray80",
")  c #D2D2D1",
"_  c #D4D5D4",
"`  c #E1DFE0",
"'  c #E6E6E7",
"]  c #E9E8E8",
"[  c #EAEAEA",
"{  c gray92",
"}  c gray95",
"|  c #F8F8F8",
" . c gray99",
".. c #FDFDFE",
"X. c None",
/* pixels */
"X.X.X.X.X.X.X.X.X.X.X.X.X.X.X.X.X.X.X.X.X.X.X.X.X.X.X.X.X.X.X.X.",
"X.X.X.X.X.X.X.X.X.X.X.              X.X.X.X.X.X.X.X.X.X.X.X.X.X.",
"X.X.X.X.X.X.X.X.X.    N G G G Z F =   X.X.X.X.X.X.X.X.X.X.X.X.X.",
"X.X.X.X.X.X.X.    N G K L L L L P I =   X.X.X.X.X.X.X.X.X.X.X.X.",
"X.X.X.X.X.X.  n G K L j e C L L L P I =   X.X.X.X.X.X.X.X.X.X.X.",
"X.X.X.X.X.X.X.: y s d 3 o : 2 r L L P I =   X.X.X.X.X.X.X.X.X.X.",
"X.X.X.X.X.X.X.X.* w i 1   X.  > D L L P J u   X.X.X.X.X.X.X.X.X.",
"X.X.X.X.X.X.X.X.X.* q 1   X.X.% t v L L L h   X.X.X.X.X.X.X.X.X.",
"X.X.X.X.X.X.X.X.X.X.* % X.X.X.  q x L L L a   X.X.X.X.X.X.X.X.X.",
"X.X.X.X.X.X.X.X.X.X.X.X.X.X.X.  7 p v L L g   X.X.X.X.X.X.X.X.X.",
"X.X.X.X.X.X.X.X.X.X.X.X.X.X.X.  7 i x L L h   X.X.X.X.X.X.X.X.X.",
"X.X.X.X.X.X.X.X.X.X.X.X.X.X.X.  9 i x L L h   X.X.X.X.X.X.X.X.X.",
"X.X.X.X.X.X.X.X.X.X.X.X.X.X.X.  q z D L L h   X.X.X.X.X.X.X.X.X.",
"X.X.X.X.X.X.X.X.X.X.X.X.X.X.X.  q x L L L h   X.X.X.X.X.X.X.X.X.",
"X.X.X.X.X.X.X.X.X.X.X.X.X.X.X.  b D L L L h   X.X.X.X.X.X.X.X.X.",
"X.X.X.X.X.X.X.X.X.X.X.X.        V L L L L U =       X.X.X.X.X.X.",
"X.X.X.X.X.X.X.X.X.X.X.  5 S S A P L L L L Q E S &   X.X.X.X.X.X.",
"X.X.X.X.X.X.X.X.X.X.X.X.O f ( ( R L L L L Q ( : $ X.X.X.X.X.X.X.",
"X.X.X.X.X.X.X.X.X.X.X.X.X.+ f ( R L L L L Q : # X.X.X.X.X.X.X.X.",
"X.X.X.X.X.X.X.X.X.X.X.X.X.X.O f R L L L L k .   X.X.X.X.X.X.X.X.",
"X.X.X.X.X.X.X.X.X.X.X.X.X.X.X.O l T L L L h 6 1   X.X.X.X.X.X.X.",
"X.X.X.X.X.X.X.X.X.X.X.X.X.X.X.  , H ~ / / ! 0 0 +   X.X.X.X.X.X.",
"X.X.X.X.X.X.X.X.X.X.X.X.X.X.X.  4 Y ^ ( ( B - @ X X.X.X.X.X.X.X.",
"X.X.X.X.X.X.X.X.X.X.X.X.X.X.X.  8 }  ...' M O X.X.X.X.X.X.X.X.X.",
"X.X.X.X.X.X.X.X.X.X.X.X.X.X.X.  8 | W ` [ m   X.X.X.X.X.X.X.X.X.",
"X.X.X.X.X.X.X.X.X.X.X.X.X.X.X.  8 _ { ] ) <   X.X.X.X.X.X.X.X.X.",
"X.X.X.X.X.X.X.X.X.X.X.X.X.X.X.X.+ c _ ) ( =   X.X.X.X.X.X.X.X.X.",
"X.X.X.X.X.X.X.X.X.X.X.X.X.X.X.X.X.+ c ( ( =   X.X.X.X.X.X.X.X.X.",
"X.X.X.X.X.X.X.X.X.X.X.X.X.X.X.X.X.X.+ f ( =   X.X.X.X.X.X.X.X.X.",
"X.X.X.X.X.X.X.X.X.X.X.X.X.X.X.X.X.X.X.+ f ;   X.X.X.X.X.X.X.X.X.",
"X.X.X.X.X.X.X.X.X.X.X.X.X.X.X.X.X.X.X.X.+ $ X.X.X.X.X.X.X.X.X.X.",
"X.X.X.X.X.X.X.X.X.X.X.X.X.X.X.X.X.X.X.X.X.X.X.X.X.X.X.X.X.X.X.X."
};
