/* XPM */
static char *player_left_1[] = {
/* columns rows colors chars-per-pixel */
"32 32 100 2 ",
"   c gray20",
".  c #353534",
"X  c #353535",
"o  c #363635",
"O  c #373837",
"+  c gray22",
"@  c #393938",
"#  c #3B3B3A",
"$  c #3C3B3B",
"%  c #3C3C3B",
"&  c #3E3E3D",
"*  c #3F3E3E",
"=  c #3E3F3E",
"-  c #403F3E",
";  c #414040",
":  c #444444",
">  c #474646",
",  c #4E4E4E",
"<  c #4F4F4E",
"1  c #4F4E4F",
"2  c gray31",
"3  c #504F4F",
"4  c #515151",
"5  c #555252",
"6  c #565453",
"7  c #5C5A5A",
"8  c gray37",
"9  c #5E5F5F",
"0  c #62605F",
"q  c #606060",
"w  c #606161",
"e  c #626262",
"r  c #636262",
"t  c gray39",
"y  c #646363",
"u  c #656464",
"i  c #666565",
"p  c #676666",
"a  c #676767",
"s  c #686868",
"d  c #696868",
"f  c #6A6A69",
"g  c gray42",
"h  c #6C6969",
"j  c #6C6C6B",
"k  c #6D6C6C",
"l  c #6F6E6E",
"z  c #737170",
"x  c #747474",
"c  c gray47",
"v  c #7B7C7C",
"b  c #858484",
"n  c #878686",
"m  c #8A8989",
"M  c #8C8B8B",
"N  c #8D8C8B",
"B  c #8D8B8C",
"V  c #8D8C8C",
"C  c #8F8D8D",
"Z  c #908E8D",
"A  c gray57",
"S  c #929292",
"D  c #939292",
"F  c #949393",
"G  c #949493",
"H  c #959595",
"J  c #969695",
"K  c gray59",
"L  c #979797",
"P  c #989898",
"I  c gray60",
"U  c #9A9A9A",
"Y  c #9C9B9B",
"T  c #9B9B9C",
"R  c #9E9F9E",
"E  c gray63",
"W  c #A7A7A7",
"Q  c #ACABAB",
"!  c #AEAAAA",
"~  c #B0AFAF",
"^  c #B2B2B1",
"/  c #B2B2B2",
"(  c #B4B4B3",
")  c #B5B4B4",
"_  c #B7B8B8",
"`  c #C3C3C3",
"'  c #CACACA",
"]  c gray80",
"[  c #D2D2D1",
"{  c #D4D5D4",
"}  c #DEDDDD",
"|  c #E1E1E1",
" . c #E2E0E0",
".. c #EAEBEB",
"X. c gray95",
"o. c gray96",
"O. c #F8F8F8",
"+. c #FCFBFB",
"@. c #FDFDFD",
"#. c None",
/* pixels */
"#.#.#.#.#.#.#.#.#.#.#.#.#.#.#.#.#.#.#.#.#.#.#.#.#.#.#.#.#.#.#.#.",
"#.#.#.#.#.#.#.#.#.#.#.#.#.#.#.#.#.#.#.#.#.#.#.#.#.#.#.#.#.#.#.#.",
"#.#.#.#.#.#.#.#.#.#.#.#.#.#.#.#.#.#.#.#.#.#.#.#.#.#.#.#.#.#.#.#.",
"#.#.#.#.#.#.#.#.#.#.#.#.#.#.#.#.#.#.#.#.#.#.#.#.#.#.#.#.#.#.#.#.",
"#.#.#.#.#.#.#.#.#.#.#.#.#.#.#.#.#.#.#.#.#.#.#.#.#.#.#.#.#.#.#.#.",
"#.#.#.#.#.#.#.#.#.#.#.#.#.#.#.#.#.#.#.#.#.#.#.#.#.#.#.#.#.#.#.#.",
"#.#.#.#.#.#.#.#.#.#.#.#.#.#.#.  #.#.#.#.#.#.#.#.#.#.#.#.#.#.#.#.",
"#.#.#.#.#.#.#.#.#.#.#.#.#.#.% ;   #.#.#.#.#.#.#.#.#.#.#.#.#.#.#.",
"#.#.#.#.#.#.#.#.#.#.#.#.#.$ > C   #.#.#.#.#.#.#.#.#.#.#.#.#.#.#.",
"#.#.#.#.#.#.#.#.#.#.#.#.% > ] C   #.#.#.#.#.#.#.#.#.#.#.#.#.#.#.",
"#.#.#.#.#.#.          % > ] ] Z                     #.#.#.#.#.#.",
"#.#.#.#.#.$ ; ; ; - # 3 Q Q Q T k k k k j d d d k p   #.#.#.#.#.",
"#.#.#.#.$ 5 [ ..| E V W I I I I I I I I I I I I I K ;   #.#.#.#.",
"#.#.#.$ 5 [ }  .+._ ( I I I I I I I I I I I I I I U Y ;   #.#.#.",
"#.#.$ > ] { X.! @.] ' I I I I I I I I P S S F I I I U Y ;   #.#.",
"#.$ > ] ] ] { O.o.] ' I I I I I I H c x a a g c v I I U Y ;   #.",
"#.+ 0 0 0 0 z ^ / ) ` m N R R R U n q q q q q q y A I I U D   #.",
"#.#.            . & r 1 o h ] ~ 7               = t B L I G   #.",
"#.#.#.#.#.#.#.#.#.* e 8   @ h C   #.#.#.#.#.#.#.#.  < J I G   #.",
"#.#.#.#.#.#.#.#.#.X :   #.#.+ 6   #.#.#.#.#.#.#.#.#.> M I G   #.",
"#.#.#.#.#.#.#.#.#.#.  #.#.#.#.    #.#.#.#.#.#.#.    O e I G   #.",
"#.#.#.#.#.#.#.#.#.#.#.#.#.#.#.#.#.#.#.#.#.#.#.  2 , 4 l L b   #.",
"#.#.#.#.#.#.#.#.#.#.#.#.#.#.#.#.#.#.#.#.#.#.#.  9 i f I G   #.#.",
"#.#.#.#.#.#.#.#.#.#.#.#.#.#.#.#.#.#.#.#.#.#.#.#.= w s I b   #.#.",
"#.#.#.#.#.#.#.#.#.#.#.#.#.#.#.#.#.#.#.#.#.#.#.#.#.= u L   #.#.#.",
"#.#.#.#.#.#.#.#.#.#.#.#.#.#.#.#.#.#.#.#.#.#.#.#.#.#.> b   #.#.#.",
"#.#.#.#.#.#.#.#.#.#.#.#.#.#.#.#.#.#.#.#.#.#.#.#.#.#.#.  #.#.#.#.",
"#.#.#.#.#.#.#.#.#.#.#.#.#.#.#.#.#.#.#.#.#.#.#.#.#.#.#.#.#.#.#.#.",
"#.#.#.#.#.#.#.#.#.#.#.#.#.#.#.#.#.#.#.#.#.#.#.#.#.#.#.#.#.#.#.#.",
"#.#.#.#.#.#.#.#.#.#.#.#.#.#.#.#.#.#.#.#.#.#.#.#.#.#.#.#.#.#.#.#.",
"#.#.#.#.#.#.#.#.#.#.#.#.#.#.#.#.#.#.#.#.#.#.#.#.#.#.#.#.#.#.#.#.",
"#.#.#.#.#.#.#.#.#.#.#.#.#.#.#.#.#.#.#.#.#.#.#.#.#.#.#.#.#.#.#.#."
};
