/* XPM */
static char *player_up_2[] = {
/* columns rows colors chars-per-pixel */
"32 32 44 1 ",
"  c gray20",
". c gray21",
"X c #373737",
"o c gray22",
"O c #383938",
"+ c #393939",
"@ c #3C3D3C",
"# c #3F403F",
"$ c gray26",
"% c #4C4C4C",
"& c gray30",
"* c #4E4D4D",
"= c gray31",
"- c gray35",
"; c #5B5A5A",
": c #5F5E5D",
"> c gray39",
", c #676767",
"< c #747475",
"1 c #7A7878",
"2 c #7B7878",
"3 c #7B7A7B",
"4 c #7C7A79",
"5 c #91908F",
"6 c #929191",
"7 c #939191",
"8 c gray60",
"9 c #9B9999",
"0 c gray61",
"q c #A5A5A5",
"w c #A6A5A4",
"e c #A8A7A7",
"r c #B4B4B4",
"t c #BCBCBC",
"y c #BDBCBC",
"u c gray",
"i c gray75",
"p c #C2C1C1",
"a c gray80",
"s c #D7D8D7",
"d c gray85",
"f c #D9DADA",
"g c white",
"h c None",
/* pixels */
"hhhhhhhhhhhhhhhhhhhhhhhhhhhhhhhh",
"hhhhhhhhhhhhhhhhhh hhhhhhhhhhhhh",
"hhhhhhhhhhhhhhhhh 4 hhhhhhhhhhhh",
"hhhhhhhhhhhhhhhh 97 hhhhhhhhhhhh",
"hhhhhhhhhhhhhhh 9a7 hhhhhhhhhhhh",
"hhhhhhhhhhhhhh waa7 hhhhhhhhhhhh",
"hhhhhhhhhhhhh wsga7 hhhhhhhhhhhh",
"hhhhhhhhhhhhh sg2ga hhhhhhhhhhhh",
"hhhhhhhhhhhhh fggga hhhhhhhhhhhh",
"hhhhhhhhhhhhh pydsa   hhhhhhhhhh",
"hhhhhhhhhhhhh <eaaa1,= hhhhhhhhh",
"hhhhhhhhhhhhh t0eeq%, hhhhhhhhhh",
"hhhhhhhhhhhhh 88888o#hhhhhhhhhhh",
"hhhhhhhhhhhh 588883 hhhhhhhhhhhh",
"hhhhhhhhhhh 9t888864 hhhhhhhhhhh",
"hhhhhhhhhh 9at88888i4 hhhhhhhhhh",
"hhhhhhhhh 9au888888ai4 hhhhhhhhh",
"hhhhhhhhhh  O:88888    hhhhhhhhh",
"hhhhhhhhhhhhh&88888 hhhhhhhhhhhh",
"hhhhhhhhhhhhh*88888 hhhhhhhhhhhh",
"hhhhhhhhhhhhh;88888 hhhhhhhhhhhh",
"hhhhhhhhhhhhh:88888 hhhhhhhhhhhh",
"hhhhhhhhhhhh :88888 hhhhhhhhhhhh",
"hhhhhhhhhhhh :88888 hhhhhhhhhhhh",
"hhhhhhhhhhhhh :8r3  hhhhhhhhhhhh",
"hhhhhhhhhhhhhhXuq7 hhhhhhhhhhhhh",
"hhhhhhhhhhhhhh 8,3 hhhhhhhhhhhhh",
"hhhhhhhhhhhhh+#,,, hhhhhhhhhhhhh",
"hhhhhhhhhhhhh#,,,>,#hhhhhhhhhhhh",
"hhhhhhhhhhhh#- $$@#, hhhhhhhhhhh",
"hhhhhhhhhhhh.#hhhhh# hhhhhhhhhhh",
"hhhhhhhhhhhhhhhhhhhhhhhhhhhhhhhh"
};
