/* XPM */
static char *player_down_2[] = {
/* columns rows colors chars-per-pixel */
"32 32 47 1 ",
"  c gray20",
". c #373737",
"X c gray22",
"o c #3A3A39",
"O c #3F403F",
"+ c gray26",
"@ c #484949",
"# c #494949",
"$ c gray30",
"% c #4E4D4D",
"& c gray31",
"* c #50504F",
"= c #545251",
"- c gray35",
"; c #5F5E5D",
": c gray39",
"> c #676767",
", c #777473",
"< c gray46",
"1 c #767576",
"2 c #7B7A7B",
"3 c #7C7879",
"4 c #7D7C7C",
"5 c #7F7D7D",
"6 c #848383",
"7 c #8B8B8B",
"8 c #929191",
"9 c #939191",
"0 c #949292",
"q c gray60",
"w c #9B9999",
"e c #A09E9D",
"r c #A5A5A5",
"t c #A7A7A7",
"y c #A8A7A7",
"u c #B2B2B2",
"i c #BAB9B9",
"p c #BCBCBC",
"a c #C8C9C9",
"s c gray80",
"d c #CECECF",
"f c gray83",
"g c #D7D8D7",
"h c #D8D8D9",
"j c gray85",
"k c white",
"l c None",
/* pixels */
"llllllllllllllllllllllllllllllll",
"llllllllllll  lllll  lllllllllll",
"llllllllllllO-     > lllllllllll",
"lllllllllllll@>>>:>#llllllllllll",
"llllllllllllll+>>>Olllllllllllll",
"llllllllllllll 7>< lllllllllllll",
"llllllllllllll.i78 lllllllllllll",
"lllllllllllll  qs4  llllllllllll",
"lllllllllllll*qqq81 llllllllllll",
"llllllllllll ;qqqqq llllllllllll",
"llllllllllll ;qqqqq llllllllllll",
"lllllllllllll;qqqqq llllllllllll",
"lllllllllllll%qqqqq llllllllllll",
"lllllllllllll$qqqqq llllllllllll",
"llllllllll   %qqqqq    lllllllll",
"lllllllll 990qqqqqq99, lllllllll",
"llllllllll sauqqqqqsw llllllllll",
"lllllllllll spqqqqqw lllllllllll",
"llllllllllll pqqqq2 llllllllllll",
"llllllllllll= qqqq8  lllllllllll",
"lllllllllllll.uqqqq@> llllllllll",
"lllllllllllll 6rsss5>& lllllllll",
"lllllllllllll tysssXO llllllllll",
"lllllllllllll fkkks  lllllllllll",
"lllllllllllll jk3ks llllllllllll",
"lllllllllllll dhkge llllllllllll",
"llllllllllllllodgs9 llllllllllll",
"llllllllllllllloss9 llllllllllll",
"llllllllllllllll s9 llllllllllll",
"lllllllllllllllll 9 llllllllllll",
"llllllllllllllllll lllllllllllll",
"llllllllllllllllllllllllllllllll"
};
