/* XPM */
static char *wall[] = {
/* columns rows colors chars-per-pixel */
"32 32 15 1 ",
"  c #2F1210",
". c #3C1110",
"X c #630C0D",
"o c #7B1719",
"O c #5B201D",
"+ c #5B281E",
"@ c #7C2419",
"# c #743126",
"$ c #744127",
"% c #CE3234",
"& c #CE4333",
"* c #CF5C34",
"= c #CF6733",
"- c #CF7533",
"; c #CC9A33",
/* pixels */
"              O%XX.             ",
"              .XXX.             ",
" #=%XXX       .XXX.    =&oXXXX. ",
" O%%XXX                %%oXXXX. ",
" .XXXXX                XXXXXXX. ",
" .XXXXX                XXXXXXX. ",
" .XXXXX                XXXXXXX. ",
"                       XXXXX%%O ",
"                       XXXXX%=# ",
"                                ",
"      $;=XXXXX                  ",
"      +==XXXXX                  ",
"      .XXXXXXX                  ",
"      .XXXXXXX                  ",
"      .XXXXXXX      ;-@XX.      ",
"      .XXXX@==      ==@XX.      ",
"      .XXXX@-;      XXXXX.      ",
"                    XXXXX.      ",
"                    XXXXX.      ",
"                                ",
"                                ",
" $;;=*%XXXX                     ",
" $;;=*%XXXX                     ",
" +===*%XXXX      =&oXX.         ",
" +===*%XXXX      %%oXX.         ",
" O%%%%%XXXX      XXXXX.         ",
" .XXXXXXXXX      XXXXX.         ",
" .XXXXXXXXX      XXXXX.         ",
" .XXXXXXo%%                     ",
" .XXXXXXo&=                  %oX",
"                             XXX",
"                             XXX"
};
