/* XPM */
static char *exit[] = {
/* columns rows colors chars-per-pixel */
"64 64 27 1 ",
"  c #991B1E",
". c #AD2120",
"X c #AD2D2C",
"o c #CC3627",
"O c #D53726",
"+ c #EE3923",
"@ c #D54326",
"# c #CF6733",
"$ c #F26622",
"% c #E96735",
"& c #F26634",
"* c #F2663A",
"= c #CF6741",
"- c #CF675B",
"; c #E9675B",
": c #F26658",
"> c #CE6667",
", c #F16667",
"< c #ED8C37",
"1 c #F68D39",
"2 c #F79639",
"3 c #F89939",
"4 c #FAA639",
"5 c #FEC036",
"6 c #FFCD32",
"7 c #ED8C4A",
"8 c None",
/* pixels */
"8888888888888888333366663333888888883333666633338888888888888888",
"8888888888888888333366663333888888883333666633338888888888888888",
"8888888888888888333366663333888888883333666633338888888888888888",
"8888888888888888333366663333888888883333666633338888888888888888",
"8888888888886666333344443333333333333333444433336666888888888888",
"8888888888886666333333333333333333333333333333336666888888888888",
"8888888888886666333333333333333333333333333333336666888888888888",
"8888888888886666333333333333333333333333333333336666888888888888",
"88888888333333333333****3333333333333333****33333333333388888888",
"88888888333333333333****3333333333333333****33333333333388888888",
"88888888333333333333****3333333333333333****33333333333388888888",
"88888888333333333333****3333333333333333****33333333333388888888",
"888888886666333333331111333333****333333111133333333666688888888",
"888888886666333333333333333333****333333333333333333666688888888",
"888888886666333333333333333333****333333333333333333666688888888",
"888888886666333333333333333333****333333333333333333666688888888",
"8888333333333333333333333333331111333333333333333333333333338888",
"8888333333333333333333333333333333333333333333333333333333338888",
"8888333333333333333333333333333333333333333333333333333333338888",
"8888333333333333333333333333333333333333333333333333333333338888",
"888855553333****3333####>>>>####>>>>####>>>>3333****333366668888",
"888866663333****3333####>>>>####>>>>####>>>>3333****333366668888",
"888866663333****3333####>>>>####>>>>####>>>>3333****333366668888",
"888866663333****3333####>>>>####>>>>####>>>>3333****333366668888",
"88883333333311113333>>>>%%%%;;;;%%%%;;;;####33331111333333338888",
"88883333333333333333>>>>$$$$,,,,$$$$,,,,####33333333333333338888",
"88883333333333333333>>>>$$$$,,,,$$$$,,,,####33333333333333338888",
"88883333333333333333>>>>$$$$,,,,$$$$,,,,####33333333333333338888",
"88888888333333333333####,,,,XXXX@@@@&&&&>>>>33333333333388888888",
"88888888333333333333####,,,,    oooo$$$$>>>>33333333333388888888",
"888888883333****3333####,,,,  ++++oo$$$$>>>>3333****333388888888",
"888888883333****3333####,,,,  ++++oo$$$$>>>>3333****333388888888",
"888888883333****3333----$$$$oo++++  ::::====3333****333388888888",
"888888883333****3333>>>>$$$$oo++++  ,,,,####3333****333388888888",
"88888888333311113333>>>>$$$$ooOO..  ,,,,####33331111333388888888",
"88888888333333333333>>>>$$$$oooo    ,,,,####33333333333388888888",
"88883333333333333333====,,,,$$$$,,,,&&&&----33333333333333338888",
"88883333333333333333####,,,,$$$$,,,,$$$$>>>>33333333333333338888",
"88883333333333333333####,,,,$$$$,,,,$$$$>>>>33333333333333338888",
"88883333333333333333####,,,,$$$$,,,,$$$$>>>>33333333333333338888",
"888866663333****3333----####>>>>####>>>>====3333****333366668888",
"888866663333****3333>>>>####>>>>####>>>>####3333****333366668888",
"888866663333****3333>>>>####>>>>####>>>>####3333****333366668888",
"888866663333****3333>>>>####>>>>####>>>>####3333****333366668888",
"888844443333111133337777<<<<7777<<<<7777<<<<33332222333344448888",
"8888333333333333333333333333333333333333333333333333333333338888",
"8888333333333333333333333333333333333333333333333333333333338888",
"8888333333333333333333333333333333333333333333333333333333338888",
"888888885555333333333333333333****333333333333333333555588888888",
"888888886666333333333333333333****333333333333333333666688888888",
"888888886666333333333333333333****333333333333333333666688888888",
"888888886666333333333333333333****333333333333333333666688888888",
"88888888333333333333****3333331111333333****33333333444488888888",
"88888888333333333333****3333333333333333****33333333333388888888",
"88888888333333333333****3333333333333333****33333333333388888888",
"88888888333333333333****3333333333333333****33333333333388888888",
"8888888888885555333311113333333333333333111133335555888888888888",
"8888888888886666333333333333333333333333333333336666888888888888",
"8888888888886666333333333333333333333333333333336666888888888888",
"8888888888886666333333333333333333333333333333336666888888888888",
"8888888888888888333366663333888888883333666633338888888888888888",
"8888888888888888333366663333888888883333666633338888888888888888",
"8888888888888888333366663333888888883333666633338888888888888888",
"8888888888888888333366663333888888883333666633338888888888888888"
};
