/* XPM */
static char *fish[] = {
/* columns rows colors chars-per-pixel */
"64 64 183 2 ",
"   c gray20",
".  c #3A3633",
"X  c #3F3834",
"o  c #413E37",
"O  c #453D37",
"+  c #4C3E36",
"@  c #4E3E36",
"#  c #483F38",
"$  c #444038",
"%  c #464139",
"&  c #474239",
"*  c #4F483C",
"=  c #514036",
"-  c #544136",
";  c #5A4336",
":  c #5D4436",
">  c #54463B",
",  c #55463B",
"<  c #56463B",
"1  c #554C3D",
"2  c #58483B",
"3  c #584F3D",
"4  c #604537",
"5  c #6C4A36",
"6  c #664F3E",
"7  c #63533E",
"8  c #63563E",
"9  c #64573F",
"0  c #6F543F",
"q  c #77583F",
"w  c #565453",
"e  c #7B5A40",
"r  c #6F6041",
"t  c #786742",
"y  c #7D6A43",
"u  c #805135",
"i  c #815135",
"p  c #825234",
"a  c #9B5C33",
"s  c #AB5F2F",
"d  c #AD5F2F",
"f  c #A05B31",
"g  c #9C6338",
"h  c #9C673C",
"j  c #B0602F",
"k  c #B2602E",
"l  c #A36D38",
"z  c #BD6B31",
"x  c #C2662B",
"c  c #C6662A",
"v  c #CA6729",
"b  c #CD6828",
"n  c #CE6929",
"m  c #D7742C",
"M  c #DC7A2D",
"N  c #DC7A2E",
"B  c #DB7C2F",
"V  c #DE7C2F",
"C  c #DF7D2F",
"Z  c #C16A30",
"A  c #C26C30",
"S  c #C17D3F",
"D  c #E07E2F",
"F  c #845F40",
"G  c #886140",
"H  c #916541",
"J  c #926641",
"K  c #936741",
"L  c #9C6B41",
"P  c #887244",
"I  c #917945",
"U  c #937A45",
"Y  c #947B45",
"T  c #896A52",
"R  c #9C7453",
"E  c #A87141",
"W  c #A17F44",
"Q  c #B87941",
"!  c #BB7A40",
"~  c #887970",
"^  c #C9823F",
"/  c #CB833F",
"(  c #CE853F",
")  c #CF853F",
"_  c #D2853E",
"`  c #D2863F",
"'  c #D4873F",
"]  c #D6883E",
"[  c #D7893E",
"{  c #DE8C3D",
"}  c #DF8D3D",
"|  c #E28030",
" . c #ED943B",
".. c #E19B3D",
"X. c #F19136",
"o. c #F39337",
"O. c #F29639",
"+. c #F0953A",
"@. c #F49739",
"#. c #F89939",
"$. c #F89A39",
"%. c #F89A3B",
"&. c #F89C39",
"*. c #F99E39",
"=. c #F89B3D",
"-. c #F89B3E",
";. c #CFA03D",
":. c #E1A83D",
">. c #FAA439",
",. c #FAA639",
"<. c #F5AB39",
"1. c #F4AB3A",
"2. c #FCAF38",
"3. c #FDB737",
"4. c #FABF37",
"5. c #F1BD38",
"6. c #FEC035",
"7. c #FEC036",
"8. c #FEC534",
"9. c #FEC634",
"0. c #FEC734",
"q. c #FECA33",
"w. c #FFCC32",
"e. c #FFCD32",
"r. c #FBC935",
"t. c #FEC834",
"y. c #FCCB35",
"u. c #F3C338",
"i. c #F3C438",
"p. c #F8C038",
"a. c #9D8245",
"s. c #AB8944",
"d. c #B18D44",
"f. c #B19145",
"g. c #BB9944",
"h. c #B08553",
"j. c #C4A042",
"k. c #C7A242",
"l. c #D0A841",
"z. c #D6AD40",
"x. c #D7AD40",
"c. c #F9A14A",
"v. c #F9A24C",
"b. c #F9A34F",
"n. c #F9A54C",
"m. c #F9A654",
"M. c #F9A756",
"N. c #FAAA5C",
"B. c #DE9D61",
"V. c #FAAC60",
"C. c #FBB069",
"Z. c #FBB470",
"A. c #FBB471",
"S. c #FBB672",
"D. c #F8B575",
"F. c #FFCF4D",
"G. c #FFD357",
"H. c #9B8C81",
"J. c #908C8B",
"K. c #AEA197",
"L. c #FCBE81",
"P. c #FCC083",
"I. c #FCC287",
"U. c #FCC288",
"Y. c #FDC791",
"T. c #FDCD9E",
"R. c #FDD0A2",
"E. c #FDD0A3",
"W. c #FDD1A3",
"Q. c #FDD2A7",
"!. c #F9D3B1",
"~. c #FEDAB5",
"^. c #FEDAB8",
"/. c #FEDCBA",
"(. c #D4D1D2",
"). c #E1DAD4",
"_. c #FFE2C5",
"`. c #F7E5D5",
"'. c #FEEBD5",
"]. c #F7EADB",
"[. c #FEEFDD",
"{. c white",
"}. c None",
/* pixels */
"}.}.}.}.}.}.}.}.}.}.}.}.}.}.}.}.}.}.}.}.}.}.}.}.}.}.}.}.}.}.}.}.}.}.}.}.}.}.}.}.}.}.}.}.}.}.}.}.}.}.}.}.}.}.}.}.}.}.}.}.}.}.}.}.",
"}.}.}.}.}.}.}.}.}.}.}.}.}.}.}.}.}.}.}.}.}.}.}.}.}.}.}.}.}.}.}.}.}.}.}.}.}.}.}.}.}.}.}.}.}.}.}.}.}.}.}.}.}.}.}.}.}.}.}.}.}.}.}.}.",
"}.}.}.}.}.}.}.}.}.}.}.}.}.}.}.}.}.}.}.}.}.}.}.}.}.}.}.}.}.}.}.}.}.}.}.}.}.}.}.}.}.}.}.}.}.}.}.}.}.}.}.}.}.}.}.}.}.}.}.}.}.}.}.}.",
"}.}.}.}.}.}.}.}.}.}.}.}.}.}.}.}.}.}.}.}.}.}.}.}.}.}.}.}.}.}.}.}.}.}.}.}.}.}.}.}.}.}.}.}.}.}.}.}.}.}.}.}.}.}.}.}.}.}.}.}.}.}.}.}.",
"}.}.}.}.}.}.}.}.}.}.}.}.}.}.}.}.}.}.}.}.}.}.}.}.}.}.}.}.}.}.}.}.}.}.}.}.}.}.}.}.}.}.}.}.}.}.}.}.}.}.}.}.}.}.}.}.}.}.}.}.}.}.}.}.",
"}.}.}.}.}.}.}.}.}.}.}.}.}.}.}.}.}.}.}.}.}.}.}.}.}.}.}.}.}.}.}.}.}.}.}.}.}.}.}.}.}.}.}.}.}.}.}.}.}.}.}.}.}.}.}.}.}.}.}.}.}.}.}.}.",
"}.}.}.}.}.}.}.}.}.}.}.}.}.}.}.}.}.}.}.}.}.}.}.}.}.}.}.}.}.}.}.}.}.}.}.}.}.}.}.}.}.}.}.}.}.}.}.}.}.}.}.}.}.}.}.}.}.}.}.}.}.}.}.}.",
"}.}.}.}.}.}.}.}.}.}.}.}.}.}.}.}.}.}.}.}.}.}.}.}.}.}.}.}.}.}.}.}.}.}.}.}.}.}.}.}.}.}.}.}.}.}.}.}.}.}.}.}.}.}.}.}.}.}.}.}.}.}.}.}.",
"}.}.}.}.}.}.}.}.}.}.}.}.}.}.}.}.}.}.}.}.}.}.}.}.}.}.}.}.}.}.}.}.}.}.}.}.}.}.}.}.}.}.}.}.}.}.}.}.}.}.}.}.}.}.}.}.}.}.}.}.}.}.}.}.",
"}.}.}.}.}.}.}.}.}.}.}.}.}.}.}.}.}.}.}.}.}.}.}.}.}.}.}.}.}.}.}.}.}.}.}.}.}.}.}.}.}.}.}.}.}.}.}.}.}.}.}.}.}.}.}.}.}.}.}.}.}.}.}.}.",
"}.}.}.}.}.}.}.}.}.}.}.}.}.}.}.}.}.}.}.}.}.}.}.}.}.}.}.}.}.}.}.}.}.}.}.}.}.}.}.}.}.}.}.}.}.}.}.}.}.}.}.}.}.}.}.}.}.}.}.}.}.}.}.}.",
"}.}.}.}.}.}.}.}.}.}.}.}.}.}.}.}.}.}.}.}.}.}.}.}.}.}.}.}.}.}.    }.}.}.}.}.}.}.}.}.}.}.}.}.}.}.}.}.}.}.}.}.}.}.}.}.}.}.}.}.}.}.}.",
"}.}.}.}.}.}.}.}.}.}.}.}.}.}.}.}.}.}.}.}.}.}.}.}.}.}.}.}.}.}.    }.}.}.}.}.}.}.}.}.}.}.}.}.}.}.}.}.}.}.}.}.}.}.}.}.}.}.}.}.}.}.}.",
"}.}.}.}.}.}.}.}.}.}.}.}.}.}.}.}.}.}.}.}.}.}.}.}.}.}.}.}.  * U I     }.}.}.}.}.}.}.}.}.}.}.}.}.}.}.}.}.}.}.}.}.}.}.}.}.}.}.}.}.}.",
"}.}.}.}.}.}.}.}.}.}.}.}.}.}.}.}.}.}.}.}.}.}.}.}.}.}.}.}.  3 e.e.    }.}.}.}.}.}.}.}.}.}.}.}.}.}.}.}.}.}.}.}.}.}.}.}.}.}.}.}.}.}.",
"}.}.}.}.    }.}.}.}.}.}.}.}.}.}.}.}.}.}.}.}.}.}.}.}.}.}.  7 2.<.U I     }.}.}.}.}.}.}.}.}.}.}.}.}.}.}.}.}.}.}.}.}.}.}.}.}.}.}.}.",
"}.}.}.}.    }.}.}.}.}.}.}.}.}.}.}.}.}.}.}.}.}.}.}.}.}.}.  2 #.#.e.e.    }.}.}.}.}.}.}.}.}.}.}.}.}.}.}.}.}.}.}.}.}.}.}.}.}.}.}.}.",
"}.}.  r j.k.    }.}.}.}.}.}.}.}.}.}.}.}.}.}.}.}.}.}.}.}.  > #.&.8.5.U I     }.}.}.}.}.}.}.}.}.}.}.}.}.}.}.}.}.}.}.}.}.}.}.}.}.}.",
"}.}.  t e.e.    }.}.}.}.}.}.}.}.}.}.}.}.}.}.}.}.}.}.}.}.    #.#.#.,.e.e.    }.}.}.}.}.}.}.}.}.}.}.}.}.}.}.}.}.}.}.}.}.}.}.}.}.}.",
"}.}.  y y.e.U U     }.}.}.}.}.}.}.}.}.}.              * U W #.#.#.*.2.<.U I     }.}.}.}.}.}.}.}.}.}.}.}.}.}.}.}.}.}.}.}.}.}.}.}.",
"}.}.  3 e.e.e.e.    }.}.}.}.}.}.}.}.}.}.              3 e.7.#.#.#.#.#.#.e.e.    }.}.}.}.}.}.}.}.}.}.}.}.}.}.}.}.}.}.}.}.}.}.}.}.",
"}.}.  8 u.w.8.9.U U     }.}.          * U a.U a.U a.U d.8.3.#.#.#.#.#.$.2.1.& $                                 }.}.}.}.}.}.}.}.",
"}.}.  3 e.e.#.,.e.e.    }.}.          3 e.e.e.e.e.e.e.7.#.#.#.#.#.#.#.#.#.#.e.g.                                }.}.}.}.}.}.}.}.",
"}.}.  9 i.q.#.*.8.9.U I       % P Y U f.e.e.e.e.e.e.e.4.` ! q 0 q G #.#.#.$.2...J T J.~ J J J R J.H.J L J L J H     }.}.}.}.}.}.",
"}.}.  3 e.7.#.#.#.,.e.e.      3 e.e.e.e.e.e.e.e.e.e.e.e.          2 #.#.#.#.#.#.#.C.{._.#.#.#.C.{._.#.#.#.#.#.#.    }.}.}.}.}.}.",
"}.}.  8 u.6.#.#.#.>.8.p.J L J h.G.F.8.0.e.e.e.e.e.r.x.z.U I & o   < #.#.#.#.#.m.E.E.I.Z.#.%.m.S.[.~.#.m.E.T.#.O.J H     }.}.}.}.",
"}.}.  3 e.7.#.#.#.#.#.#.#.#.#.C.{._.#.#.e.e.e.e.e.e.  3 e.e.e.g.  2 #.#.#.#.#.C.{._.#.#.#.#.{._.#.#.#.C.{.{.#.#.#.#.    }.}.}.}.",
"}.}.  1 l.:.#.#.#.#.#.#.#.#.#.V.[.^.m.n.8.t.e.r.x.;.p l 8.8.8.s.  < #.#.#.m.E.R.I.Z.#.m.E.W.[.~.#.-.m.D.(.).m.v.#.+.# O     }.}.",
"}.}.}.}.  2 #.#.#.#.#.#.#.#.#.#.#.#.{._.#.,.e.e.  - b m #.#.#.Q   2 #.#.#.C.{._.#.#.#.C.{.{.#.#.#.C.{.{.  w {._.#.#.#.Q     }.}.",
"}.}.  + i a V D #.#.#.#.#.#.#.-.m.M.[.~.#.>.8.p.J h k Z V C V g   < #.m.E.Q.[.~.#.b.m.S.[.'.#.#.#.V.[.].J.K.[.~.#.#.#.E     }.}.",
"}.}.  - b b b b #.#.#.#.#.#.#.C.{._.#.#.#.#.#.#.#.#.  - b b b f   2 #.C.{._.#.#.#.C.{._.#.#.#.#.#.#.#.C.{._.#.#.#.#.#.Q     }.}.",
"}.}.  : c b b n V N V B ` ] ` B.`.!.#.#.#.#.#.#.#.O.J h k j 5 ;   < #.c.I.P.m.v.#.V.[./.m.m.#.#.#.#.#.V.[.~.#.#.#.#.#.E     }.}.",
"}.}.  - b b b b b b b b       - b m #.#.#.#.#.#.#.#.#.#.          2 #.#.#.C.{._.#.#.#.C.{.{.#.#.#.#.#.#.#.#.#.#.#.#.#.Q     }.}.",
"}.}.  : c b b b b v k d       @ k A X.o.#.#.#.#.#.#.#.O.J F # O # 6 #.#.#.c.I.U.E.L.#.N.I.U.E.Y.#.#.#.#.#.#.#.#.#.#.#.(     }.}.",
"}.}.  - b b b b b b     }.}.      - b m #.#.#.#.#.#.#.#.#.#.#.#.#.#.#.#.#.#.#.C.{._.#.#.#.#.{._.#.#.#.#.#.#.#.#.#.#.#.#.    }.}.",
"}.}.  : c b b v k d     }.}.      = k Z V | #.#.#.#.#.#.#.#.#.#.#.#.#.#.#.#.#.N.I.I.E.L.#.=.I.U.E.Y.#.#.#.#.#.#.#.#.#. .    }.}.",
"}.}.  - b b b b     }.}.}.}.}.}.}.}.  - b m #.#.#.#.#.#.#.#.#.#.#.#.#.#.#.#.#.#.#.C.{._.#.#.#.C.{._.#.#.#.#.#.#.#.#.#.#.    }.}.",
"}.}.  : c v k d     }.}.}.}.}.}.}.}.  = k z ` ] ` [ ` [ ` _ V N V M V | #.#.#.#.#.N.I.Z.#.#.#.c.I.A.#.' q e #.@.` [ ` /     }.}.",
"}.}.  - b b     }.}.}.}.}.}.}.}.}.}.}.}.                    b b b b b m #.#.#.#.#.#.#.#.#.#.#.#.#.#.#.Q     #.#.        }.}.}.}.",
"}.}.  = d d     }.}.}.}.}.}.}.}.}.}.}.}.                  X b b b x k z ` { #.#.#.#.#.#.#.#.#.#.#.#.#.} J K ` ^         }.}.}.}.",
"}.}.}.}.    }.}.}.}.}.}.}.}.}.}.}.}.}.}.}.}.}.}.}.}.}.}.    b b b b       2 #.#.#.#.#.#.#.#.#.#.#.#.#.#.#.#.        }.}.}.}.}.}.",
"}.}.}.}.    }.}.}.}.}.}.}.}.}.}.}.}.}.}.}.}.}.}.}.}.}.}.  . 5 u b s       , ` [ ` S ` S ` ) ` [ ` [ ` [ ` ^         }.}.}.}.}.}.",
"}.}.}.}.}.}.}.}.}.}.}.}.}.}.}.}.}.}.}.}.}.}.}.}.}.}.}.}.}.}.    b f     }.}.                                    }.}.}.}.}.}.}.}.",
"}.}.}.}.}.}.}.}.}.}.}.}.}.}.}.}.}.}.}.}.}.}.}.}.}.}.}.}.}.}.  . 5 4     }.}.                                    }.}.}.}.}.}.}.}.",
"}.}.}.}.}.}.}.}.}.}.}.}.}.}.}.}.}.}.}.}.}.}.}.}.}.}.}.}.}.}.}.}.    }.}.}.}.}.}.}.}.}.}.}.}.}.}.}.}.}.}.}.}.}.}.}.}.}.}.}.}.}.}.",
"}.}.}.}.}.}.}.}.}.}.}.}.}.}.}.}.}.}.}.}.}.}.}.}.}.}.}.}.}.}.}.}.    }.}.}.}.}.}.}.}.}.}.}.}.}.}.}.}.}.}.}.}.}.}.}.}.}.}.}.}.}.}.",
"}.}.}.}.}.}.}.}.}.}.}.}.}.}.}.}.}.}.}.}.}.}.}.}.}.}.}.}.}.}.}.}.}.}.}.}.}.}.}.}.}.}.}.}.}.}.}.}.}.}.}.}.}.}.}.}.}.}.}.}.}.}.}.}.",
"}.}.}.}.}.}.}.}.}.}.}.}.}.}.}.}.}.}.}.}.}.}.}.}.}.}.}.}.}.}.}.}.}.}.}.}.}.}.}.}.}.}.}.}.}.}.}.}.}.}.}.}.}.}.}.}.}.}.}.}.}.}.}.}.",
"}.}.}.}.}.}.}.}.}.}.}.}.}.}.}.}.}.}.}.}.}.}.}.}.}.}.}.}.}.}.}.}.}.}.}.}.}.}.}.}.}.}.}.}.}.}.}.}.}.}.}.}.}.}.}.}.}.}.}.}.}.}.}.}.",
"}.}.}.}.}.}.}.}.}.}.}.}.}.}.}.}.}.}.}.}.}.}.}.}.}.}.}.}.}.}.}.}.}.}.}.}.}.}.}.}.}.}.}.}.}.}.}.}.}.}.}.}.}.}.}.}.}.}.}.}.}.}.}.}.",
"}.}.}.}.}.}.}.}.}.}.}.}.}.}.}.}.}.}.}.}.}.}.}.}.}.}.}.}.}.}.}.}.}.}.}.}.}.}.}.}.}.}.}.}.}.}.}.}.}.}.}.}.}.}.}.}.}.}.}.}.}.}.}.}.",
"}.}.}.}.}.}.}.}.}.}.}.}.}.}.}.}.}.}.}.}.}.}.}.}.}.}.}.}.}.}.}.}.}.}.}.}.}.}.}.}.}.}.}.}.}.}.}.}.}.}.}.}.}.}.}.}.}.}.}.}.}.}.}.}.",
"}.}.}.}.}.}.}.}.}.}.}.}.}.}.}.}.}.}.}.}.}.}.}.}.}.}.}.}.}.}.}.}.}.}.}.}.}.}.}.}.}.}.}.}.}.}.}.}.}.}.}.}.}.}.}.}.}.}.}.}.}.}.}.}.",
"}.}.}.}.}.}.}.}.}.}.}.}.}.}.}.}.}.}.}.}.}.}.}.}.}.}.}.}.}.}.}.}.}.}.}.}.}.}.}.}.}.}.}.}.}.}.}.}.}.}.}.}.}.}.}.}.}.}.}.}.}.}.}.}.",
"}.}.}.}.}.}.}.}.}.}.}.}.}.}.}.}.}.}.}.}.}.}.}.}.}.}.}.}.}.}.}.}.}.}.}.}.}.}.}.}.}.}.}.}.}.}.}.}.}.}.}.}.}.}.}.}.}.}.}.}.}.}.}.}.",
"}.}.}.}.}.}.}.}.}.}.}.}.}.}.}.}.}.}.}.}.}.}.}.}.}.}.}.}.}.}.}.}.}.}.}.}.}.}.}.}.}.}.}.}.}.}.}.}.}.}.}.}.}.}.}.}.}.}.}.}.}.}.}.}.",
"}.}.}.}.}.}.}.}.}.}.}.}.}.}.}.}.}.}.}.}.}.}.}.}.}.}.}.}.}.}.}.}.}.}.}.}.}.}.}.}.}.}.}.}.}.}.}.}.}.}.}.}.}.}.}.}.}.}.}.}.}.}.}.}.",
"}.}.}.}.}.}.}.}.}.}.}.}.}.}.}.}.}.}.}.}.}.}.}.}.}.}.}.}.}.}.}.}.}.}.}.}.}.}.}.}.}.}.}.}.}.}.}.}.}.}.}.}.}.}.}.}.}.}.}.}.}.}.}.}.",
"}.}.}.}.}.}.}.}.}.}.}.}.}.}.}.}.}.}.}.}.}.}.}.}.}.}.}.}.}.}.}.}.}.}.}.}.}.}.}.}.}.}.}.}.}.}.}.}.}.}.}.}.}.}.}.}.}.}.}.}.}.}.}.}.",
"}.}.}.}.}.}.}.}.}.}.}.}.}.}.}.}.}.}.}.}.}.}.}.}.}.}.}.}.}.}.}.}.}.}.}.}.}.}.}.}.}.}.}.}.}.}.}.}.}.}.}.}.}.}.}.}.}.}.}.}.}.}.}.}.",
"}.}.}.}.}.}.}.}.}.}.}.}.}.}.}.}.}.}.}.}.}.}.}.}.}.}.}.}.}.}.}.}.}.}.}.}.}.}.}.}.}.}.}.}.}.}.}.}.}.}.}.}.}.}.}.}.}.}.}.}.}.}.}.}.",
"}.}.}.}.}.}.}.}.}.}.}.}.}.}.}.}.}.}.}.}.}.}.}.}.}.}.}.}.}.}.}.}.}.}.}.}.}.}.}.}.}.}.}.}.}.}.}.}.}.}.}.}.}.}.}.}.}.}.}.}.}.}.}.}.",
"}.}.}.}.}.}.}.}.}.}.}.}.}.}.}.}.}.}.}.}.}.}.}.}.}.}.}.}.}.}.}.}.}.}.}.}.}.}.}.}.}.}.}.}.}.}.}.}.}.}.}.}.}.}.}.}.}.}.}.}.}.}.}.}.",
"}.}.}.}.}.}.}.}.}.}.}.}.}.}.}.}.}.}.}.}.}.}.}.}.}.}.}.}.}.}.}.}.}.}.}.}.}.}.}.}.}.}.}.}.}.}.}.}.}.}.}.}.}.}.}.}.}.}.}.}.}.}.}.}."
};
