/* XPM */
static char *_a1fd08b106f4041b9af841da9869ab2a7y2EIkFuMh2aTew[] = {
/* columns rows colors chars-per-pixel */
"64 64 19 1 ",
"  c None",
". c #040707",
"X c #91386F",
"o c #CB3394",
"O c #CD4298",
"+ c #D15EA4",
"@ c #D363A6",
"# c #D469A9",
"$ c #C87AA8",
"% c #DA7FB4",
"& c #A18B96",
"* c #DA83B7",
"= c #E39EC6",
"- c #DBBCCD",
"; c #E5A9CD",
": c #E6ABCE",
"> c #E8B2D2",
", c #EABAD6",
"< c #F1CEE2",
/* pixels */
"                                                                ",
"                                                                ",
"            <<<<<<<<<<<<<<<<<<<<<<<<<<<<<<<<<<<<<<<<            ",
"            <<<<<<<<<<<<<<<<<<<<<<<<<<<<<<<<<<<<<<<<            ",
"          <<@+oooooooooooooooooooooooooooooooooooo@%<<          ",
"          <<ooooooooooooooooooooooooooooooooooooooo@<<          ",
"        <<@@ooooooo@<<ooooooooooooooooooo@<<oooooooO@%<<        ",
"        <<ooooooooo@<<ooooooooooooooooooo@<<ooooooooo@<<        ",
"        <<oooooooooO@%<<ooooooooooooooo@<<@@ooooooooo@<<        ",
"        <<ooooooooooo@<<ooooooooooooooo@<<ooooooooooo@<<        ",
"        <<ooooooooooo#<<<<ooooooooooo@<<<<ooooooooooo@<<        ",
"        <<ooooooooooo@<<<<ooooooooooo@<<<<ooooooooooo@<<        ",
"        <<ooooooooooo#<&..<<ooooooo@<&..<<ooooooooooo@<<        ",
"        <<ooooooooooo@<&..<<ooooooo@<&..<<ooooooooooo@<<        ",
"        <<oooooooooooO@$&&<<ooooooo#<-&&@@ooooooooooo@<<        ",
"        <<ooooooooooooo@<<<<ooooooo@<<<<ooooooooooooo@<<        ",
"        <<oooooooooooooO@*<<ooooooo#<<@@ooooooooooooo@<<        ",
"        <<ooooooooooooooo@<<ooooooo@<<ooooooooooooooo@<<        ",
"        <<oooooooooooooooO@%<<ooo@<<@@ooooooooooooooo@<<        ",
"        <<ooooooooooooooooo@<<ooo@<<ooooooooooooooooo@<<        ",
"        <<oooooooooooooooooO@@oooO@@ooooooooooooooooo@<<        ",
"        <<ooooooooooooooooooooooooooooooooooooooooooo@<<        ",
"        <<oooooooooooooooooooX....ooooooooooooooooooo@<<        ",
"        <<oooooooooooooooooooX....ooooooooooooooooooo@<<        ",
"      <<@@ooooooooooooooooo@<<<<<<<<oooooooooooooooooO@*<<      ",
"      <<ooooooooooooooooooo@<<<<<<<<ooooooooooooooooooo@<<      ",
"    <<@@oooooooooooooooooooO@@@@@@@@oooooooooooooooooooO@%<<    ",
"    <<ooooooooooooooooooooooooooooooooooooooooooooooooooo@<<    ",
"  <<>>;;;;;;;;;;;;;;;;;;;;;;;;;;;;;;;;;;;;;;;;;;;;;;;;;;;;>,<<  ",
"  <<<<<<<<<<<<<<<<<<<<<<<<<<<<<<<<<<<<<<<<<<<<<<<<<<<<<<<<<<<<  ",
"          o@<<    o@<<   =<<oo    o@<<   =<<oo   =<<oo          ",
"          o@<<    o@<<    <<oo    o@<<    <<oo    <<oo          ",
"          <<@@    <<@@    @%<<    <<@@    @%<<    @%<<          ",
"          <<oo    <<oo    o@<<    <<oo    o@<<    o@<<          ",
"          @%<<    @%<<    <<@@    @%<<    <<@@    <<@@          ",
"          o@<<    o@<<    <<oo    o@<<    <<oo    <<oo          ",
"          <<@@    <<@@    @%<<    <<@@    @%<<    @%<<          ",
"          <<oo    <<oo    o@<<    <<oo    o@<<    o@<<          ",
"          @%<<    @%<<    <<@@    @%<<    <<@@    <<@@          ",
"          o@<<    o@<<    <<oo    o@<<    <<oo    <<oo          ",
"          <<@@    <<@@    @%<<    <<@@    @%<<    @%<<          ",
"          <<oo    <<oo    o@<<    <<oo    o@<<    o@<<          ",
"          @%<<    @%<<    <<@@    @%<<    <<@@    <<@@          ",
"          o@<<    o@<<    <<oo    o@<<    <<oo    <<oo          ",
"          <<@@    <<@@    @%<<    <<@@    @%<<    @%<<          ",
"          <<oo    <<oo    o@<<    <<oo    o@<<    o@<<          ",
"  o@<<o@<<@%<<    @%<<    <<@@    @%<<    <<@@    <<@%<<o@<<oo  ",
"  o@<<o@<<o@<<    o@<<    <<oo    o@<<    <<oo    <<o@<<o@<<oo  ",
"    @%<<@%<<@@    <<@@    @%<<    <<@@    @%<<    @%<<@%<<@@    ",
"    o@<<o@<<oo    <<oo    o@<<    <<oo    o@<<    o@<<o@<<oo    ",
"                  @%<<    <<@@    @%<<    <<@@                  ",
"                  o@<<    <<oo    o@<<    <<oo                  ",
"                  <<@@    @%<<    <<@@    @%<<                  ",
"                  <<oo    o@<<    <<oo    o@<<                  ",
"                  @%<<    <<@@    @%<<    <<@@                  ",
"                  o@<<    <<oo    o@<<    <<oo                  ",
"                o@<<@@    @%<<    <<@@    @%<<oo                ",
"                o@<<oo    o@<<    <<oo    o@<<oo                ",
"                          <<@@    @%<<                          ",
"                          <<oo    o@<<                          ",
"                          @@        @@                          ",
"                          oo        oo                          ",
"                                                                ",
"                                                                "
};
