/* XPM */
static char *player_down_2[] = {
/* columns rows colors chars-per-pixel */
"64 64 54 1 ",
"  c gray20",
". c #373737",
"X c gray22",
"o c #3A3A39",
"O c #3F403F",
"+ c gray26",
"@ c #484949",
"# c #494949",
"$ c gray30",
"% c #4E4D4D",
"& c gray31",
"* c #50504F",
"= c #545251",
"- c #565453",
"; c gray35",
": c #5B5A5A",
"> c #5F5E5D",
", c gray39",
"< c #676767",
"1 c #727272",
"2 c #777473",
"3 c gray46",
"4 c #767576",
"5 c #7B7A7B",
"6 c #7C7879",
"7 c #7C7B7B",
"8 c #7D7C7C",
"9 c #7F7D7D",
"0 c #848383",
"q c #8B8B8B",
"w c #929191",
"e c #939191",
"r c #949292",
"t c #999899",
"y c gray60",
"u c #9B9999",
"i c #A09E9D",
"p c #A5A5A5",
"a c #A7A7A7",
"s c #A8A7A7",
"d c #AEADAD",
"f c #B2B2B2",
"g c #BAB9B9",
"h c #BCBCBC",
"j c gray",
"k c #C8C9C9",
"l c gray80",
"z c #CECECF",
"x c gray83",
"c c #D7D8D7",
"v c #D8D8D9",
"b c gray85",
"n c white",
"m c None",
/* pixels */
"mmmmmmmmmmmmmmmmmmmmmmmmmmmmmmmmmmmmmmmmmmmmmmmmmmmmmmmmmmmmmmmm",
"mmmmmmmmmmmmmmmmmmmmmmmmmmmmmmmmmmmmmmmmmmmmmmmmmmmmmmmmmmmmmmmm",
"mmmmmmmmmmmmmmmmmmmmmmmm    mmmmmmmmmm    mmmmmmmmmmmmmmmmmmmmmm",
"mmmmmmmmmmmmmmmmmmmmmmmm    mmmmmmmmmm    mmmmmmmmmmmmmmmmmmmmmm",
"mmmmmmmmmmmmmmmmmmmmmmmm O<;          <<  mmmmmmmmmmmmmmmmmmmmmm",
"mmmmmmmmmmmmmmmmmmmmmmmm O<;          <<  mmmmmmmmmmmmmmmmmmmmmm",
"mmmmmmmmmmmmmmmmmmmmmmmmmmO@<<<<<<<,<<#Ommmmmmmmmmmmmmmmmmmmmmmm",
"mmmmmmmmmmmmmmmmmmmmmmmmmm O<<<<<<<<<<O mmmmmmmmmmmmmmmmmmmmmmmm",
"mmmmmmmmmmmmmmmmmmmmmmmmmmmmO+<<<<<<OOmmmmmmmmmmmmmmmmmmmmmmmmmm",
"mmmmmmmmmmmmmmmmmmmmmmmmmmmm  <<<<<<  mmmmmmmmmmmmmmmmmmmmmmmmmm",
"mmmmmmmmmmmmmmmmmmmmmmmmmmmm  qq<<q3  mmmmmmmmmmmmmmmmmmmmmmmmmm",
"mmmmmmmmmmmmmmmmmmmmmmmmmmmm  yy<<y5  mmmmmmmmmmmmmmmmmmmmmmmmmm",
"mmmmmmmmmmmmmmmmmmmmmmmmmmmm .jgqqjw  mmmmmmmmmmmmmmmmmmmmmmmmmm",
"mmmmmmmmmmmmmmmmmmmmmmmmmmmm  llyylu  mmmmmmmmmmmmmmmmmmmmmmmmmm",
"mmmmmmmmmmmmmmmmmmmmmmmmmm    yyllp8    mmmmmmmmmmmmmmmmmmmmmmmm",
"mmmmmmmmmmmmmmmmmmmmmmmmmm    yylly5    mmmmmmmmmmmmmmmmmmmmmmmm",
"mmmmmmmmmmmmmmmmmmmmmmmmmm *yyyyyyyw54  mmmmmmmmmmmmmmmmmmmmmmmm",
"mmmmmmmmmmmmmmmmmmmmmmmmmm :yyyyyyyyyy  mmmmmmmmmmmmmmmmmmmmmmmm",
"mmmmmmmmmmmmmmmmmmmmmmmmm  >yyyyyyyyyy  mmmmmmmmmmmmmmmmmmmmmmmm",
"mmmmmmmmmmmmmmmmmmmmmmmmmm :yyyyyyyyyy  mmmmmmmmmmmmmmmmmmmmmmmm",
"mmmmmmmmmmmmmmmmmmmmmmmmm  >yyyyyyyyyy  mmmmmmmmmmmmmmmmmmmmmmmm",
"mmmmmmmmmmmmmmmmmmmmmmmmmm :yyyyyyyyyy  mmmmmmmmmmmmmmmmmmmmmmmm",
"mmmmmmmmmmmmmmmmmmmmmmmmmm >yyyyyyyyyy  mmmmmmmmmmmmmmmmmmmmmmmm",
"mmmmmmmmmmmmmmmmmmmmmmmmmm :yyyyyyyyyy  mmmmmmmmmmmmmmmmmmmmmmmm",
"mmmmmmmmmmmmmmmmmmmmmmmmmm %yyyyyyyyyy  mmmmmmmmmmmmmmmmmmmmmmmm",
"mmmmmmmmmmmmmmmmmmmmmmmmmm #yyyyyyyyyy  mmmmmmmmmmmmmmmmmmmmmmmm",
"mmmmmmmmmmmmmmmmmmmmmmmmmm $yyyyyyyyyy  mmmmmmmmmmmmmmmmmmmmmmmm",
"mmmmmmmmmmmmmmmmmmmmmmmmmm #yyyyyyyyyy  mmmmmmmmmmmmmmmmmmmmmmmm",
"mmmmmmmmmmmmmmmmmmmm       %yyyyyyyyyy        mmmmmmmmmmmmmmmmmm",
"mmmmmmmmmmmmmmmmmmmm       #yyyyyyyyyy        mmmmmmmmmmmmmmmmmm",
"mmmmmmmmmmmmmmmmmm  ueueuryyyyyyyyyyyyueueu2  mmmmmmmmmmmmmmmmmm",
"mmmmmmmmmmmmmmmmmm  llllljyyyyyyyyyyyylllllu  mmmmmmmmmmmmmmmmmm",
"mmmmmmmmmmmmmmmmmmmm  lllkjfyyyyyyyyyylllu  mmmmmmmmmmmmmmmmmmmm",
"mmmmmmmmmmmmmmmmmmmm  llllljyyyyyyyyyylllu  mmmmmmmmmmmmmmmmmmmm",
"mmmmmmmmmmmmmmmmmmmmmm  lllhyyyyyyyyyylu  mmmmmmmmmmmmmmmmmmmmmm",
"mmmmmmmmmmmmmmmmmmmmmm  llljyyyyyyyyyylu  mmmmmmmmmmmmmmmmmmmmmm",
"mmmmmmmmmmmmmmmmmmmmmmmm  lhyyyyyyyyy5  mmmmmmmmmmmmmmmmmmmmmmmm",
"mmmmmmmmmmmmmmmmmmmmmmmm  ljyyyyyyyyy5  mmmmmmmmmmmmmmmmmmmmmmmm",
"mmmmmmmmmmmmmmmmmmmmmmmmm=  yyyyyyyyyw    mmmmmmmmmmmmmmmmmmmmmm",
"mmmmmmmmmmmmmmmmmmmmmmmmmm  yyyyyyyyyy    mmmmmmmmmmmmmmmmmmmmmm",
"mmmmmmmmmmmmmmmmmmmmmmmmmm .jfyyyyyyyy @<<  mmmmmmmmmmmmmmmmmmmm",
"mmmmmmmmmmmmmmmmmmmmmmmmmm  ljyyyyyyyy #<<  mmmmmmmmmmmmmmmmmmmm",
"mmmmmmmmmmmmmmmmmmmmmmmmmm  70ypllllllu9<<;&  mmmmmmmmmmmmmmmmmm",
"mmmmmmmmmmmmmmmmmmmmmmmmmm  <1yplllllllt<<<;  mmmmmmmmmmmmmmmmmm",
"mmmmmmmmmmmmmmmmmmmmmmmmmm  daysllllll XOO  mmmmmmmmmmmmmmmmmmmm",
"mmmmmmmmmmmmmmmmmmmmmmmmmm  ljypllllll      mmmmmmmmmmmmmmmmmmmm",
"mmmmmmmmmmmmmmmmmmmmmmmmmm  lxnnnnnnll  m mmmmmmmmmmmmmmmmmmmmmm",
"mmmmmmmmmmmmmmmmmmmmmmmmmm  lcnnnnnnll  mmmmmmmmmmmmmmmmmmmmmmmm",
"mmmmmmmmmmmmmmmmmmmmmmmmmm  lbnn-6nnll  mmmmmmmmmmmmmmmmmmmmmmmm",
"mmmmmmmmmmmmmmmmmmmmmmmmmm  lcnn -nnll  mmmmmmmmmmmmmmmmmmmmmmmm",
"mmmmmmmmmmmmmmmmmmmmmmmmmm  lzcvnnccli  mmmmmmmmmmmmmmmmmmmmmmmm",
"mmmmmmmmmmmmmmmmmmmmmmmmmm  lllcnnlllu  mmmmmmmmmmmmmmmmmmmmmmmm",
"mmmmmmmmmmmmmmmmmmmmmmmmmmmm olzccllle  mmmmmmmmmmmmmmmmmmmmmmmm",
"mmmmmmmmmmmmmmmmmmmmmmmmmmmm  lllllllu  mmmmmmmmmmmmmmmmmmmmmmmm",
"mmmmmmmmmmmmmmmmmmmmmmmmmmmmmm ollllle  mmmmmmmmmmmmmmmmmmmmmmmm",
"mmmmmmmmmmmmmmmmmmmmmmmmmmmmmm  lllllu  mmmmmmmmmmmmmmmmmmmmmmmm",
"mmmmmmmmmmmmmmmmmmmmmmmmmmmmmmmm  llle  mmmmmmmmmmmmmmmmmmmmmmmm",
"mmmmmmmmmmmmmmmmmmmmmmmmmmmmmmmm  lllu  mmmmmmmmmmmmmmmmmmmmmmmm",
"mmmmmmmmmmmmmmmmmmmmmmmmmmmmmmmmmm  le  mmmmmmmmmmmmmmmmmmmmmmmm",
"mmmmmmmmmmmmmmmmmmmmmmmmmmmmmmmmmm  lu  mmmmmmmmmmmmmmmmmmmmmmmm",
"mmmmmmmmmmmmmmmmmmmmmmmmmmmmmmmmmmmm  mmmmmmmmmmmmmmmmmmmmmmmmmm",
"mmmmmmmmmmmmmmmmmmmmmmmmmmmmmmmmmmmm  mmmmmmmmmmmmmmmmmmmmmmmmmm",
"mmmmmmmmmmmmmmmmmmmmmmmmmmmmmmmmmmmmmmmmmmmmmmmmmmmmmmmmmmmmmmmm",
"mmmmmmmmmmmmmmmmmmmmmmmmmmmmmmmmmmmmmmmmmmmmmmmmmmmmmmmmmmmmmmmm"
};
