/* XPM */
static char *player_left_2[] = {
/* columns rows colors chars-per-pixel */
"64 64 134 2 ",
"   c gray20",
".  c #373737",
"X  c #383837",
"o  c gray22",
"O  c #393938",
"+  c #3A3A3A",
"@  c gray23",
"#  c #3C3B3B",
"$  c #3C3C3B",
"%  c #3C3D3C",
"&  c #3E3D3D",
"*  c #3E3E3E",
"=  c #3E3F3E",
"-  c #403F3F",
";  c #3F403F",
":  c #414040",
">  c #414141",
",  c #424140",
"<  c #434242",
"1  c #474646",
"2  c #484746",
"3  c #484747",
"4  c #484848",
"5  c #484948",
"6  c #4A4848",
"7  c #4A4948",
"8  c #4A4949",
"9  c #4C4C4C",
"0  c #4F4D4C",
"q  c #4F4E4F",
"w  c gray31",
"e  c #4F5050",
"r  c #525151",
"t  c gray32",
"y  c #535353",
"u  c #555252",
"i  c #565453",
"p  c #565555",
"a  c gray35",
"s  c #5A5958",
"d  c #5B5959",
"f  c #5C5959",
"g  c #5C5A5A",
"h  c #5D5D5E",
"j  c #5E5F5F",
"k  c #605F5E",
"l  c #615F5F",
"z  c #62605F",
"x  c #636161",
"c  c #616162",
"v  c #626262",
"b  c #626263",
"n  c gray39",
"m  c #656565",
"M  c #676767",
"N  c #686666",
"B  c #686766",
"V  c #696867",
"C  c #686868",
"Z  c #696868",
"A  c DimGray",
"S  c #6C6969",
"D  c #6D6C6C",
"F  c #727272",
"G  c #747474",
"H  c #7B7878",
"J  c #7A7A7B",
"K  c #7B7A7B",
"L  c #7C7B7B",
"P  c #7E7B7B",
"I  c gray49",
"U  c #807F7F",
"Y  c #808080",
"T  c #828181",
"R  c #828182",
"E  c #838282",
"W  c #848383",
"Q  c #858383",
"!  c #858484",
"~  c #888686",
"^  c #888787",
"/  c #8A8989",
"(  c #8B8989",
")  c #8B8B8B",
"_  c #8F8D8D",
"`  c #908C8B",
"'  c #908E8D",
"]  c #919190",
"[  c #949393",
"{  c #949493",
"}  c #959495",
"|  c #959595",
" . c #979797",
".. c gray60",
"X. c #9B9999",
"o. c #9B9B9C",
"O. c gray61",
"+. c #9D9E9E",
"@. c gray62",
"#. c #9E9F9E",
"$. c #9F9F9F",
"%. c gray63",
"&. c #A5A5A5",
"*. c #AEAAAA",
"=. c #ABACAB",
"-. c #AEADAD",
";. c #ADAEAD",
":. c #ADAEAE",
">. c #B6B5B5",
",. c #B9B9B9",
"<. c gray",
"1. c #C1C0C1",
"2. c gray76",
"3. c #C5C5C5",
"4. c #C6C6C6",
"5. c #CACACA",
"6. c gray80",
"7. c #D2D2D1",
"8. c #D4D1D2",
"9. c #D4D5D4",
"0. c #D7D8D7",
"q. c #E1DFE0",
"w. c #E6E6E7",
"e. c gray91",
"r. c #E9E8E8",
"t. c #EAEAEA",
"y. c gray92",
"u. c gray95",
"i. c #F7F8F7",
"p. c #F8F8F8",
"a. c gray99",
"s. c #FDFDFE",
"d. c white",
"f. c None",
/* pixels */
"f.f.f.f.f.f.f.f.f.f.f.f.f.f.f.f.f.f.f.f.f.f.f.f.f.f.f.f.f.f.f.f.f.f.f.f.f.f.f.f.f.f.f.f.f.f.f.f.f.f.f.f.f.f.f.f.f.f.f.f.f.f.f.f.",
"f.f.f.f.f.f.f.f.f.f.f.f.f.f.f.f.f.f.f.f.f.f.f.f.f.f.f.f.f.f.f.f.f.f.f.f.f.f.f.f.f.f.f.f.f.f.f.f.f.f.f.f.f.f.f.f.f.f.f.f.f.f.f.f.",
"f.f.f.f.f.f.f.f.f.f.f.f.f.f.f.f.f.f.f.f.f.f.f.f.f.f.f.f.f.f.f.f.f.f.f.f.f.f.f.f.f.f.f.f.f.f.f.f.f.f.f.f.f.f.f.f.f.f.f.f.f.f.f.f.",
"f.f.f.f.f.f.f.f.f.f.f.f.f.f.f.f.f.f.f.f.f.f.f.f.f.f.f.f.f.f.f.f.f.f.f.f.f.f.f.f.f.f.f.f.f.f.f.f.f.f.f.f.f.f.f.f.f.f.f.f.f.f.f.f.",
"f.f.f.f.f.f.f.f.f.f.f.f.f.f.f.f.f.f.f.f.f.f.f.f.f.f.f.f.f.f.f.f.f.f.f.f.f.f.f.f.f.f.f.f.f.f.f.f.f.f.f.f.f.f.f.f.f.f.f.f.f.f.f.f.",
"f.f.f.f.f.f.f.f.f.f.f.f.f.f.f.f.f.f.f.f.f.f.f.f.f.f.f.f.f.f.f.f.f.f.f.f.f.f.f.f.f.f.f.f.f.f.f.f.f.f.f.f.f.f.f.f.f.f.f.f.f.f.f.f.",
"f.f.f.f.f.f.f.f.f.f.f.f.f.f.f.f.f.f.f.f.f.f.f.f.f.f.f.f.f.f.f.f.f.f.f.f.f.f.f.f.f.f.f.f.f.f.f.f.f.f.f.f.f.f.f.f.f.f.f.f.f.f.f.f.",
"f.f.f.f.f.f.f.f.f.f.f.f.f.f.f.f.f.f.f.f.f.f.f.f.f.f.f.f.f.f.f.f.f.f.f.f.f.f.f.f.f.f.f.f.f.f.f.f.f.f.f.f.f.f.f.f.f.f.f.f.f.f.f.f.",
"f.f.f.f.f.f.f.f.f.f.f.f.f.f.f.f.f.f.f.f.f.f.f.f.f.f.f.f.f.f.f.f.f.f.f.f.f.f.f.f.f.f.f.f.f.f.f.f.f.f.f.f.f.f.f.f.f.f.f.f.f.f.f.f.",
"f.f.f.f.f.f.f.f.f.f.f.f.f.f.f.f.f.f.f.f.f.f.f.f.f.f.f.f.f.f.f.f.f.f.f.f.f.f.f.f.f.f.f.f.f.f.f.f.f.f.f.f.f.f.f.f.f.f.f.f.f.f.f.f.",
"f.f.f.f.f.f.f.f.f.f.f.f.f.f.f.f.f.f.f.f.f.f.f.f.f.f.f.f.f.f.f.f.f.f.f.f.f.f.f.f.f.f.f.f.f.f.f.f.f.f.f.f.f.f.f.f.f.f.f.f.f.f.f.f.",
"f.f.f.f.f.f.f.f.f.f.f.f.f.f.f.f.f.f.f.f.f.f.f.f.f.f.f.f.f.f.f.f.f.f.f.f.f.f.f.f.f.f.f.f.f.f.f.f.f.f.f.f.f.f.f.f.f.f.f.f.f.f.f.f.",
"f.f.f.f.f.f.f.f.f.f.f.f.f.f.f.f.f.f.f.f.f.f.f.f.f.f.f.f.f.f.f.f.f.f.f.f.f.f.f.f.f.f.f.f.f.f.f.f.f.f.f.f.f.f.f.f.f.f.f.f.f.f.f.f.",
"f.f.f.f.f.f.f.f.f.f.f.f.f.f.f.f.f.f.f.f.f.f.f.f.f.f.f.f.f.f.f.f.    f.f.f.f.f.f.f.f.f.f.f.f.f.f.f.f.f.f.f.f.f.f.f.f.f.f.f.f.f.f.",
"f.f.f.f.f.f.f.f.f.f.f.f.f.f.f.f.f.f.f.f.f.f.f.f.f.f.f.f.f.f.f.f.    f.f.f.f.f.f.f.f.f.f.f.f.f.f.f.f.f.f.f.f.f.f.f.f.f.f.f.f.f.f.",
"f.f.f.f.f.f.f.f.f.f.f.f.f.f.f.f.f.f.f.f.f.f.f.f.f.f.f.f.f.f.  o N g     f.f.f.f.f.f.f.f.f.f.f.f.f.f.f.f.f.f.f.f.f.f.f.f.f.f.f.f.",
"f.f.f.f.f.f.f.f.f.f.f.f.f.f.f.f.f.f.f.f.f.f.f.f.f.f.f.f.f.f.    6.X.    f.f.f.f.f.f.f.f.f.f.f.f.f.f.f.f.f.f.f.f.f.f.f.f.f.f.f.f.",
"f.f.f.f.f.f.f.f.f.f.f.f.f.f.f.f.f.f.f.f.f.f.f.f.f.f.f.f.  O N S 6.'     f.f.f.f.f.f.f.f.f.f.f.f.f.f.f.f.f.f.f.f.f.f.f.f.f.f.f.f.",
"f.f.f.f.f.f.f.f.f.f.f.f.f.f.f.f.f.f.f.f.f.f.f.f.f.f.f.f.    6.6.6.X.    f.f.f.f.f.f.f.f.f.f.f.f.f.f.f.f.f.f.f.f.f.f.f.f.f.f.f.f.",
"f.f.f.f.f.f.f.f.f.f.f.f.f.f.f.f.f.f.f.f.f.f.f.f.f.f.  o N S 6.6.6.'     f.f.f.f.f.f.f.f.f.f.f.f.f.f.f.f.f.f.f.f.f.f.        f.f.",
"f.f.f.f.f.f.f.f.f.f.f.f.f.f.f.f.f.f.f.f.f.f.f.f.f.f.    6.6.6.6.6.X.    f.f.f.f.f.f.f.f.f.f.f.f.f.f.f.f.f.f.f.f.f.f.        f.f.",
"f.f.f.f.f.f.f.f.f.f.f.f.                      X 6 2 N S 6.6.6.1.$.[                                 f.f.f.f.f.f.  * j h     f.f.",
"f.f.f.f.f.f.f.f.f.f.f.f.                            6.6.6.6.6.<.....                                f.f.f.f.f.f.  ; M M     f.f.",
"f.f.f.f.f.f.f.f.f.f.  O N z N z N z N f 5 9 N V k l $.#.$.#.$.+... .^ / ^ ( ^ / | | [ { [ { [ !               * j j + +     f.f.",
"f.f.f.f.f.f.f.f.f.f.    6.6.6.6.6.6.6.-.M L 6.<.................................................              ; M M     f.f.f.f.",
"f.f.f.f.f.f.f.f.  O N H 6.9.i.p.i.u.$.O.] } $.@.................................................s g N B s r 5 t M v     f.f.f.f.",
"f.f.f.f.f.f.f.f.    6.6.6.0.d.d.d.d.................................................................6.<...) M M M M     f.f.f.f.",
"f.f.f.f.f.f.  O N H 6.9.i.y.` *.d.a.3.4.3.2.....................................................;.:.>.%.T I M M M m     f.f.f.f.",
"f.f.f.f.f.f.    6.6.6.0.d.d.  i d.d.6.6.6.6.....................................................6.6...) M M M M M M     f.f.f.f.",
"f.f.f.f.  O N S 6.6.6.7.e.r.8.q.d.s.6.6.6.5.....................................................>.,.;.@.J G M M M m     f.f.f.f.",
"f.f.f.f.    6.6.6.6.6.6.6.0.d.d.d.d.6.6.6.6.......................................................&.6.<...) M M M M     f.f.f.f.",
"f.f.  O N S 6.6.6.6.6.6.6.7.e.t.e.w.6.6.6.5...................................................R - * < 3 - > + 4 M n     f.f.f.f.",
"f.f.    6.6.6.6.6.6.6.6.6.6.6.6.6.6.6.6.6.6...................................................K               ; M M     f.f.f.f.",
"f.f.  $ < , < : < : < : < 0 P W P Q P ~ 6.>.Z D Z x 7 8 ;.=.;.=.;.o.Z D Z F Y E Y E Y E Y U Z p               % e y 5 4     f.f.",
"f.f.f.f.                                6.X.            6.6.6.6.6.X.                                f.f.f.f.f.f.  ; M M     f.f.",
"f.f.f.f.                              = A C m b     d u < 1 6.6.6._                                 f.f.f.f.f.f.  % e q     f.f.",
"f.f.f.f.f.f.f.f.f.f.f.f.f.f.f.f.f.f.  ; M M M M     f.f.    6.6.6.X.    f.f.f.f.f.f.f.f.f.f.f.f.f.f.f.f.f.f.f.f.f.f.        f.f.",
"f.f.f.f.f.f.f.f.f.f.f.f.f.f.f.f.f.f.  @ M c e w     f.f.  # < 1 6.'     f.f.f.f.f.f.f.f.f.f.f.f.f.f.f.f.f.f.f.f.f.f.        f.f.",
"f.f.f.f.f.f.f.f.f.f.f.f.f.f.f.f.f.f.    M a     f.f.f.f.f.f.    6.X.    f.f.f.f.f.f.f.f.f.f.f.f.f.f.f.f.f.f.f.f.f.f.f.f.f.f.f.f.",
"f.f.f.f.f.f.f.f.f.f.f.f.f.f.f.f.f.f.  . + O     f.f.f.f.f.f.  $ < &     f.f.f.f.f.f.f.f.f.f.f.f.f.f.f.f.f.f.f.f.f.f.f.f.f.f.f.f.",
"f.f.f.f.f.f.f.f.f.f.f.f.f.f.f.f.f.f.f.f.    f.f.f.f.f.f.f.f.f.f.        f.f.f.f.f.f.f.f.f.f.f.f.f.f.f.f.f.f.f.f.f.f.f.f.f.f.f.f.",
"f.f.f.f.f.f.f.f.f.f.f.f.f.f.f.f.f.f.f.f.    f.f.f.f.f.f.f.f.f.f.        f.f.f.f.f.f.f.f.f.f.f.f.f.f.f.f.f.f.f.f.f.f.f.f.f.f.f.f.",
"f.f.f.f.f.f.f.f.f.f.f.f.f.f.f.f.f.f.f.f.f.f.f.f.f.f.f.f.f.f.f.f.f.f.f.f.f.f.f.f.f.f.f.f.f.f.f.f.f.f.f.f.f.f.f.f.f.f.f.f.f.f.f.f.",
"f.f.f.f.f.f.f.f.f.f.f.f.f.f.f.f.f.f.f.f.f.f.f.f.f.f.f.f.f.f.f.f.f.f.f.f.f.f.f.f.f.f.f.f.f.f.f.f.f.f.f.f.f.f.f.f.f.f.f.f.f.f.f.f.",
"f.f.f.f.f.f.f.f.f.f.f.f.f.f.f.f.f.f.f.f.f.f.f.f.f.f.f.f.f.f.f.f.f.f.f.f.f.f.f.f.f.f.f.f.f.f.f.f.f.f.f.f.f.f.f.f.f.f.f.f.f.f.f.f.",
"f.f.f.f.f.f.f.f.f.f.f.f.f.f.f.f.f.f.f.f.f.f.f.f.f.f.f.f.f.f.f.f.f.f.f.f.f.f.f.f.f.f.f.f.f.f.f.f.f.f.f.f.f.f.f.f.f.f.f.f.f.f.f.f.",
"f.f.f.f.f.f.f.f.f.f.f.f.f.f.f.f.f.f.f.f.f.f.f.f.f.f.f.f.f.f.f.f.f.f.f.f.f.f.f.f.f.f.f.f.f.f.f.f.f.f.f.f.f.f.f.f.f.f.f.f.f.f.f.f.",
"f.f.f.f.f.f.f.f.f.f.f.f.f.f.f.f.f.f.f.f.f.f.f.f.f.f.f.f.f.f.f.f.f.f.f.f.f.f.f.f.f.f.f.f.f.f.f.f.f.f.f.f.f.f.f.f.f.f.f.f.f.f.f.f.",
"f.f.f.f.f.f.f.f.f.f.f.f.f.f.f.f.f.f.f.f.f.f.f.f.f.f.f.f.f.f.f.f.f.f.f.f.f.f.f.f.f.f.f.f.f.f.f.f.f.f.f.f.f.f.f.f.f.f.f.f.f.f.f.f.",
"f.f.f.f.f.f.f.f.f.f.f.f.f.f.f.f.f.f.f.f.f.f.f.f.f.f.f.f.f.f.f.f.f.f.f.f.f.f.f.f.f.f.f.f.f.f.f.f.f.f.f.f.f.f.f.f.f.f.f.f.f.f.f.f.",
"f.f.f.f.f.f.f.f.f.f.f.f.f.f.f.f.f.f.f.f.f.f.f.f.f.f.f.f.f.f.f.f.f.f.f.f.f.f.f.f.f.f.f.f.f.f.f.f.f.f.f.f.f.f.f.f.f.f.f.f.f.f.f.f.",
"f.f.f.f.f.f.f.f.f.f.f.f.f.f.f.f.f.f.f.f.f.f.f.f.f.f.f.f.f.f.f.f.f.f.f.f.f.f.f.f.f.f.f.f.f.f.f.f.f.f.f.f.f.f.f.f.f.f.f.f.f.f.f.f.",
"f.f.f.f.f.f.f.f.f.f.f.f.f.f.f.f.f.f.f.f.f.f.f.f.f.f.f.f.f.f.f.f.f.f.f.f.f.f.f.f.f.f.f.f.f.f.f.f.f.f.f.f.f.f.f.f.f.f.f.f.f.f.f.f.",
"f.f.f.f.f.f.f.f.f.f.f.f.f.f.f.f.f.f.f.f.f.f.f.f.f.f.f.f.f.f.f.f.f.f.f.f.f.f.f.f.f.f.f.f.f.f.f.f.f.f.f.f.f.f.f.f.f.f.f.f.f.f.f.f.",
"f.f.f.f.f.f.f.f.f.f.f.f.f.f.f.f.f.f.f.f.f.f.f.f.f.f.f.f.f.f.f.f.f.f.f.f.f.f.f.f.f.f.f.f.f.f.f.f.f.f.f.f.f.f.f.f.f.f.f.f.f.f.f.f.",
"f.f.f.f.f.f.f.f.f.f.f.f.f.f.f.f.f.f.f.f.f.f.f.f.f.f.f.f.f.f.f.f.f.f.f.f.f.f.f.f.f.f.f.f.f.f.f.f.f.f.f.f.f.f.f.f.f.f.f.f.f.f.f.f.",
"f.f.f.f.f.f.f.f.f.f.f.f.f.f.f.f.f.f.f.f.f.f.f.f.f.f.f.f.f.f.f.f.f.f.f.f.f.f.f.f.f.f.f.f.f.f.f.f.f.f.f.f.f.f.f.f.f.f.f.f.f.f.f.f.",
"f.f.f.f.f.f.f.f.f.f.f.f.f.f.f.f.f.f.f.f.f.f.f.f.f.f.f.f.f.f.f.f.f.f.f.f.f.f.f.f.f.f.f.f.f.f.f.f.f.f.f.f.f.f.f.f.f.f.f.f.f.f.f.f.",
"f.f.f.f.f.f.f.f.f.f.f.f.f.f.f.f.f.f.f.f.f.f.f.f.f.f.f.f.f.f.f.f.f.f.f.f.f.f.f.f.f.f.f.f.f.f.f.f.f.f.f.f.f.f.f.f.f.f.f.f.f.f.f.f.",
"f.f.f.f.f.f.f.f.f.f.f.f.f.f.f.f.f.f.f.f.f.f.f.f.f.f.f.f.f.f.f.f.f.f.f.f.f.f.f.f.f.f.f.f.f.f.f.f.f.f.f.f.f.f.f.f.f.f.f.f.f.f.f.f.",
"f.f.f.f.f.f.f.f.f.f.f.f.f.f.f.f.f.f.f.f.f.f.f.f.f.f.f.f.f.f.f.f.f.f.f.f.f.f.f.f.f.f.f.f.f.f.f.f.f.f.f.f.f.f.f.f.f.f.f.f.f.f.f.f.",
"f.f.f.f.f.f.f.f.f.f.f.f.f.f.f.f.f.f.f.f.f.f.f.f.f.f.f.f.f.f.f.f.f.f.f.f.f.f.f.f.f.f.f.f.f.f.f.f.f.f.f.f.f.f.f.f.f.f.f.f.f.f.f.f.",
"f.f.f.f.f.f.f.f.f.f.f.f.f.f.f.f.f.f.f.f.f.f.f.f.f.f.f.f.f.f.f.f.f.f.f.f.f.f.f.f.f.f.f.f.f.f.f.f.f.f.f.f.f.f.f.f.f.f.f.f.f.f.f.f.",
"f.f.f.f.f.f.f.f.f.f.f.f.f.f.f.f.f.f.f.f.f.f.f.f.f.f.f.f.f.f.f.f.f.f.f.f.f.f.f.f.f.f.f.f.f.f.f.f.f.f.f.f.f.f.f.f.f.f.f.f.f.f.f.f."
};
