/* XPM */
static char *player_up_3[] = {
/* columns rows colors chars-per-pixel */
"64 64 48 1 ",
"  c gray20",
". c gray21",
"X c #3F403F",
"o c gray26",
"O c #434443",
"+ c #494949",
"@ c #4B4B4B",
"# c gray30",
"$ c #4E4D4D",
"% c gray31",
"& c #545353",
"* c #565453",
"= c gray35",
"- c #5F5E5D",
"; c #676767",
": c #696968",
"> c #6A6A69",
", c #717171",
"< c #737171",
"1 c #727272",
"2 c #747475",
"3 c #777574",
"4 c #7B7878",
"5 c #7C7A79",
"6 c #8B8B8B",
"7 c #8C8A8A",
"8 c gray55",
"9 c #939191",
"0 c gray60",
"q c #9B9999",
"w c #9B9A99",
"e c #9C9A9A",
"r c gray61",
"t c #A5A5A5",
"y c #A6A5A4",
"u c #A8A7A7",
"i c #AFAEAF",
"p c #BCBCBC",
"a c #BDBCBC",
"s c gray",
"d c gray75",
"f c #C2C1C1",
"g c gray80",
"h c #D7D8D7",
"j c gray85",
"k c #D9DADA",
"l c white",
"z c None",
/* pixels */
"zzzzzzzzzzzzzzzzzzzzzzzzzzzzzzzzzzzzzzzzzzzzzzzzzzzzzzzzzzzzzzzz",
"zzzzzzzzzzzzzzzzzzzzzzzzzzzzzzzzzzzzzzzzzzzzzzzzzzzzzzzzzzzzzzzz",
"zzzzzzzzzzzzzzzzzzzzzzzzzzzzzzzzzzzzzzzzz  zzzzzzzzzzzzzzzzzzzzz",
"zzzzzzzzzzzzzzzzzzzzzzzzzzzzzzzzzzzzzzzzz  zzzzzzzzzzzzzzzzzzzzz",
"zzzzzzzzzzzzzzzzzzzzzzzzzzzzzzzzzzzzzzz  q5  zzzzzzzzzzzzzzzzzzz",
"zzzzzzzzzzzzzzzzzzzzzzzzzzzzzzzzzzzzzzz  gq  zzzzzzzzzzzzzzzzzzz",
"zzzzzzzzzzzzzzzzzzzzzzzzzzzzzzzzzzzzz  qqg9  zzzzzzzzzzzzzzzzzzz",
"zzzzzzzzzzzzzzzzzzzzzzzzzzzzzzzzzzzzz  gggq  zzzzzzzzzzzzzzzzzzz",
"zzzzzzzzzzzzzzzzzzzzzzzzzzzzzzzzzzz  qqggg9  zzzzzzzzzzzzzzzzzzz",
"zzzzzzzzzzzzzzzzzzzzzzzzzzzzzzzzzzz  gggggq  zzzzzzzzzzzzzzzzzzz",
"zzzzzzzzzzzzzzzzzzzzzzzzzzzzzzzzz  qyggggg9  zzzzzzzzzzzzzzzzzzz",
"zzzzzzzzzzzzzzzzzzzzzzzzzzzzzzzzz  gggggggq  zzzzzzzzzzzzzzzzzzz",
"zzzzzzzzzzzzzzzzzzzzzzzzzzzzzzz  qyghllggg9  zzzzzzzzzzzzzzzzzzz",
"zzzzzzzzzzzzzzzzzzzzzzzzzzzzzzz  ggghllgggq  zzzzzzzzzzzzzzzzzzz",
"zzzzzzzzzzzzzzzzzzzzzzzzzzzzzzz  ghll*4llgg  zzzzzzzzzzzzzzzzzzz",
"zzzzzzzzzzzzzzzzzzzzzzzzzzzzzzz  ghll *llgg  zzzzzzzzzzzzzzzzzzz",
"zzzzzzzzzzzzzzzzzzzzzzzzzzzzzzz  gkllllllgg  zzzzzzzzzzzzzzzzzzz",
"zzzzzzzzzzzzzzzzzzzzzzzzzzzzzzz  ghllllllgg  zzzzzzzzzzzzzzzzzzz",
"zzzzzzzzzzzzzzzzzzzzzzzzzzzzzzz  gfiahjhhgg      zzzzzzzzzzzzzzz",
"zzzzzzzzzzzzzzzzzzzzzzzzzzzzzzz  gs0tgggggg      zzzzzzzzzzzzzzz",
"zzzzzzzzzzzzzzzzzzzzzzzzzzzzzzz  ;20uggggggq<;;=%  zzzzzzzzzzzzz",
"zzzzzzzzzzzzzzzzzzzzzzzzzzzzzzz  ;10tggggggg7;;;=  zzzzzzzzzzzzz",
"zzzzzzzzzzzzzzzzzzzzzzzzzzzzzzz  gp0rtututt o;;  zzzzzzzzzzzzzzz",
"zzzzzzzzzzzzzzzzzzzzzzzzzzzzzzz  gs00000000 X;;  zzzzzzzzzzzzzzz",
"zzzzzzzzzzzzzzzzzzzzzzzzzzzzz  qw0000000000 .XXzzzzzzzzzzzzzzzzz",
"zzzzzzzzzzzzzzzzzzzzzzzzzzzzz  gs0000000000    zzzzzzzzzzzzzzzzz",
"zzzzzzzzzzzzzzzzzzzzzzzzzzz  qqgp0000000000q3  zzzzzzzzzzzzzzzzz",
"zzzzzzzzzzzzzzzzzzzzzzzzzzz  gggs0000000000gq  zzzzzzzzzzzzzzzzz",
"zzzzzzzzzzzzzzzzzzzzzzzzz  qqgggp0000000000gdq5  zzzzzzzzzzzzzzz",
"zzzzzzzzzzzzzzzzzzzzzzzzz  gggggs0000000000gggq  zzzzzzzzzzzzzzz",
"zzzzzzzzzzzzzzzzzzzzzzz  qqgggggp0000000000gggdq5  zzzzzzzzzzzzz",
"zzzzzzzzzzzzzzzzzzzzzzz  gggggggs0000000000gggggq  zzzzzzzzzzzzz",
"zzzzzzzzzzzzzzzzzzzzzzzzz       #0000000000gq      zzzzzzzzzzzzz",
"zzzzzzzzzzzzzzzzzzzzzzzzz       +0000000000gq      zzzzzzzzzzzzz",
"zzzzzzzzzzzzzzzzzzzzzzzzzzzzzzz #0000000000  zzzzzzzzzzzzzzzzzzz",
"zzzzzzzzzzzzzzzzzzzzzzzzzzzzzzz +0000000000  zzzzzzzzzzzzzzzzzzz",
"zzzzzzzzzzzzzzzzzzzzzzzzzzzzzzz O;;00000000  zzzzzzzzzzzzzzzzzzz",
"zzzzzzzzzzzzzzzzzzzzzzzzzzzzzzz X;;00000000  zzzzzzzzzzzzzzzzzzz",
"zzzzzzzzzzzzzzzzzzzzzzzzzzzzzzz o;;00000000  zzzzzzzzzzzzzzzzzzz",
"zzzzzzzzzzzzzzzzzzzzzzzzzzzzzzz X;;00000000  zzzzzzzzzzzzzzzzzzz",
"zzzzzzzzzzzzzzzzzzzzzzzzzzzzzzz o;;;;000000  zzzzzzzzzzzzzzzzzzz",
"zzzzzzzzzzzzzzzzzzzzzzzzzzzzzzz X;;;;000000  zzzzzzzzzzzzzzzzzzz",
"zzzzzzzzzzzzzzzzzzzzzzzzzzzzzzz o;;;;000000  zzzzzzzzzzzzzzzzzzz",
"zzzzzzzzzzzzzzzzzzzzzzzzzzzzzzz X;;;;000000  zzzzzzzzzzzzzzzzzzz",
"zzzzzzzzzzzzzzzzzzzzzzzzzzzzzz  o;;;;000000  zzzzzzzzzzzzzzzzzzz",
"zzzzzzzzzzzzzzzzzzzzzzzzzzzzzzz X;;;;000000  zzzzzzzzzzzzzzzzzzz",
"zzzzzzzzzzzzzzzzzzzzz  zzzzzzzz o;;66000000  zzzzzzzzzzzzzzzzzzz",
"zzzzzzzzzzzzzzzzzzzzz  zzzzzzzz X;;00000000  zzzzzzzzzzzzzzzzzzz",
"zzzzzzzzzzzzzzzzzzz X;;  zzzzzz o;;00000000  zzzzzzzzzzzzzzzzzzz",
"zzzzzzzzzzzzzzzzzzzX+;;  zzzzzz X;;00000000  zzzzzzzzzzzzzzzzzzz",
"zzzzzzzzzzzzzzzzz X;;;;  zzzz  ;,6600000000  zzzzzzzzzzzzzzzzzzz",
"zzzzzzzzzzzzzzzzzX@;;;;  zzzz  ;10000000000  zzzzzzzzzzzzzzzzzzz",
"zzzzzzzzzzzzzzz X;;;;;;  zz    68000000se++zzzzzzzzzzzzzzzzzzzzz",
"zzzzzzzzzzzzzzz+&;;;:;;  zz+$++00000000gq  zzzzzzzzzzzzzzzzzzzzz",
"zzzzzzzzzzzzz +00000006;; +0000000000sw  zzzzzzzzzzzzzzzzzzzzzzz",
"zzzzzzzzzzzzz +00000006;>+-0000000000gq  zzzzzzzzzzzzzzzzzzzzzzz",
"zzzzzzzzzzzzzzz   +0000000000000000sw  zzzzzzzzzzzzzzzzzzzzzzzzz",
"zzzzzzzzzzzzzzz   +0000000000000000gq  zzzzzzzzzzzzzzzzzzzzzzzzz",
"zzzzzzzzzzzzzzzzzzz   +0000000000sw  zzzzzzzzzzzzzzzzzzzzzzzzzzz",
"zzzzzzzzzzzzzzzzzzz   +0000000000gq  zzzzzzzzzzzzzzzzzzzzzzzzzzz",
"zzzzzzzzzzzzzzzzzzzzzzz        ++  zzzzzzzzzzzzzzzzzzzzzzzzzzzzz",
"zzzzzzzzzzzzzzzzzzzzzzz            zzzzzzzzzzzzzzzzzzzzzzzzzzzzz",
"zzzzzzzzzzzzzzzzzzzzzzzzzzzzzzzzzzzzzzzzzzzzzzzzzzzzzzzzzzzzzzzz",
"zzzzzzzzzzzzzzzzzzzzzzzzzzzzzzzzzzzzzzzzzzzzzzzzzzzzzzzzzzzzzzzz"
};
