/* XPM */
static char *player_up_2[] = {
/* columns rows colors chars-per-pixel */
"64 64 48 1 ",
"  c gray20",
". c gray21",
"X c #373737",
"o c gray22",
"O c #383938",
"+ c #3C3D3C",
"@ c #3F403F",
"# c gray26",
"$ c #494949",
"% c #4C4C4C",
"& c gray30",
"* c #4E4D4D",
"= c gray31",
"- c #565453",
"; c gray35",
": c #5B5A5A",
"> c #5F5E5D",
", c gray39",
"< c #676767",
"1 c #727272",
"2 c #747475",
"3 c #7A7878",
"4 c #7B7878",
"5 c #7B7A7B",
"6 c #7C7A79",
"7 c #91908F",
"8 c #929191",
"9 c #939191",
"0 c #999899",
"q c gray60",
"w c #9B9999",
"e c gray61",
"r c #A5A5A5",
"t c #A6A5A4",
"y c #A8A7A7",
"u c #AFAEAF",
"i c #B4B4B4",
"p c #BCBCBC",
"a c #BDBCBC",
"s c gray",
"d c gray75",
"f c #C2C1C1",
"g c gray80",
"h c #D7D8D7",
"j c gray85",
"k c #D9DADA",
"l c white",
"z c None",
/* pixels */
"zzzzzzzzzzzzzzzzzzzzzzzzzzzzzzzzzzzzzzzzzzzzzzzzzzzzzzzzzzzzzzzz",
"zzzzzzzzzzzzzzzzzzzzzzzzzzzzzzzzzzzzzzzzzzzzzzzzzzzzzzzzzzzzzzzz",
"zzzzzzzzzzzzzzzzzzzzzzzzzzzzzzzzzzzz  zzzzzzzzzzzzzzzzzzzzzzzzzz",
"zzzzzzzzzzzzzzzzzzzzzzzzzzzzzzzzzzzz  zzzzzzzzzzzzzzzzzzzzzzzzzz",
"zzzzzzzzzzzzzzzzzzzzzzzzzzzzzzzzzz  w6  zzzzzzzzzzzzzzzzzzzzzzzz",
"zzzzzzzzzzzzzzzzzzzzzzzzzzzzzzzzzz  gw  zzzzzzzzzzzzzzzzzzzzzzzz",
"zzzzzzzzzzzzzzzzzzzzzzzzzzzzzzzz  wwg9  zzzzzzzzzzzzzzzzzzzzzzzz",
"zzzzzzzzzzzzzzzzzzzzzzzzzzzzzzzz  gggw  zzzzzzzzzzzzzzzzzzzzzzzz",
"zzzzzzzzzzzzzzzzzzzzzzzzzzzzzz  wwggg9  zzzzzzzzzzzzzzzzzzzzzzzz",
"zzzzzzzzzzzzzzzzzzzzzzzzzzzzzz  gggggw  zzzzzzzzzzzzzzzzzzzzzzzz",
"zzzzzzzzzzzzzzzzzzzzzzzzzzzz  wtggggg9  zzzzzzzzzzzzzzzzzzzzzzzz",
"zzzzzzzzzzzzzzzzzzzzzzzzzzzz  gggggggw  zzzzzzzzzzzzzzzzzzzzzzzz",
"zzzzzzzzzzzzzzzzzzzzzzzzzz  wtghllggg9  zzzzzzzzzzzzzzzzzzzzzzzz",
"zzzzzzzzzzzzzzzzzzzzzzzzzz  ggghllgggw  zzzzzzzzzzzzzzzzzzzzzzzz",
"zzzzzzzzzzzzzzzzzzzzzzzzzz  ghll-4llgg  zzzzzzzzzzzzzzzzzzzzzzzz",
"zzzzzzzzzzzzzzzzzzzzzzzzzz  ghll -llgg  zzzzzzzzzzzzzzzzzzzzzzzz",
"zzzzzzzzzzzzzzzzzzzzzzzzzz  gkllllllgg  zzzzzzzzzzzzzzzzzzzzzzzz",
"zzzzzzzzzzzzzzzzzzzzzzzzzz  ghllllllgg  zzzzzzzzzzzzzzzzzzzzzzzz",
"zzzzzzzzzzzzzzzzzzzzzzzzzz  gfuahjhhgg      zzzzzzzzzzzzzzzzzzzz",
"zzzzzzzzzzzzzzzzzzzzzzzzzz  gsqrgggggg      zzzzzzzzzzzzzzzzzzzz",
"zzzzzzzzzzzzzzzzzzzzzzzzzz  <2qyggggggw3<<;=  zzzzzzzzzzzzzzzzzz",
"zzzzzzzzzzzzzzzzzzzzzzzzzz  <1qrggggggg0<<<;  zzzzzzzzzzzzzzzzzz",
"zzzzzzzzzzzzzzzzzzzzzzzzzz  gpqeryryrr %<<  zzzzzzzzzzzzzzzzzzzz",
"zzzzzzzzzzzzzzzzzzzzzzzzzz  gsqqqqqqqq $<<  zzzzzzzzzzzzzzzzzzzz",
"zzzzzzzzzzzzzzzzzzzzzzzzzz  qqqqqqqqqq o@@zzzzzzzzzzzzzzzzzzzzzz",
"zzzzzzzzzzzzzzzzzzzzzzzzzz  qqqqqqqqqq    zzzzzzzzzzzzzzzzzzzzzz",
"zzzzzzzzzzzzzzzzzzzzzzzz  w7qqqqqqqqq5  zzzzzzzzzzzzzzzzzzzzzzzz",
"zzzzzzzzzzzzzzzzzzzzzzzz  gsqqqqqqqqq5  zzzzzzzzzzzzzzzzzzzzzzzz",
"zzzzzzzzzzzzzzzzzzzzzz  wwgpqqqqqqqqq8w6  zzzzzzzzzzzzzzzzzzzzzz",
"zzzzzzzzzzzzzzzzzzzzzz  gggsqqqqqqqqqqgw  zzzzzzzzzzzzzzzzzzzzzz",
"zzzzzzzzzzzzzzzzzzzz  wwgggpqqqqqqqqqqgdw6  zzzzzzzzzzzzzzzzzzzz",
"zzzzzzzzzzzzzzzzzzzz  gggggsqqqqqqqqqqgggw  zzzzzzzzzzzzzzzzzzzz",
"zzzzzzzzzzzzzzzzzz  wwgggsqqqqqqqqqqqqgggdw6  zzzzzzzzzzzzzzzzzz",
"zzzzzzzzzzzzzzzzzz  gggggsqqqqqqqqqqqqgggggw  zzzzzzzzzzzzzzzzzz",
"zzzzzzzzzzzzzzzzzzzz     O$>qqqqqqqqqq        zzzzzzzzzzzzzzzzzz",
"zzzzzzzzzzzzzzzzzzzz       $qqqqqqqqqq        zzzzzzzzzzzzzzzzzz",
"zzzzzzzzzzzzzzzzzzzzzzzzzz &qqqqqqqqqq  zzzzzzzzzzzzzzzzzzzzzzzz",
"zzzzzzzzzzzzzzzzzzzzzzzzzz $qqqqqqqqqq  zzzzzzzzzzzzzzzzzzzzzzzz",
"zzzzzzzzzzzzzzzzzzzzzzzzzz *qqqqqqqqqq  zzzzzzzzzzzzzzzzzzzzzzzz",
"zzzzzzzzzzzzzzzzzzzzzzzzzz $qqqqqqqqqq  zzzzzzzzzzzzzzzzzzzzzzzz",
"zzzzzzzzzzzzzzzzzzzzzzzzzz :qqqqqqqqqq  zzzzzzzzzzzzzzzzzzzzzzzz",
"zzzzzzzzzzzzzzzzzzzzzzzzzz :qqqqqqqqqq  zzzzzzzzzzzzzzzzzzzzzzzz",
"zzzzzzzzzzzzzzzzzzzzzzzzzz >qqqqqqqqqq  zzzzzzzzzzzzzzzzzzzzzzzz",
"zzzzzzzzzzzzzzzzzzzzzzzzzz :qqqqqqqqqq  zzzzzzzzzzzzzzzzzzzzzzzz",
"zzzzzzzzzzzzzzzzzzzzzzzzz  >qqqqqqqqqq  zzzzzzzzzzzzzzzzzzzzzzzz",
"zzzzzzzzzzzzzzzzzzzzzzzzzz :qqqqqqqqqq  zzzzzzzzzzzzzzzzzzzzzzzz",
"zzzzzzzzzzzzzzzzzzzzzzzzz  >qqqqqqqqqq  zzzzzzzzzzzzzzzzzzzzzzzz",
"zzzzzzzzzzzzzzzzzzzzzzzzzz :qqqqqqqqqq  zzzzzzzzzzzzzzzzzzzzzzzz",
"zzzzzzzzzzzzzzzzzzzzzzzzzz  :>qqiiq5    zzzzzzzzzzzzzzzzzzzzzzzz",
"zzzzzzzzzzzzzzzzzzzzzzzzzz    qqggq5    zzzzzzzzzzzzzzzzzzzzzzzz",
"zzzzzzzzzzzzzzzzzzzzzzzzzzzz Xssrrg9  zzzzzzzzzzzzzzzzzzzzzzzzzz",
"zzzzzzzzzzzzzzzzzzzzzzzzzzzz  ggqqgw  zzzzzzzzzzzzzzzzzzzzzzzzzz",
"zzzzzzzzzzzzzzzzzzzzzzzzzzzz  qq<<q5  zzzzzzzzzzzzzzzzzzzzzzzzzz",
"zzzzzzzzzzzzzzzzzzzzzzzzzzzz  qq<<q5  zzzzzzzzzzzzzzzzzzzzzzzzzz",
"zzzzzzzzzzzzzzzzzzzzzzzzzzzz  <<<<<<  zzzzzzzzzzzzzzzzzzzzzzzzzz",
"zzzzzzzzzzzzzzzzzzzzzzzzzzzz@@<<<<<<  zzzzzzzzzzzzzzzzzzzzzzzzzz",
"zzzzzzzzzzzzzzzzzzzzzzzzzz @<<<<<<<<<<@ zzzzzzzzzzzzzzzzzzzzzzzz",
"zzzzzzzzzzzzzzzzzzzzzzzzzz @<<<<<<<,<<@ zzzzzzzzzzzzzzzzzzzzzzzz",
"zzzzzzzzzzzzzzzzzzzzzzzz @<;  @#@#@+@@<<  zzzzzzzzzzzzzzzzzzzzzz",
"zzzzzzzzzzzzzzzzzzzzzzzz @<;          <<  zzzzzzzzzzzzzzzzzzzzzz",
"zzzzzzzzzzzzzzzzzzzzzzzz .@@zzzzzzzzzz@@  zzzzzzzzzzzzzzzzzzzzzz",
"zzzzzzzzzzzzzzzzzzzzzzzz    zzzzzzzzzz    zzzzzzzzzzzzzzzzzzzzzz",
"zzzzzzzzzzzzzzzzzzzzzzzzzzzzzzzzzzzzzzzzzzzzzzzzzzzzzzzzzzzzzzzz",
"zzzzzzzzzzzzzzzzzzzzzzzzzzzzzzzzzzzzzzzzzzzzzzzzzzzzzzzzzzzzzzzz"
};
