/* XPM */
static char *player_right_3[] = {
/* columns rows colors chars-per-pixel */
"64 64 129 2 ",
"   c gray20",
".  c #333433",
"X  c #343534",
"o  c #373737",
"O  c #373837",
"+  c #393938",
"@  c #393939",
"#  c #3A3A3A",
"$  c #3C3B3B",
"%  c #3C3C3B",
"&  c #3C3C3C",
"*  c #3C3D3C",
"=  c gray24",
"-  c #3E3D3D",
";  c #3E3E3E",
":  c #3E3F3E",
">  c #3F403F",
",  c #414040",
"<  c #414141",
"1  c #424140",
"2  c #434242",
"3  c #444443",
"4  c #474646",
"5  c #484848",
"6  c #484948",
"7  c #494949",
"8  c gray31",
"9  c #504F4F",
"0  c #4F5050",
"q  c #515151",
"w  c #525151",
"e  c #535353",
"r  c #565453",
"t  c gray35",
"y  c #5C5A5A",
"u  c #5C5B5A",
"i  c gray36",
"p  c #5D5D5D",
"a  c #5D5D5E",
"s  c gray37",
"d  c #5E5E5F",
"f  c #5E5F5F",
"g  c #5F5F5F",
"h  c #605E5E",
"j  c #62605F",
"k  c #606060",
"l  c #616061",
"z  c gray38",
"x  c #626161",
"c  c #626262",
"v  c #636262",
"b  c gray39",
"n  c #656464",
"m  c gray40",
"M  c #676767",
"N  c #686666",
"B  c #686868",
"V  c #696868",
"C  c DimGray",
"Z  c #6A6A69",
"A  c #6C6B6B",
"S  c #6D6C6C",
"D  c #6D6D6D",
"F  c #6F6E6E",
"G  c #717070",
"H  c #747474",
"J  c #767474",
"K  c gray47",
"L  c #7A7A7B",
"P  c #7D7A7A",
"I  c #7E7B7B",
"U  c #7B7C7C",
"Y  c #848383",
"T  c #858383",
"R  c #858484",
"E  c #878686",
"W  c #888787",
"Q  c #8B8989",
"!  c #8B8B8B",
"~  c #8C8B8B",
"^  c #8D8C8C",
"/  c #908C8B",
"(  c #919090",
")  c #919190",
"_  c gray57",
"`  c #929292",
"'  c #939393",
"]  c #949493",
"[  c #979797",
"{  c gray60",
"}  c #9B9999",
"|  c #9A9A9A",
" . c #9B9B9B",
".. c #9B9B9C",
"X. c gray62",
"o. c #9E9F9E",
"O. c #9F9F9F",
"+. c #A39FA0",
"@. c #A3A1A0",
"#. c gray64",
"$. c #A5A5A5",
"%. c #A7A7A7",
"&. c gray66",
"*. c #ACABAB",
"=. c #ADAEAD",
"-. c #AFAEAF",
";. c #B0AFAF",
":. c #B2B1B1",
">. c #B9B9B9",
",. c gray",
"<. c #C5C5C5",
"1. c #C6C6C6",
"2. c gray80",
"3. c #D2D2D1",
"4. c #D4D1D2",
"5. c gray83",
"6. c #D7D8D7",
"7. c #D9DADA",
"8. c #DEDDDE",
"9. c #E6E6E7",
"0. c gray91",
"q. c #EAEBEB",
"w. c gray96",
"e. c #F7F8F7",
"r. c #F8F8F8",
"t. c #F9F9F9",
"y. c #FBFBFB",
"u. c white",
"i. c None",
/* pixels */
"i.i.i.i.i.i.i.i.i.i.i.i.i.i.i.i.i.i.i.i.i.i.i.i.i.i.i.i.i.i.i.i.i.i.i.i.i.i.i.i.i.i.i.i.i.i.i.i.i.i.i.i.i.i.i.i.i.i.i.i.i.i.i.i.",
"i.i.i.i.i.i.i.i.i.i.i.i.i.i.i.i.i.i.i.i.i.i.i.i.i.i.i.i.i.i.i.i.i.i.i.i.i.i.i.i.i.i.i.i.i.i.i.i.i.i.i.i.i.i.i.i.i.i.i.i.i.i.i.i.",
"i.i.i.i.i.i.i.i.i.i.i.i.i.i.i.i.i.i.i.i.i.i.i.i.i.i.i.i.i.i.i.i.i.i.i.i.i.i.i.i.i.i.i.i.i.i.i.i.i.i.i.i.i.i.i.i.i.i.i.i.i.i.i.i.",
"i.i.i.i.i.i.i.i.    i.i.i.i.i.i.i.i.i.i.i.i.i.i.i.i.i.i.i.i.i.i.i.i.i.i.i.i.i.i.i.i.i.i.i.i.i.i.i.i.i.i.i.i.i.i.i.i.i.i.i.i.i.i.",
"i.i.i.i.i.i.i.i.    i.i.i.i.i.i.i.i.i.i.i.i.i.i.i.i.i.i.i.i.i.i.i.i.i.i.i.i.i.i.i.i.i.i.i.i.i.i.i.i.i.i.i.i.i.i.i.i.i.i.i.i.i.i.",
"i.i.i.i.i.i.    R W 4   i.i.i.i.i.i.i.i.i.i.i.i.i.i.i.i.i.i.i.i.i.i.i.i.i.i.i.i.i.i.i.i.i.i.i.i.i.i.i.i.i.i.i.i.i.i.i.i.i.i.i.i.",
"i.i.i.i.i.i.    { { 7   i.i.i.i.i.i.i.i.i.i.i.i.i.i.i.i.i.i.i.i.i.i.i.i.i.i.i.i.i.i.i.i.i.i.i.i.i.i.i.i.i.i.i.i.i.i.i.i.i.i.i.i.",
"i.i.i.i.i.i.    ] { n s ;   i.i.i.i.i.i.i.i.i.i.i.i.i.i.i.i.i.i.i.i.i.i.i.i.i.i.i.i.i.i.i.i.i.i.i.i.i.i.i.i.i.i.i.i.i.i.i.i.i.i.",
"i.i.i.i.i.i.    { { M M >   i.i.i.i.i.i.i.i.i.i.i.i.i.i.i.i.i.i.i.i.i.i.i.i.i.i.i.i.i.i.i.i.i.i.i.i.i.i.i.i.i.i.i.i.i.i.i.i.i.i.",
"i.i.i.i.    R W [ { C m z s :   i.i.i.i.i.i.i.i.i.i.i.i.i.i.i.i.i.i.i.i.i.i.i.i.i.i.i.i.i.i.i.i.i.i.i.i.i.i.i.i.i.i.i.i.i.i.i.i.",
"i.i.i.i.    { { { { M M M M >   i.i.i.i.i.i.i.i.i.i.i.i.i.i.i.i.i.i.i.i.i.i.i.i.i.i.i.i.i.i.i.i.i.i.i.i.i.i.i.i.i.i.i.i.i.i.i.i.",
"i.i.i.i.    ] { { { Z M M m k s     i.i.i.i.i.i.i.i.i.i.i.i.i.i.i.i.i.i.i.i.i.i.i.i.i.i.i.i.i.i.i.i.i.i.i.i.i.i.i.i.i.i.i.i.i.i.",
"i.i.i.i.    { { { { M M M M M M     i.i.i.i.i.i.i.i.i.i.i.i.i.i.i.i.i.i.i.i.i.i.i.i.i.i.i.i.i.i.i.i.i.i.i.i.i.i.i.i.i.i.i.i.i.i.",
"i.i.    R W [ { F D q 8 8 8 0 8     i.i.i.i.i.i.i.i.i.i.i.i.i.i.    i.i.i.i.i.i.i.i.i.i.i.i.i.i.i.i.i.i.i.i.i.i.i.i.i.i.i.i.i.i.",
"i.i.    { { { { M M             i.i.i.i.i.i.i.i.i.i.i.i.i.i.i.i.    i.i.i.i.i.i.i.i.i.i.i.i.i.i.i.i.i.i.i.i.i.i.i.i.i.i.i.i.i.i.",
"i.i.    ] { { { c 0 O           i.i.i.i.i.i.i.i.i.i.i.i.i.i.  + N y     i.i.i.i.i.i.i.i.i.i.i.i.i.i.i.i.i.i.i.i.i.i.i.i.i.i.i.i.",
"i.i.    { { { { 7   i.i.i.i.i.i.i.i.i.i.i.i.i.i.i.i.i.i.i.i.    2.}     i.i.i.i.i.i.i.i.i.i.i.i.i.i.i.i.i.i.i.i.i.i.i.i.i.i.i.i.",
"i.i.    ] { { { ^ R 4   i.i.i.i.i.i.i.i.i.i.i.i.i.i.i.i.i.i.  o 2.;.N y     i.i.i.i.i.i.i.i.i.i.i.i.i.i.i.i.i.i.i.i.i.i.i.i.i.i.",
"i.i.    { { { { { { 7   i.i.i.i.i.i.i.i.i.i.i.i.i.i.i.i.i.i.    2.2.2.}     i.i.i.i.i.i.i.i.i.i.i.i.i.i.i.i.i.i.i.i.i.i.i.i.i.i.",
"i.i.    ] { { { { ] 9       i.i.i.i.i.i.i.i.i.i.i.i.i.i.i.i.  o 2.2.2.;.N y     i.i.i.i.i.i.i.i.i.i.i.i.i.i.i.i.i.i.i.i.i.i.i.i.",
"i.i.    { { { { { { 7       i.i.i.i.i.i.i.i.i.i.i.i.i.i.i.i.    2.2.2.2.2.}     i.i.i.i.i.i.i.i.i.i.i.i.i.i.i.i.i.i.i.i.i.i.i.i.",
"i.i.  & ( { { { { ( x w 6 5                                   o 2.2.2.2.2.;.N y                         i.i.i.i.i.i.i.i.i.i.i.i.",
"i.i.  7 { { { { { { { ! M M                                     2.2.2.2.2.2.2.}                         i.i.i.i.i.i.i.i.i.i.i.i.",
"i.i.  < =.%.{ { { { { ` ) E f k f g i a i s f k f k f c W Q W ~ O.o.O.o.O.o.O. .N h 6 5 N j N j N j N y     i.i.i.i.i.i.i.i.i.i.",
"i.i.    2.,.{ { { { { { { ! M M M M M M M M M M M M M M { { { { { { { { { { { { 2.2.M M 2.2.2.2.2.2.2.}     i.i.i.i.i.i.i.i.i.i.",
"i.i.  % 2 9 =.%.{ { { { { _ L K L H M M M M M B L K L U { { { { { { { { { { { | O.X.) ' O.:.e.r.e.w.2.<.N y     i.i.i.i.i.i.i.i.",
"i.i.i.i.    2.,.{ { { { { { { { { ! M M M M M M { { { { { { { { { { { { { { { { { { { { { -.u.u.u.u.2.2.2.}     i.i.i.i.i.i.i.i.",
"i.i.i.i.  % 2 9 =.%.{ { { { { { { _ L K L K L U { { { { { { { { { { { { { { { { { #.<.1.<.5.u.t./ +.e.w.2.<.N y     i.i.i.i.i.i.",
"i.i.i.i.i.i.    2.,.{ { { { { { { { { { { { { { { { { { { { { { { { { { { { { { { $.2.2.2.6.u.u.  r u.u.2.2.2.}     i.i.i.i.i.i.",
"i.i.i.i.i.i.  $ 2 9 =.%.{ { { { { { { { { { { { { { { { { { { { { { { { { { { { { &.2.2.2.7.u.y.4.8.0.9.2.2.2.;.N y     i.i.i.i.",
"i.i.i.i.i.i.i.i.    2.,.{ { { { { { { { { { { { { { { { { { { { { { { { { { { { { $.2.2.2.6.u.u.u.u.2.2.2.2.2.2.2.}     i.i.i.i.",
"i.i.i.i.i.i.i.i.  $ 2 u { { { { { { { { { { { { { { { { { { { { { { { { { { { { { &.2.2.2.3.0.q.0.9.2.2.2.2.2.2.2.;.N y     i.i.",
"i.i.i.i.i.i.i.i.i.i.  7 { { { { { { { { { { { { { { { { { { { { { { { { { { { { { $.2.2.2.2.2.2.2.2.2.2.2.2.2.2.2.2.2.}     i.i.",
"i.i.i.i.i.i.i.i.i.i.  3 V S V A v V V S V S V S V S V S V G =.*.=.*.=.*.=...V S V J 2.>.I Y I T I P 2 1 2 1 2 1 2 , 2 ,     i.i.",
"i.i.i.i.i.i.i.i.i.i.i.i.                                    2.2.2.2.2.2.2.}         2.}                                 i.i.i.i.",
"i.i.i.i.i.i.i.i.i.i.i.i.                                  $ 2 4 2.2.2.@.2 -   = f l d p O o                             i.i.i.i.",
"i.i.i.i.i.i.i.i.i.i.i.i.i.i.i.i.i.i.i.i.i.i.i.i.i.i.i.i.i.i.    2.2.2.}       > M M M M     i.i.i.i.i.i.i.i.i.i.i.i.i.i.i.i.i.i.",
"i.i.i.i.i.i.i.i.i.i.i.i.i.i.i.i.i.i.i.i.i.i.i.i.i.i.i.i.i.i.  o 2.@.2 ,       * 0 e b i . . i.i.i.i.i.i.i.i.i.i.i.i.i.i.i.i.i.i.",
"i.i.i.i.i.i.i.i.i.i.i.i.i.i.i.i.i.i.i.i.i.i.i.i.i.i.i.i.i.i.    2.}     i.i.i.i.    M t     i.i.i.i.i.i.i.i.i.i.i.i.i.i.i.i.i.i.",
"i.i.i.i.i.i.i.i.i.i.i.i.i.i.i.i.i.i.i.i.i.i.i.i.i.i.i.i.i.i.  X 2 ,     i.i.i.i.  o # @     i.i.i.i.i.i.i.i.i.i.i.i.i.i.i.i.i.i.",
"i.i.i.i.i.i.i.i.i.i.i.i.i.i.i.i.i.i.i.i.i.i.i.i.i.i.i.i.i.i.        i.i.i.i.i.i.i.i.    i.i.i.i.i.i.i.i.i.i.i.i.i.i.i.i.i.i.i.i.",
"i.i.i.i.i.i.i.i.i.i.i.i.i.i.i.i.i.i.i.i.i.i.i.i.i.i.i.i.i.i.        i.i.i.i.i.i.i.i.    i.i.i.i.i.i.i.i.i.i.i.i.i.i.i.i.i.i.i.i.",
"i.i.i.i.i.i.i.i.i.i.i.i.i.i.i.i.i.i.i.i.i.i.i.i.i.i.i.i.i.i.i.i.i.i.i.i.i.i.i.i.i.i.i.i.i.i.i.i.i.i.i.i.i.i.i.i.i.i.i.i.i.i.i.i.",
"i.i.i.i.i.i.i.i.i.i.i.i.i.i.i.i.i.i.i.i.i.i.i.i.i.i.i.i.i.i.i.i.i.i.i.i.i.i.i.i.i.i.i.i.i.i.i.i.i.i.i.i.i.i.i.i.i.i.i.i.i.i.i.i.",
"i.i.i.i.i.i.i.i.i.i.i.i.i.i.i.i.i.i.i.i.i.i.i.i.i.i.i.i.i.i.i.i.i.i.i.i.i.i.i.i.i.i.i.i.i.i.i.i.i.i.i.i.i.i.i.i.i.i.i.i.i.i.i.i.",
"i.i.i.i.i.i.i.i.i.i.i.i.i.i.i.i.i.i.i.i.i.i.i.i.i.i.i.i.i.i.i.i.i.i.i.i.i.i.i.i.i.i.i.i.i.i.i.i.i.i.i.i.i.i.i.i.i.i.i.i.i.i.i.i.",
"i.i.i.i.i.i.i.i.i.i.i.i.i.i.i.i.i.i.i.i.i.i.i.i.i.i.i.i.i.i.i.i.i.i.i.i.i.i.i.i.i.i.i.i.i.i.i.i.i.i.i.i.i.i.i.i.i.i.i.i.i.i.i.i.",
"i.i.i.i.i.i.i.i.i.i.i.i.i.i.i.i.i.i.i.i.i.i.i.i.i.i.i.i.i.i.i.i.i.i.i.i.i.i.i.i.i.i.i.i.i.i.i.i.i.i.i.i.i.i.i.i.i.i.i.i.i.i.i.i.",
"i.i.i.i.i.i.i.i.i.i.i.i.i.i.i.i.i.i.i.i.i.i.i.i.i.i.i.i.i.i.i.i.i.i.i.i.i.i.i.i.i.i.i.i.i.i.i.i.i.i.i.i.i.i.i.i.i.i.i.i.i.i.i.i.",
"i.i.i.i.i.i.i.i.i.i.i.i.i.i.i.i.i.i.i.i.i.i.i.i.i.i.i.i.i.i.i.i.i.i.i.i.i.i.i.i.i.i.i.i.i.i.i.i.i.i.i.i.i.i.i.i.i.i.i.i.i.i.i.i.",
"i.i.i.i.i.i.i.i.i.i.i.i.i.i.i.i.i.i.i.i.i.i.i.i.i.i.i.i.i.i.i.i.i.i.i.i.i.i.i.i.i.i.i.i.i.i.i.i.i.i.i.i.i.i.i.i.i.i.i.i.i.i.i.i.",
"i.i.i.i.i.i.i.i.i.i.i.i.i.i.i.i.i.i.i.i.i.i.i.i.i.i.i.i.i.i.i.i.i.i.i.i.i.i.i.i.i.i.i.i.i.i.i.i.i.i.i.i.i.i.i.i.i.i.i.i.i.i.i.i.",
"i.i.i.i.i.i.i.i.i.i.i.i.i.i.i.i.i.i.i.i.i.i.i.i.i.i.i.i.i.i.i.i.i.i.i.i.i.i.i.i.i.i.i.i.i.i.i.i.i.i.i.i.i.i.i.i.i.i.i.i.i.i.i.i.",
"i.i.i.i.i.i.i.i.i.i.i.i.i.i.i.i.i.i.i.i.i.i.i.i.i.i.i.i.i.i.i.i.i.i.i.i.i.i.i.i.i.i.i.i.i.i.i.i.i.i.i.i.i.i.i.i.i.i.i.i.i.i.i.i.",
"i.i.i.i.i.i.i.i.i.i.i.i.i.i.i.i.i.i.i.i.i.i.i.i.i.i.i.i.i.i.i.i.i.i.i.i.i.i.i.i.i.i.i.i.i.i.i.i.i.i.i.i.i.i.i.i.i.i.i.i.i.i.i.i.",
"i.i.i.i.i.i.i.i.i.i.i.i.i.i.i.i.i.i.i.i.i.i.i.i.i.i.i.i.i.i.i.i.i.i.i.i.i.i.i.i.i.i.i.i.i.i.i.i.i.i.i.i.i.i.i.i.i.i.i.i.i.i.i.i.",
"i.i.i.i.i.i.i.i.i.i.i.i.i.i.i.i.i.i.i.i.i.i.i.i.i.i.i.i.i.i.i.i.i.i.i.i.i.i.i.i.i.i.i.i.i.i.i.i.i.i.i.i.i.i.i.i.i.i.i.i.i.i.i.i.",
"i.i.i.i.i.i.i.i.i.i.i.i.i.i.i.i.i.i.i.i.i.i.i.i.i.i.i.i.i.i.i.i.i.i.i.i.i.i.i.i.i.i.i.i.i.i.i.i.i.i.i.i.i.i.i.i.i.i.i.i.i.i.i.i.",
"i.i.i.i.i.i.i.i.i.i.i.i.i.i.i.i.i.i.i.i.i.i.i.i.i.i.i.i.i.i.i.i.i.i.i.i.i.i.i.i.i.i.i.i.i.i.i.i.i.i.i.i.i.i.i.i.i.i.i.i.i.i.i.i.",
"i.i.i.i.i.i.i.i.i.i.i.i.i.i.i.i.i.i.i.i.i.i.i.i.i.i.i.i.i.i.i.i.i.i.i.i.i.i.i.i.i.i.i.i.i.i.i.i.i.i.i.i.i.i.i.i.i.i.i.i.i.i.i.i.",
"i.i.i.i.i.i.i.i.i.i.i.i.i.i.i.i.i.i.i.i.i.i.i.i.i.i.i.i.i.i.i.i.i.i.i.i.i.i.i.i.i.i.i.i.i.i.i.i.i.i.i.i.i.i.i.i.i.i.i.i.i.i.i.i.",
"i.i.i.i.i.i.i.i.i.i.i.i.i.i.i.i.i.i.i.i.i.i.i.i.i.i.i.i.i.i.i.i.i.i.i.i.i.i.i.i.i.i.i.i.i.i.i.i.i.i.i.i.i.i.i.i.i.i.i.i.i.i.i.i.",
"i.i.i.i.i.i.i.i.i.i.i.i.i.i.i.i.i.i.i.i.i.i.i.i.i.i.i.i.i.i.i.i.i.i.i.i.i.i.i.i.i.i.i.i.i.i.i.i.i.i.i.i.i.i.i.i.i.i.i.i.i.i.i.i.",
"i.i.i.i.i.i.i.i.i.i.i.i.i.i.i.i.i.i.i.i.i.i.i.i.i.i.i.i.i.i.i.i.i.i.i.i.i.i.i.i.i.i.i.i.i.i.i.i.i.i.i.i.i.i.i.i.i.i.i.i.i.i.i.i."
};
