/* XPM */
static char *player_left_1[] = {
/* columns rows colors chars-per-pixel */
"64 64 132 2 ",
"   c gray20",
".  c #333433",
"X  c #343534",
"o  c #353635",
"O  c gray21",
"+  c #373837",
"@  c gray22",
"#  c #393938",
"$  c #3A3A3A",
"%  c #3A3B3B",
"&  c #3C3B3B",
"*  c #3C3C3B",
"=  c #3E3D3D",
"-  c #3E3E3E",
";  c #3F403F",
":  c #414040",
">  c #404140",
",  c #424140",
"<  c #434242",
"1  c #444443",
"2  c #474646",
"3  c #484948",
"4  c #494949",
"5  c #4C4C4C",
"6  c #4F4D4C",
"7  c #4F4F4E",
"8  c gray31",
"9  c #4F5050",
"0  c #525253",
"q  c #565453",
"w  c #555555",
"e  c #565656",
"r  c gray34",
"t  c gray35",
"y  c #595A5A",
"u  c #5C5959",
"i  c #5C5A5A",
"p  c #5E5D5D",
"a  c #5D5D5E",
"s  c gray37",
"d  c #5E5E5F",
"f  c #5E5F5F",
"g  c #62605F",
"h  c #5F6060",
"j  c #616061",
"k  c gray39",
"l  c #666565",
"z  c #676666",
"x  c #676767",
"c  c #686666",
"v  c #686868",
"b  c #696868",
"n  c #696968",
"m  c #6A6969",
"M  c gray42",
"N  c #6C6969",
"B  c #6C6C6C",
"V  c #6D6C6C",
"C  c #6D6D6D",
"Z  c #6F6E6E",
"A  c #706F70",
"S  c #737171",
"D  c #727272",
"F  c #767676",
"G  c #7B7878",
"H  c #7A7A7B",
"J  c #7C7B7B",
"K  c #7E7B7B",
"L  c #7B7C7C",
"P  c #818081",
"I  c #828181",
"U  c #828283",
"Y  c #848383",
"T  c #858383",
"R  c #848484",
"E  c #858484",
"W  c #888686",
"Q  c #888787",
"!  c #898888",
"~  c #898989",
"^  c #8A8989",
"/  c #8B8989",
"(  c #8B8B8B",
")  c #8F8D8D",
"_  c #908C8B",
"`  c #908E8D",
"'  c #919190",
"]  c #949393",
"[  c #949493",
"{  c #959495",
"}  c #969695",
"|  c gray59",
" . c #979796",
".. c #989898",
"X. c gray60",
"o. c #9B9999",
"O. c #9A9A9A",
"+. c #9B9B9B",
"@. c #9B9B9C",
"#. c gray61",
"$. c gray62",
"%. c #9E9F9E",
"&. c #9F9F9F",
"*. c #A3A1A0",
"=. c #AEAAAA",
"-. c #ABACAB",
";. c #AEADAD",
":. c #ADAEAD",
">. c #B6B5B5",
",. c gray",
"<. c gray76",
"1. c #C5C5C5",
"2. c #C6C6C6",
"3. c #CACACA",
"4. c gray80",
"5. c #D2D2D1",
"6. c #D4D1D2",
"7. c #D4D5D4",
"8. c #D7D8D7",
"9. c #E1DFE0",
"0. c #E6E6E7",
"q. c gray91",
"w. c #E9E8E8",
"e. c #EAEAEA",
"r. c gray92",
"t. c gray95",
"y. c #F7F8F7",
"u. c #F8F8F8",
"i. c gray99",
"p. c #FDFDFE",
"a. c white",
"s. c None",
/* pixels */
"s.s.s.s.s.s.s.s.s.s.s.s.s.s.s.s.s.s.s.s.s.s.s.s.s.s.s.s.s.s.s.s.s.s.s.s.s.s.s.s.s.s.s.s.s.s.s.s.s.s.s.s.s.s.s.s.s.s.s.s.s.s.s.s.",
"s.s.s.s.s.s.s.s.s.s.s.s.s.s.s.s.s.s.s.s.s.s.s.s.s.s.s.s.s.s.s.s.s.s.s.s.s.s.s.s.s.s.s.s.s.s.s.s.s.s.s.s.s.s.s.s.s.s.s.s.s.s.s.s.",
"s.s.s.s.s.s.s.s.s.s.s.s.s.s.s.s.s.s.s.s.s.s.s.s.s.s.s.s.s.s.s.s.s.s.s.s.s.s.s.s.s.s.s.s.s.s.s.s.s.s.s.s.s.s.s.s.s.s.s.s.s.s.s.s.",
"s.s.s.s.s.s.s.s.s.s.s.s.s.s.s.s.s.s.s.s.s.s.s.s.s.s.s.s.s.s.s.s.s.s.s.s.s.s.s.s.s.s.s.s.s.s.s.s.s.s.s.s.s.s.s.s.s.s.s.s.s.s.s.s.",
"s.s.s.s.s.s.s.s.s.s.s.s.s.s.s.s.s.s.s.s.s.s.s.s.s.s.s.s.s.s.s.s.s.s.s.s.s.s.s.s.s.s.s.s.s.s.s.s.s.s.s.s.s.s.s.s.s.s.s.s.s.s.s.s.",
"s.s.s.s.s.s.s.s.s.s.s.s.s.s.s.s.s.s.s.s.s.s.s.s.s.s.s.s.s.s.s.s.s.s.s.s.s.s.s.s.s.s.s.s.s.s.s.s.s.s.s.s.s.s.s.s.s.s.s.s.s.s.s.s.",
"s.s.s.s.s.s.s.s.s.s.s.s.s.s.s.s.s.s.s.s.s.s.s.s.s.s.s.s.s.s.s.s.s.s.s.s.s.s.s.s.s.s.s.s.s.s.s.s.s.s.s.s.s.s.s.s.s.s.s.s.s.s.s.s.",
"s.s.s.s.s.s.s.s.s.s.s.s.s.s.s.s.s.s.s.s.s.s.s.s.s.s.s.s.s.s.s.s.s.s.s.s.s.s.s.s.s.s.s.s.s.s.s.s.s.s.s.s.s.s.s.s.s.s.s.s.s.s.s.s.",
"s.s.s.s.s.s.s.s.s.s.s.s.s.s.s.s.s.s.s.s.s.s.s.s.s.s.s.s.s.s.s.s.s.s.s.s.s.s.s.s.s.s.s.s.s.s.s.s.s.s.s.s.s.s.s.s.s.s.s.s.s.s.s.s.",
"s.s.s.s.s.s.s.s.s.s.s.s.s.s.s.s.s.s.s.s.s.s.s.s.s.s.s.s.s.s.s.s.s.s.s.s.s.s.s.s.s.s.s.s.s.s.s.s.s.s.s.s.s.s.s.s.s.s.s.s.s.s.s.s.",
"s.s.s.s.s.s.s.s.s.s.s.s.s.s.s.s.s.s.s.s.s.s.s.s.s.s.s.s.s.s.s.s.s.s.s.s.s.s.s.s.s.s.s.s.s.s.s.s.s.s.s.s.s.s.s.s.s.s.s.s.s.s.s.s.",
"s.s.s.s.s.s.s.s.s.s.s.s.s.s.s.s.s.s.s.s.s.s.s.s.s.s.s.s.s.s.s.s.s.s.s.s.s.s.s.s.s.s.s.s.s.s.s.s.s.s.s.s.s.s.s.s.s.s.s.s.s.s.s.s.",
"s.s.s.s.s.s.s.s.s.s.s.s.s.s.s.s.s.s.s.s.s.s.s.s.s.s.s.s.s.s.s.s.s.s.s.s.s.s.s.s.s.s.s.s.s.s.s.s.s.s.s.s.s.s.s.s.s.s.s.s.s.s.s.s.",
"s.s.s.s.s.s.s.s.s.s.s.s.s.s.s.s.s.s.s.s.s.s.s.s.s.s.s.s.s.s.    s.s.s.s.s.s.s.s.s.s.s.s.s.s.s.s.s.s.s.s.s.s.s.s.s.s.s.s.s.s.s.s.",
"s.s.s.s.s.s.s.s.s.s.s.s.s.s.s.s.s.s.s.s.s.s.s.s.s.s.s.s.s.s.    s.s.s.s.s.s.s.s.s.s.s.s.s.s.s.s.s.s.s.s.s.s.s.s.s.s.s.s.s.s.s.s.",
"s.s.s.s.s.s.s.s.s.s.s.s.s.s.s.s.s.s.s.s.s.s.s.s.s.s.s.s.  @ c i     s.s.s.s.s.s.s.s.s.s.s.s.s.s.s.s.s.s.s.s.s.s.s.s.s.s.s.s.s.s.",
"s.s.s.s.s.s.s.s.s.s.s.s.s.s.s.s.s.s.s.s.s.s.s.s.s.s.s.s.    4.o.    s.s.s.s.s.s.s.s.s.s.s.s.s.s.s.s.s.s.s.s.s.s.s.s.s.s.s.s.s.s.",
"s.s.s.s.s.s.s.s.s.s.s.s.s.s.s.s.s.s.s.s.s.s.s.s.s.s.  # c N 4.`     s.s.s.s.s.s.s.s.s.s.s.s.s.s.s.s.s.s.s.s.s.s.s.s.s.s.s.s.s.s.",
"s.s.s.s.s.s.s.s.s.s.s.s.s.s.s.s.s.s.s.s.s.s.s.s.s.s.    4.4.4.o.    s.s.s.s.s.s.s.s.s.s.s.s.s.s.s.s.s.s.s.s.s.s.s.s.s.s.s.s.s.s.",
"s.s.s.s.s.s.s.s.s.s.s.s.s.s.s.s.s.s.s.s.s.s.s.s.  @ c N 4.4.4.`     s.s.s.s.s.s.s.s.s.s.s.s.s.s.s.s.s.s.s.s.s.s.s.s.s.s.s.s.s.s.",
"s.s.s.s.s.s.s.s.s.s.s.s.s.s.s.s.s.s.s.s.s.s.s.s.    4.4.4.4.4.o.    s.s.s.s.s.s.s.s.s.s.s.s.s.s.s.s.s.s.s.s.s.s.s.s.s.s.s.s.s.s.",
"s.s.s.s.s.s.s.s.s.s.s.s.                      @ c N 4.4.4.4.4.)                                         s.s.s.s.s.s.s.s.s.s.s.s.",
"s.s.s.s.s.s.s.s.s.s.s.s.                        4.4.4.4.4.4.4.o.                                        s.s.s.s.s.s.s.s.s.s.s.s.",
"s.s.s.s.s.s.s.s.s.s.  # c g c g c g c u 3 5 c S &.%.&.%.&.%.&.O.Q ^ Q ^ Q ^ Q / Q ! P E P E P E Q / Q E     s.s.s.s.s.s.s.s.s.s.",
"s.s.s.s.s.s.s.s.s.s.    4.4.4.4.4.4.4.;.x J 4.,.X.X.X.X.X.X.X.X.X.X.X.X.X.X.X.X.X.X.X.X.X.X.X.X.X.X.X.X.    s.s.s.s.s.s.s.s.s.s.",
"s.s.s.s.s.s.s.s.  # c G 4.7.y.u.y.t.&.#.' { &.$.X.X.X.X.X.X.X.X.X.X.X.X.X.X.X.X.X.X.X.X.X.X.X.X.X.X.X...c i     s.s.s.s.s.s.s.s.",
"s.s.s.s.s.s.s.s.    4.4.4.8.a.a.a.a.X.X.X.X.X.X.X.X.X.X.X.X.X.X.X.X.X.X.X.X.X.X.X.X.X.X.X.X.X.X.X.X.X.X.4.o.    s.s.s.s.s.s.s.s.",
"s.s.s.s.s.s.  # c G 4.7.y.r._ =.a.i.1.2.1.<.X.X.X.X.X.X.X.X.X.X.X.X.X.X.X.X.X.X.X.X.X.X.X.X.X.X.X.X.X.O.&.+.c i     s.s.s.s.s.s.",
"s.s.s.s.s.s.    4.4.4.8.a.a.  q a.a.4.4.4.4.X.X.X.X.X.X.X.X.X.X.X.X.X.X.X.X.X.X.X.X.X.X.X.X.X.X.X.X.X.X.X.X.4.o.    s.s.s.s.s.s.",
"s.s.s.s.  # c N 4.4.4.5.q.w.6.9.a.p.4.4.4.3.X.X.X.X.X.X.X.X.X.X.X.X.X.X.X.X.X.[ I R I R I ~ X.X.X.X.X.X.X.O.&.+.c i     s.s.s.s.",
"s.s.s.s.    4.4.4.4.4.4.4.8.a.a.a.a.4.4.4.4.X.X.X.X.X.X.X.X.X.X.X.X.X.X.X.X.X.( x x x x x D X.X.X.X.X.X.X.X.X.X.4.o.    s.s.s.s.",
"s.s.  # c N 4.4.4.4.4.4.4.5.q.e.q.0.4.4.4.3.X.X.X.X.X.X.X.X.X.X.X.X.X. .C B C M x x x x x v C B C Z X.X.X.X.X.O.&.+.c i     s.s.",
"s.s.    4.4.4.4.4.4.4.4.4.4.4.4.4.4.4.4.4.4.X.X.X.X.X.X.X.X.X.X.X.X.X.X.x x x x x x x x x x x x x x X.X.X.X.X.X.X.X.4.o.    s.s.",
"s.s.  * < , < : < : < : < 6 K Y K T K W 4.>.b V b A :.-.:.-.:.-.:.@.b m 9 0 9 0 9 0 9 0 9 0 9 0 9 y I U X.X.X.X.X.O.&.]     s.s.",
"s.s.s.s.                                4.o.        4.4.4.4.4.4.4.o.                              ; x x X.X.X.X.X.X.X.X.    s.s.",
"s.s.s.s.                          @ + > d h f a   X < 2 4.4.4.*.< :                               - 9 e z F } X.X.X.X.[     s.s.",
"s.s.s.s.s.s.s.s.s.s.s.s.s.s.s.s.s.s.  ; x x x x         4.4.4.o.    s.s.s.s.s.s.s.s.s.s.s.s.s.s.s.s.      4 X.X.X.X.X.X.    s.s.",
"s.s.s.s.s.s.s.s.s.s.s.s.s.s.s.s.s.s.. % k h 9 8       & < 2 4.`     s.s.s.s.s.s.s.s.s.s.s.s.s.s.s.s.      7 [ X.X.X.X.[     s.s.",
"s.s.s.s.s.s.s.s.s.s.s.s.s.s.s.s.s.s.    x t     s.s.s.s.    4.o.    s.s.s.s.s.s.s.s.s.s.s.s.s.s.s.s.s.s.  4 X.X.X.X.X.X.    s.s.",
"s.s.s.s.s.s.s.s.s.s.s.s.s.s.s.s.s.s.  O $ #     s.s.s.s.  * < =     s.s.s.s.s.s.s.s.s.s.s.s.s.s.s.s.s.s.  1 z F X.X.X.[     s.s.",
"s.s.s.s.s.s.s.s.s.s.s.s.s.s.s.s.s.s.s.s.    s.s.s.s.s.s.s.s.        s.s.s.s.s.s.s.s.s.s.s.s.s.s.s.s.s.s.s.s.  4 X.X.X.X.    s.s.",
"s.s.s.s.s.s.s.s.s.s.s.s.s.s.s.s.s.s.s.s.    s.s.s.s.s.s.s.s.        s.s.s.s.s.s.s.s.s.s.s.s.s.s.          o f m X.X.X.[     s.s.",
"s.s.s.s.s.s.s.s.s.s.s.s.s.s.s.s.s.s.s.s.s.s.s.s.s.s.s.s.s.s.s.s.s.s.s.s.s.s.s.s.s.s.s.s.s.s.s.s.            x x X.X.X.X.    s.s.",
"s.s.s.s.s.s.s.s.s.s.s.s.s.s.s.s.s.s.s.s.s.s.s.s.s.s.s.s.s.s.s.s.s.s.s.s.s.s.s.s.s.s.s.s.s.s.    s f s s s j H L X.| b z     s.s.",
"s.s.s.s.s.s.s.s.s.s.s.s.s.s.s.s.s.s.s.s.s.s.s.s.s.s.s.s.s.s.s.s.s.s.s.s.s.s.s.s.s.s.s.s.s.s.    x x x x x x X.X.X.X.    s.s.s.s.",
"s.s.s.s.s.s.s.s.s.s.s.s.s.s.s.s.s.s.s.s.s.s.s.s.s.s.s.s.s.s.s.s.s.s.s.s.s.s.s.s.s.s.s.s.s.s.    8 w l x x M X.X.X.[     s.s.s.s.",
"s.s.s.s.s.s.s.s.s.s.s.s.s.s.s.s.s.s.s.s.s.s.s.s.s.s.s.s.s.s.s.s.s.s.s.s.s.s.s.s.s.s.s.s.s.s.s.s.  ; x x x x X.X.X.X.    s.s.s.s.",
"s.s.s.s.s.s.s.s.s.s.s.s.s.s.s.s.s.s.s.s.s.s.s.s.s.s.s.s.s.s.s.s.s.s.s.s.s.s.s.s.s.s.s.s.s.s.s.s.  - 8 r l n X.X.b z     s.s.s.s.",
"s.s.s.s.s.s.s.s.s.s.s.s.s.s.s.s.s.s.s.s.s.s.s.s.s.s.s.s.s.s.s.s.s.s.s.s.s.s.s.s.s.s.s.s.s.s.s.s.s.s.  ; x x X.X.    s.s.s.s.s.s.",
"s.s.s.s.s.s.s.s.s.s.s.s.s.s.s.s.s.s.s.s.s.s.s.s.s.s.s.s.s.s.s.s.s.s.s.s.s.s.s.s.s.s.s.s.s.s.s.s.s.s.  - 8 p } X.    s.s.s.s.s.s.",
"s.s.s.s.s.s.s.s.s.s.s.s.s.s.s.s.s.s.s.s.s.s.s.s.s.s.s.s.s.s.s.s.s.s.s.s.s.s.s.s.s.s.s.s.s.s.s.s.s.s.s.s.  4 X.X.    s.s.s.s.s.s.",
"s.s.s.s.s.s.s.s.s.s.s.s.s.s.s.s.s.s.s.s.s.s.s.s.s.s.s.s.s.s.s.s.s.s.s.s.s.s.s.s.s.s.s.s.s.s.s.s.s.s.s.s.  1 z b     s.s.s.s.s.s.",
"s.s.s.s.s.s.s.s.s.s.s.s.s.s.s.s.s.s.s.s.s.s.s.s.s.s.s.s.s.s.s.s.s.s.s.s.s.s.s.s.s.s.s.s.s.s.s.s.s.s.s.s.s.s.    s.s.s.s.s.s.s.s.",
"s.s.s.s.s.s.s.s.s.s.s.s.s.s.s.s.s.s.s.s.s.s.s.s.s.s.s.s.s.s.s.s.s.s.s.s.s.s.s.s.s.s.s.s.s.s.s.s.s.s.s.s.s.s.    s.s.s.s.s.s.s.s.",
"s.s.s.s.s.s.s.s.s.s.s.s.s.s.s.s.s.s.s.s.s.s.s.s.s.s.s.s.s.s.s.s.s.s.s.s.s.s.s.s.s.s.s.s.s.s.s.s.s.s.s.s.s.s.s.s.s.s.s.s.s.s.s.s.",
"s.s.s.s.s.s.s.s.s.s.s.s.s.s.s.s.s.s.s.s.s.s.s.s.s.s.s.s.s.s.s.s.s.s.s.s.s.s.s.s.s.s.s.s.s.s.s.s.s.s.s.s.s.s.s.s.s.s.s.s.s.s.s.s.",
"s.s.s.s.s.s.s.s.s.s.s.s.s.s.s.s.s.s.s.s.s.s.s.s.s.s.s.s.s.s.s.s.s.s.s.s.s.s.s.s.s.s.s.s.s.s.s.s.s.s.s.s.s.s.s.s.s.s.s.s.s.s.s.s.",
"s.s.s.s.s.s.s.s.s.s.s.s.s.s.s.s.s.s.s.s.s.s.s.s.s.s.s.s.s.s.s.s.s.s.s.s.s.s.s.s.s.s.s.s.s.s.s.s.s.s.s.s.s.s.s.s.s.s.s.s.s.s.s.s.",
"s.s.s.s.s.s.s.s.s.s.s.s.s.s.s.s.s.s.s.s.s.s.s.s.s.s.s.s.s.s.s.s.s.s.s.s.s.s.s.s.s.s.s.s.s.s.s.s.s.s.s.s.s.s.s.s.s.s.s.s.s.s.s.s.",
"s.s.s.s.s.s.s.s.s.s.s.s.s.s.s.s.s.s.s.s.s.s.s.s.s.s.s.s.s.s.s.s.s.s.s.s.s.s.s.s.s.s.s.s.s.s.s.s.s.s.s.s.s.s.s.s.s.s.s.s.s.s.s.s.",
"s.s.s.s.s.s.s.s.s.s.s.s.s.s.s.s.s.s.s.s.s.s.s.s.s.s.s.s.s.s.s.s.s.s.s.s.s.s.s.s.s.s.s.s.s.s.s.s.s.s.s.s.s.s.s.s.s.s.s.s.s.s.s.s.",
"s.s.s.s.s.s.s.s.s.s.s.s.s.s.s.s.s.s.s.s.s.s.s.s.s.s.s.s.s.s.s.s.s.s.s.s.s.s.s.s.s.s.s.s.s.s.s.s.s.s.s.s.s.s.s.s.s.s.s.s.s.s.s.s.",
"s.s.s.s.s.s.s.s.s.s.s.s.s.s.s.s.s.s.s.s.s.s.s.s.s.s.s.s.s.s.s.s.s.s.s.s.s.s.s.s.s.s.s.s.s.s.s.s.s.s.s.s.s.s.s.s.s.s.s.s.s.s.s.s.",
"s.s.s.s.s.s.s.s.s.s.s.s.s.s.s.s.s.s.s.s.s.s.s.s.s.s.s.s.s.s.s.s.s.s.s.s.s.s.s.s.s.s.s.s.s.s.s.s.s.s.s.s.s.s.s.s.s.s.s.s.s.s.s.s."
};
