/* XPM */
static char *player_left_3[] = {
/* columns rows colors chars-per-pixel */
"64 64 128 2 ",
"   c gray20",
".  c #333433",
"X  c #343534",
"o  c gray21",
"O  c #373837",
"+  c gray22",
"@  c #393938",
"#  c #3A3A3A",
"$  c #3A3B3B",
"%  c #3C3B3B",
"&  c #3C3C3B",
"*  c #3C3D3C",
"=  c #3E3D3D",
"-  c #3E3E3E",
";  c #3F403F",
":  c #414040",
">  c #404140",
",  c #424140",
"<  c #434242",
"1  c #474646",
"2  c gray28",
"3  c #484948",
"4  c #494949",
"5  c #4C4C4C",
"6  c #4F4D4C",
"7  c gray31",
"8  c #504F4F",
"9  c #4F5050",
"0  c #515151",
"q  c #565453",
"w  c gray35",
"e  c #5A5958",
"r  c #5C5959",
"t  c #5C5A5A",
"y  c gray36",
"u  c #5D5D5E",
"i  c gray37",
"p  c #5E5E5F",
"a  c #5E5F5F",
"s  c #62605F",
"d  c #5F5F60",
"f  c #5F6060",
"g  c #606060",
"h  c gray38",
"j  c #626262",
"k  c #636262",
"l  c gray39",
"z  c #646363",
"x  c #656464",
"c  c #676666",
"v  c #676767",
"b  c #686666",
"n  c #686868",
"m  c #696868",
"M  c DimGray",
"N  c #6A6A69",
"B  c #6C6969",
"V  c #6C6C6B",
"C  c #6D6C6C",
"Z  c #6D6D6D",
"A  c #6F6E6E",
"S  c #706F70",
"D  c #737171",
"F  c #747474",
"G  c gray47",
"H  c #7B7878",
"J  c #7A7A7B",
"K  c #7C7B7B",
"L  c #7E7B7B",
"P  c #7B7C7C",
"I  c #7E7E7E",
"U  c #848383",
"Y  c #858383",
"T  c #858484",
"R  c #888686",
"E  c #888787",
"W  c #8A8989",
"Q  c #8B8B8B",
"!  c #8D8C8C",
"~  c #8E8D8D",
"^  c #8F8D8D",
"/  c #908C8B",
"(  c #908E8D",
")  c #919190",
"_  c gray57",
"`  c #939292",
"'  c #949493",
"]  c #959495",
"[  c gray59",
"{  c #979797",
"}  c gray60",
"|  c #9B9999",
" . c #9A9A9A",
".. c #9C9B9B",
"X. c #9B9B9C",
"o. c gray61",
"O. c gray62",
"+. c #9E9F9E",
"@. c #9F9F9F",
"#. c #A3A1A0",
"$. c #AEAAAA",
"%. c #ABACAB",
"&. c #AEADAD",
"*. c #ADAEAD",
"=. c #B6B5B5",
"-. c gray",
";. c gray76",
":. c #C5C5C5",
">. c #C6C6C6",
",. c #CACACA",
"<. c gray80",
"1. c #D2D2D1",
"2. c #D4D1D2",
"3. c #D4D5D4",
"4. c #D7D8D7",
"5. c #E1DFE0",
"6. c #E6E6E7",
"7. c gray91",
"8. c #E9E8E8",
"9. c #EAEAEA",
"0. c gray92",
"q. c gray95",
"w. c #F7F8F7",
"e. c #F8F8F8",
"r. c gray99",
"t. c #FDFDFE",
"y. c white",
"u. c None",
/* pixels */
"u.u.u.u.u.u.u.u.u.u.u.u.u.u.u.u.u.u.u.u.u.u.u.u.u.u.u.u.u.u.u.u.u.u.u.u.u.u.u.u.u.u.u.u.u.u.u.u.u.u.u.u.u.u.u.u.u.u.u.u.u.u.u.u.",
"u.u.u.u.u.u.u.u.u.u.u.u.u.u.u.u.u.u.u.u.u.u.u.u.u.u.u.u.u.u.u.u.u.u.u.u.u.u.u.u.u.u.u.u.u.u.u.u.u.u.u.u.u.u.u.u.u.u.u.u.u.u.u.u.",
"u.u.u.u.u.u.u.u.u.u.u.u.u.u.u.u.u.u.u.u.u.u.u.u.u.u.u.u.u.u.u.u.u.u.u.u.u.u.u.u.u.u.u.u.u.u.u.u.u.u.u.u.u.u.u.u.u.u.u.u.u.u.u.u.",
"u.u.u.u.u.u.u.u.u.u.u.u.u.u.u.u.u.u.u.u.u.u.u.u.u.u.u.u.u.u.u.u.u.u.u.u.u.u.u.u.u.u.u.u.u.u.u.u.u.u.u.u.u.u.    u.u.u.u.u.u.u.u.",
"u.u.u.u.u.u.u.u.u.u.u.u.u.u.u.u.u.u.u.u.u.u.u.u.u.u.u.u.u.u.u.u.u.u.u.u.u.u.u.u.u.u.u.u.u.u.u.u.u.u.u.u.u.u.    u.u.u.u.u.u.u.u.",
"u.u.u.u.u.u.u.u.u.u.u.u.u.u.u.u.u.u.u.u.u.u.u.u.u.u.u.u.u.u.u.u.u.u.u.u.u.u.u.u.u.u.u.u.u.u.u.u.u.u.u.u.  1 E T     u.u.u.u.u.u.",
"u.u.u.u.u.u.u.u.u.u.u.u.u.u.u.u.u.u.u.u.u.u.u.u.u.u.u.u.u.u.u.u.u.u.u.u.u.u.u.u.u.u.u.u.u.u.u.u.u.u.u.u.  4 } }     u.u.u.u.u.u.",
"u.u.u.u.u.u.u.u.u.u.u.u.u.u.u.u.u.u.u.u.u.u.u.u.u.u.u.u.u.u.u.u.u.u.u.u.u.u.u.u.u.u.u.u.u.u.u.u.u.u.  - a x } '     u.u.u.u.u.u.",
"u.u.u.u.u.u.u.u.u.u.u.u.u.u.u.u.u.u.u.u.u.u.u.u.u.u.u.u.u.u.u.u.u.u.u.u.u.u.u.u.u.u.u.u.u.u.u.u.u.u.  ; v v } }     u.u.u.u.u.u.",
"u.u.u.u.u.u.u.u.u.u.u.u.u.u.u.u.u.u.u.u.u.u.u.u.u.u.u.u.u.u.u.u.u.u.u.u.u.u.u.u.u.u.u.u.u.u.u.u.  - a h v M } { E T     u.u.u.u.",
"u.u.u.u.u.u.u.u.u.u.u.u.u.u.u.u.u.u.u.u.u.u.u.u.u.u.u.u.u.u.u.u.u.u.u.u.u.u.u.u.u.u.u.u.u.u.u.u.  ; v v v v } } } }     u.u.u.u.",
"u.u.u.u.u.u.u.u.u.u.u.u.u.u.u.u.u.u.u.u.u.u.u.u.u.u.u.u.u.u.u.u.u.u.u.u.u.u.u.u.u.u.u.u.u.u.  - a g v v v N } } } '     u.u.u.u.",
"u.u.u.u.u.u.u.u.u.u.u.u.u.u.u.u.u.u.u.u.u.u.u.u.u.u.u.u.u.u.u.u.u.u.u.u.u.u.u.u.u.u.u.u.u.u.  ; v v v v v v } } } }     u.u.u.u.",
"u.u.u.u.u.u.u.u.u.u.u.u.u.u.u.u.u.u.u.u.u.u.u.u.u.u.u.u.u.u.    u.u.u.u.u.u.u.u.u.u.u.u.u.u.  * 9 7 9 7 9 0 Z A } { E T     u.u.",
"u.u.u.u.u.u.u.u.u.u.u.u.u.u.u.u.u.u.u.u.u.u.u.u.u.u.u.u.u.u.    u.u.u.u.u.u.u.u.u.u.u.u.u.u.u.u.            v v } } } }     u.u.",
"u.u.u.u.u.u.u.u.u.u.u.u.u.u.u.u.u.u.u.u.u.u.u.u.u.u.u.u.  + b t     u.u.u.u.u.u.u.u.u.u.u.u.u.u.          O 9 j } } } '     u.u.",
"u.u.u.u.u.u.u.u.u.u.u.u.u.u.u.u.u.u.u.u.u.u.u.u.u.u.u.u.    <.|     u.u.u.u.u.u.u.u.u.u.u.u.u.u.u.u.u.u.u.u.  4 } } } }     u.u.",
"u.u.u.u.u.u.u.u.u.u.u.u.u.u.u.u.u.u.u.u.u.u.u.u.u.u.  @ b B <.(     u.u.u.u.u.u.u.u.u.u.u.u.u.u.u.u.u.u.  1 E ! } } } '     u.u.",
"u.u.u.u.u.u.u.u.u.u.u.u.u.u.u.u.u.u.u.u.u.u.u.u.u.u.    <.<.<.|     u.u.u.u.u.u.u.u.u.u.u.u.u.u.u.u.u.u.  4 } } } } } }     u.u.",
"u.u.u.u.u.u.u.u.u.u.u.u.u.u.u.u.u.u.u.u.u.u.u.u.  + b B <.<.<.(     u.u.u.u.u.u.u.u.u.u.u.u.u.u.u.u.      8 } } } } } '     u.u.",
"u.u.u.u.u.u.u.u.u.u.u.u.u.u.u.u.u.u.u.u.u.u.u.u.    <.<.<.<.<.|     u.u.u.u.u.u.u.u.u.u.u.u.u.u.u.u.      4 } } } } } }     u.u.",
"u.u.u.u.u.u.u.u.u.u.u.u.                      + b B <.<.<.<.<.^                                   * 3 2 e k } } } } } ~     u.u.",
"u.u.u.u.u.u.u.u.u.u.u.u.                        <.<.<.<.<.<.<.|                                   ; v v } } } } } } } }     u.u.",
"u.u.u.u.u.u.u.u.u.u.  @ b s b s b s b r 3 5 b D @.+.@.+.@.+.@. .E W E I a g a g a d y i y i a g a z ) _ } } } } }  .*.`     u.u.",
"u.u.u.u.u.u.u.u.u.u.    <.<.<.<.<.<.<.&.v K <.-.} } } } } } } } } } } Q v v v v v v v v v v v v v v } } } } } } } } <.|     u.u.",
"u.u.u.u.u.u.u.u.  @ b H <.3.w.e.w.q.@.o.) ] @.O.} } } } } } } } } } } _ J G J F v v v v v n J G J P } } } } }  .*...< :     u.u.",
"u.u.u.u.u.u.u.u.    <.<.<.4.y.y.y.y.} } } } } } } } } } } } } } } } } } } } } Q v v v v v v } } } } } } } } } } <.|     u.u.u.u.",
"u.u.u.u.u.u.  @ b H <.3.w.0./ $.y.r.:.>.:.;.} } } } } } } } } } } } } } } } } _ J G J G J P } } } } } } }  .*...< :     u.u.u.u.",
"u.u.u.u.u.u.    <.<.<.4.y.y.  q y.y.<.<.<.<.} } } } } } } } } } } } } } } } } } } } } } } } } } } } } } } } <.|     u.u.u.u.u.u.",
"u.u.u.u.  @ b B <.<.<.1.7.8.2.5.y.t.<.<.<.,.} } } } } } } } } } } } } } } } } } } } } } } } } } } } }  .*...< :     u.u.u.u.u.u.",
"u.u.u.u.    <.<.<.<.<.<.<.4.y.y.y.y.<.<.<.<.} } } } } } } } } } } } } } } } } } } } } } } } } } } } } } <.|     u.u.u.u.u.u.u.u.",
"u.u.  @ b B <.<.<.<.<.<.<.1.7.9.7.6.<.<.<.,.} } } } } } } } } } } } } } } } } } } } } } } } } } } } } [ < :     u.u.u.u.u.u.u.u.",
"u.u.    <.<.<.<.<.<.<.<.<.<.<.<.<.<.<.<.<.<.} } } } } } } } } } } } } } } } } } } } } } } } } } } } } }     u.u.u.u.u.u.u.u.u.u.",
"u.u.  & < , < : < : < : < 6 L U L Y L R <.=.m C m S *.%.*.%.*.%.*.X.m C m C m C m C m C m V k m m C m c     u.u.u.u.u.u.u.u.u.u.",
"u.u.u.u.                                <.|         <.<.<.<.<.<.<.|                                     u.u.u.u.u.u.u.u.u.u.u.u.",
"u.u.u.u.                          + O > p f a u   X < 1 <.<.<.#.< :                                     u.u.u.u.u.u.u.u.u.u.u.u.",
"u.u.u.u.u.u.u.u.u.u.u.u.u.u.u.u.u.u.  ; v v v v         <.<.<.|     u.u.u.u.u.u.u.u.u.u.u.u.u.u.u.u.u.u.u.u.u.u.u.u.u.u.u.u.u.u.",
"u.u.u.u.u.u.u.u.u.u.u.u.u.u.u.u.u.u.. $ l f 9 7       % < 1 <.(     u.u.u.u.u.u.u.u.u.u.u.u.u.u.u.u.u.u.u.u.u.u.u.u.u.u.u.u.u.u.",
"u.u.u.u.u.u.u.u.u.u.u.u.u.u.u.u.u.u.    v w     u.u.u.u.    <.|     u.u.u.u.u.u.u.u.u.u.u.u.u.u.u.u.u.u.u.u.u.u.u.u.u.u.u.u.u.u.",
"u.u.u.u.u.u.u.u.u.u.u.u.u.u.u.u.u.u.  o # @     u.u.u.u.  & < =     u.u.u.u.u.u.u.u.u.u.u.u.u.u.u.u.u.u.u.u.u.u.u.u.u.u.u.u.u.u.",
"u.u.u.u.u.u.u.u.u.u.u.u.u.u.u.u.u.u.u.u.    u.u.u.u.u.u.u.u.        u.u.u.u.u.u.u.u.u.u.u.u.u.u.u.u.u.u.u.u.u.u.u.u.u.u.u.u.u.u.",
"u.u.u.u.u.u.u.u.u.u.u.u.u.u.u.u.u.u.u.u.    u.u.u.u.u.u.u.u.        u.u.u.u.u.u.u.u.u.u.u.u.u.u.u.u.u.u.u.u.u.u.u.u.u.u.u.u.u.u.",
"u.u.u.u.u.u.u.u.u.u.u.u.u.u.u.u.u.u.u.u.u.u.u.u.u.u.u.u.u.u.u.u.u.u.u.u.u.u.u.u.u.u.u.u.u.u.u.u.u.u.u.u.u.u.u.u.u.u.u.u.u.u.u.u.",
"u.u.u.u.u.u.u.u.u.u.u.u.u.u.u.u.u.u.u.u.u.u.u.u.u.u.u.u.u.u.u.u.u.u.u.u.u.u.u.u.u.u.u.u.u.u.u.u.u.u.u.u.u.u.u.u.u.u.u.u.u.u.u.u.",
"u.u.u.u.u.u.u.u.u.u.u.u.u.u.u.u.u.u.u.u.u.u.u.u.u.u.u.u.u.u.u.u.u.u.u.u.u.u.u.u.u.u.u.u.u.u.u.u.u.u.u.u.u.u.u.u.u.u.u.u.u.u.u.u.",
"u.u.u.u.u.u.u.u.u.u.u.u.u.u.u.u.u.u.u.u.u.u.u.u.u.u.u.u.u.u.u.u.u.u.u.u.u.u.u.u.u.u.u.u.u.u.u.u.u.u.u.u.u.u.u.u.u.u.u.u.u.u.u.u.",
"u.u.u.u.u.u.u.u.u.u.u.u.u.u.u.u.u.u.u.u.u.u.u.u.u.u.u.u.u.u.u.u.u.u.u.u.u.u.u.u.u.u.u.u.u.u.u.u.u.u.u.u.u.u.u.u.u.u.u.u.u.u.u.u.",
"u.u.u.u.u.u.u.u.u.u.u.u.u.u.u.u.u.u.u.u.u.u.u.u.u.u.u.u.u.u.u.u.u.u.u.u.u.u.u.u.u.u.u.u.u.u.u.u.u.u.u.u.u.u.u.u.u.u.u.u.u.u.u.u.",
"u.u.u.u.u.u.u.u.u.u.u.u.u.u.u.u.u.u.u.u.u.u.u.u.u.u.u.u.u.u.u.u.u.u.u.u.u.u.u.u.u.u.u.u.u.u.u.u.u.u.u.u.u.u.u.u.u.u.u.u.u.u.u.u.",
"u.u.u.u.u.u.u.u.u.u.u.u.u.u.u.u.u.u.u.u.u.u.u.u.u.u.u.u.u.u.u.u.u.u.u.u.u.u.u.u.u.u.u.u.u.u.u.u.u.u.u.u.u.u.u.u.u.u.u.u.u.u.u.u.",
"u.u.u.u.u.u.u.u.u.u.u.u.u.u.u.u.u.u.u.u.u.u.u.u.u.u.u.u.u.u.u.u.u.u.u.u.u.u.u.u.u.u.u.u.u.u.u.u.u.u.u.u.u.u.u.u.u.u.u.u.u.u.u.u.",
"u.u.u.u.u.u.u.u.u.u.u.u.u.u.u.u.u.u.u.u.u.u.u.u.u.u.u.u.u.u.u.u.u.u.u.u.u.u.u.u.u.u.u.u.u.u.u.u.u.u.u.u.u.u.u.u.u.u.u.u.u.u.u.u.",
"u.u.u.u.u.u.u.u.u.u.u.u.u.u.u.u.u.u.u.u.u.u.u.u.u.u.u.u.u.u.u.u.u.u.u.u.u.u.u.u.u.u.u.u.u.u.u.u.u.u.u.u.u.u.u.u.u.u.u.u.u.u.u.u.",
"u.u.u.u.u.u.u.u.u.u.u.u.u.u.u.u.u.u.u.u.u.u.u.u.u.u.u.u.u.u.u.u.u.u.u.u.u.u.u.u.u.u.u.u.u.u.u.u.u.u.u.u.u.u.u.u.u.u.u.u.u.u.u.u.",
"u.u.u.u.u.u.u.u.u.u.u.u.u.u.u.u.u.u.u.u.u.u.u.u.u.u.u.u.u.u.u.u.u.u.u.u.u.u.u.u.u.u.u.u.u.u.u.u.u.u.u.u.u.u.u.u.u.u.u.u.u.u.u.u.",
"u.u.u.u.u.u.u.u.u.u.u.u.u.u.u.u.u.u.u.u.u.u.u.u.u.u.u.u.u.u.u.u.u.u.u.u.u.u.u.u.u.u.u.u.u.u.u.u.u.u.u.u.u.u.u.u.u.u.u.u.u.u.u.u.",
"u.u.u.u.u.u.u.u.u.u.u.u.u.u.u.u.u.u.u.u.u.u.u.u.u.u.u.u.u.u.u.u.u.u.u.u.u.u.u.u.u.u.u.u.u.u.u.u.u.u.u.u.u.u.u.u.u.u.u.u.u.u.u.u.",
"u.u.u.u.u.u.u.u.u.u.u.u.u.u.u.u.u.u.u.u.u.u.u.u.u.u.u.u.u.u.u.u.u.u.u.u.u.u.u.u.u.u.u.u.u.u.u.u.u.u.u.u.u.u.u.u.u.u.u.u.u.u.u.u.",
"u.u.u.u.u.u.u.u.u.u.u.u.u.u.u.u.u.u.u.u.u.u.u.u.u.u.u.u.u.u.u.u.u.u.u.u.u.u.u.u.u.u.u.u.u.u.u.u.u.u.u.u.u.u.u.u.u.u.u.u.u.u.u.u.",
"u.u.u.u.u.u.u.u.u.u.u.u.u.u.u.u.u.u.u.u.u.u.u.u.u.u.u.u.u.u.u.u.u.u.u.u.u.u.u.u.u.u.u.u.u.u.u.u.u.u.u.u.u.u.u.u.u.u.u.u.u.u.u.u.",
"u.u.u.u.u.u.u.u.u.u.u.u.u.u.u.u.u.u.u.u.u.u.u.u.u.u.u.u.u.u.u.u.u.u.u.u.u.u.u.u.u.u.u.u.u.u.u.u.u.u.u.u.u.u.u.u.u.u.u.u.u.u.u.u.",
"u.u.u.u.u.u.u.u.u.u.u.u.u.u.u.u.u.u.u.u.u.u.u.u.u.u.u.u.u.u.u.u.u.u.u.u.u.u.u.u.u.u.u.u.u.u.u.u.u.u.u.u.u.u.u.u.u.u.u.u.u.u.u.u.",
"u.u.u.u.u.u.u.u.u.u.u.u.u.u.u.u.u.u.u.u.u.u.u.u.u.u.u.u.u.u.u.u.u.u.u.u.u.u.u.u.u.u.u.u.u.u.u.u.u.u.u.u.u.u.u.u.u.u.u.u.u.u.u.u.",
"u.u.u.u.u.u.u.u.u.u.u.u.u.u.u.u.u.u.u.u.u.u.u.u.u.u.u.u.u.u.u.u.u.u.u.u.u.u.u.u.u.u.u.u.u.u.u.u.u.u.u.u.u.u.u.u.u.u.u.u.u.u.u.u."
};
