/* XPM */
static char *player_right_1[] = {
/* columns rows colors chars-per-pixel */
"64 64 127 2 ",
"   c gray20",
".  c #333433",
"X  c #343534",
"o  c gray21",
"O  c #373737",
"+  c #373837",
"@  c gray22",
"#  c #393938",
"$  c #3A3A3A",
"%  c #3A3B3B",
"&  c #3C3B3B",
"*  c #3C3C3B",
"=  c #3F403F",
"-  c #414040",
";  c #404140",
":  c #424140",
">  c #434242",
",  c #444443",
"<  c #474646",
"1  c gray28",
"2  c #484948",
"3  c #494949",
"4  c #4C4C4C",
"5  c #4F4D4C",
"6  c gray31",
"7  c #504F4F",
"8  c #4F5050",
"9  c #525253",
"0  c #565453",
"q  c #555656",
"w  c #585858",
"e  c gray35",
"r  c #5C5959",
"t  c #5D5D5E",
"y  c gray37",
"u  c #5E5E5F",
"i  c #5E5F5F",
"p  c #62605F",
"a  c #5F6060",
"s  c gray39",
"d  c #666565",
"f  c #676666",
"g  c #676767",
"h  c #686666",
"j  c #686868",
"k  c #696868",
"l  c #6C6969",
"z  c #6C6C6C",
"x  c #6D6C6C",
"c  c #6D6D6C",
"v  c #6D6D6D",
"b  c #6E6D6E",
"n  c #706F70",
"m  c #717070",
"M  c #737171",
"N  c #727272",
"B  c #767676",
"V  c #777677",
"C  c #787675",
"Z  c #7B7878",
"A  c #7A7A7B",
"S  c #7C7B7B",
"D  c #7E7B7B",
"F  c #7C7C7C",
"G  c #818081",
"H  c #828181",
"J  c #848383",
"K  c #858383",
"L  c #848484",
"P  c #858484",
"I  c gray52",
"U  c #888686",
"Y  c #888787",
"T  c #878788",
"R  c #898888",
"E  c #8A8989",
"W  c #8B8989",
"Q  c #8B8B8B",
"!  c #8C8B8B",
"~  c #8D8D8C",
"^  c #8E8D8D",
"/  c #8E8E8E",
"(  c #8F8E8E",
")  c #908C8B",
"_  c #919190",
"`  c gray57",
"'  c #929291",
"]  c #949493",
"[  c #959495",
"{  c gray59",
"}  c #989898",
"|  c gray60",
" . c #9B9999",
".. c gray61",
"X. c #9D9E9E",
"o. c gray62",
"O. c #9E9F9E",
"+. c #9F9F9F",
"@. c #ACABAB",
"#. c #AEAAAA",
"$. c #ABACAB",
"%. c #AEADAD",
"&. c #ADAEAD",
"*. c #B6B5B5",
"=. c gray",
"-. c gray76",
";. c #C5C5C5",
":. c #C6C6C6",
">. c #CACACA",
",. c gray80",
"<. c #D2D2D1",
"1. c #D4D1D2",
"2. c #D4D5D4",
"3. c #D7D8D7",
"4. c #E1DFE0",
"5. c #E6E6E7",
"6. c gray91",
"7. c #E9E8E8",
"8. c #EAEAEA",
"9. c gray92",
"0. c gray95",
"q. c #F7F8F7",
"w. c #F8F8F8",
"e. c gray99",
"r. c #FDFDFE",
"t. c white",
"y. c None",
/* pixels */
"y.y.y.y.y.y.y.y.y.y.y.y.y.y.y.y.y.y.y.y.y.y.y.y.y.y.y.y.y.y.y.y.y.y.y.y.y.y.y.y.y.y.y.y.y.y.y.y.y.y.y.y.y.y.y.y.y.y.y.y.y.y.y.y.",
"y.y.y.y.y.y.y.y.y.y.y.y.y.y.y.y.y.y.y.y.y.y.y.y.y.y.y.y.y.y.y.y.y.y.y.y.y.y.y.y.y.y.y.y.y.y.y.y.y.y.y.y.y.y.y.y.y.y.y.y.y.y.y.y.",
"y.y.y.y.y.y.y.y.y.y.y.y.y.y.y.y.y.y.y.y.y.y.y.y.y.y.y.y.y.y.y.y.y.y.y.y.y.y.y.y.y.y.y.y.y.y.y.y.y.y.y.y.y.y.y.y.y.y.y.y.y.y.y.y.",
"y.y.y.y.y.y.y.y.y.y.y.y.y.y.y.y.y.y.y.y.y.y.y.y.y.y.y.y.y.y.y.y.y.y.y.y.y.y.y.y.y.y.y.y.y.y.y.y.y.y.y.y.y.y.y.y.y.y.y.y.y.y.y.y.",
"y.y.y.y.y.y.y.y.y.y.y.y.y.y.y.y.y.y.y.y.y.y.y.y.y.y.y.y.y.y.y.y.y.y.y.y.y.y.y.y.y.y.y.y.y.y.y.y.y.y.y.y.y.y.y.y.y.y.y.y.y.y.y.y.",
"y.y.y.y.y.y.y.y.y.y.y.y.y.y.y.y.y.y.y.y.y.y.y.y.y.y.y.y.y.y.y.y.y.y.y.y.y.y.y.y.y.y.y.y.y.y.y.y.y.y.y.y.y.y.y.y.y.y.y.y.y.y.y.y.",
"y.y.y.y.y.y.y.y.y.y.y.y.y.y.y.y.y.y.y.y.y.y.y.y.y.y.y.y.y.y.y.y.y.y.y.y.y.y.y.y.y.y.y.y.y.y.y.y.y.y.y.y.y.y.y.y.y.y.y.y.y.y.y.y.",
"y.y.y.y.y.y.y.y.y.y.y.y.y.y.y.y.y.y.y.y.y.y.y.y.y.y.y.y.y.y.y.y.y.y.y.y.y.y.y.y.y.y.y.y.y.y.y.y.y.y.y.y.y.y.y.y.y.y.y.y.y.y.y.y.",
"y.y.y.y.y.y.y.y.y.y.y.y.y.y.y.y.y.y.y.y.y.y.y.y.y.y.y.y.y.y.y.y.y.y.y.y.y.y.y.y.y.y.y.y.y.y.y.y.y.y.y.y.y.y.y.y.y.y.y.y.y.y.y.y.",
"y.y.y.y.y.y.y.y.y.y.y.y.y.y.y.y.y.y.y.y.y.y.y.y.y.y.y.y.y.y.y.y.y.y.y.y.y.y.y.y.y.y.y.y.y.y.y.y.y.y.y.y.y.y.y.y.y.y.y.y.y.y.y.y.",
"y.y.y.y.y.y.y.y.y.y.y.y.y.y.y.y.y.y.y.y.y.y.y.y.y.y.y.y.y.y.y.y.y.y.y.y.y.y.y.y.y.y.y.y.y.y.y.y.y.y.y.y.y.y.y.y.y.y.y.y.y.y.y.y.",
"y.y.y.y.y.y.y.y.y.y.y.y.y.y.y.y.y.y.y.y.y.y.y.y.y.y.y.y.y.y.y.y.y.y.y.y.y.y.y.y.y.y.y.y.y.y.y.y.y.y.y.y.y.y.y.y.y.y.y.y.y.y.y.y.",
"y.y.y.y.y.y.y.y.y.y.y.y.y.y.y.y.y.y.y.y.y.y.y.y.y.y.y.y.y.y.y.y.y.y.y.y.y.y.y.y.y.y.y.y.y.y.y.y.y.y.y.y.y.y.y.y.y.y.y.y.y.y.y.y.",
"y.y.y.y.y.y.y.y.y.y.y.y.y.y.y.y.y.y.y.y.y.y.y.y.y.y.y.y.y.y.y.y.    y.y.y.y.y.y.y.y.y.y.y.y.y.y.y.y.y.y.y.y.y.y.y.y.y.y.y.y.y.y.",
"y.y.y.y.y.y.y.y.y.y.y.y.y.y.y.y.y.y.y.y.y.y.y.y.y.y.y.y.y.y.y.y.    y.y.y.y.y.y.y.y.y.y.y.y.y.y.y.y.y.y.y.y.y.y.y.y.y.y.y.y.y.y.",
"y.y.y.y.y.y.y.y.y.y.y.y.y.y.y.y.y.y.y.y.y.y.y.y.y.y.y.y.y.y.  # h h @   y.y.y.y.y.y.y.y.y.y.y.y.y.y.y.y.y.y.y.y.y.y.y.y.y.y.y.y.",
"y.y.y.y.y.y.y.y.y.y.y.y.y.y.y.y.y.y.y.y.y.y.y.y.y.y.y.y.y.y.    ,.,.    y.y.y.y.y.y.y.y.y.y.y.y.y.y.y.y.y.y.y.y.y.y.y.y.y.y.y.y.",
"y.y.y.y.y.y.y.y.y.y.y.y.y.y.y.y.y.y.y.y.y.y.y.y.y.y.y.y.y.y.  O ,.,.l h #   y.y.y.y.y.y.y.y.y.y.y.y.y.y.y.y.y.y.y.y.y.y.y.y.y.y.",
"y.y.y.y.y.y.y.y.y.y.y.y.y.y.y.y.y.y.y.y.y.y.y.y.y.y.y.y.y.y.    ,.,.,.,.    y.y.y.y.y.y.y.y.y.y.y.y.y.y.y.y.y.y.y.y.y.y.y.y.y.y.",
"y.y.y.y.y.y.y.y.y.y.y.y.y.y.y.y.y.y.y.y.y.y.y.y.y.y.y.y.y.y.  O ,.,.,.,.l h @   y.y.y.y.y.y.y.y.y.y.y.y.y.y.y.y.y.y.y.y.y.y.y.y.",
"y.y.y.y.y.y.y.y.y.y.y.y.y.y.y.y.y.y.y.y.y.y.y.y.y.y.y.y.y.y.    ,.,.,.,.,.,.    y.y.y.y.y.y.y.y.y.y.y.y.y.y.y.y.y.y.y.y.y.y.y.y.",
"y.y.y.y.y.y.y.y.y.y.y.y.                                      O ,.,.,.,.,.,.l h @                       y.y.y.y.y.y.y.y.y.y.y.y.",
"y.y.y.y.y.y.y.y.y.y.y.y.                                        ,.,.,.,.,.,.,.,.                        y.y.y.y.y.y.y.y.y.y.y.y.",
"y.y.y.y.y.y.y.y.y.y.  < Y E Y R G P G P G P Y E Y W Y W Y W Y ! +.+.O.+.O.+.O.+.M h 4 2 r h p h p h p h #   y.y.y.y.y.y.y.y.y.y.",
"y.y.y.y.y.y.y.y.y.y.  3 | | | | | | | | | | | | | | | | | | | | | | | | | | | | =.,.S g %.,.,.,.,.,.,.,.    y.y.y.y.y.y.y.y.y.y.",
"y.y.y.y.y.y.y.y.  # h C | | | | | | | | | | | | | | | | | | | | | | | | | | | | o.+.[ _ ..+.0.q.w.q.2.,.Z h #   y.y.y.y.y.y.y.y.",
"y.y.y.y.y.y.y.y.    ,.=.| | | | | | | | | | | | | | | | | | | | | | | | | | | | | | | | | | t.t.t.t.3.,.,.,.    y.y.y.y.y.y.y.y.",
"y.y.y.y.y.y.  # h M +.X.| | | | | | | | | | | | | | | | | | | | | | | | | | | | | | -.;.:.;.e.t.#.) 9.q.2.,.Z h #   y.y.y.y.y.y.",
"y.y.y.y.y.y.    ,.=.| | | | | | | | | | | | | | | | | | | | | | | | | | | | | | | | ,.,.,.,.t.t.0   t.t.3.,.,.,.    y.y.y.y.y.y.",
"y.y.y.y.  @ h M +.X.| | | | | | | } H L H L H I | | | | | | | | | | | | | | | | | | >.,.,.,.r.t.4.1.7.6.<.,.,.,.l h #   y.y.y.y.",
"y.y.y.y.    ,.=.| | | | | | | | | | g g g g g g | | | | | | | | | | | | | | | | | | ,.,.,.,.t.t.t.t.3.,.,.,.,.,.,.,.    y.y.y.y.",
"y.y.  @ h M +.o.| | | | | ^ v c v z g g g g g j v c v B | | | | | | | | | | | | | | >.,.,.,.5.6.8.6.<.,.,.,.,.,.,.,.l h #   y.y.",
"y.y.    ,.=.| | | | | | | Q g g g g g g g g g g g g g N | | | | | | | | | | | | | | ,.,.,.,.,.,.,.,.,.,.,.,.,.,.,.,.,.,.    y.y.",
"y.y.  1 +.o.| | | | | ( H F 8 9 8 9 8 9 8 9 8 9 8 9 8 w k m &.@.&.&.$.&.$.&.n k x k *.,.U D K D J D 5 > - > - > - > : > *   y.y.",
"y.y.  3 | | | | | | | Q g g                                 ,.,.,.,.,.,.,.,.         .,.                                y.y.y.y.",
"y.y.  7 | | | | | { k f 8 6                               & > < ,.,.,.,.< > X   t i a u ; + @                           y.y.y.y.",
"y.y.  3 | | | | | |         y.y.y.y.y.y.y.y.y.y.y.y.y.y.y.y.    ,.,.,.,.        g g g g =   y.y.y.y.y.y.y.y.y.y.y.y.y.y.y.y.y.y.",
"y.y.  7 | | | | | ]         y.y.y.y.y.y.y.y.y.y.y.y.y.y.y.y.  O ,.,.< > &       6 8 a s % . y.y.y.y.y.y.y.y.y.y.y.y.y.y.y.y.y.y.",
"y.y.  3 | | | | | |     y.y.y.y.y.y.y.y.y.y.y.y.y.y.y.y.y.y.    ,.,.    y.y.y.y.    e g     y.y.y.y.y.y.y.y.y.y.y.y.y.y.y.y.y.y.",
"y.y.  7 | | | { k f     y.y.y.y.y.y.y.y.y.y.y.y.y.y.y.y.y.y.  X > > *   y.y.y.y.    # $ o   y.y.y.y.y.y.y.y.y.y.y.y.y.y.y.y.y.y.",
"y.y.  3 | | | |     y.y.y.y.y.y.y.y.y.y.y.y.y.y.y.y.y.y.y.y.        y.y.y.y.y.y.y.y.    y.y.y.y.y.y.y.y.y.y.y.y.y.y.y.y.y.y.y.y.",
"y.y.  7 | | | ' i q             y.y.y.y.y.y.y.y.y.y.y.y.y.y.        y.y.y.y.y.y.y.y.    y.y.y.y.y.y.y.y.y.y.y.y.y.y.y.y.y.y.y.y.",
"y.y.  3 | | | Q g e             y.y.y.y.y.y.y.y.y.y.y.y.y.y.y.y.y.y.y.y.y.y.y.y.y.y.y.y.y.y.y.y.y.y.y.y.y.y.y.y.y.y.y.y.y.y.y.y.",
"y.y.  , k V | ` A b i y i y i y     y.y.y.y.y.y.y.y.y.y.y.y.y.y.y.y.y.y.y.y.y.y.y.y.y.y.y.y.y.y.y.y.y.y.y.y.y.y.y.y.y.y.y.y.y.y.",
"y.y.y.y.  3 | | | Q g g g g g g     y.y.y.y.y.y.y.y.y.y.y.y.y.y.y.y.y.y.y.y.y.y.y.y.y.y.y.y.y.y.y.y.y.y.y.y.y.y.y.y.y.y.y.y.y.y.",
"y.y.y.y.  7 | | | ~ g g g d 8 6     y.y.y.y.y.y.y.y.y.y.y.y.y.y.y.y.y.y.y.y.y.y.y.y.y.y.y.y.y.y.y.y.y.y.y.y.y.y.y.y.y.y.y.y.y.y.",
"y.y.y.y.  3 | | | Q g g g g     y.y.y.y.y.y.y.y.y.y.y.y.y.y.y.y.y.y.y.y.y.y.y.y.y.y.y.y.y.y.y.y.y.y.y.y.y.y.y.y.y.y.y.y.y.y.y.y.",
"y.y.y.y.  , k V | T g d 8 6     y.y.y.y.y.y.y.y.y.y.y.y.y.y.y.y.y.y.y.y.y.y.y.y.y.y.y.y.y.y.y.y.y.y.y.y.y.y.y.y.y.y.y.y.y.y.y.y.",
"y.y.y.y.y.y.  3 | Q g g     y.y.y.y.y.y.y.y.y.y.y.y.y.y.y.y.y.y.y.y.y.y.y.y.y.y.y.y.y.y.y.y.y.y.y.y.y.y.y.y.y.y.y.y.y.y.y.y.y.y.",
"y.y.y.y.y.y.  7 | / 8 6     y.y.y.y.y.y.y.y.y.y.y.y.y.y.y.y.y.y.y.y.y.y.y.y.y.y.y.y.y.y.y.y.y.y.y.y.y.y.y.y.y.y.y.y.y.y.y.y.y.y.",
"y.y.y.y.y.y.  3 | |     y.y.y.y.y.y.y.y.y.y.y.y.y.y.y.y.y.y.y.y.y.y.y.y.y.y.y.y.y.y.y.y.y.y.y.y.y.y.y.y.y.y.y.y.y.y.y.y.y.y.y.y.",
"y.y.y.y.y.y.  , k f     y.y.y.y.y.y.y.y.y.y.y.y.y.y.y.y.y.y.y.y.y.y.y.y.y.y.y.y.y.y.y.y.y.y.y.y.y.y.y.y.y.y.y.y.y.y.y.y.y.y.y.y.",
"y.y.y.y.y.y.y.y.    y.y.y.y.y.y.y.y.y.y.y.y.y.y.y.y.y.y.y.y.y.y.y.y.y.y.y.y.y.y.y.y.y.y.y.y.y.y.y.y.y.y.y.y.y.y.y.y.y.y.y.y.y.y.",
"y.y.y.y.y.y.y.y.    y.y.y.y.y.y.y.y.y.y.y.y.y.y.y.y.y.y.y.y.y.y.y.y.y.y.y.y.y.y.y.y.y.y.y.y.y.y.y.y.y.y.y.y.y.y.y.y.y.y.y.y.y.y.",
"y.y.y.y.y.y.y.y.y.y.y.y.y.y.y.y.y.y.y.y.y.y.y.y.y.y.y.y.y.y.y.y.y.y.y.y.y.y.y.y.y.y.y.y.y.y.y.y.y.y.y.y.y.y.y.y.y.y.y.y.y.y.y.y.",
"y.y.y.y.y.y.y.y.y.y.y.y.y.y.y.y.y.y.y.y.y.y.y.y.y.y.y.y.y.y.y.y.y.y.y.y.y.y.y.y.y.y.y.y.y.y.y.y.y.y.y.y.y.y.y.y.y.y.y.y.y.y.y.y.",
"y.y.y.y.y.y.y.y.y.y.y.y.y.y.y.y.y.y.y.y.y.y.y.y.y.y.y.y.y.y.y.y.y.y.y.y.y.y.y.y.y.y.y.y.y.y.y.y.y.y.y.y.y.y.y.y.y.y.y.y.y.y.y.y.",
"y.y.y.y.y.y.y.y.y.y.y.y.y.y.y.y.y.y.y.y.y.y.y.y.y.y.y.y.y.y.y.y.y.y.y.y.y.y.y.y.y.y.y.y.y.y.y.y.y.y.y.y.y.y.y.y.y.y.y.y.y.y.y.y.",
"y.y.y.y.y.y.y.y.y.y.y.y.y.y.y.y.y.y.y.y.y.y.y.y.y.y.y.y.y.y.y.y.y.y.y.y.y.y.y.y.y.y.y.y.y.y.y.y.y.y.y.y.y.y.y.y.y.y.y.y.y.y.y.y.",
"y.y.y.y.y.y.y.y.y.y.y.y.y.y.y.y.y.y.y.y.y.y.y.y.y.y.y.y.y.y.y.y.y.y.y.y.y.y.y.y.y.y.y.y.y.y.y.y.y.y.y.y.y.y.y.y.y.y.y.y.y.y.y.y.",
"y.y.y.y.y.y.y.y.y.y.y.y.y.y.y.y.y.y.y.y.y.y.y.y.y.y.y.y.y.y.y.y.y.y.y.y.y.y.y.y.y.y.y.y.y.y.y.y.y.y.y.y.y.y.y.y.y.y.y.y.y.y.y.y.",
"y.y.y.y.y.y.y.y.y.y.y.y.y.y.y.y.y.y.y.y.y.y.y.y.y.y.y.y.y.y.y.y.y.y.y.y.y.y.y.y.y.y.y.y.y.y.y.y.y.y.y.y.y.y.y.y.y.y.y.y.y.y.y.y.",
"y.y.y.y.y.y.y.y.y.y.y.y.y.y.y.y.y.y.y.y.y.y.y.y.y.y.y.y.y.y.y.y.y.y.y.y.y.y.y.y.y.y.y.y.y.y.y.y.y.y.y.y.y.y.y.y.y.y.y.y.y.y.y.y.",
"y.y.y.y.y.y.y.y.y.y.y.y.y.y.y.y.y.y.y.y.y.y.y.y.y.y.y.y.y.y.y.y.y.y.y.y.y.y.y.y.y.y.y.y.y.y.y.y.y.y.y.y.y.y.y.y.y.y.y.y.y.y.y.y."
};
