/* XPM */
static char *player_right_2[] = {
/* columns rows colors chars-per-pixel */
"64 64 131 2 ",
"   c gray20",
".  c #343434",
"X  c #343534",
"o  c #373737",
"O  c gray22",
"+  c #393938",
"@  c #393939",
"#  c #3A3A3A",
"$  c gray23",
"%  c #3C3D3C",
"&  c gray24",
"*  c #3E3E3E",
"=  c #3E3F3E",
"-  c #403F3F",
";  c #3F403F",
":  c gray25",
">  c #414040",
",  c #414140",
"<  c #424140",
"1  c #434141",
"2  c #434242",
"3  c #434343",
"4  c #464544",
"5  c #474645",
"6  c gray28",
"7  c #484848",
"8  c #484948",
"9  c #494949",
"0  c #4A4848",
"q  c #4A4948",
"w  c #4C4C4C",
"e  c #4D4C4C",
"r  c #4F4E4F",
"t  c gray31",
"y  c #4F5050",
"u  c #535353",
"i  c #545353",
"p  c #565453",
"a  c gray35",
"s  c #5A5958",
"d  c #5B5959",
"f  c #5B5A5A",
"g  c #5C5A5A",
"h  c #5E5C5B",
"j  c gray37",
"k  c #5F5E5E",
"l  c #5E5E5F",
"z  c #5E5F5F",
"x  c #605E5E",
"c  c #605F5E",
"v  c #62605F",
"b  c #626262",
"n  c gray39",
"m  c #656565",
"M  c #666565",
"N  c gray40",
"B  c #676767",
"V  c #686666",
"C  c #686766",
"Z  c #686868",
"A  c #696868",
"S  c DimGray",
"D  c #6A6A6A",
"F  c #6D6C6C",
"G  c #717070",
"H  c #767474",
"J  c #767676",
"K  c #7A7A7B",
"L  c #7D7A7A",
"P  c #7E7B7B",
"I  c #7D7C7C",
"U  c #808080",
"Y  c #828181",
"T  c #838282",
"R  c #838383",
"E  c #848383",
"W  c #858383",
"Q  c #888787",
"!  c #8A8989",
"~  c #8B8989",
"^  c #8D8B8B",
"/  c #8D8B8C",
"(  c #8D8C8C",
")  c #908C8B",
"_  c #919190",
"`  c #939393",
"'  c #949393",
"]  c gray58",
"[  c #959494",
"{  c #959595",
"}  c gray60",
"|  c #9B9999",
" . c #9A9A9A",
".. c gray62",
"X. c #9E9F9E",
"o. c #9F9F9F",
"O. c #A39FA0",
"+. c #A3A1A0",
"@. c #A1A2A2",
"#. c gray64",
"$. c #A5A5A5",
"%. c gray66",
"&. c #AAAAAA",
"*. c #ACABAB",
"=. c #ADAEAD",
"-. c #AFAEAF",
";. c #B0AFAF",
":. c #B2B1B1",
">. c #B4B4B4",
",. c #B6B5B5",
"<. c #B9B9B9",
"1. c gray",
"2. c #C5C5C5",
"3. c #C6C6C6",
"4. c gray80",
"5. c #D2D2D1",
"6. c #D4D1D2",
"7. c gray83",
"8. c #D7D8D7",
"9. c #D9DADA",
"0. c #DEDDDE",
"q. c #E6E6E7",
"w. c gray91",
"e. c #EAEBEB",
"r. c gray96",
"t. c #F7F8F7",
"y. c #F8F8F8",
"u. c #F9F9F9",
"i. c #FBFBFB",
"p. c white",
"a. c None",
/* pixels */
"a.a.a.a.a.a.a.a.a.a.a.a.a.a.a.a.a.a.a.a.a.a.a.a.a.a.a.a.a.a.a.a.a.a.a.a.a.a.a.a.a.a.a.a.a.a.a.a.a.a.a.a.a.a.a.a.a.a.a.a.a.a.a.a.",
"a.a.a.a.a.a.a.a.a.a.a.a.a.a.a.a.a.a.a.a.a.a.a.a.a.a.a.a.a.a.a.a.a.a.a.a.a.a.a.a.a.a.a.a.a.a.a.a.a.a.a.a.a.a.a.a.a.a.a.a.a.a.a.a.",
"a.a.a.a.a.a.a.a.a.a.a.a.a.a.a.a.a.a.a.a.a.a.a.a.a.a.a.a.a.a.a.a.a.a.a.a.a.a.a.a.a.a.a.a.a.a.a.a.a.a.a.a.a.a.a.a.a.a.a.a.a.a.a.a.",
"a.a.a.a.a.a.a.a.a.a.a.a.a.a.a.a.a.a.a.a.a.a.a.a.a.a.a.a.a.a.a.a.a.a.a.a.a.a.a.a.a.a.a.a.a.a.a.a.a.a.a.a.a.a.a.a.a.a.a.a.a.a.a.a.",
"a.a.a.a.a.a.a.a.a.a.a.a.a.a.a.a.a.a.a.a.a.a.a.a.a.a.a.a.a.a.a.a.a.a.a.a.a.a.a.a.a.a.a.a.a.a.a.a.a.a.a.a.a.a.a.a.a.a.a.a.a.a.a.a.",
"a.a.a.a.a.a.a.a.a.a.a.a.a.a.a.a.a.a.a.a.a.a.a.a.a.a.a.a.a.a.a.a.a.a.a.a.a.a.a.a.a.a.a.a.a.a.a.a.a.a.a.a.a.a.a.a.a.a.a.a.a.a.a.a.",
"a.a.a.a.a.a.a.a.a.a.a.a.a.a.a.a.a.a.a.a.a.a.a.a.a.a.a.a.a.a.a.a.a.a.a.a.a.a.a.a.a.a.a.a.a.a.a.a.a.a.a.a.a.a.a.a.a.a.a.a.a.a.a.a.",
"a.a.a.a.a.a.a.a.a.a.a.a.a.a.a.a.a.a.a.a.a.a.a.a.a.a.a.a.a.a.a.a.a.a.a.a.a.a.a.a.a.a.a.a.a.a.a.a.a.a.a.a.a.a.a.a.a.a.a.a.a.a.a.a.",
"a.a.a.a.a.a.a.a.a.a.a.a.a.a.a.a.a.a.a.a.a.a.a.a.a.a.a.a.a.a.a.a.a.a.a.a.a.a.a.a.a.a.a.a.a.a.a.a.a.a.a.a.a.a.a.a.a.a.a.a.a.a.a.a.",
"a.a.a.a.a.a.a.a.a.a.a.a.a.a.a.a.a.a.a.a.a.a.a.a.a.a.a.a.a.a.a.a.a.a.a.a.a.a.a.a.a.a.a.a.a.a.a.a.a.a.a.a.a.a.a.a.a.a.a.a.a.a.a.a.",
"a.a.a.a.a.a.a.a.a.a.a.a.a.a.a.a.a.a.a.a.a.a.a.a.a.a.a.a.a.a.a.a.a.a.a.a.a.a.a.a.a.a.a.a.a.a.a.a.a.a.a.a.a.a.a.a.a.a.a.a.a.a.a.a.",
"a.a.a.a.a.a.a.a.a.a.a.a.a.a.a.a.a.a.a.a.a.a.a.a.a.a.a.a.a.a.a.a.a.a.a.a.a.a.a.a.a.a.a.a.a.a.a.a.a.a.a.a.a.a.a.a.a.a.a.a.a.a.a.a.",
"a.a.a.a.a.a.a.a.a.a.a.a.a.a.a.a.a.a.a.a.a.a.a.a.a.a.a.a.a.a.a.a.a.a.a.a.a.a.a.a.a.a.a.a.a.a.a.a.a.a.a.a.a.a.a.a.a.a.a.a.a.a.a.a.",
"a.a.a.a.a.a.a.a.a.a.a.a.a.a.a.a.a.a.a.a.a.a.a.a.a.a.a.a.a.a.    a.a.a.a.a.a.a.a.a.a.a.a.a.a.a.a.a.a.a.a.a.a.a.a.a.a.a.a.a.a.a.a.",
"a.a.a.a.a.a.a.a.a.a.a.a.a.a.a.a.a.a.a.a.a.a.a.a.a.a.a.a.a.a.    a.a.a.a.a.a.a.a.a.a.a.a.a.a.a.a.a.a.a.a.a.a.a.a.a.a.a.a.a.a.a.a.",
"a.a.a.a.a.a.a.a.a.a.a.a.a.a.a.a.a.a.a.a.a.a.a.a.a.a.a.a.  + V g     a.a.a.a.a.a.a.a.a.a.a.a.a.a.a.a.a.a.a.a.a.a.a.a.a.a.a.a.a.a.",
"a.a.a.a.a.a.a.a.a.a.a.a.a.a.a.a.a.a.a.a.a.a.a.a.a.a.a.a.    4.|     a.a.a.a.a.a.a.a.a.a.a.a.a.a.a.a.a.a.a.a.a.a.a.a.a.a.a.a.a.a.",
"a.a.a.a.a.a.a.a.a.a.a.a.a.a.a.a.a.a.a.a.a.a.a.a.a.a.a.a.  o 4.;.V g     a.a.a.a.a.a.a.a.a.a.a.a.a.a.a.a.a.a.a.a.a.a.a.a.a.a.a.a.",
"a.a.a.a.a.a.a.a.a.a.a.a.a.a.a.a.a.a.a.a.a.a.a.a.a.a.a.a.    4.4.4.|     a.a.a.a.a.a.a.a.a.a.a.a.a.a.a.a.a.a.a.a.a.a.a.a.a.a.a.a.",
"a.a.        a.a.a.a.a.a.a.a.a.a.a.a.a.a.a.a.a.a.a.a.a.a.  o 4.4.4.;.V g     a.a.a.a.a.a.a.a.a.a.a.a.a.a.a.a.a.a.a.a.a.a.a.a.a.a.",
"a.a.        a.a.a.a.a.a.a.a.a.a.a.a.a.a.a.a.a.a.a.a.a.a.    4.4.4.4.4.|     a.a.a.a.a.a.a.a.a.a.a.a.a.a.a.a.a.a.a.a.a.a.a.a.a.a.",
"a.a.  & j z     a.a.a.a.a.a.                              6 o.@.4.4.4.;.V h 0 4                         a.a.a.a.a.a.a.a.a.a.a.a.",
"a.a.  ; B B     a.a.a.a.a.a.                              9 } } 4.4.4.4.4.|                             a.a.a.a.a.a.a.a.a.a.a.a.",
"a.a.  * # # j z *             2 ' [ ' [ ' [ { ] Q ! Q ~ Q ( }  .o.X.o.X.o./ c k V x 8 7 V v V v V v V g     a.a.a.a.a.a.a.a.a.a.",
"a.a.a.a.    B B ;             f } } } } } } } } } } } } } } } } } } } } } } } } 4.4.B B 4.4.4.4.4.4.4.|     a.a.a.a.a.a.a.a.a.a.",
"a.a.a.a.  O b B e 6 i g V C s J } } } } } } } } } } } } } } } } } } } } } } }  .o..._ ` o.:.t.y.t.r.4.2.V g     a.a.a.a.a.a.a.a.",
"a.a.a.a.  ; B B B B } } 4.1.} } } } } } } } } } } } } } } } } } } } } } } } } } } } } } } -.p.p.p.p.4.4.4.|     a.a.a.a.a.a.a.a.",
"a.a.a.a.  3 N B B D Y R ,.,.=.#.} } } } } } } } } } } } } } } } } } } } } } } } } #.2.3.2.7.p.u.) O.t.r.4.2.V g     a.a.a.a.a.a.",
"a.a.a.a.  ; B B B B B B } $.4.>.} } } } } } } } } } } } } } } } } } } } } } } } } $.4.4.4.8.p.p.  p p.p.4.4.4.|     a.a.a.a.a.a.",
"a.a.a.a.  3 M B B Z K I =.:.,.&.} } } } } } } } } } } } } } } } } } } } } } } } } %.4.4.4.9.p.i.6.0.w.q.4.4.4.;.V g     a.a.a.a.",
"a.a.a.a.  ; B B B B } } 4.4.} } } } } } } } } } } } } } } } } } } } } } } } } } } $.4.4.4.8.p.p.p.p.4.4.4.4.4.4.4.|     a.a.a.a.",
"a.a.a.a.  = n m # $ - : 2 , - 2 } } } } } } } } } } } } } } } } } } } } } } } } } %.4.4.4.5.w.e.w.q.4.4.4.4.4.4.4.;.V g     a.a.",
"a.a.a.a.  ; B B                 } } } } } } } } } } } } } } } } } } } } } } } } } $.4.4.4.4.4.4.4.4.4.4.4.4.4.4.4.4.4.|     a.a.",
"a.a.  = 7 w t t               . A F U T U T U T U T A F A G =.*.=.*.=.^ q 6 A F A H 4.<.P E P W P L 2 < 2 < 2 < 2 > 2 >     a.a.",
"a.a.  ; B B     a.a.a.a.a.a.                                4.4.4.4.4.|             4.|                                 a.a.a.a.",
"a.a.  # r t     a.a.a.a.a.a.                              o 4.4.4.+.2 1 d 5   = m N S m                                 a.a.a.a.",
"a.a.        a.a.a.a.a.a.a.a.a.a.a.a.a.a.a.a.a.a.a.a.a.a.    4.4.4.|     a.a.  ; B B B B     a.a.a.a.a.a.a.a.a.a.a.a.a.a.a.a.a.a.",
"a.a.        a.a.a.a.a.a.a.a.a.a.a.a.a.a.a.a.a.a.a.a.a.a.  o 4.+.2 >     a.a.  % y u B l     a.a.a.a.a.a.a.a.a.a.a.a.a.a.a.a.a.a.",
"a.a.a.a.a.a.a.a.a.a.a.a.a.a.a.a.a.a.a.a.a.a.a.a.a.a.a.a.    4.|     a.a.a.a.a.a.    B a     a.a.a.a.a.a.a.a.a.a.a.a.a.a.a.a.a.a.",
"a.a.a.a.a.a.a.a.a.a.a.a.a.a.a.a.a.a.a.a.a.a.a.a.a.a.a.a.  X 2 >     a.a.a.a.a.a.  o # @     a.a.a.a.a.a.a.a.a.a.a.a.a.a.a.a.a.a.",
"a.a.a.a.a.a.a.a.a.a.a.a.a.a.a.a.a.a.a.a.a.a.a.a.a.a.a.a.        a.a.a.a.a.a.a.a.a.a.    a.a.a.a.a.a.a.a.a.a.a.a.a.a.a.a.a.a.a.a.",
"a.a.a.a.a.a.a.a.a.a.a.a.a.a.a.a.a.a.a.a.a.a.a.a.a.a.a.a.        a.a.a.a.a.a.a.a.a.a.    a.a.a.a.a.a.a.a.a.a.a.a.a.a.a.a.a.a.a.a.",
"a.a.a.a.a.a.a.a.a.a.a.a.a.a.a.a.a.a.a.a.a.a.a.a.a.a.a.a.a.a.a.a.a.a.a.a.a.a.a.a.a.a.a.a.a.a.a.a.a.a.a.a.a.a.a.a.a.a.a.a.a.a.a.a.",
"a.a.a.a.a.a.a.a.a.a.a.a.a.a.a.a.a.a.a.a.a.a.a.a.a.a.a.a.a.a.a.a.a.a.a.a.a.a.a.a.a.a.a.a.a.a.a.a.a.a.a.a.a.a.a.a.a.a.a.a.a.a.a.a.",
"a.a.a.a.a.a.a.a.a.a.a.a.a.a.a.a.a.a.a.a.a.a.a.a.a.a.a.a.a.a.a.a.a.a.a.a.a.a.a.a.a.a.a.a.a.a.a.a.a.a.a.a.a.a.a.a.a.a.a.a.a.a.a.a.",
"a.a.a.a.a.a.a.a.a.a.a.a.a.a.a.a.a.a.a.a.a.a.a.a.a.a.a.a.a.a.a.a.a.a.a.a.a.a.a.a.a.a.a.a.a.a.a.a.a.a.a.a.a.a.a.a.a.a.a.a.a.a.a.a.",
"a.a.a.a.a.a.a.a.a.a.a.a.a.a.a.a.a.a.a.a.a.a.a.a.a.a.a.a.a.a.a.a.a.a.a.a.a.a.a.a.a.a.a.a.a.a.a.a.a.a.a.a.a.a.a.a.a.a.a.a.a.a.a.a.",
"a.a.a.a.a.a.a.a.a.a.a.a.a.a.a.a.a.a.a.a.a.a.a.a.a.a.a.a.a.a.a.a.a.a.a.a.a.a.a.a.a.a.a.a.a.a.a.a.a.a.a.a.a.a.a.a.a.a.a.a.a.a.a.a.",
"a.a.a.a.a.a.a.a.a.a.a.a.a.a.a.a.a.a.a.a.a.a.a.a.a.a.a.a.a.a.a.a.a.a.a.a.a.a.a.a.a.a.a.a.a.a.a.a.a.a.a.a.a.a.a.a.a.a.a.a.a.a.a.a.",
"a.a.a.a.a.a.a.a.a.a.a.a.a.a.a.a.a.a.a.a.a.a.a.a.a.a.a.a.a.a.a.a.a.a.a.a.a.a.a.a.a.a.a.a.a.a.a.a.a.a.a.a.a.a.a.a.a.a.a.a.a.a.a.a.",
"a.a.a.a.a.a.a.a.a.a.a.a.a.a.a.a.a.a.a.a.a.a.a.a.a.a.a.a.a.a.a.a.a.a.a.a.a.a.a.a.a.a.a.a.a.a.a.a.a.a.a.a.a.a.a.a.a.a.a.a.a.a.a.a.",
"a.a.a.a.a.a.a.a.a.a.a.a.a.a.a.a.a.a.a.a.a.a.a.a.a.a.a.a.a.a.a.a.a.a.a.a.a.a.a.a.a.a.a.a.a.a.a.a.a.a.a.a.a.a.a.a.a.a.a.a.a.a.a.a.",
"a.a.a.a.a.a.a.a.a.a.a.a.a.a.a.a.a.a.a.a.a.a.a.a.a.a.a.a.a.a.a.a.a.a.a.a.a.a.a.a.a.a.a.a.a.a.a.a.a.a.a.a.a.a.a.a.a.a.a.a.a.a.a.a.",
"a.a.a.a.a.a.a.a.a.a.a.a.a.a.a.a.a.a.a.a.a.a.a.a.a.a.a.a.a.a.a.a.a.a.a.a.a.a.a.a.a.a.a.a.a.a.a.a.a.a.a.a.a.a.a.a.a.a.a.a.a.a.a.a.",
"a.a.a.a.a.a.a.a.a.a.a.a.a.a.a.a.a.a.a.a.a.a.a.a.a.a.a.a.a.a.a.a.a.a.a.a.a.a.a.a.a.a.a.a.a.a.a.a.a.a.a.a.a.a.a.a.a.a.a.a.a.a.a.a.",
"a.a.a.a.a.a.a.a.a.a.a.a.a.a.a.a.a.a.a.a.a.a.a.a.a.a.a.a.a.a.a.a.a.a.a.a.a.a.a.a.a.a.a.a.a.a.a.a.a.a.a.a.a.a.a.a.a.a.a.a.a.a.a.a.",
"a.a.a.a.a.a.a.a.a.a.a.a.a.a.a.a.a.a.a.a.a.a.a.a.a.a.a.a.a.a.a.a.a.a.a.a.a.a.a.a.a.a.a.a.a.a.a.a.a.a.a.a.a.a.a.a.a.a.a.a.a.a.a.a.",
"a.a.a.a.a.a.a.a.a.a.a.a.a.a.a.a.a.a.a.a.a.a.a.a.a.a.a.a.a.a.a.a.a.a.a.a.a.a.a.a.a.a.a.a.a.a.a.a.a.a.a.a.a.a.a.a.a.a.a.a.a.a.a.a.",
"a.a.a.a.a.a.a.a.a.a.a.a.a.a.a.a.a.a.a.a.a.a.a.a.a.a.a.a.a.a.a.a.a.a.a.a.a.a.a.a.a.a.a.a.a.a.a.a.a.a.a.a.a.a.a.a.a.a.a.a.a.a.a.a.",
"a.a.a.a.a.a.a.a.a.a.a.a.a.a.a.a.a.a.a.a.a.a.a.a.a.a.a.a.a.a.a.a.a.a.a.a.a.a.a.a.a.a.a.a.a.a.a.a.a.a.a.a.a.a.a.a.a.a.a.a.a.a.a.a.",
"a.a.a.a.a.a.a.a.a.a.a.a.a.a.a.a.a.a.a.a.a.a.a.a.a.a.a.a.a.a.a.a.a.a.a.a.a.a.a.a.a.a.a.a.a.a.a.a.a.a.a.a.a.a.a.a.a.a.a.a.a.a.a.a.",
"a.a.a.a.a.a.a.a.a.a.a.a.a.a.a.a.a.a.a.a.a.a.a.a.a.a.a.a.a.a.a.a.a.a.a.a.a.a.a.a.a.a.a.a.a.a.a.a.a.a.a.a.a.a.a.a.a.a.a.a.a.a.a.a.",
"a.a.a.a.a.a.a.a.a.a.a.a.a.a.a.a.a.a.a.a.a.a.a.a.a.a.a.a.a.a.a.a.a.a.a.a.a.a.a.a.a.a.a.a.a.a.a.a.a.a.a.a.a.a.a.a.a.a.a.a.a.a.a.a.",
"a.a.a.a.a.a.a.a.a.a.a.a.a.a.a.a.a.a.a.a.a.a.a.a.a.a.a.a.a.a.a.a.a.a.a.a.a.a.a.a.a.a.a.a.a.a.a.a.a.a.a.a.a.a.a.a.a.a.a.a.a.a.a.a."
};
