/* XPM */
static char *player_down_3[] = {
/* columns rows colors chars-per-pixel */
"64 64 49 1 ",
"  c gray20",
". c gray21",
"X c #383938",
"o c #3A3A39",
"O c #3F403F",
"+ c gray26",
"@ c #434443",
"# c #494949",
"$ c #4B4B4B",
"% c gray30",
"& c #4E4D4D",
"* c gray31",
"= c #545353",
"- c #565453",
"; c gray35",
": c #5F5E5D",
"> c #676767",
", c #696968",
"< c #6A6A69",
"1 c #727272",
"2 c #777473",
"3 c #767474",
"4 c #7C7879",
"5 c #7C7A79",
"6 c #7C7B7B",
"7 c #848383",
"8 c #8B8B8B",
"9 c #8C8A8A",
"0 c #939191",
"q c gray60",
"w c #9B9999",
"e c #9C9A9A",
"r c #A09E9D",
"t c #A5A5A5",
"y c #A7A7A7",
"u c #A8A7A7",
"i c #AEADAD",
"p c #B2B2B2",
"a c #BCBCBC",
"s c gray",
"d c gray75",
"f c gray80",
"g c #CECECF",
"h c gray83",
"j c #D7D8D7",
"k c #D8D8D9",
"l c gray85",
"z c white",
"x c None",
/* pixels */
"xxxxxxxxxxxxxxxxxxxxxxxxxxxxxxxxxxxxxxxxxxxxxxxxxxxxxxxxxxxxxxxx",
"xxxxxxxxxxxxxxxxxxxxxxxxxxxxxxxxxxxxxxxxxxxxxxxxxxxxxxxxxxxxxxxx",
"xxxxxxxxxxxxxxxxxxxxxxx            xxxxxxxxxxxxxxxxxxxxxxxxxxxxx",
"xxxxxxxxxxxxxxxxxxxxxxx            xxxxxxxxxxxxxxxxxxxxxxxxxxxxx",
"xxxxxxxxxxxxxxxxxxx   #qqqqqqqqqqw5  xxxxxxxxxxxxxxxxxxxxxxxxxxx",
"xxxxxxxxxxxxxxxxxxx   #qqqqqqqqqqfw  xxxxxxxxxxxxxxxxxxxxxxxxxxx",
"xxxxxxxxxxxxxxx   #qqqqqqqqqqqqqqqqw5  xxxxxxxxxxxxxxxxxxxxxxxxx",
"xxxxxxxxxxxxxxx   #qqqqqqqqqqqqqqqqfw  xxxxxxxxxxxxxxxxxxxxxxxxx",
"xxxxxxxxxxxxx #qqqqqqq8><#:qqqqqqqqqqw5  xxxxxxxxxxxxxxxxxxxxxxx",
"xxxxxxxxxxxxx #qqqqqqq8>> #qqqqqqqqqqfw  xxxxxxxxxxxxxxxxxxxxxxx",
"xxxxxxxxxxxxxxx#=>>>,>>  xx#&##qqqqqqqqw5  xxxxxxxxxxxxxxxxxxxxx",
"xxxxxxxxxxxxxxx O>>>>>>  xx    qqqqqqqqfw  xxxxxxxxxxxxxxxxxxxxx",
"xxxxxxxxxxxxxxxxxO$>>>>  xxxx  >1qqqqqqqqqq  xxxxxxxxxxxxxxxxxxx",
"xxxxxxxxxxxxxxxxx O>>>>  xxxx  >1qqqqqqqqqq  xxxxxxxxxxxxxxxxxxx",
"xxxxxxxxxxxxxxxxxxxO#>>  xxxxxxO%>>qqqqqqqq  xxxxxxxxxxxxxxxxxxx",
"xxxxxxxxxxxxxxxxxxx O>>  xxxxxx O>>qqqqqqqq  xxxxxxxxxxxxxxxxxxx",
"xxxxxxxxxxxxxxxxxxxxxOOxxxxxxxx +>>qqqqqqqq  xxxxxxxxxxxxxxxxxxx",
"xxxxxxxxxxxxxxxxxxxxx  xxxxxxxx O>>qqqqqqqq  xxxxxxxxxxxxxxxxxxx",
"xxxxxxxxxxxxxxxxxxxxxxxxxxxxxxx +>>>>qqqqqq  xxxxxxxxxxxxxxxxxxx",
"xxxxxxxxxxxxxxxxxxxxxxxxxxxxxxx O>>>>qqqqqq  xxxxxxxxxxxxxxxxxxx",
"xxxxxxxxxxxxxxxxxxxxxxxxxxxxxx  +>>>>qqqqqq  xxxxxxxxxxxxxxxxxxx",
"xxxxxxxxxxxxxxxxxxxxxxxxxxxxxxx O>>>>qqqqqq  xxxxxxxxxxxxxxxxxxx",
"xxxxxxxxxxxxxxxxxxxxxxxxxxxxxxx +>>>>qqqqqq  xxxxxxxxxxxxxxxxxxx",
"xxxxxxxxxxxxxxxxxxxxxxxxxxxxxxx O>>>>qqqqqq  xxxxxxxxxxxxxxxxxxx",
"xxxxxxxxxxxxxxxxxxxxxxxxxxxxxxx +>>88qqqqqq  xxxxxxxxxxxxxxxxxxx",
"xxxxxxxxxxxxxxxxxxxxxxxxxxxxxxx O>>qqqqqqqq  xxxxxxxxxxxxxxxxxxx",
"xxxxxxxxxxxxxxxxxxxxxxxxxxxxxxx +>>qqqqqqqq  xxxxxxxxxxxxxxxxxxx",
"xxxxxxxxxxxxxxxxxxxxxxxxxxxxxxx O>>qqqqqqqq  xxxxxxxxxxxxxxxxxxx",
"xxxxxxxxxxxxxxxxxxxxxxxxxxxxxxx $88qqqqqqqq  xxxxxxxxxxxxxxxxxxx",
"xxxxxxxxxxxxxxxxxxxxxxxxxxxxxxx #qqqqqqqqqq  xxxxxxxxxxxxxxxxxxx",
"xxxxxxxxxxxxxxxxxxxxxxxxx       &qqqqqqqqqqw5      xxxxxxxxxxxxx",
"xxxxxxxxxxxxxxxxxxxxxxxxx       #qqqqqqqqqqfw      xxxxxxxxxxxxx",
"xxxxxxxxxxxxxxxxxxxxxxx  w0w0w0weqqqqqqqqqqfdw0w2  xxxxxxxxxxxxx",
"xxxxxxxxxxxxxxxxxxxxxxx  fffffffsqqqqqqqqqqfffffw  xxxxxxxxxxxxx",
"xxxxxxxxxxxxxxxxxxxxxxxxx  fffffaqqqqqqqqqqfffw  xxxxxxxxxxxxxxx",
"xxxxxxxxxxxxxxxxxxxxxxxxx  fffffsqqqqqqqqqqfffw  xxxxxxxxxxxxxxx",
"xxxxxxxxxxxxxxxxxxxxxxxxxxx  fffaqqqqqqqqqqfw  xxxxxxxxxxxxxxxxx",
"xxxxxxxxxxxxxxxxxxxxxxxxxxx  fffsqqqqqqqqqqfw  xxxxxxxxxxxxxxxxx",
"xxxxxxxxxxxxxxxxxxxxxxxxxxxxx  faqqqqqqqqqq    xxxxxxxxxxxxxxxxx",
"xxxxxxxxxxxxxxxxxxxxxxxxxxxxx  fsqqqqqqqqqq    xxxxxxxxxxxxxxxxx",
"xxxxxxxxxxxxxxxxxxxxxxxxxxxxxxx Xspqqqqqqqq O>>  xxxxxxxxxxxxxxx",
"xxxxxxxxxxxxxxxxxxxxxxxxxxxxxxx  fsqqqqqqqq O>>  xxxxxxxxxxxxxxx",
"xxxxxxxxxxxxxxxxxxxxxxxxxxxxxxx  67qtffffffw3>>;*  xxxxxxxxxxxxx",
"xxxxxxxxxxxxxxxxxxxxxxxxxxxxxxx  >1qtfffffff9>>>;  xxxxxxxxxxxxx",
"xxxxxxxxxxxxxxxxxxxxxxxxxxxxxxx  iyquffffff .OO  xxxxxxxxxxxxxxx",
"xxxxxxxxxxxxxxxxxxxxxxxxxxxxxxx  fsqtffffff      xxxxxxxxxxxxxxx",
"xxxxxxxxxxxxxxxxxxxxxxxxxxxxxxx  fhzzzzzzff  x@xxxxxxxxxxxxxxxxx",
"xxxxxxxxxxxxxxxxxxxxxxxxxxxxxxx  fjzzzzzzff  xxxxxxxxxxxxxxxxxxx",
"xxxxxxxxxxxxxxxxxxxxxxxxxxxxxxx  flzz-4zzff  xxxxxxxxxxxxxxxxxxx",
"xxxxxxxxxxxxxxxxxxxxxxxxxxxxxxx  fjzz -zzff  xxxxxxxxxxxxxxxxxxx",
"xxxxxxxxxxxxxxxxxxxxxxxxxxxxxxx  fgjkzzjjfr  xxxxxxxxxxxxxxxxxxx",
"xxxxxxxxxxxxxxxxxxxxxxxxxxxxxxx  fffjzzfffw  xxxxxxxxxxxxxxxxxxx",
"xxxxxxxxxxxxxxxxxxxxxxxxxxxxxxxxx ofgjjfff0  xxxxxxxxxxxxxxxxxxx",
"xxxxxxxxxxxxxxxxxxxxxxxxxxxxxxxxx  fffffffw  xxxxxxxxxxxxxxxxxxx",
"xxxxxxxxxxxxxxxxxxxxxxxxxxxxxxxxxxx offfff0  xxxxxxxxxxxxxxxxxxx",
"xxxxxxxxxxxxxxxxxxxxxxxxxxxxxxxxxxx  fffffw  xxxxxxxxxxxxxxxxxxx",
"xxxxxxxxxxxxxxxxxxxxxxxxxxxxxxxxxxxxx  fff0  xxxxxxxxxxxxxxxxxxx",
"xxxxxxxxxxxxxxxxxxxxxxxxxxxxxxxxxxxxx  fffw  xxxxxxxxxxxxxxxxxxx",
"xxxxxxxxxxxxxxxxxxxxxxxxxxxxxxxxxxxxxxx  f0  xxxxxxxxxxxxxxxxxxx",
"xxxxxxxxxxxxxxxxxxxxxxxxxxxxxxxxxxxxxxx  fw  xxxxxxxxxxxxxxxxxxx",
"xxxxxxxxxxxxxxxxxxxxxxxxxxxxxxxxxxxxxxxxx  xxxxxxxxxxxxxxxxxxxxx",
"xxxxxxxxxxxxxxxxxxxxxxxxxxxxxxxxxxxxxxxxx  xxxxxxxxxxxxxxxxxxxxx",
"xxxxxxxxxxxxxxxxxxxxxxxxxxxxxxxxxxxxxxxxxxxxxxxxxxxxxxxxxxxxxxxx",
"xxxxxxxxxxxxxxxxxxxxxxxxxxxxxxxxxxxxxxxxxxxxxxxxxxxxxxxxxxxxxxxx"
};
