/* XPM */
static char *player_down_1[] = {
/* columns rows colors chars-per-pixel */
"64 64 49 1 ",
"  c gray20",
". c gray21",
"X c #3A3A39",
"o c #3D3E3D",
"O c #3F403F",
"+ c gray26",
"@ c #434443",
"# c #494949",
"$ c #4B4B4B",
"% c #4C4B4B",
"& c gray30",
"* c #4E4D4D",
"= c #514F4E",
"- c #545353",
"; c #565453",
": c #575554",
"> c gray35",
", c #5D5D5D",
"< c #5F5E5D",
"1 c #656363",
"2 c #676767",
"3 c #696968",
"4 c #6A6A69",
"5 c #727272",
"6 c #747474",
"7 c #7C7879",
"8 c #7C7A79",
"9 c #7C7B7B",
"0 c gray49",
"q c #828080",
"w c #8B8B8B",
"e c #908F8F",
"r c #939191",
"t c gray60",
"y c #9B9999",
"u c #9B9A99",
"i c #9C9A9A",
"p c #A6A5A4",
"a c #A7A5A5",
"s c #AEADAD",
"d c #BCBCBC",
"f c gray",
"g c gray80",
"h c #CECECF",
"j c #D7D8D7",
"k c #D9DADA",
"l c #E0E1E1",
"z c white",
"x c None",
/* pixels */
"xxxxxxxxxxxxxxxxxxxxxxxxxxxxxxxxxxxxxxxxxxxxxxxxxxxxxxxxxxxxxxxx",
"xxxxxxxxxxxxxxxxxxxxxxxxxxxxxxxxxxxxxxxxxxxxxxxxxxxxxxxxxxxxxxxx",
"xxxxxxxxxxxxxxxxxxxxxxxxxxxxxx            xxxxxxxxxxxxxxxxxxxxxx",
"xxxxxxxxxxxxxxxxxxxxxxxxxxxxxx            xxxxxxxxxxxxxxxxxxxxxx",
"xxxxxxxxxxxxxxxxxxxxxxxxxxxx  8ytttttttttt#   xxxxxxxxxxxxxxxxxx",
"xxxxxxxxxxxxxxxxxxxxxxxxxxxx  ygtttttttttt#   xxxxxxxxxxxxxxxxxx",
"xxxxxxxxxxxxxxxxxxxxxxxxxx  8ytttttttttttttttt#   xxxxxxxxxxxxxx",
"xxxxxxxxxxxxxxxxxxxxxxxxxx  ygtttttttttttttttt#   xxxxxxxxxxxxxx",
"xxxxxxxxxxxxxxxxxxxxxxxx  8ytttttttttt<#42wttttttt# xxxxxxxxxxxx",
"xxxxxxxxxxxxxxxxxxxxxxxx  ygtttttttttt# 22wttttttt# xxxxxxxxxxxx",
"xxxxxxxxxxxxxxxxxxxxxx  8ytttttttt<#*#xx  223222-#xxxxxxxxxxxxxx",
"xxxxxxxxxxxxxxxxxxxxxx  ygtttttttt#   xx  222222O xxxxxxxxxxxxxx",
"xxxxxxxxxxxxxxxxxxxx  tttttttttt52@ xxxx  2222$Oxxxxxxxxxxxxxxxx",
"xxxxxxxxxxxxxxxxxxxx  tttttttttt52O xxxx  2222O xxxxxxxxxxxxxxxx",
"xxxxxxxxxxxxxxxxxxxx  tttttttt22&Oxxxxxx  22#Oxxxxxxxxxxxxxxxxxx",
"xxxxxxxxxxxxxxxxxxxx  tttttttt22O xxxxxx  22O xxxxxxxxxxxxxxxxxx",
"xxxxxxxxxxxxxxxxxxxx  tttttttt22+ xxxxxxxx  xxxxxxxxxxxxxxxxxxxx",
"xxxxxxxxxxxxxxxxxxxx  tttttttt22O xxxxxxxx  xxxxxxxxxxxxxxxxxxxx",
"xxxxxxxxxxxxxxxxxxxx  tttttt0522+ xxxxxxxxxxxxxxxxxxxxxxxxxxxxxx",
"xxxxxxxxxxxxxxxxxxxx  tttttt5222O xxxxxxxxxxxxxxxxxxxxxxxxxxxxxx",
"xxxxxxxxxxxxxxxxxxxx  tttttt6222+ xxxxxxxxxxxxxxxxxxxxxxxxxxxxxx",
"xxxxxxxxxxxxxxxxxxxx  tttttt5222O xxxxxxxxxxxxxxxxxxxxxxxxxxxxxx",
"xxxxxxxxxxxxxxxxxxxx  tttttt6222+ xxxxxxxxxxxxxxxxxxxxxxxxxxxxxx",
"xxxxxxxxxxxxxxxxxxxx  tttttt5222O xxxxxxxxxxxxxxxxxxxxxxxxxxxxxx",
"xxxxxxxxxxxxxxxxxxxx  ttttttew22+ xxxxxxxxxxxxxxxxxxxxxxxxxxxxxx",
"xxxxxxxxxxxxxxxxxxxx  tttttttt22O xxxxxxxxxxxxxxxxxxxxxxxxxxxxxx",
"xxxxxxxxxxxxxxxxxxxx  tttttttt22+ xxxxxxxxxxxxxxxxxxxxxxxxxxxxxx",
"xxxxxxxxxxxxxxxxxxxx  tttttttt22O xxxxxxxxxxxxxxxxxxxxxxxxxxxxxx",
"xxxxxxxxxxxxxxxxxxxx  tttttttttt% xxxxxxxxxxxxxxxxxxxxxxxxxxxxxx",
"xxxxxxxxxxxxxxxxxxxx  tttttttttt# xxxxxxxxxxxxxxxxxxxxxxxxxxxxxx",
"xxxxxxxxxxxxxx        ttttttttttiy      xxxxxxxxxxxxxxxxxxxxxxxx",
"xxxxxxxxxxxxxx        ttttttttttfg      xxxxxxxxxxxxxxxxxxxxxxxx",
"xxxxxxxxxxxx  8yryryryttttttttttdgyyry  xxxxxxxxxxxxxxxxxxxxxxxx",
"xxxxxxxxxxxx  ygggggggttttttttttfggggg  xxxxxxxxxxxxxxxxxxxxxxxx",
"xxxxxxxxxxxxxx  ygggggttttttttttdggg  xxxxxxxxxxxxxxxxxxxxxxxxxx",
"xxxxxxxxxxxxxx  ygggggttttttttttfggg  xxxxxxxxxxxxxxxxxxxxxxxxxx",
"xxxxxxxxxxxxxxxx  ygggttttttttttdg  xxxxxxxxxxxxxxxxxxxxxxxxxxxx",
"xxxxxxxxxxxxxxxx  ygggttttttttttfg  xxxxxxxxxxxxxxxxxxxxxxxxxxxx",
"xxxxxxxxxxxxxxxxxx  ygtttttttttt*   xxxxxxxxxxxxxxxxxxxxxxxxxxxx",
"xxxxxxxxxxxxxxxxxx  ygtttttttttt#   xxxxxxxxxxxxxxxxxxxxxxxxxxxx",
"xxxxxxxxxxxxxxxxxxxx  uftttttttt* 22O xxxxxxxxxxxxxxxxxxxxxxxxxx",
"xxxxxxxxxxxxxxxxxxxx  ygtttttttt# 22O xxxxxxxxxxxxxxxxxxxxxxxxxx",
"xxxxxxxxxxxxxxxxxxxx  19ttggggggay22,>  xxxxxxxxxxxxxxxxxxxxxxxx",
"xxxxxxxxxxxxxxxxxxxx  >2ttgggggggg2222  xxxxxxxxxxxxxxxxxxxxxxxx",
"xxxxxxxxxxxxxxxxxxxx  qsttgggggg: OO. .xxxxxxxxxxxxxxxxxxxxxxxxx",
"xxxxxxxxxxxxxxxxxxxx  ygttgggggg=     xxxxxxxxxxxxxxxxxxxxxxxxxx",
"xxxxxxxxxxxxxxxxxxxx  rgzzzzzzjg: ox.xxxxxxxxxxxxxxxxxxxxxxxxxxx",
"xxxxxxxxxxxxxxxxxxxx  ygzzzzzzjg= xxxxxxxxxxxxxxxxxxxxxxxxxxxxxx",
"xxxxxxxxxxxxxxxxxxxx  rgzz7;zzkg: xxxxxxxxxxxxxxxxxxxxxxxxxxxxxx",
"xxxxxxxxxxxxxxxxxxxx  ygzz; zzjg= xxxxxxxxxxxxxxxxxxxxxxxxxxxxxx",
"xxxxxxxxxxxxxxxxxxxx  rgjjzzljhgX xxxxxxxxxxxxxxxxxxxxxxxxxxxxxx",
"xxxxxxxxxxxxxxxxxxxx  ygggzzjggg  xxxxxxxxxxxxxxxxxxxxxxxxxxxxxx",
"xxxxxxxxxxxxxxxxxxxxxx  pgjjhggg  xxxxxxxxxxxxxxxxxxxxxxxxxxxxxx",
"xxxxxxxxxxxxxxxxxxxxxx  yggggggg  xxxxxxxxxxxxxxxxxxxxxxxxxxxxxx",
"xxxxxxxxxxxxxxxxxxxxxxxx  pggggg  xxxxxxxxxxxxxxxxxxxxxxxxxxxxxx",
"xxxxxxxxxxxxxxxxxxxxxxxx  yggggg  xxxxxxxxxxxxxxxxxxxxxxxxxxxxxx",
"xxxxxxxxxxxxxxxxxxxxxxxxxx  yggg  xxxxxxxxxxxxxxxxxxxxxxxxxxxxxx",
"xxxxxxxxxxxxxxxxxxxxxxxxxx  yggg  xxxxxxxxxxxxxxxxxxxxxxxxxxxxxx",
"xxxxxxxxxxxxxxxxxxxxxxxxxxxx  yg  xxxxxxxxxxxxxxxxxxxxxxxxxxxxxx",
"xxxxxxxxxxxxxxxxxxxxxxxxxxxx  yg  xxxxxxxxxxxxxxxxxxxxxxxxxxxxxx",
"xxxxxxxxxxxxxxxxxxxxxxxxxxxxxx  xxxxxxxxxxxxxxxxxxxxxxxxxxxxxxxx",
"xxxxxxxxxxxxxxxxxxxxxxxxxxxxxx  xxxxxxxxxxxxxxxxxxxxxxxxxxxxxxxx",
"xxxxxxxxxxxxxxxxxxxxxxxxxxxxxxxxxxxxxxxxxxxxxxxxxxxxxxxxxxxxxxxx",
"xxxxxxxxxxxxxxxxxxxxxxxxxxxxxxxxxxxxxxxxxxxxxxxxxxxxxxxxxxxxxxxx"
};
