/* XPM */
static char *player_up_1[] = {
/* columns rows colors chars-per-pixel */
"64 64 46 1 ",
"  c gray20",
". c #3F403F",
"X c gray26",
"o c #444544",
"O c #494949",
"+ c #4B4B4B",
"@ c gray30",
"# c #504F4E",
"$ c #514F4E",
"% c #565453",
"& c #575554",
"* c #565757",
"= c gray35",
"- c #5B5B5B",
"; c #5F5E5D",
": c #676767",
"> c #717171",
", c #727272",
"< c #767272",
"1 c #747475",
"2 c #7C7A79",
"3 c #7C7C7C",
"4 c #898888",
"5 c #8B8B8B",
"6 c gray55",
"7 c #8F8E8E",
"8 c #939191",
"9 c #959595",
"0 c gray60",
"q c #9B9999",
"w c #9B9A99",
"e c #9C9A9A",
"r c #A5A5A5",
"t c #A8A7A7",
"y c #A9A7A7",
"u c #AFAEAF",
"i c #BCBCBC",
"p c gray",
"a c gray75",
"s c gray80",
"d c #CECECF",
"f c #D7D8D7",
"g c gray85",
"h c #D9DADA",
"j c white",
"k c None",
/* pixels */
"kkkkkkkkkkkkkkkkkkkkkkkkkkkkkkkkkkkkkkkkkkkkkkkkkkkkkkkkkkkkkkkk",
"kkkkkkkkkkkkkkkkkkkkkkkkkkkkkkkkkkkkkkkkkkkkkkkkkkkkkkkkkkkkkkkk",
"kkkkkkkkkkkkkkkkkkkkkkkkkkkkkk  kkkkkkkkkkkkkkkkkkkkkkkkkkkkkkkk",
"kkkkkkkkkkkkkkkkkkkkkkkkkkkkkk  kkkkkkkkkkkkkkkkkkkkkkkkkkkkkkkk",
"kkkkkkkkkkkkkkkkkkkkkkkkkkkk  2q  kkkkkkkkkkkkkkkkkkkkkkkkkkkkkk",
"kkkkkkkkkkkkkkkkkkkkkkkkkkkk  qs  kkkkkkkkkkkkkkkkkkkkkkkkkkkkkk",
"kkkkkkkkkkkkkkkkkkkkkkkkkk  2qas  kkkkkkkkkkkkkkkkkkkkkkkkkkkkkk",
"kkkkkkkkkkkkkkkkkkkkkkkkkk  qsss  kkkkkkkkkkkkkkkkkkkkkkkkkkkkkk",
"kkkkkkkkkkkkkkkkkkkkkkkk  2qasss  kkkkkkkkkkkkkkkkkkkkkkkkkkkkkk",
"kkkkkkkkkkkkkkkkkkkkkkkk  qsssss  kkkkkkkkkkkkkkkkkkkkkkkkkkkkkk",
"kkkkkkkkkkkkkkkkkkkkkk  2qssssss  kkkkkkkkkkkkkkkkkkkkkkkkkkkkkk",
"kkkkkkkkkkkkkkkkkkkkkk  qsssssss  kkkkkkkkkkkkkkkkkkkkkkkkkkkkkk",
"kkkkkkkkkkkkkkkkkkkk  2qssjjfsss  kkkkkkkkkkkkkkkkkkkkkkkkkkkkkk",
"kkkkkkkkkkkkkkkkkkkk  qsssjjfsss  kkkkkkkkkkkkkkkkkkkkkkkkkkkkkk",
"kkkkkkkkkkkkkkkkkkkk  8sjj<%jjfs$ kkkkkkkkkkkkkkkkkkkkkkkkkkkkkk",
"kkkkkkkkkkkkkkkkkkkk  qsjj% jjfs$ kkkkkkkkkkkkkkkkkkkkkkkkkkkkkk",
"kkkkkkkkkkkkkkkkkkkk  8sjjjjjjgs& kkkkkkkkkkkkkkkkkkkkkkkkkkkkkk",
"kkkkkkkkkkkkkkkkkkkk  qsjjjjjjfs$ kkkkkkkkkkkkkkkkkkkkkkkkkkkkkk",
"kkkkkkkkkkkkkkkkkkkk  8suuhfhfds&     kkkkkkkkkkkkkkkkkkkkkkkkkk",
"kkkkkkkkkkkkkkkkkkkk  qs00ssssss$     kkkkkkkkkkkkkkkkkkkkkkkkkk",
"kkkkkkkkkkkkkkkkkkkk  *:00ssssssyq::-=  kkkkkkkkkkkkkkkkkkkkkkkk",
"kkkkkkkkkkkkkkkkkkkk  =:00ssssssss::::  kkkkkkkkkkkkkkkkkkkkkkkk",
"kkkkkkkkkkkkkkkkkkkk  8s00rrtrtr# ::X kkkkkkkkkkkkkkkkkkkkkkkkkk",
"kkkkkkkkkkkkkkkkkkkk  qs00000000O ::. kkkkkkkkkkkkkkkkkkkkkkkkkk",
"kkkkkkkkkkkkkkkkkk  2q0000000000@ ..kkkkkkkkkkkkkkkkkkkkkkkkkkkk",
"kkkkkkkkkkkkkkkkkk  qs0000000000O   kkkkkkkkkkkkkkkkkkkkkkkkkkkk",
"kkkkkkkkkkkkkkkk  2qas0000000000qq  kkkkkkkkkkkkkkkkkkkkkkkkkkkk",
"kkkkkkkkkkkkkkkk  qsss0000000000ps  kkkkkkkkkkkkkkkkkkkkkkkkkkkk",
"kkkkkkkkkkkkkk  2qasss0000000000isqq  kkkkkkkkkkkkkkkkkkkkkkkkkk",
"kkkkkkkkkkkkkk  qsssss0000000000psss  kkkkkkkkkkkkkkkkkkkkkkkkkk",
"kkkkkkkkkkkk  2qasssss0000000000isssqq  kkkkkkkkkkkkkkkkkkkkkkkk",
"kkkkkkkkkkkk  qsssssss0000000000psssss  kkkkkkkkkkkkkkkkkkkkkkkk",
"kkkkkkkkkkkkkk        0000000000is      kkkkkkkkkkkkkkkkkkkkkkkk",
"kkkkkkkkkkkkkk        0000000000ps      kkkkkkkkkkkkkkkkkkkkkkkk",
"kkkkkkkkkkkkkkkkkkkk  0000000000@ kkkkkkkkkkkkkkkkkkkkkkkkkkkkkk",
"kkkkkkkkkkkkkkkkkkkk  0000000000O kkkkkkkkkkkkkkkkkkkkkkkkkkkkkk",
"kkkkkkkkkkkkkkkkkkkk  00000000,,o kkkkkkkkkkkkkkkkkkkkkkkkkkkkkk",
"kkkkkkkkkkkkkkkkkkkk  00000000::. kkkkkkkkkkkkkkkkkkkkkkkkkkkkkk",
"kkkkkkkkkkkkkkkkkkkk  00000000::X kkkkkkkkkkkkkkkkkkkkkkkkkkkkkk",
"kkkkkkkkkkkkkkkkkkkk  00000000::. kkkkkkkkkkkkkkkkkkkkkkkkkkkkkk",
"kkkkkkkkkkkkkkkkkkkk  0000001:::X kkkkkkkkkkkkkkkkkkkkkkkkkkkkkk",
"kkkkkkkkkkkkkkkkkkkk  000000,:::. kkkkkkkkkkkkkkkkkkkkkkkkkkkkkk",
"kkkkkkkkkkkkkkkkkkkk  0000001:::X kkkkkkkkkkkkkkkkkkkkkkkkkkkkkk",
"kkkkkkkkkkkkkkkkkkkk  000000,:::. kkkkkkkkkkkkkkkkkkkkkkkkkkkkkk",
"kkkkkkkkkkkkkkkkkkkk  0000001:::X kkkkkkkkkkkkkkkkkkkkkkkkkkkkkk",
"kkkkkkkkkkkkkkkkkkkk  000000,:::. kkkkkkkkkkkkkkkkkkkkkkkkkkkkkk",
"kkkkkkkkkkkkkkkkkkkk  00000000::X kkkkkkkk  kkkkkkkkkkkkkkkkkkkk",
"kkkkkkkkkkkkkkkkkkkk  00000000::. kkkkkkkk  kkkkkkkkkkkkkkkkkkkk",
"kkkkkkkkkkkkkkkkkkkk  00000000::X kkkkkk  ::. kkkkkkkkkkkkkkkkkk",
"kkkkkkkkkkkkkkkkkkkk  00000000::. kkkkkk  ::. kkkkkkkkkkkkkkkkkk",
"kkkkkkkkkkkkkkkkkkkk  0000000055>:. kkkk  ::::. kkkkkkkkkkkkkkkk",
"kkkkkkkkkkkkkkkkkkkk  0000000000,:. kkkk  ::::. kkkkkkkkkkkkkkkk",
"kkkkkkkkkkkkkkkkkkkkkkOOep00000065+   kk  ::::::. kkkkkkkkkkkkkk",
"kkkkkkkkkkkkkkkkkkkkkk  qs00000000O   kk  ::::::. kkkkkkkkkkkkkk",
"kkkkkkkkkkkkkkkkkkkkkkkk  wp0000000000O ==35654590O kkkkkkkkkkkk",
"kkkkkkkkkkkkkkkkkkkkkkkk  qs0000000000O ::50000000O kkkkkkkkkkkk",
"kkkkkkkkkkkkkkkkkkkkkkkkkk  wp0000000000759000;O@Okkkkkkkkkkkkkk",
"kkkkkkkkkkkkkkkkkkkkkkkkkk  qs0000000000000000O   kkkkkkkkkkkkkk",
"kkkkkkkkkkkkkkkkkkkkkkkkkkkk  wp0000000000;O@Okkkkkkkkkkkkkkkkkk",
"kkkkkkkkkkkkkkkkkkkkkkkkkkkk  qs0000000000O   kkkkkkkkkkkkkkkkkk",
"kkkkkkkkkkkkkkkkkkkkkkkkkkkkkk  OO@O@O@O@Okkkkkkkkkkkkkkkkkkkkkk",
"kkkkkkkkkkkkkkkkkkkkkkkkkkkkkk            kkkkkkkkkkkkkkkkkkkkkk",
"kkkkkkkkkkkkkkkkkkkkkkkkkkkkkkkkkkkkkkkkkkkkkkkkkkkkkkkkkkkkkkkk",
"kkkkkkkkkkkkkkkkkkkkkkkkkkkkkkkkkkkkkkkkkkkkkkkkkkkkkkkkkkkkkkkk"
};
