/* XPM */
static char *wall[] = {
/* columns rows colors chars-per-pixel */
"64 64 15 1 ",
"  c #2F1210",
". c #3C1110",
"X c #630C0D",
"o c #7B1719",
"O c #5B201D",
"+ c #5B281E",
"@ c #7C2419",
"# c #743126",
"$ c #744127",
"% c #CE3234",
"& c #CE4333",
"* c #CF5C34",
"= c #CF6733",
"- c #CF7533",
"; c #CC9A33",
/* pixels */
"                             O%%XXXX.                           ",
"                             O%%XXXX.                           ",
"                             .XXXXXX.                           ",
"                             .XXXXXX.                           ",
"   #==%%XXXXXX               .XXXXXX.         ==&%oXXXXXXXXX.   ",
"   #==%%XXXXXX               .XXXXXX.         ==&%oXXXXXXXXX.   ",
"   O%%%%XXXXXX                                %%%%oXXXXXXXXX.   ",
"   O%%%%XXXXXX                                %%%%oXXXXXXXXX.   ",
"   .XXXXXXXXXX                                XXXXXXXXXXXXXX.   ",
"   .XXXXXXXXXX                                XXXXXXXXXXXXXX.   ",
"   .XXXXXXXXXX                                XXXXXXXXXXXXXX.   ",
"   .XXXXXXXXXX                                XXXXXXXXXXXXXX.   ",
"   .XXXXXXXXXX                                XXXXXXXXXXXXXX.   ",
"   .XXXXXXXXXX                                XXXXXXXXXXXXXX.   ",
"                                              XXXXXXXXXX%%%%O   ",
"                                              XXXXXXXXXX%%%%O   ",
"                                              XXXXXXXXXX%%==#   ",
"                                              XXXXXXXXXX%%==#   ",
"                                                                ",
"                                                                ",
"             $;;==XXXXXXXXXX                                    ",
"             $;;==XXXXXXXXXX                                    ",
"             +====XXXXXXXXXX                                    ",
"             +====XXXXXXXXXX                                    ",
"             .XXXXXXXXXXXXXX                                    ",
"             .XXXXXXXXXXXXXX                                    ",
"             .XXXXXXXXXXXXXX                                    ",
"             .XXXXXXXXXXXXXX                                    ",
"             .XXXXXXXXXXXXXX            ;;-=@XXXXX.             ",
"             .XXXXXXXXXXXXXX            ;;-=@XXXXX.             ",
"             .XXXXXXXXX@====            ====@XXXXX.             ",
"             .XXXXXXXXX@====            ====@XXXXX.             ",
"             .XXXXXXXXX@=-;;            XXXXXXXXXX.             ",
"             .XXXXXXXXX@=-;;            XXXXXXXXXX.             ",
"                                        XXXXXXXXXX.             ",
"                                        XXXXXXXXXX.             ",
"                                        XXXXXXXXXX.             ",
"                                        XXXXXXXXXX.             ",
"                                                                ",
"                                                                ",
"                                                                ",
"                                                                ",
"   $;;;;===*%%XXXXXXXX                                          ",
"   $;;;;===*%%XXXXXXXX                                          ",
"   $;;;;===*%%XXXXXXXX                                          ",
"   $;;;;===*%%XXXXXXXX                                          ",
"   +=======*%%XXXXXXXX            ==&%oXXXXX.                   ",
"   +=======*%%XXXXXXXX            ==&%oXXXXX.                   ",
"   +=======*%%XXXXXXXX            %%%%oXXXXX.                   ",
"   +=======*%%XXXXXXXX            %%%%oXXXXX.                   ",
"   O%%%%%%%%%%XXXXXXXX            XXXXXXXXXX.                   ",
"   O%%%%%%%%%%XXXXXXXX            XXXXXXXXXX.                   ",
"   .XXXXXXXXXXXXXXXXXX            XXXXXXXXXX.                   ",
"   .XXXXXXXXXXXXXXXXXX            XXXXXXXXXX.                   ",
"   .XXXXXXXXXXXXXXXXXX            XXXXXXXXXX.                   ",
"   .XXXXXXXXXXXXXXXXXX            XXXXXXXXXX.                   ",
"   .XXXXXXXXXXXXXo%%%%                                          ",
"   .XXXXXXXXXXXXXo%%%%                                          ",
"   .XXXXXXXXXXXXXo%&==                                    %%oXXX",
"   .XXXXXXXXXXXXXo%&==                                    %%oXXX",
"                                                          XXXXXX",
"                                                          XXXXXX",
"                                                          XXXXXX",
"                                                          XXXXXX"
};
