/* XPM */
static char *_23c44f491d141c8eac4ec955d04df70QV5Pzjx7alBeE81Q[] = {
/* columns rows colors chars-per-pixel */
"128 128 48 1 ",
"  c None",
". c gray20",
"X c gray21",
"o c #3F403F",
"O c gray26",
"+ c #434443",
"@ c #494949",
"# c #4B4B4B",
"$ c gray30",
"% c #4E4D4D",
"& c gray31",
"* c #545353",
"= c #565453",
"- c gray35",
"; c #5F5E5D",
": c #676767",
"> c #696968",
", c #6A6A69",
"< c #717171",
"1 c #737171",
"2 c #727272",
"3 c #747475",
"4 c #777574",
"5 c #7B7878",
"6 c #7C7A79",
"7 c #8B8B8B",
"8 c #8C8A8A",
"9 c gray55",
"0 c #939191",
"q c gray60",
"w c #9B9999",
"e c #9B9A99",
"r c #9C9A9A",
"t c gray61",
"y c #A5A5A5",
"u c #A6A5A4",
"i c #A8A7A7",
"p c #AFAEAF",
"a c #BCBCBC",
"s c #BDBCBC",
"d c gray",
"f c gray75",
"g c #C2C1C1",
"h c gray80",
"j c #D7D8D7",
"k c gray85",
"l c #D9DADA",
"z c white",
/* pixels */
"                                                                                                                                ",
"                                                                                                                                ",
"                                                                                                                                ",
"                                                                                                                                ",
"                                                                                                                                ",
"                                                                                                                                ",
"                                                                                                                                ",
"                ....                                                                                                            ",
"                ....                                                                                                            ",
"                ....                                                                                                            ",
"                @@@@                                                                                                            ",
"            ....qqqq@...                                                                                                        ",
"            ....qqqq@...                                                                                                        ",
"            ....qqqq@...                                                                                                        ",
"            ....qqqq*ooo                                                                                                        ",
"            ....qqqq::::o...                                                                                                    ",
"            ....qqqq::::o...                                                                                                    ",
"            ....qqqq::::o...                                                                                                    ",
"            @@@@qqqq::::@ooo                                                                                                    ",
"        ....qqqqqqqq::::>:::o...                                                                                                ",
"        ....qqqqqqqq::::::::o...                                                                                                ",
"        ....qqqqqqqq::::::::o...                                                                                                ",
"        ....qqqqqqqq>:::::::@ooo                                                                                                ",
"        ....qqqqqqqq::::::::::::....                                                                                            ",
"        ....qqqqqqqq::::::::::::....                                                                                            ",
"        ....qqqqqqqq::::::::::::....                                                                                            ",
"        @@@@qqqq7777::::::::::::....                                                                                            ",
"    ....qqqqqqqq::::............                                ....                                                            ",
"    ....qqqqqqqq::::............                                ....                                                            ",
"    ....qqqqqqqq::::............                                ....                                                            ",
"    ....qqqqqqqq>:::............                                ....                                                            ",
"    ....qqqqqqqq@...                                        ....hhhq....                                                        ",
"    ....qqqqqqqq@...                                        ....hhhw....                                                        ",
"    ....qqqqqqqq@...                                        ....hhhw....                                                        ",
"    ....qqqqqqqq;@@@                                        ....hhhw....                                                        ",
"    ....qqqqqqqqqqqq@...                                    ....hhhhhhhq....                                                    ",
"    ....qqqqqqqqqqqq@...                                    ....hhhhhhhr....                                                    ",
"    ....qqqqqqqqqqqq@...                                    ....hhhhhhhr....                                                    ",
"    ....qqqqqqqqqqqq$...                                    ....hhhhhhhq....                                                    ",
"    ....qqqqqqqqqqqq@.......                                ....hhhhhhhhhhhr....                                                ",
"    ....qqqqqqqqqqqq@.......                                ....hhhhhhhhhhhw....                                                ",
"    ....qqqqqqqqqqqq@.......                                ....hhhhhhhhhhhw....                                                ",
"    ....qqqqqqqqqqqq@.......           .                    ....hhhhhhhhhhhq....                                                ",
"    ...@qqqqqqqqqqqqqqq7::::....................................hhhhhhhhhhhhhhhw........................                        ",
"    ...@qqqqqqqqqqqqqqq7::::....................................hhhhhhhhhhhhhhhq........................                        ",
"    ...@qqqqqqqqqqqqqqq7::::....................................hhhhhhhhhhhhhhhr........................                        ",
"    ...@qqqqqqqqqqqqqqq92222ooXOoooOoooOoooOoooOoooOooo+@@@$@@@$fafaaffafsfafffq........................                        ",
"    ....hhhfqqqqqqqqqqqqqqq7>>>:::::::::::::::::::::::::qqqqqqqqqqqqqqqqqqqqqqqqhhhh::::hhhhhhhhhhhhhhhr....                    ",
"    ....hhhfqqqqqqqqqqqqqqq8::::::::::::::::::::::::::::qqqqqqqqqqqqqqqqqqqqqqqqhhhh::::hhhhhhhhhhhhhhhr....                    ",
"    ....hhhfqqqqqqqqqqqqqqq8::::::::::::::::::::::::::::qqqqqqqqqqqqqqqqqqqqqqqqhhhh::::hhhhhhhhhhhhhhhq....                    ",
"    ....rqrqqqqqqqqqqqqqqqq8::::::::::::::::::::::::::::qqqqqqqqqqqqqqqqqqqqqqqqfdfa2223dddgjjjjjjjjhhhu....                    ",
"        ....hhhfqqqqqqqqqqqqqqqqqqq7::::::::::::qqqqqqqqqqqqqqqqqqqqqqqqqqqqqqqqqqqqqqqqqqqpzzzzzzzzhhhhhhhr....                ",
"        ....hhhfqqqqqqqqqqqqqqqqqqq7::::::::::::qqqqqqqqqqqqqqqqqqqqqqqqqqqqqqqqqqqqqqqqqqqpzzzzzzzzhhhhhhhq....                ",
"        ....hhhfqqqqqqqqqqqqqqqqqqq7::::::::::::qqqqqqqqqqqqqqqqqqqqqqqqqqqqqqqqqqqqqqqqqqqpzzzzzzzzhhhhhhhr....                ",
"        ....qrqrqqqqqqqqqqqqqqqqqqq7::::::::::::qqqqqqqqqqqqqqqqqqqqqqqqqqqqqqqqqqqtyyyiyyyazzzzzzzzjjjjhhhu....                ",
"            ....hhhsqqqqqqqqqqqqqqqqqqqqqqqqqqqqqqqqqqqqqqqqqqqqqqqqqqqqqqqqqqqqqqqyhhhhhhhjzzzz...*zzzzhhhhhhhw....            ",
"            ....hhhfqqqqqqqqqqqqqqqqqqqqqqqqqqqqqqqqqqqqqqqqqqqqqqqqqqqqqqqqqqqqqqqyhhhhhhhjzzzz...=zzzzhhhhhhhw....            ",
"            ....hhhfqqqqqqqqqqqqqqqqqqqqqqqqqqqqqqqqqqqqqqqqqqqqqqqqqqqqqqqqqqqqqqquhhhhhhhjzzzz...=zzzzhhhhhhhw....            ",
"            ....wwqqqqqqqqqqqqqqqqqqqqqqqqqqqqqqqqqqqqqqqqqqqqqqqqqqqqqqqqqqqqqqqqqihhhhhhhkzzzz**=5zzzzhhhhhhhr....            ",
"                ....hhhfqqqqqqqqqqqqqqqqqqqqqqqqqqqqqqqqqqqqqqqqqqqqqqqqqqqqqqqqqqquhhhhhhhjzzzzzzzzhhhhhhhhhhhhhhhq....        ",
"                ....hhhfqqqqqqqqqqqqqqqqqqqqqqqqqqqqqqqqqqqqqqqqqqqqqqqqqqqqqqqqqqquhhhhhhhjzzzzzzzzhhhhhhhhhhhhhhhr....        ",
"                ....hhhfqqqqqqqqqqqqqqqqqqqqqqqqqqqqqqqqqqqqqqqqqqqqqqqqqqqqqqqqqqquhhhhhhhjzzzzzzzzhhhhhhhhhhhhhhhr....        ",
"                ....rrqrqqqqqqqqqqqqqqqqqqqqqqqqqqqqqqqqqqqqqqqqqqqqqqqqqqqqqqqqqqquhhhhhhhjzzzzzzzzhhhhhhhhhhhhhhhq....        ",
"                    ...@qqqqqqqqqqqqqqqqqqqqqqqqqqqqqqqqqqqqqqqqqqqqqqqqqqqqqqqqqqquhhhhhhhhhhhhhhhhhhhhhhhhhhhhhhhhhhhr....    ",
"                    ...@qqqqqqqqqqqqqqqqqqqqqqqqqqqqqqqqqqqqqqqqqqqqqqqqqqqqqqqqqqquhhhhhhhhhhhhhhhhhhhhhhhhhhhhhhhhhhhw....    ",
"                    ...@qqqqqqqqqqqqqqqqqqqqqqqqqqqqqqqqqqqqqqqqqqqqqqqqqqqqqqqqqqquhhhhhhhhhhhhhhhhhhhhhhhhhhhhhhhhhhhr....    ",
"                    ...@qqqqqqqqqqqqqqqqqqqqqqqqqqqqqqqqqqqqqqqqqqqqqqqqqqqqqqqqqqquhhhhhhhhhhhhhhhhrqr0qrr0rqw0www0rqr6....    ",
"                        ....................................hhhhhhhhhhhhhhhr........hhhq................................        ",
"                        ....................................hhhhhhhhhhhhhhhr........hhhq................................        ",
"                        ....................................hhhhhhhhhhhhhhhr........hhhr................................        ",
"                        ....................................rrqrhhhhhhhdwwr4....oooO8881................................        ",
"                                                            ....hhhhhhhw.......o::::::::....                                    ",
"                                                            ....hhhhhhhq.......o::::::::....                                    ",
"                                                            ....hhhhhhhr.......o::::::::....                                    ",
"                                                            ....hhhdrwr6.......o::::::::....                                    ",
"                                                            ....hhhw....        ....:::-....                                    ",
"                                                            ....hhhr....        ....:::-....                                    ",
"                                                            ....hhhw....        ....:::-....                                    ",
"                                                            ....wrw5....        ....---&....                                    ",
"                                                            ........                ....                                        ",
"                                                            ........                ....                                        ",
"                                                            ........                ....                                        ",
"                                                            ........                ....                                        ",
"                                                                                                                                ",
"                                                                                                                                ",
"                                                                                                                                ",
"                                                                                                                                ",
"                                                                                                                                ",
"                                                                                                                                ",
"                                                                                                                                ",
"                                                                                                                                ",
"                                                                                                                                ",
"                                                                                                                                ",
"                                                                                                                                ",
"                                                                                                                                ",
"                                                                                                                                ",
"                                                                                                                                ",
"                                                                                                                                ",
"                                                                                                                                ",
"                                                                                                                                ",
"                                                                                                                                ",
"                                                                                                                                ",
"                                                                                                                                ",
"                                                                                                                                ",
"                                                                                                                                ",
"                                                                                                                                ",
"                                                                                                                                ",
"                                                                                                                                ",
"                                                                                                                                ",
"                                                                                                                                ",
"                                                                                                                                ",
"                                                                                                                                ",
"                                                                                                                                ",
"                                                                                                                                ",
"                                                                                                                                ",
"                                                                                                                                ",
"                                                                                                                                ",
"                                                                                                                                ",
"                                                                                                                                ",
"                                                                                                                                ",
"                                                                                                                                ",
"                                                                                                                                ",
"                                                                                                                                ",
"                                                                                                                                ",
"                                                                                                                                ",
"                                                                                                                                ",
"                                                                                                                                ",
"                                                                                                                                "
};
