/* XPM */
static char *_2896ea5f4d54d7caee1b3a5430e4367oajkrFGduWTDSPmE[] = {
/* columns rows colors chars-per-pixel */
"128 128 54 1 ",
"  c None",
". c gray20",
"X c gray21",
"o c #373737",
"O c gray22",
"+ c #383938",
"@ c #3C3D3C",
"# c #3E3F3F",
"$ c #3F403F",
"% c gray26",
"& c #434443",
"* c #494949",
"= c #4B4B4B",
"- c #4C4C4C",
"; c gray30",
": c #4E4D4D",
"> c gray31",
", c #565453",
"< c gray35",
"1 c #5F5E5D",
"2 c #656565",
"3 c #676767",
"4 c #727272",
"5 c #747475",
"6 c #797879",
"7 c #7A7878",
"8 c #7B7878",
"9 c #7B7A7B",
"0 c #7C7A79",
"q c gray51",
"w c #8B8B8B",
"e c gray55",
"r c #91908F",
"t c #929191",
"y c #939191",
"u c #959595",
"i c #999899",
"p c gray60",
"a c #9B9999",
"s c gray61",
"d c #A5A5A5",
"f c #A6A5A4",
"g c #A8A7A7",
"h c #AFAEAF",
"j c #BCBCBC",
"k c #BDBCBC",
"l c gray",
"z c gray75",
"x c #C2C1C1",
"c c gray80",
"v c #D7D8D7",
"b c gray85",
"n c #D9DADA",
"m c white",
/* pixels */
"                                                                                                                                ",
"                                                                                                                                ",
"                                                                                                                                ",
"                                                                                                                                ",
"                                                                                                                                ",
"                                                                                                                                ",
"                                                                                                                                ",
"                                                                                                                                ",
"                                                                                                                                ",
"                                                                                                                                ",
"                                                                                                                                ",
"                                                                                                                                ",
"                                                                                                                                ",
"                                                                                                                                ",
"                                                                                                                                ",
"                                                                                                                                ",
"                                                                                                                                ",
"                                                                                                                                ",
"                                                                                                                                ",
"                                                                                                                                ",
"                                                                                                                                ",
"                                                                                                                                ",
"                                                                                                                                ",
"                                                                                                                                ",
"                                                                                                                                ",
"                                                                                                                                ",
"                                                                                                                                ",
"                                                            ....                                                                ",
"                                                            ....                                                                ",
"                                                            ....                                                                ",
"                                                            ..X.                                                                ",
"                                                        ....ccca....                                                            ",
"                                                        ....ccca....                                                            ",
"                                                        ....ccca....                                                            ",
"                                                        ....cccp....                                                            ",
"                                                        ....ccccccca....                                                        ",
"                                                        ....ccccccca....                                                        ",
"                                                        ....ccccccca....                                                        ",
"                                                        ....ccccccca....                                                        ",
"    ........                                            ....cccccccccccp....                                                    ",
"    ........                                            ....ccccccccccca....                                                    ",
"    ........                                            ....ccccccccccca....                                                    ",
"    ...X$$$$                       .   .                ...okzkzccccccca...X                                                    ",
"    ...$3333....            ..............................X*ppppccccccccccca............................                        ",
"    ...$3333....            ...............................*ppppccccccccccca............................                        ",
"    ...$3333....            ...............................*ppppccccccccccca............................                        ",
"    ...$<<<<$$$$            ....***;***;***;***;$$$&***;***1ppppzkkkxkkkkzkr............................                        ",
"        ....3333$..............*pppppppppppppppw3333ppppppppppppppppppppppppppppcccc3333cccccccccccccccp....                    ",
"        ....3333$..............*pppppppppppppppw3333ppppppppppppppppppppppppppppcccc3333ccccccccccccccca....                    ",
"        ....3333$..............*pppppppppppppppw3333ppppppppppppppppppppppppppppcccc3333cccccccccccccccp....                    ",
"        ....3333$..........o...;pppppppppppuwwwq4444ppppppppppppppppppppppppppppzlzj4445zzlzvvvbvvvvcccf....                    ",
"        ...$33333333ppppccczpppppppppppppppw3333ppppppppppppppppppppppppppppppppppppppppppphmmmmmmmmccccccca....                ",
"        ...$33333333ppppccckpppppppppppppppw3333ppppppppppppppppppppppppppppppppppppppppppphmmmmmmmmccccccca....                ",
"        ...#33333333ppppccczpppppppppppppppw3333ppppppppppppppppppppppppppppppppppppppppppphmmmmmmmmccccccca....                ",
"        ...%33333333ppppccczpppppppppppppppw3333pppppppppppppppppppppppppppppppppppsdddgdddjmmmmmmmmvvvvcccf....                ",
"        ...#333333333333pppfccczpppppppw3334pppppppppppppppppppppppppppppppppppppppdcccccccvmmmm...,mmmmccccccca....            ",
"        ...$333333333333pppfccckpppppppw3334pppppppppppppppppppppppppppppppppppppppdcccccccvmmmm...,mmmmccccccca....            ",
"        ...$333333333333pppfccckpppppppw3334pppppppppppppppppppppppppppppppppppppppfcccccccvmmmm...,mmmmccccccca....            ",
"        ...%333333333333pppfccckpppppppw3334pppppppppppppppppppppppppppppppppppppppgcccccccbmmmm,,,9mmmmccccccca....            ",
"        ...$33333333ppppccccpppppppp3333pppppppppppppppppppppppppppppppppppppppppppfcccccccvmmmmmmmmccccccccccccccca....        ",
"        ...$33333333ppppccccpppppppp3333pppppppppppppppppppppppppppppppppppppppppppfcccccccvmmmmmmmmccccccccccccccca....        ",
"        ...$33333333ppppccccpppppppp3333pppppppppppppppppppppppppppppppppppppppppppfcccccccvmmmmmmmmccccccccccccccca....        ",
"        ...#3333<<<<9999ppay9996wwwe4445pppppppppppppppppppppppppppppppppppppppppppfcccccccvmmmmmmmmccccccccccccccca....        ",
"        ...$3333...............%3334pppppppppppppppppppppppppppppppppppppppppppppppfccccccccccccccccccccccccccccccccccca....    ",
"        ...$3333...............$3334pppppppppppppppppppppppppppppppppppppppppppppppfccccccccccccccccccccccccccccccccccca....    ",
"        ...$3333...............$3334pppppppppppppppppppppppppppppppppppppppppppppppfccccccccccccccccccccccccccccccccccca....    ",
"        ...$3333...............#3334pppppppppppppppppppppppppppppppppppr9999pppppppfccccccccccccccccaaayaaayaaayaaayaaa9....    ",
"    ...$3333....            ................................ccccccccccca............cccp................................        ",
"    ...$3333....            ................................ccccccccccca............ccca................................        ",
"    ...$3333....            ................................ccccccccccca............ccca................................        ",
"    ...$3333....            ................................cccccccxppa9.......O****aap6................................        ",
"    ........                                            ....cccccccp..X.    ...$33333333....                                    ",
"    ........                                            ....ccccccca....    ...$33333333....                                    ",
"    ........                                            ....ccccccca....    ...$33333333....                                    ",
"    ........                                            ....ccczaaa9....    ...$33333333....                                    ",
"                                                        ....ccca....            ....333<....                                    ",
"                                                        ....ccca....            ....333<....                                    ",
"                                                        ....ccca....            ....333<....                                    ",
"                                                        ....aaa9....            ....<<<>....                                    ",
"                                                        ........                    ....                                        ",
"                                                        ........                    ....                                        ",
"                                                        ........                    ....                                        ",
"                                                        ........                    ....                                        ",
"                                                                                                                                ",
"                                                                                                                                ",
"                                                                                                                                ",
"                                                                                                                                ",
"                                                                                                                                ",
"                                                                                                                                ",
"                                                                                                                                ",
"                                                                                                                                ",
"                                                                                                                                ",
"                                                                                                                                ",
"                                                                                                                                ",
"                                                                                                                                ",
"                                                                                                                                ",
"                                                                                                                                ",
"                                                                                                                                ",
"                                                                                                                                ",
"                                                                                                                                ",
"                                                                                                                                ",
"                                                                                                                                ",
"                                                                                                                                ",
"                                                                                                                                ",
"                                                                                                                                ",
"                                                                                                                                ",
"                                                                                                                                ",
"                                                                                                                                ",
"                                                                                                                                ",
"                                                                                                                                ",
"                                                                                                                                ",
"                                                                                                                                ",
"                                                                                                                                ",
"                                                                                                                                ",
"                                                                                                                                ",
"                                                                                                                                ",
"                                                                                                                                ",
"                                                                                                                                ",
"                                                                                                                                ",
"                                                                                                                                ",
"                                                                                                                                ",
"                                                                                                                                ",
"                                                                                                                                ",
"                                                                                                                                ",
"                                                                                                                                ",
"                                                                                                                                ",
"                                                                                                                                ",
"                                                                                                                                "
};
