/* XPM */
static char *_3788b67e4f24ec9c72de0f09b747820MYBsAm5XClxfBE5b[] = {
/* columns rows colors chars-per-pixel */
"128 128 47 1 ",
"  c None",
". c gray20",
"X c gray21",
"o c #383938",
"O c #3A3A39",
"+ c #3E3F3E",
"@ c #3F403F",
"# c #434443",
"$ c #494949",
"% c gray30",
"& c #4E4D4D",
"* c gray31",
"= c #565453",
"- c gray35",
"; c #5A5A5A",
": c #676767",
"> c #727272",
", c #767474",
"< c #7C7879",
"1 c #7C7B7B",
"2 c #848383",
"3 c #898888",
"4 c #898889",
"5 c #8B8B8B",
"6 c #8C8A8A",
"7 c gray55",
"8 c #939191",
"9 c #959595",
"0 c #979797",
"q c gray60",
"w c #9B9999",
"e c #A09E9D",
"r c #A5A5A5",
"t c #A7A7A7",
"y c #A8A7A7",
"u c #AEADAD",
"i c #B2B2B2",
"p c #B3B2B2",
"a c #BCBCBC",
"s c gray",
"d c gray80",
"f c #CECECF",
"g c gray83",
"h c #D7D8D7",
"j c #D8D8D9",
"k c gray85",
"l c white",
/* pixels */
"                                                                                                                                ",
"                                                                                                                                ",
"                                                                                                                                ",
"                                                                                                                                ",
"                                                                                                                                ",
"                                                                                                                                ",
"                                                                                                                                ",
"                                                                                                                                ",
"                                                                                                                                ",
"                                                                                                                                ",
"                                                                                                                                ",
"                                                                                                                                ",
"                                                                                                                                ",
"                                                                                                                                ",
"                                                                                                                                ",
"                                                                                                                                ",
"                                                                                                                                ",
"                                                                                                                                ",
"                                                                                                                                ",
"                                                                                                                                ",
"                                                                                                                                ",
"                                                                                                                                ",
"                                                                                                                                ",
"                                                                                                                                ",
"                                                                                                                                ",
"                                                                                                                                ",
"                                                                                                                                ",
"                                                                ....                                                            ",
"                                                                ....                                                            ",
"                                                                ....                                                            ",
"                                                                ....                                                            ",
"                                                            ....dddd....                                                        ",
"                                                            ....dddd....                                                        ",
"                                                            ....dddd....                                                        ",
"                                                            ....dddd....                                                        ",
"                                                            ....dddddddd....                                                    ",
"                                                            ....dddddddd....                                                    ",
"                                                            ....dddddddd....                                                    ",
"                                                            ....dddddddd....                                                    ",
"                                                            ....dddddddddddd....                                                ",
"                                                            ....dddddddddddd....                                                ",
"                                                            ....dddddddddddd....                                                ",
"                                   .   .                    ....dddddddddddd....                                                ",
"                        ........................................dddddddddddddddd........................                        ",
"                        ........................................dddddddddddddddd........................                        ",
"                        ........................................dddddddddddddddd........................                        ",
"                        $$$%$$$%$$$&$$$&$$$&$$$%$$$%$$$%$$$%$$$%ssssssssassssssso.......................                        ",
"                    ...$qqqqqqqqqqqqqqqqqqqqqqqqqqqqqqqqqqqqqqqqqqqqqqqqqqqqqqqqsddd<:::uddddddddddddddd....                    ",
"                    ...$qqqqqqqqqqqqqqqqqqqqqqqqqqqqqqqqqqqqqqqqqqqqqqqqqqqqqqqqsddd<:::uddddddddddddddd....                    ",
"                    ...$qqqqqqqqqqqqqqqqqqqqqqqqqqqqqqqqqqqqqqqqqqqqqqqqqqqqqqqqsddd1:::uddddddddddddddd....                    ",
"                    ...%qqqqqqqqqqqqqqqqqqqqqqqqqqqqqqqqqqqqqqqqqqqqqqqqqqqqqqqqisss2>>>tsssghhhkhhhddddo...                    ",
"                ....dddsqqqqqqqqqqqqqqqqqqqqqqqqqqqqqqqqqqqqqqqqqqqqqqqqqqqqqqqqqqqqqqqqqqqqllllllllkddddddd....                ",
"                ....dddsqqqqqqqqqqqqqqqqqqqqqqqqqqqqqqqqqqqqqqqqqqqqqqqqqqqqqqqqqqqqqqqqqqqqllllllllhddddddd....                ",
"                ....dddsqqqqqqqqqqqqqqqqqqqqqqqqqqqqqqqqqqqqqqqqqqqqqqqqqqqqqqqqqqqqqqqqqqqqllllllllhddddddd....                ",
"                ...osssiqqqqqqqqqqqqqqqqqqqqqqqqqqqqqqqqqqqqqqqqqqqqqqqqqqqqqqqqqqqqrrrryrrrllllllllkhhhfdddo...                ",
"            ....dddsqqqqqqqqqqqqqqqqqqqqqqqqqqqqqqqqqqqqqqqqqqqqqqqqqqqqqqqqqqqqqqqqddddddddllll=...llllkddddddd....            ",
"            ....dddsqqqqqqqqqqqqqqqqqqqqqqqqqqqqqqqqqqqqqqqqqqqqqqqqqqqqqqqqqqqqqqqqddddddddllll=...llllhddddddd....            ",
"            ....dddsqqqqqqqqqqqqqqqqqqqqqqqqqqqqqqqqqqqqqqqqqqqqqqqqqqqqqqqqqqqqqqqqddddddddllll=...llllhddddddd....            ",
"            ...osssiqqqqqqqqqqqqqqqqqqqqqqqqqqqqqqqqqqqqqqqqqqqqqqqqqqqqqqqqqqqqqqqqddddddddllll<===llllhddddddd....            ",
"        ....dddsqqqqqqqqqqqqqqqqqqqq::::::::::::qqqqqqqqqqqqqqqqqqqqqqqqqqqqqqqqqqqqddddddddllllllllhddddddddddddddd....        ",
"        ....dddsqqqqqqqqqqqqqqqqqqqq::::::::::::qqqqqqqqqqqqqqqqqqqqqqqqqqqqqqqqqqqqddddddddllllllllhddddddddddddddd....        ",
"        ....dddsqqqqqqqqqqqqqqq0qqqq::::::::::::qqqqqqqqqqqqqqqqqqqqqqqqqqqqqqqqqqqqddddddddllllllllhddddddddddddddd....        ",
"        ...osssiqqqqqqqqqqq955556765::::::::::::55535555qqqqqqqqqqqqqqqqqqqqqqqqqqqqddddddddllllllllhddddddddddddddd....        ",
"    ....dddsqqqqqqqqqqqqqqq5:::::::::::::::::::::::::::>qqqqqqqqqqqqqqqqqqqqqqqqqqqqdddddddddddddddddddddddddddddddddddd....    ",
"    ....dddsqqqqqqqqqqqqqqq5:::::::::::::::::::::::::::>qqqqqqqqqqqqqqqqqqqqqqqqqqqqdddddddddddddddddddddddddddddddddddd....    ",
"    ....dddsqqqqqqqqqqqqqqq5:::::::::::::::::::::::::::>qqqqqqqqqqqqqqqqqqqqqqqqqqqqdddddddddddddddddddddddddddddddddddd....    ",
"    ...ossspqqqqqqqqqqq9qqq5:::::::::::::::::::::::::::>qqqqqqqqqqqqqqqqqqqqqqqqqqqqddddddddddddddddewqw8www8www8www8www....    ",
"    ...$qqqqqqqqqqqqqqq5::::................................dddddddddddddddd........wddd................................        ",
"    ...$qqqqqqqqqqqqqqq5::::................................dddddddddddddddd........wddd................................        ",
"    ...$qqqqqqqqqqqqqqq5::::................................dddddddddddddddd........wddd................................        ",
"    ...%qqqqqqqqqqqqqqq5::::................................wwwwddddddddwwqq....+@+#,666................................        ",
"    ...$qqqqqqqqqqqq........                                ....dddddddd........::::::::#...                                    ",
"    ...$qqqqqqqqqqqq........                                ....dddddddd........::::::::@...                                    ",
"    ...$qqqqqqqqqqqq........                                ....dddddddd........::::::::@...                                    ",
"    ...&qqqqqqqqqqqq........                                ....ddddwwww........::::::::@...#                                   ",
"    ...$qqqqqqqqqqqq....                                    ....dddd....        ....-:::....                                    ",
"    ...$qqqqqqqqqqqq....                                    ....dddd....        ....-:::....                                    ",
"    ...$qqqqqqqqqqqq....                                    ....dddd....        ....-:::....                                    ",
"    ...&qqqqqqqqqqqq....                                    ....wwww....        ....&---....                                    ",
"    ...$qqqqqqqq....                                        ........                ....                                        ",
"    ...$qqqqqqqq....                                        ........                ....                                        ",
"    ...$qqqqqqqq....                                        ........                ....                                        ",
"    ...&qqqqqqqq+#++                                        ........                ....                                        ",
"    ...$qqqqqqq7:::-............                                                                                                ",
"    ...$qqqqqqq7:::-............                                                                                                ",
"    ...$qqqqqqq6:::-............                                                                                                ",
"    ...$qqqqqqq5:::-#+++@@@@@@@@                                                                                                ",
"        ...$qqqqqqq5::::::::::::....                                                                                            ",
"        ...$qqqqqqq5::::::::::::....                                                                                            ",
"        ...$qqqqqqq5::::::::::::....                                                                                            ",
"        ...%qqqqqqq5::::::::::::....                                                                                            ",
"        ...$qqqqqqq5::::::::....                                                                                                ",
"        ...$qqqqqqq5::::::::....                                                                                                ",
"        ...$qqqqqqq5::::::::....                                                                                                ",
"        ...$qqqqqqq5::::::::....                                                                                                ",
"            ...$qqq6::::....                                                                                                    ",
"            ...$qqq7::::....                                                                                                    ",
"            ...$qqq6::::....                                                                                                    ",
"            ...%qqq5::::....                                                                                                    ",
"            ...$qqqq....                                                                                                        ",
"            ...$qqqq....                                                                                                        ",
"            ...$qqqq....                                                                                                        ",
"            ...$qqqq....                                                                                                        ",
"                ....                                                                                                            ",
"                ....                                                                                                            ",
"                ....                                                                                                            ",
"                ....                                                                                                            ",
"                                                                                                                                ",
"                                                                                                                                ",
"                                                                                                                                ",
"                                                                                                                                ",
"                                                                                                                                ",
"                                                                                                                                ",
"                                                                                                                                ",
"                                                                                                                                ",
"                                                                                                                                ",
"                                                                                                                                ",
"                                                                                                                                ",
"                                                                                                                                ",
"                                                                                                                                ",
"                                                                                                                                ",
"                                                                                                                                ",
"                                                                                                                                ",
"                                                                                                                                ",
"                                                                                                                                ",
"                                                                                                                                ",
"                                                                                                                                ",
"                                                                                                                                "
};
