/* XPM */
static char *exit[] = {
/* columns rows colors chars-per-pixel */
"128 128 27 1 ",
"  c #991B1E",
". c #AD2120",
"X c #AD2D2C",
"o c #CC3627",
"O c #D53726",
"+ c #EE3923",
"@ c #D54326",
"# c #CF6733",
"$ c #F26622",
"% c #E96735",
"& c #F26634",
"* c #F2663A",
"= c #CF6741",
"- c #CF675B",
"; c #E9675B",
": c #F26658",
"> c #CE6667",
", c #F16667",
"< c #ED8C37",
"1 c #F68D39",
"2 c #F79639",
"3 c #F89939",
"4 c #FAA639",
"5 c #FEC036",
"6 c #FFCD32",
"7 c #ED8C4A",
"8 c None",
/* pixels */
"88888888888888888888888888888888333333336666666633333333888888888888888833333333666666663333333388888888888888888888888888888888",
"88888888888888888888888888888888333333336666666633333333888888888888888833333333666666663333333388888888888888888888888888888888",
"88888888888888888888888888888888333333336666666633333333888888888888888833333333666666663333333388888888888888888888888888888888",
"88888888888888888888888888888888333333336666666633333333888888888888888833333333666666663333333388888888888888888888888888888888",
"88888888888888888888888888888888333333336666666633333333888888888888888833333333666666663333333388888888888888888888888888888888",
"88888888888888888888888888888888333333336666666633333333888888888888888833333333666666663333333388888888888888888888888888888888",
"88888888888888888888888888888888333333336666666633333333888888888888888833333333666666663333333388888888888888888888888888888888",
"88888888888888888888888888888888333333336666666633333333888888888888888833333333666666663333333388888888888888888888888888888888",
"88888888888888888888888866666666333333334444444433333333333333333333333333333333444444443333333366666666888888888888888888888888",
"88888888888888888888888866666666333333333333333333333333333333333333333333333333333333333333333366666666888888888888888888888888",
"88888888888888888888888866666666333333333333333333333333333333333333333333333333333333333333333366666666888888888888888888888888",
"88888888888888888888888866666666333333333333333333333333333333333333333333333333333333333333333366666666888888888888888888888888",
"88888888888888888888888866666666333333333333333333333333333333333333333333333333333333333333333366666666888888888888888888888888",
"88888888888888888888888866666666333333333333333333333333333333333333333333333333333333333333333366666666888888888888888888888888",
"88888888888888888888888866666666333333333333333333333333333333333333333333333333333333333333333366666666888888888888888888888888",
"88888888888888888888888866666666333333333333333333333333333333333333333333333333333333333333333366666666888888888888888888888888",
"8888888888888888333333333333333333333333********33333333333333333333333333333333********3333333333333333333333338888888888888888",
"8888888888888888333333333333333333333333********33333333333333333333333333333333********3333333333333333333333338888888888888888",
"8888888888888888333333333333333333333333********33333333333333333333333333333333********3333333333333333333333338888888888888888",
"8888888888888888333333333333333333333333********33333333333333333333333333333333********3333333333333333333333338888888888888888",
"8888888888888888333333333333333333333333********33333333333333333333333333333333********3333333333333333333333338888888888888888",
"8888888888888888333333333333333333333333********33333333333333333333333333333333********3333333333333333333333338888888888888888",
"8888888888888888333333333333333333333333********33333333333333333333333333333333********3333333333333333333333338888888888888888",
"8888888888888888333333333333333333333333********33333333333333333333333333333333********3333333333333333333333338888888888888888",
"888888888888888866666666333333333333333311111111333333333333********333333333333111111113333333333333333666666668888888888888888",
"888888888888888866666666333333333333333333333333333333333333********333333333333333333333333333333333333666666668888888888888888",
"888888888888888866666666333333333333333333333333333333333333********333333333333333333333333333333333333666666668888888888888888",
"888888888888888866666666333333333333333333333333333333333333********333333333333333333333333333333333333666666668888888888888888",
"888888888888888866666666333333333333333333333333333333333333********333333333333333333333333333333333333666666668888888888888888",
"888888888888888866666666333333333333333333333333333333333333********333333333333333333333333333333333333666666668888888888888888",
"888888888888888866666666333333333333333333333333333333333333********333333333333333333333333333333333333666666668888888888888888",
"888888888888888866666666333333333333333333333333333333333333********333333333333333333333333333333333333666666668888888888888888",
"88888888333333333333333333333333333333333333333333333333333311111111333333333333333333333333333333333333333333333333333388888888",
"88888888333333333333333333333333333333333333333333333333333333333333333333333333333333333333333333333333333333333333333388888888",
"88888888333333333333333333333333333333333333333333333333333333333333333333333333333333333333333333333333333333333333333388888888",
"88888888333333333333333333333333333333333333333333333333333333333333333333333333333333333333333333333333333333333333333388888888",
"88888888333333333333333333333333333333333333333333333333333333333333333333333333333333333333333333333333333333333333333388888888",
"88888888333333333333333333333333333333333333333333333333333333333333333333333333333333333333333333333333333333333333333388888888",
"88888888333333333333333333333333333333333333333333333333333333333333333333333333333333333333333333333333333333333333333388888888",
"88888888333333333333333333333333333333333333333333333333333333333333333333333333333333333333333333333333333333333333333388888888",
"888888885555555533333333********33333333########>>>>>>>>########>>>>>>>>########>>>>>>>>33333333********333333336666666688888888",
"888888886666666633333333********33333333########>>>>>>>>########>>>>>>>>########>>>>>>>>33333333********333333336666666688888888",
"888888886666666633333333********33333333########>>>>>>>>########>>>>>>>>########>>>>>>>>33333333********333333336666666688888888",
"888888886666666633333333********33333333########>>>>>>>>########>>>>>>>>########>>>>>>>>33333333********333333336666666688888888",
"888888886666666633333333********33333333########>>>>>>>>########>>>>>>>>########>>>>>>>>33333333********333333336666666688888888",
"888888886666666633333333********33333333########>>>>>>>>########>>>>>>>>########>>>>>>>>33333333********333333336666666688888888",
"888888886666666633333333********33333333########>>>>>>>>########>>>>>>>>########>>>>>>>>33333333********333333336666666688888888",
"888888886666666633333333********33333333########>>>>>>>>########>>>>>>>>########>>>>>>>>33333333********333333336666666688888888",
"8888888833333333333333331111111133333333>>>>>>>>%%%%%%%%;;;;;;;;%%%%%%%%;;;;;;;;########3333333311111111333333333333333388888888",
"8888888833333333333333333333333333333333>>>>>>>>$$$$$$$$,,,,,,,,$$$$$$$$,,,,,,,,########3333333333333333333333333333333388888888",
"8888888833333333333333333333333333333333>>>>>>>>$$$$$$$$,,,,,,,,$$$$$$$$,,,,,,,,########3333333333333333333333333333333388888888",
"8888888833333333333333333333333333333333>>>>>>>>$$$$$$$$,,,,,,,,$$$$$$$$,,,,,,,,########3333333333333333333333333333333388888888",
"8888888833333333333333333333333333333333>>>>>>>>$$$$$$$$,,,,,,,,$$$$$$$$,,,,,,,,########3333333333333333333333333333333388888888",
"8888888833333333333333333333333333333333>>>>>>>>$$$$$$$$,,,,,,,,$$$$$$$$,,,,,,,,########3333333333333333333333333333333388888888",
"8888888833333333333333333333333333333333>>>>>>>>$$$$$$$$,,,,,,,,$$$$$$$$,,,,,,,,########3333333333333333333333333333333388888888",
"8888888833333333333333333333333333333333>>>>>>>>$$$$$$$$,,,,,,,,$$$$$$$$,,,,,,,,########3333333333333333333333333333333388888888",
"8888888888888888333333333333333333333333########,,,,,,,,XXXXXXXX@@@@@@@@&&&&&&&&>>>>>>>>3333333333333333333333338888888888888888",
"8888888888888888333333333333333333333333########,,,,,,,,        oooooooo$$$$$$$$>>>>>>>>3333333333333333333333338888888888888888",
"8888888888888888333333333333333333333333########,,,,,,,,        oooooooo$$$$$$$$>>>>>>>>3333333333333333333333338888888888888888",
"8888888888888888333333333333333333333333########,,,,,,,,        oooooooo$$$$$$$$>>>>>>>>3333333333333333333333338888888888888888",
"888888888888888833333333********33333333########,,,,,,,,    ++++++++oooo$$$$$$$$>>>>>>>>33333333********333333338888888888888888",
"888888888888888833333333********33333333########,,,,,,,,    ++++++++oooo$$$$$$$$>>>>>>>>33333333********333333338888888888888888",
"888888888888888833333333********33333333########,,,,,,,,    ++++++++oooo$$$$$$$$>>>>>>>>33333333********333333338888888888888888",
"888888888888888833333333********33333333########,,,,,,,,    ++++++++oooo$$$$$$$$>>>>>>>>33333333********333333338888888888888888",
"888888888888888833333333********33333333--------$$$$$$$$oooo++++++++    ::::::::========33333333********333333338888888888888888",
"888888888888888833333333********33333333>>>>>>>>$$$$$$$$oooo++++++++    ,,,,,,,,########33333333********333333338888888888888888",
"888888888888888833333333********33333333>>>>>>>>$$$$$$$$oooo++++++++    ,,,,,,,,########33333333********333333338888888888888888",
"888888888888888833333333********33333333>>>>>>>>$$$$$$$$oooo++++++++    ,,,,,,,,########33333333********333333338888888888888888",
"8888888888888888333333331111111133333333>>>>>>>>$$$$$$$$ooooOOOO....    ,,,,,,,,########3333333311111111333333338888888888888888",
"8888888888888888333333333333333333333333>>>>>>>>$$$$$$$$oooooooo        ,,,,,,,,########3333333333333333333333338888888888888888",
"8888888888888888333333333333333333333333>>>>>>>>$$$$$$$$oooooooo        ,,,,,,,,########3333333333333333333333338888888888888888",
"8888888888888888333333333333333333333333>>>>>>>>$$$$$$$$oooooooo        ,,,,,,,,########3333333333333333333333338888888888888888",
"8888888833333333333333333333333333333333========,,,,,,,,$$$$$$$$,,,,,,,,&&&&&&&&--------3333333333333333333333333333333388888888",
"8888888833333333333333333333333333333333########,,,,,,,,$$$$$$$$,,,,,,,,$$$$$$$$>>>>>>>>3333333333333333333333333333333388888888",
"8888888833333333333333333333333333333333########,,,,,,,,$$$$$$$$,,,,,,,,$$$$$$$$>>>>>>>>3333333333333333333333333333333388888888",
"8888888833333333333333333333333333333333########,,,,,,,,$$$$$$$$,,,,,,,,$$$$$$$$>>>>>>>>3333333333333333333333333333333388888888",
"8888888833333333333333333333333333333333########,,,,,,,,$$$$$$$$,,,,,,,,$$$$$$$$>>>>>>>>3333333333333333333333333333333388888888",
"8888888833333333333333333333333333333333########,,,,,,,,$$$$$$$$,,,,,,,,$$$$$$$$>>>>>>>>3333333333333333333333333333333388888888",
"8888888833333333333333333333333333333333########,,,,,,,,$$$$$$$$,,,,,,,,$$$$$$$$>>>>>>>>3333333333333333333333333333333388888888",
"8888888833333333333333333333333333333333########,,,,,,,,$$$$$$$$,,,,,,,,$$$$$$$$>>>>>>>>3333333333333333333333333333333388888888",
"888888886666666633333333********33333333--------########>>>>>>>>########>>>>>>>>========33333333********333333336666666688888888",
"888888886666666633333333********33333333>>>>>>>>########>>>>>>>>########>>>>>>>>########33333333********333333336666666688888888",
"888888886666666633333333********33333333>>>>>>>>########>>>>>>>>########>>>>>>>>########33333333********333333336666666688888888",
"888888886666666633333333********33333333>>>>>>>>########>>>>>>>>########>>>>>>>>########33333333********333333336666666688888888",
"888888886666666633333333********33333333>>>>>>>>########>>>>>>>>########>>>>>>>>########33333333********333333336666666688888888",
"888888886666666633333333********33333333>>>>>>>>########>>>>>>>>########>>>>>>>>########33333333********333333336666666688888888",
"888888886666666633333333********33333333>>>>>>>>########>>>>>>>>########>>>>>>>>########33333333********333333336666666688888888",
"888888886666666633333333********33333333>>>>>>>>########>>>>>>>>########>>>>>>>>########33333333********333333336666666688888888",
"888888884444444433333333111111113333333377777777<<<<<<<<77777777<<<<<<<<77777777<<<<<<<<3333333322222222333333334444444488888888",
"88888888333333333333333333333333333333333333333333333333333333333333333333333333333333333333333333333333333333333333333388888888",
"88888888333333333333333333333333333333333333333333333333333333333333333333333333333333333333333333333333333333333333333388888888",
"88888888333333333333333333333333333333333333333333333333333333333333333333333333333333333333333333333333333333333333333388888888",
"88888888333333333333333333333333333333333333333333333333333333333333333333333333333333333333333333333333333333333333333388888888",
"88888888333333333333333333333333333333333333333333333333333333333333333333333333333333333333333333333333333333333333333388888888",
"88888888333333333333333333333333333333333333333333333333333333333333333333333333333333333333333333333333333333333333333388888888",
"88888888333333333333333333333333333333333333333333333333333333333333333333333333333333333333333333333333333333333333333388888888",
"888888888888888855555555333333333333333333333333333333333333********333333333333333333333333333333333333555555558888888888888888",
"888888888888888866666666333333333333333333333333333333333333********333333333333333333333333333333333333666666668888888888888888",
"888888888888888866666666333333333333333333333333333333333333********333333333333333333333333333333333333666666668888888888888888",
"888888888888888866666666333333333333333333333333333333333333********333333333333333333333333333333333333666666668888888888888888",
"888888888888888866666666333333333333333333333333333333333333********333333333333333333333333333333333333666666668888888888888888",
"888888888888888866666666333333333333333333333333333333333333********333333333333333333333333333333333333666666668888888888888888",
"888888888888888866666666333333333333333333333333333333333333********333333333333333333333333333333333333666666668888888888888888",
"888888888888888866666666333333333333333333333333333333333333********333333333333333333333333333333333333666666668888888888888888",
"8888888888888888333333333333333333333333********33333333333311111111333333333333********3333333333333333444444448888888888888888",
"8888888888888888333333333333333333333333********33333333333333333333333333333333********3333333333333333333333338888888888888888",
"8888888888888888333333333333333333333333********33333333333333333333333333333333********3333333333333333333333338888888888888888",
"8888888888888888333333333333333333333333********33333333333333333333333333333333********3333333333333333333333338888888888888888",
"8888888888888888333333333333333333333333********33333333333333333333333333333333********3333333333333333333333338888888888888888",
"8888888888888888333333333333333333333333********33333333333333333333333333333333********3333333333333333333333338888888888888888",
"8888888888888888333333333333333333333333********33333333333333333333333333333333********3333333333333333333333338888888888888888",
"8888888888888888333333333333333333333333********33333333333333333333333333333333********3333333333333333333333338888888888888888",
"88888888888888888888888855555555333333331111111133333333333333333333333333333333111111113333333355555555888888888888888888888888",
"88888888888888888888888866666666333333333333333333333333333333333333333333333333333333333333333366666666888888888888888888888888",
"88888888888888888888888866666666333333333333333333333333333333333333333333333333333333333333333366666666888888888888888888888888",
"88888888888888888888888866666666333333333333333333333333333333333333333333333333333333333333333366666666888888888888888888888888",
"88888888888888888888888866666666333333333333333333333333333333333333333333333333333333333333333366666666888888888888888888888888",
"88888888888888888888888866666666333333333333333333333333333333333333333333333333333333333333333366666666888888888888888888888888",
"88888888888888888888888866666666333333333333333333333333333333333333333333333333333333333333333366666666888888888888888888888888",
"88888888888888888888888866666666333333333333333333333333333333333333333333333333333333333333333366666666888888888888888888888888",
"88888888888888888888888888888888333333336666666633333333888888888888888833333333666666663333333388888888888888888888888888888888",
"88888888888888888888888888888888333333336666666633333333888888888888888833333333666666663333333388888888888888888888888888888888",
"88888888888888888888888888888888333333336666666633333333888888888888888833333333666666663333333388888888888888888888888888888888",
"88888888888888888888888888888888333333336666666633333333888888888888888833333333666666663333333388888888888888888888888888888888",
"88888888888888888888888888888888333333336666666633333333888888888888888833333333666666663333333388888888888888888888888888888888",
"88888888888888888888888888888888333333336666666633333333888888888888888833333333666666663333333388888888888888888888888888888888",
"88888888888888888888888888888888333333336666666633333333888888888888888833333333666666663333333388888888888888888888888888888888",
"88888888888888888888888888888888333333336666666633333333888888888888888833333333666666663333333388888888888888888888888888888888"
};
