/* XPM */
static char *fish[] = {
/* columns rows colors chars-per-pixel */
"128 128 79 1 ",
"  c gray20",
". c #3B3734",
"X c #3C3835",
"o c #544136",
"O c #5A4336",
"+ c #5B4436",
"@ c #5C4436",
"# c #54463B",
"$ c #57473B",
"% c #5B4538",
"& c #58483B",
"* c #584F3D",
"= c #5F543E",
"- c #604C3D",
"; c #604D3D",
": c #754E36",
"> c #754F38",
", c #60543E",
"< c #72573B",
"1 c #565453",
"2 c #675A40",
"3 c #7E5C40",
"4 c #7B5A44",
"5 c #7E6241",
"6 c #786742",
"7 c #7C7572",
"8 c #975932",
"9 c #995931",
"0 c #A05B31",
"q c #CD6828",
"w c #D7742C",
"e c #D9792C",
"r c #E07F2F",
"t c #916540",
"y c #8B7444",
"u c #927945",
"i c #AE7441",
"p c #AE7B42",
"a c #B87941",
"s c #BB7B40",
"d c #E7903C",
"f c #F49537",
"g c #F89939",
"h c #F89C39",
"j c #F9A238",
"k c #FAA639",
"l c #F2AA3A",
"z c #FAA839",
"x c #FCB038",
"c c #FCB238",
"v c #FEC035",
"b c #FEC335",
"n c #FEC036",
"m c #FEC933",
"M c #FFCD32",
"N c #BB9944",
"B c #D88952",
"V c #F89D42",
"C c #F89F45",
"Z c #E29256",
"A c #FAA95B",
"S c #EEA969",
"D c #FAAF65",
"F c #FBB266",
"G c #FBB069",
"H c #FCC085",
"J c #FDC38A",
"K c #FDCC9A",
"L c #FDCE9B",
"P c #FFDB9F",
"I c #FDD1A3",
"U c #FDD1A5",
"Y c #F1D4B9",
"T c #FFDDBC",
"R c #FFE2C5",
"E c #FEE4C9",
"W c #FFF1CC",
"Q c white",
"! c None",
/* pixels */
"!!!!!!!!!!!!!!!!!!!!!!!!!!!!!!!!!!!!!!!!!!!!!!!!!!!!!!!!!!!!!!!!!!!!!!!!!!!!!!!!!!!!!!!!!!!!!!!!!!!!!!!!!!!!!!!!!!!!!!!!!!!!!!!!",
"!!!!!!!!!!!!!!!!!!!!!!!!!!!!!!!!!!!!!!!!!!!!!!!!!!!!!!!!!!!!!!!!!!!!!!!!!!!!!!!!!!!!!!!!!!!!!!!!!!!!!!!!!!!!!!!!!!!!!!!!!!!!!!!!",
"!!!!!!!!!!!!!!!!!!!!!!!!!!!!!!!!!!!!!!!!!!!!!!!!!!!!!!!!!!!!!!!!!!!!!!!!!!!!!!!!!!!!!!!!!!!!!!!!!!!!!!!!!!!!!!!!!!!!!!!!!!!!!!!!",
"!!!!!!!!!!!!!!!!!!!!!!!!!!!!!!!!!!!!!!!!!!!!!!!!!!!!!!!!!!!!!!!!!!!!!!!!!!!!!!!!!!!!!!!!!!!!!!!!!!!!!!!!!!!!!!!!!!!!!!!!!!!!!!!!",
"!!!!!!!!!!!!!!!!!!!!!!!!!!!!!!!!!!!!!!!!!!!!!!!!!!!!!!!!!!!!!!!!!!!!!!!!!!!!!!!!!!!!!!!!!!!!!!!!!!!!!!!!!!!!!!!!!!!!!!!!!!!!!!!!",
"!!!!!!!!!!!!!!!!!!!!!!!!!!!!!!!!!!!!!!!!!!!!!!!!!!!!!!!!!!!!!!!!!!!!!!!!!!!!!!!!!!!!!!!!!!!!!!!!!!!!!!!!!!!!!!!!!!!!!!!!!!!!!!!!",
"!!!!!!!!!!!!!!!!!!!!!!!!!!!!!!!!!!!!!!!!!!!!!!!!!!!!!!!!!!!!!!!!!!!!!!!!!!!!!!!!!!!!!!!!!!!!!!!!!!!!!!!!!!!!!!!!!!!!!!!!!!!!!!!!",
"!!!!!!!!!!!!!!!!!!!!!!!!!!!!!!!!!!!!!!!!!!!!!!!!!!!!!!!!!!!!!!!!!!!!!!!!!!!!!!!!!!!!!!!!!!!!!!!!!!!!!!!!!!!!!!!!!!!!!!!!!!!!!!!!",
"!!!!!!!!!!!!!!!!!!!!!!!!!!!!!!!!!!!!!!!!!!!!!!!!!!!!!!!!!!!!!!!!!!!!!!!!!!!!!!!!!!!!!!!!!!!!!!!!!!!!!!!!!!!!!!!!!!!!!!!!!!!!!!!!",
"!!!!!!!!!!!!!!!!!!!!!!!!!!!!!!!!!!!!!!!!!!!!!!!!!!!!!!!!!!!!!!!!!!!!!!!!!!!!!!!!!!!!!!!!!!!!!!!!!!!!!!!!!!!!!!!!!!!!!!!!!!!!!!!!",
"!!!!!!!!!!!!!!!!!!!!!!!!!!!!!!!!!!!!!!!!!!!!!!!!!!!!!!!!!!!!!!!!!!!!!!!!!!!!!!!!!!!!!!!!!!!!!!!!!!!!!!!!!!!!!!!!!!!!!!!!!!!!!!!!",
"!!!!!!!!!!!!!!!!!!!!!!!!!!!!!!!!!!!!!!!!!!!!!!!!!!!!!!!!!!!!!!!!!!!!!!!!!!!!!!!!!!!!!!!!!!!!!!!!!!!!!!!!!!!!!!!!!!!!!!!!!!!!!!!!",
"!!!!!!!!!!!!!!!!!!!!!!!!!!!!!!!!!!!!!!!!!!!!!!!!!!!!!!!!!!!!!!!!!!!!!!!!!!!!!!!!!!!!!!!!!!!!!!!!!!!!!!!!!!!!!!!!!!!!!!!!!!!!!!!!",
"!!!!!!!!!!!!!!!!!!!!!!!!!!!!!!!!!!!!!!!!!!!!!!!!!!!!!!!!!!!!!!!!!!!!!!!!!!!!!!!!!!!!!!!!!!!!!!!!!!!!!!!!!!!!!!!!!!!!!!!!!!!!!!!!",
"!!!!!!!!!!!!!!!!!!!!!!!!!!!!!!!!!!!!!!!!!!!!!!!!!!!!!!!!!!!!!!!!!!!!!!!!!!!!!!!!!!!!!!!!!!!!!!!!!!!!!!!!!!!!!!!!!!!!!!!!!!!!!!!!",
"!!!!!!!!!!!!!!!!!!!!!!!!!!!!!!!!!!!!!!!!!!!!!!!!!!!!!!!!!!!!!!!!!!!!!!!!!!!!!!!!!!!!!!!!!!!!!!!!!!!!!!!!!!!!!!!!!!!!!!!!!!!!!!!!",
"!!!!!!!!!!!!!!!!!!!!!!!!!!!!!!!!!!!!!!!!!!!!!!!!!!!!!!!!!!!!!!!!!!!!!!!!!!!!!!!!!!!!!!!!!!!!!!!!!!!!!!!!!!!!!!!!!!!!!!!!!!!!!!!!",
"!!!!!!!!!!!!!!!!!!!!!!!!!!!!!!!!!!!!!!!!!!!!!!!!!!!!!!!!!!!!!!!!!!!!!!!!!!!!!!!!!!!!!!!!!!!!!!!!!!!!!!!!!!!!!!!!!!!!!!!!!!!!!!!!",
"!!!!!!!!!!!!!!!!!!!!!!!!!!!!!!!!!!!!!!!!!!!!!!!!!!!!!!!!!!!!!!!!!!!!!!!!!!!!!!!!!!!!!!!!!!!!!!!!!!!!!!!!!!!!!!!!!!!!!!!!!!!!!!!!",
"!!!!!!!!!!!!!!!!!!!!!!!!!!!!!!!!!!!!!!!!!!!!!!!!!!!!!!!!!!!!!!!!!!!!!!!!!!!!!!!!!!!!!!!!!!!!!!!!!!!!!!!!!!!!!!!!!!!!!!!!!!!!!!!!",
"!!!!!!!!!!!!!!!!!!!!!!!!!!!!!!!!!!!!!!!!!!!!!!!!!!!!!!!!!!!!!!!!!!!!!!!!!!!!!!!!!!!!!!!!!!!!!!!!!!!!!!!!!!!!!!!!!!!!!!!!!!!!!!!!",
"!!!!!!!!!!!!!!!!!!!!!!!!!!!!!!!!!!!!!!!!!!!!!!!!!!!!!!!!!!!!!!!!!!!!!!!!!!!!!!!!!!!!!!!!!!!!!!!!!!!!!!!!!!!!!!!!!!!!!!!!!!!!!!!!",
"!!!!!!!!!!!!!!!!!!!!!!!!!!!!!!!!!!!!!!!!!!!!!!!!!!!!!!!!!!!!!!!!!!!!!!!!!!!!!!!!!!!!!!!!!!!!!!!!!!!!!!!!!!!!!!!!!!!!!!!!!!!!!!!!",
"!!!!!!!!!!!!!!!!!!!!!!!!!!!!!!!!!!!!!!!!!!!!!!!!!!!!!!!!!!!!    !!!!!!!!!!!!!!!!!!!!!!!!!!!!!!!!!!!!!!!!!!!!!!!!!!!!!!!!!!!!!!!!",
"!!!!!!!!!!!!!!!!!!!!!!!!!!!!!!!!!!!!!!!!!!!!!!!!!!!!!!!!!!!!    !!!!!!!!!!!!!!!!!!!!!!!!!!!!!!!!!!!!!!!!!!!!!!!!!!!!!!!!!!!!!!!!",
"!!!!!!!!!!!!!!!!!!!!!!!!!!!!!!!!!!!!!!!!!!!!!!!!!!!!!!!!!!!!    !!!!!!!!!!!!!!!!!!!!!!!!!!!!!!!!!!!!!!!!!!!!!!!!!!!!!!!!!!!!!!!!",
"!!!!!!!!!!!!!!!!!!!!!!!!!!!!!!!!!!!!!!!!!!!!!!!!!!!!!!!!!!!!    !!!!!!!!!!!!!!!!!!!!!!!!!!!!!!!!!!!!!!!!!!!!!!!!!!!!!!!!!!!!!!!!",
"!!!!!!!!!!!!!!!!!!!!!!!!!!!!!!!!!!!!!!!!!!!!!!!!!!!!!!!!   *MMMM    !!!!!!!!!!!!!!!!!!!!!!!!!!!!!!!!!!!!!!!!!!!!!!!!!!!!!!!!!!!!",
"!!!!!!!!!!!!!!!!!!!!!!!!!!!!!!!!!!!!!!!!!!!!!!!!!!!!!!!!   *MMMM    !!!!!!!!!!!!!!!!!!!!!!!!!!!!!!!!!!!!!!!!!!!!!!!!!!!!!!!!!!!!",
"!!!!!!!!!!!!!!!!!!!!!!!!!!!!!!!!!!!!!!!!!!!!!!!!!!!!!!!!   *MMMM    !!!!!!!!!!!!!!!!!!!!!!!!!!!!!!!!!!!!!!!!!!!!!!!!!!!!!!!!!!!!",
"!!!!!!!!!!!!!!!!!!!!!!!!!!!!!!!!!!!!!!!!!!!!!!!!!!!!!!!!   *MMMM    !!!!!!!!!!!!!!!!!!!!!!!!!!!!!!!!!!!!!!!!!!!!!!!!!!!!!!!!!!!!",
"!!!!!!!!    !!!!!!!!!!!!!!!!!!!!!!!!!!!!!!!!!!!!!!!!!!!!   ;ggggMMMM    !!!!!!!!!!!!!!!!!!!!!!!!!!!!!!!!!!!!!!!!!!!!!!!!!!!!!!!!",
"!!!!!!!!    !!!!!!!!!!!!!!!!!!!!!!!!!!!!!!!!!!!!!!!!!!!!   &ggggMMMM    !!!!!!!!!!!!!!!!!!!!!!!!!!!!!!!!!!!!!!!!!!!!!!!!!!!!!!!!",
"!!!!!!!!    !!!!!!!!!!!!!!!!!!!!!!!!!!!!!!!!!!!!!!!!!!!!   &ggggMMMM    !!!!!!!!!!!!!!!!!!!!!!!!!!!!!!!!!!!!!!!!!!!!!!!!!!!!!!!!",
"!!!!!!!!    !!!!!!!!!!!!!!!!!!!!!!!!!!!!!!!!!!!!!!!!!!!!   &ggggMMMM    !!!!!!!!!!!!!!!!!!!!!!!!!!!!!!!!!!!!!!!!!!!!!!!!!!!!!!!!",
"!!!!   6MMMM    !!!!!!!!!!!!!!!!!!!!!!!!!!!!!!!!!!!!!!!!   XggghkkklMMMM    !!!!!!!!!!!!!!!!!!!!!!!!!!!!!!!!!!!!!!!!!!!!!!!!!!!!",
"!!!!   6MMMM    !!!!!!!!!!!!!!!!!!!!!!!!!!!!!!!!!!!!!!!!    gggggggkMMMM    !!!!!!!!!!!!!!!!!!!!!!!!!!!!!!!!!!!!!!!!!!!!!!!!!!!!",
"!!!!   6MMMM    !!!!!!!!!!!!!!!!!!!!!!!!!!!!!!!!!!!!!!!!    gggggggkMMMM    !!!!!!!!!!!!!!!!!!!!!!!!!!!!!!!!!!!!!!!!!!!!!!!!!!!!",
"!!!!   6MMMM    !!!!!!!!!!!!!!!!!!!!!!!!!!!!!!!!!!!!!!!!    gggggggkMMMM    !!!!!!!!!!!!!!!!!!!!!!!!!!!!!!!!!!!!!!!!!!!!!!!!!!!!",
"!!!!   2MMMMMMMM    !!!!!!!!!!!!!!!!!!!!               *MMMnggggggggggggMMMM    !!!!!!!!!!!!!!!!!!!!!!!!!!!!!!!!!!!!!!!!!!!!!!!!",
"!!!!   *MMMMMMMM    !!!!!!!!!!!!!!!!!!!!               *MMMnggggggggggggMMMM    !!!!!!!!!!!!!!!!!!!!!!!!!!!!!!!!!!!!!!!!!!!!!!!!",
"!!!!   *MMMMMMMM    !!!!!!!!!!!!!!!!!!!!               *MMMnggggggggggggMMMM    !!!!!!!!!!!!!!!!!!!!!!!!!!!!!!!!!!!!!!!!!!!!!!!!",
"!!!!   *MMMMMMMM    !!!!!!!!!!!!!!!!!!!!               *MMMnggggggggggggMMMM    !!!!!!!!!!!!!!!!!!!!!!!!!!!!!!!!!!!!!!!!!!!!!!!!",
"!!!!   ,MMMMkkkxMMMM    !!!!           *MMMMMMMMMMMMMMMvkkkjggggggggggggggggNNNu                                !!!!!!!!!!!!!!!!",
"!!!!   *MMMMgggkMMMM    !!!!           *MMMMMMMMMMMMMMMnggggggggggggggggggggMMMN                                !!!!!!!!!!!!!!!!",
"!!!!   *MMMMgggkMMMM    !!!!           *MMMMMMMMMMMMMMMnggggggggggggggggggggMMMN                                !!!!!!!!!!!!!!!!",
"!!!!   *MMMMgggkMMMM    !!!!           *MMMMMMMMMMMMMMMnggggggggggggggggggggMMMN                                !!!!!!!!!!!!!!!!",
"!!!!   =MMMbggggkkkxMMMM       *MMMMMMMMMMMMMMMMMMMMMMMm&&&#       &gggggggggggggggSQQQYgggggggGQQQRgggggggggggg    !!!!!!!!!!!!",
"!!!!   *MMMngggggggkMMMM       *MMMMMMMMMMMMMMMMMMMMMMMM           &gggggggggggggggGQQQRgggggggGQQQRgggggggggggg    !!!!!!!!!!!!",
"!!!!   *MMMngggggggkMMMM       *MMMMMMMMMMMMMMMMMMMMMMMM           &gggggggggggggggGQQQRgggggggGQQQRgggggggggggg    !!!!!!!!!!!!",
"!!!!   *MMMngggggggkMMMM       *MMMMMMMMMMMMMMMMMMMMMMMM           &gggggggggggggggGQQQRgggggggGQQQRgggggggggggg    !!!!!!!!!!!!",
"!!!!   ,MMMnggggggghkkkkgggggggFWWWPkkkzMMMMMMMMMMMM***6MMMMNNNy   &gggggggggggGQQQRggggggggRRRUGGGDgggGQQQQgggggggg    !!!!!!!!",
"!!!!   *MMMngggggggggggggggggggGQQQRggggMMMMMMMMMMMM   *MMMMMMMN   &gggggggggggGQQQRggggggggQQQRgggggggGQQQQgggggggg    !!!!!!!!",
"!!!!   *MMMngggggggggggggggggggGQQQRggggMMMMMMMMMMMM   *MMMMMMMN   &gggggggggggGQQQRggggggggQQQRgggggggGQQQQgggggggg    !!!!!!!!",
"!!!!   *MMMngggggggggggggggggggGQQQRggggMMMMMMMMMMMM   *MMMMMMMN   &gggggggggggGQQQRggggggggQQQRgggggggGQQQQgggggggg    !!!!!!!!",
"!!!!!!!!***5gggggggggggggggggggCGGGDRRRLkkkcMMMM***<qqqekkkkkkkp   &gggggggGQQQRgggggggGQQQQGGGDgggARRRE1117RRRKggggaaat    !!!!",
"!!!!!!!!   &ggggggggggggggggggggggggQQQRgggkMMMM   oqqqwggggggga   &gggggggGQQQRgggggggGQQQQgggggggGQQQQ   1QQQRggggggga    !!!!",
"!!!!!!!!   &ggggggggggggggggggggggggQQQRgggkMMMM   oqqqwggggggga   &gggggggGQQQRgggggggGQQQQgggggggGQQQQ   1QQQRggggggga    !!!!",
"!!!!!!!!   &ggggggggggggggggggggggggQQQRgggkMMMM   oqqqwggggggga   &gggggggGQQQRgggggggGQQQQgggggggGQQQQ   1QQQRggggggga    !!!!",
"!!!!   oqqqqqqqqgggggggggggggggARRRIGGGDggghkkkkgggfooo:qqqqqqq8   &gggGQQQEGGGDgggDRRRUGGGGgggggggCGGGJQQQEGGGDgggggggi    !!!!",
"!!!!   oqqqqqqqqgggggggggggggggGQQQRgggggggggggggggg   oqqqqqqq0   &gggGQQQRgggggggGQQQRgggggggggggggggGQQQRggggggggggga    !!!!",
"!!!!   oqqqqqqqqgggggggggggggggGQQQRgggggggggggggggg   oqqqqqqq0   &gggGQQQRgggggggGQQQRgggggggggggggggGQQQRggggggggggga    !!!!",
"!!!!   oqqqqqqqqgggggggggggggggGQQQRgggggggggggggggg   oqqqqqqq0   &gggGQQQRgggggggGQQQRgggggggggggggggGQQQRggggggggggga    !!!!",
"!!!!   +qqqqqqqqqqqqqqqq&&&-&&&4BBBZgggggggggggggggggggfoooo       &gggggggDRRRKgggCGGGHRRRRgggggggggggCGGGDgggggggggggi    !!!!",
"!!!!   oqqqqqqqqqqqqqqqq       oqqqwgggggggggggggggggggg           &gggggggGQQQRgggggggGQQQQggggggggggggggggggggggggggga    !!!!",
"!!!!   oqqqqqqqqqqqqqqqq       oqqqwgggggggggggggggggggg           &gggggggGQQQRgggggggGQQQQggggggggggggggggggggggggggga    !!!!",
"!!!!   oqqqqqqqqqqqqqqqq       oqqqwgggggggggggggggggggg           &gggggggGQQQRgggggggGQQQQggggggggggggggggggggggggggga    !!!!",
"!!!!   +qqqqqqqqqqqq@@@+!!!!   .ooo>wwwrgggggggggggggggggggdaaaiaaasgggggggggggGQQQTgggVggggQQQRgggggggggggggggggggggggg    !!!!",
"!!!!   oqqqqqqqqqqqq    !!!!       oqqqwgggggggggggggggggggggggggggggggggggggggGQQQRggggggggQQQRgggggggggggggggggggggggg    !!!!",
"!!!!   oqqqqqqqqqqqq    !!!!       oqqqwgggggggggggggggggggggggggggggggggggggggGQQQRggggggggQQQRgggggggggggggggggggggggg    !!!!",
"!!!!   oqqqqqqqqqqqq    !!!!       oqqqwgggggggggggggggggggggggggggggggggggggggGQQQRggggggggQQQRgggggggggggggggggggggggg    !!!!",
"!!!!   +qqqqqqqq@@@O    !!!!!!!!!!!!ooo:qqqwgggggggggggggggggggggggggggggggggggVgggGQQQTgggggggGQQQRgggggggggggggggggggg    !!!!",
"!!!!   oqqqqqqqq    !!!!!!!!!!!!!!!!   oqqqwgggggggggggggggggggggggggggggggggggggggGQQQRgggggggGQQQRgggggggggggggggggggg    !!!!",
"!!!!   oqqqqqqqq    !!!!!!!!!!!!!!!!   oqqqwgggggggggggggggggggggggggggggggggggggggGQQQRgggggggGQQQRgggggggggggggggggggg    !!!!",
"!!!!   oqqqqqqqq    !!!!!!!!!!!!!!!!   oqqqwgggggggggggggggggggggggggggggggggggggggGQQQRgggggggGQQQRgggggggggggggggggggg    !!!!",
"!!!!   +qqqq@@@O    !!!!!!!!!!!!!!!!!!!!ooo%&&&-&&&-&&&-&&&&qqqqqqqqqqqwgggggggggggVggggggggggggggggggga    gggg&&&-&&&&    !!!!",
"!!!!   oqqqq    !!!!!!!!!!!!!!!!!!!!!!!!                    qqqqqqqqqqqwggggggggggggggggggggggggggggggga    gggg        !!!!!!!!",
"!!!!   oqqqq    !!!!!!!!!!!!!!!!!!!!!!!!                    qqqqqqqqqqqwggggggggggggggggggggggggggggggga    gggg        !!!!!!!!",
"!!!!   oqqqq    !!!!!!!!!!!!!!!!!!!!!!!!                    qqqqqqqqqqqwggggggggggggggggggggggggggggggga    gggg        !!!!!!!!",
"!!!!!!!!+@@O    !!!!!!!!!!!!!!!!!!!!!!!!!!!!!!!!!!!!!!!!    qqqqqqqqooo%&&&3gggggggggggggggggggggggggggggggg&&&&    !!!!!!!!!!!!",
"!!!!!!!!    !!!!!!!!!!!!!!!!!!!!!!!!!!!!!!!!!!!!!!!!!!!!    qqqqqqqq       &gggggggggggggggggggggggggggggggg        !!!!!!!!!!!!",
"!!!!!!!!    !!!!!!!!!!!!!!!!!!!!!!!!!!!!!!!!!!!!!!!!!!!!    qqqqqqqq       &gggggggggggggggggggggggggggggggg        !!!!!!!!!!!!",
"!!!!!!!!    !!!!!!!!!!!!!!!!!!!!!!!!!!!!!!!!!!!!!!!!!!!!    qqqqqqqq       &gggggggggggggggggggggggggggggggg        !!!!!!!!!!!!",
"!!!!!!!!    !!!!!!!!!!!!!!!!!!!!!!!!!!!!!!!!!!!!!!!!!!!!!!!!   .qqq9    !!!!&&&-&&&$&&&$&&&&&&&-&&&-&&&-&&&&    !!!!!!!!!!!!!!!!",
"!!!!!!!!!!!!!!!!!!!!!!!!!!!!!!!!!!!!!!!!!!!!!!!!!!!!!!!!!!!!    qqq0    !!!!                                    !!!!!!!!!!!!!!!!",
"!!!!!!!!!!!!!!!!!!!!!!!!!!!!!!!!!!!!!!!!!!!!!!!!!!!!!!!!!!!!    qqq0    !!!!                                    !!!!!!!!!!!!!!!!",
"!!!!!!!!!!!!!!!!!!!!!!!!!!!!!!!!!!!!!!!!!!!!!!!!!!!!!!!!!!!!    qqq0    !!!!                                    !!!!!!!!!!!!!!!!",
"!!!!!!!!!!!!!!!!!!!!!!!!!!!!!!!!!!!!!!!!!!!!!!!!!!!!!!!!!!!!!!!!    !!!!!!!!!!!!!!!!!!!!!!!!!!!!!!!!!!!!!!!!!!!!!!!!!!!!!!!!!!!!",
"!!!!!!!!!!!!!!!!!!!!!!!!!!!!!!!!!!!!!!!!!!!!!!!!!!!!!!!!!!!!!!!!    !!!!!!!!!!!!!!!!!!!!!!!!!!!!!!!!!!!!!!!!!!!!!!!!!!!!!!!!!!!!",
"!!!!!!!!!!!!!!!!!!!!!!!!!!!!!!!!!!!!!!!!!!!!!!!!!!!!!!!!!!!!!!!!    !!!!!!!!!!!!!!!!!!!!!!!!!!!!!!!!!!!!!!!!!!!!!!!!!!!!!!!!!!!!",
"!!!!!!!!!!!!!!!!!!!!!!!!!!!!!!!!!!!!!!!!!!!!!!!!!!!!!!!!!!!!!!!!    !!!!!!!!!!!!!!!!!!!!!!!!!!!!!!!!!!!!!!!!!!!!!!!!!!!!!!!!!!!!",
"!!!!!!!!!!!!!!!!!!!!!!!!!!!!!!!!!!!!!!!!!!!!!!!!!!!!!!!!!!!!!!!!!!!!!!!!!!!!!!!!!!!!!!!!!!!!!!!!!!!!!!!!!!!!!!!!!!!!!!!!!!!!!!!!",
"!!!!!!!!!!!!!!!!!!!!!!!!!!!!!!!!!!!!!!!!!!!!!!!!!!!!!!!!!!!!!!!!!!!!!!!!!!!!!!!!!!!!!!!!!!!!!!!!!!!!!!!!!!!!!!!!!!!!!!!!!!!!!!!!",
"!!!!!!!!!!!!!!!!!!!!!!!!!!!!!!!!!!!!!!!!!!!!!!!!!!!!!!!!!!!!!!!!!!!!!!!!!!!!!!!!!!!!!!!!!!!!!!!!!!!!!!!!!!!!!!!!!!!!!!!!!!!!!!!!",
"!!!!!!!!!!!!!!!!!!!!!!!!!!!!!!!!!!!!!!!!!!!!!!!!!!!!!!!!!!!!!!!!!!!!!!!!!!!!!!!!!!!!!!!!!!!!!!!!!!!!!!!!!!!!!!!!!!!!!!!!!!!!!!!!",
"!!!!!!!!!!!!!!!!!!!!!!!!!!!!!!!!!!!!!!!!!!!!!!!!!!!!!!!!!!!!!!!!!!!!!!!!!!!!!!!!!!!!!!!!!!!!!!!!!!!!!!!!!!!!!!!!!!!!!!!!!!!!!!!!",
"!!!!!!!!!!!!!!!!!!!!!!!!!!!!!!!!!!!!!!!!!!!!!!!!!!!!!!!!!!!!!!!!!!!!!!!!!!!!!!!!!!!!!!!!!!!!!!!!!!!!!!!!!!!!!!!!!!!!!!!!!!!!!!!!",
"!!!!!!!!!!!!!!!!!!!!!!!!!!!!!!!!!!!!!!!!!!!!!!!!!!!!!!!!!!!!!!!!!!!!!!!!!!!!!!!!!!!!!!!!!!!!!!!!!!!!!!!!!!!!!!!!!!!!!!!!!!!!!!!!",
"!!!!!!!!!!!!!!!!!!!!!!!!!!!!!!!!!!!!!!!!!!!!!!!!!!!!!!!!!!!!!!!!!!!!!!!!!!!!!!!!!!!!!!!!!!!!!!!!!!!!!!!!!!!!!!!!!!!!!!!!!!!!!!!!",
"!!!!!!!!!!!!!!!!!!!!!!!!!!!!!!!!!!!!!!!!!!!!!!!!!!!!!!!!!!!!!!!!!!!!!!!!!!!!!!!!!!!!!!!!!!!!!!!!!!!!!!!!!!!!!!!!!!!!!!!!!!!!!!!!",
"!!!!!!!!!!!!!!!!!!!!!!!!!!!!!!!!!!!!!!!!!!!!!!!!!!!!!!!!!!!!!!!!!!!!!!!!!!!!!!!!!!!!!!!!!!!!!!!!!!!!!!!!!!!!!!!!!!!!!!!!!!!!!!!!",
"!!!!!!!!!!!!!!!!!!!!!!!!!!!!!!!!!!!!!!!!!!!!!!!!!!!!!!!!!!!!!!!!!!!!!!!!!!!!!!!!!!!!!!!!!!!!!!!!!!!!!!!!!!!!!!!!!!!!!!!!!!!!!!!!",
"!!!!!!!!!!!!!!!!!!!!!!!!!!!!!!!!!!!!!!!!!!!!!!!!!!!!!!!!!!!!!!!!!!!!!!!!!!!!!!!!!!!!!!!!!!!!!!!!!!!!!!!!!!!!!!!!!!!!!!!!!!!!!!!!",
"!!!!!!!!!!!!!!!!!!!!!!!!!!!!!!!!!!!!!!!!!!!!!!!!!!!!!!!!!!!!!!!!!!!!!!!!!!!!!!!!!!!!!!!!!!!!!!!!!!!!!!!!!!!!!!!!!!!!!!!!!!!!!!!!",
"!!!!!!!!!!!!!!!!!!!!!!!!!!!!!!!!!!!!!!!!!!!!!!!!!!!!!!!!!!!!!!!!!!!!!!!!!!!!!!!!!!!!!!!!!!!!!!!!!!!!!!!!!!!!!!!!!!!!!!!!!!!!!!!!",
"!!!!!!!!!!!!!!!!!!!!!!!!!!!!!!!!!!!!!!!!!!!!!!!!!!!!!!!!!!!!!!!!!!!!!!!!!!!!!!!!!!!!!!!!!!!!!!!!!!!!!!!!!!!!!!!!!!!!!!!!!!!!!!!!",
"!!!!!!!!!!!!!!!!!!!!!!!!!!!!!!!!!!!!!!!!!!!!!!!!!!!!!!!!!!!!!!!!!!!!!!!!!!!!!!!!!!!!!!!!!!!!!!!!!!!!!!!!!!!!!!!!!!!!!!!!!!!!!!!!",
"!!!!!!!!!!!!!!!!!!!!!!!!!!!!!!!!!!!!!!!!!!!!!!!!!!!!!!!!!!!!!!!!!!!!!!!!!!!!!!!!!!!!!!!!!!!!!!!!!!!!!!!!!!!!!!!!!!!!!!!!!!!!!!!!",
"!!!!!!!!!!!!!!!!!!!!!!!!!!!!!!!!!!!!!!!!!!!!!!!!!!!!!!!!!!!!!!!!!!!!!!!!!!!!!!!!!!!!!!!!!!!!!!!!!!!!!!!!!!!!!!!!!!!!!!!!!!!!!!!!",
"!!!!!!!!!!!!!!!!!!!!!!!!!!!!!!!!!!!!!!!!!!!!!!!!!!!!!!!!!!!!!!!!!!!!!!!!!!!!!!!!!!!!!!!!!!!!!!!!!!!!!!!!!!!!!!!!!!!!!!!!!!!!!!!!",
"!!!!!!!!!!!!!!!!!!!!!!!!!!!!!!!!!!!!!!!!!!!!!!!!!!!!!!!!!!!!!!!!!!!!!!!!!!!!!!!!!!!!!!!!!!!!!!!!!!!!!!!!!!!!!!!!!!!!!!!!!!!!!!!!",
"!!!!!!!!!!!!!!!!!!!!!!!!!!!!!!!!!!!!!!!!!!!!!!!!!!!!!!!!!!!!!!!!!!!!!!!!!!!!!!!!!!!!!!!!!!!!!!!!!!!!!!!!!!!!!!!!!!!!!!!!!!!!!!!!",
"!!!!!!!!!!!!!!!!!!!!!!!!!!!!!!!!!!!!!!!!!!!!!!!!!!!!!!!!!!!!!!!!!!!!!!!!!!!!!!!!!!!!!!!!!!!!!!!!!!!!!!!!!!!!!!!!!!!!!!!!!!!!!!!!",
"!!!!!!!!!!!!!!!!!!!!!!!!!!!!!!!!!!!!!!!!!!!!!!!!!!!!!!!!!!!!!!!!!!!!!!!!!!!!!!!!!!!!!!!!!!!!!!!!!!!!!!!!!!!!!!!!!!!!!!!!!!!!!!!!",
"!!!!!!!!!!!!!!!!!!!!!!!!!!!!!!!!!!!!!!!!!!!!!!!!!!!!!!!!!!!!!!!!!!!!!!!!!!!!!!!!!!!!!!!!!!!!!!!!!!!!!!!!!!!!!!!!!!!!!!!!!!!!!!!!",
"!!!!!!!!!!!!!!!!!!!!!!!!!!!!!!!!!!!!!!!!!!!!!!!!!!!!!!!!!!!!!!!!!!!!!!!!!!!!!!!!!!!!!!!!!!!!!!!!!!!!!!!!!!!!!!!!!!!!!!!!!!!!!!!!",
"!!!!!!!!!!!!!!!!!!!!!!!!!!!!!!!!!!!!!!!!!!!!!!!!!!!!!!!!!!!!!!!!!!!!!!!!!!!!!!!!!!!!!!!!!!!!!!!!!!!!!!!!!!!!!!!!!!!!!!!!!!!!!!!!",
"!!!!!!!!!!!!!!!!!!!!!!!!!!!!!!!!!!!!!!!!!!!!!!!!!!!!!!!!!!!!!!!!!!!!!!!!!!!!!!!!!!!!!!!!!!!!!!!!!!!!!!!!!!!!!!!!!!!!!!!!!!!!!!!!",
"!!!!!!!!!!!!!!!!!!!!!!!!!!!!!!!!!!!!!!!!!!!!!!!!!!!!!!!!!!!!!!!!!!!!!!!!!!!!!!!!!!!!!!!!!!!!!!!!!!!!!!!!!!!!!!!!!!!!!!!!!!!!!!!!",
"!!!!!!!!!!!!!!!!!!!!!!!!!!!!!!!!!!!!!!!!!!!!!!!!!!!!!!!!!!!!!!!!!!!!!!!!!!!!!!!!!!!!!!!!!!!!!!!!!!!!!!!!!!!!!!!!!!!!!!!!!!!!!!!!",
"!!!!!!!!!!!!!!!!!!!!!!!!!!!!!!!!!!!!!!!!!!!!!!!!!!!!!!!!!!!!!!!!!!!!!!!!!!!!!!!!!!!!!!!!!!!!!!!!!!!!!!!!!!!!!!!!!!!!!!!!!!!!!!!!",
"!!!!!!!!!!!!!!!!!!!!!!!!!!!!!!!!!!!!!!!!!!!!!!!!!!!!!!!!!!!!!!!!!!!!!!!!!!!!!!!!!!!!!!!!!!!!!!!!!!!!!!!!!!!!!!!!!!!!!!!!!!!!!!!!",
"!!!!!!!!!!!!!!!!!!!!!!!!!!!!!!!!!!!!!!!!!!!!!!!!!!!!!!!!!!!!!!!!!!!!!!!!!!!!!!!!!!!!!!!!!!!!!!!!!!!!!!!!!!!!!!!!!!!!!!!!!!!!!!!!",
"!!!!!!!!!!!!!!!!!!!!!!!!!!!!!!!!!!!!!!!!!!!!!!!!!!!!!!!!!!!!!!!!!!!!!!!!!!!!!!!!!!!!!!!!!!!!!!!!!!!!!!!!!!!!!!!!!!!!!!!!!!!!!!!!",
"!!!!!!!!!!!!!!!!!!!!!!!!!!!!!!!!!!!!!!!!!!!!!!!!!!!!!!!!!!!!!!!!!!!!!!!!!!!!!!!!!!!!!!!!!!!!!!!!!!!!!!!!!!!!!!!!!!!!!!!!!!!!!!!!",
"!!!!!!!!!!!!!!!!!!!!!!!!!!!!!!!!!!!!!!!!!!!!!!!!!!!!!!!!!!!!!!!!!!!!!!!!!!!!!!!!!!!!!!!!!!!!!!!!!!!!!!!!!!!!!!!!!!!!!!!!!!!!!!!!",
"!!!!!!!!!!!!!!!!!!!!!!!!!!!!!!!!!!!!!!!!!!!!!!!!!!!!!!!!!!!!!!!!!!!!!!!!!!!!!!!!!!!!!!!!!!!!!!!!!!!!!!!!!!!!!!!!!!!!!!!!!!!!!!!!",
"!!!!!!!!!!!!!!!!!!!!!!!!!!!!!!!!!!!!!!!!!!!!!!!!!!!!!!!!!!!!!!!!!!!!!!!!!!!!!!!!!!!!!!!!!!!!!!!!!!!!!!!!!!!!!!!!!!!!!!!!!!!!!!!!"
};
