/* XPM */
static char *ebb13fe3f0db482db2b7352a2e024803xXxgP2iajj3VjN7n[] = {
/* columns rows colors chars-per-pixel */
"128 128 19 1 ",
"  c None",
". c #040707",
"X c #91386F",
"o c #CB3394",
"O c #CD4298",
"+ c #D15EA4",
"@ c #D363A6",
"# c #D469A9",
"$ c #C87AA8",
"% c #DA7FB4",
"& c #A18B96",
"* c #DA83B7",
"= c #E39EC6",
"- c #DBBCCD",
"; c #E5A9CD",
": c #E6ABCE",
"> c #E8B2D2",
", c #EABAD6",
"< c #F1CEE2",
/* pixels */
"                                                                                                                                ",
"                                                                                                                                ",
"                                                                                                                                ",
"                                                                                                                                ",
"                        <<<<<<<<<<<<<<<<<<<<<<<<<<<<<<<<<<<<<<<<<<<<<<<<<<<<<<<<<<<<<<<<<<<<<<<<<<<<<<<<                        ",
"                        <<<<<<<<<<<<<<<<<<<<<<<<<<<<<<<<<<<<<<<<<<<<<<<<<<<<<<<<<<<<<<<<<<<<<<<<<<<<<<<<                        ",
"                        <<<<<<<<<<<<<<<<<<<<<<<<<<<<<<<<<<<<<<<<<<<<<<<<<<<<<<<<<<<<<<<<<<<<<<<<<<<<<<<<                        ",
"                        <<<<<<<<<<<<<<<<<<<<<<<<<<<<<<<<<<<<<<<<<<<<<<<<<<<<<<<<<<<<<<<<<<<<<<<<<<<<<<<<                        ",
"                    <<<<@@@+oooooooooooooooooooooooooooooooooooooooooooooooooooooooooooooooooooooooo@@@%<<<<                    ",
"                    <<<<ooooooooooooooooooooooooooooooooooooooooooooooooooooooooooooooooooooooooooooooo@<<<<                    ",
"                    <<<<ooooooooooooooooooooooooooooooooooooooooooooooooooooooooooooooooooooooooooooooo@<<<<                    ",
"                    <<<<ooooooooooooooooooooooooooooooooooooooooooooooooooooooooooooooooooooooooooooooo@<<<<                    ",
"                <<<<@@@@ooooooooooooooo@<<<<ooooooooooooooooooooooooooooooooooooooo@<<<<oooooooooooooooO@@@%<<<<                ",
"                <<<<ooooooooooooooooooo@<<<<ooooooooooooooooooooooooooooooooooooooo@<<<<ooooooooooooooooooo@<<<<                ",
"                <<<<ooooooooooooooooooo@<<<<ooooooooooooooooooooooooooooooooooooooo@<<<<ooooooooooooooooooo@<<<<                ",
"                <<<<ooooooooooooooooooo@<<<<ooooooooooooooooooooooooooooooooooooooo@<<<<ooooooooooooooooooo@<<<<                ",
"                <<<<oooooooooooooooooooO@@@%<<<<ooooooooooooooooooooooooooooooo@<<<<@@@@ooooooooooooooooooo@<<<<                ",
"                <<<<ooooooooooooooooooooooo@<<<<ooooooooooooooooooooooooooooooo@<<<<ooooooooooooooooooooooo@<<<<                ",
"                <<<<ooooooooooooooooooooooo@<<<<ooooooooooooooooooooooooooooooo@<<<<ooooooooooooooooooooooo@<<<<                ",
"                <<<<ooooooooooooooooooooooo@<<<<ooooooooooooooooooooooooooooooo@<<<<ooooooooooooooooooooooo@<<<<                ",
"                <<<<ooooooooooooooooooooooo#<<<<<<<<ooooooooooooooooooooooo@<<<<<<<<ooooooooooooooooooooooo@<<<<                ",
"                <<<<ooooooooooooooooooooooo@<<<<<<<<ooooooooooooooooooooooo@<<<<<<<<ooooooooooooooooooooooo@<<<<                ",
"                <<<<ooooooooooooooooooooooo@<<<<<<<<ooooooooooooooooooooooo@<<<<<<<<ooooooooooooooooooooooo@<<<<                ",
"                <<<<ooooooooooooooooooooooo@<<<<<<<<ooooooooooooooooooooooo@<<<<<<<<ooooooooooooooooooooooo@<<<<                ",
"                <<<<ooooooooooooooooooooooo#<<<&....<<<<ooooooooooooooo@<<<&....<<<<ooooooooooooooooooooooo@<<<<                ",
"                <<<<ooooooooooooooooooooooo@<<<&....<<<<ooooooooooooooo@<<<&....<<<<ooooooooooooooooooooooo@<<<<                ",
"                <<<<ooooooooooooooooooooooo@<<<&....<<<<ooooooooooooooo@<<<&....<<<<ooooooooooooooooooooooo@<<<<                ",
"                <<<<ooooooooooooooooooooooo@<<<&....<<<<ooooooooooooooo@<<<&....<<<<ooooooooooooooooooooooo@<<<<                ",
"                <<<<oooooooooooooooooooooooO@@@$&&&&<<<<ooooooooooooooo#<<<-&&&&@@@@ooooooooooooooooooooooo@<<<<                ",
"                <<<<ooooooooooooooooooooooooooo@<<<<<<<<ooooooooooooooo@<<<<<<<<ooooooooooooooooooooooooooo@<<<<                ",
"                <<<<ooooooooooooooooooooooooooo@<<<<<<<<ooooooooooooooo@<<<<<<<<ooooooooooooooooooooooooooo@<<<<                ",
"                <<<<ooooooooooooooooooooooooooo@<<<<<<<<ooooooooooooooo@<<<<<<<<ooooooooooooooooooooooooooo@<<<<                ",
"                <<<<oooooooooooooooooooooooooooO@@@*<<<<ooooooooooooooo#<<<<@@@@ooooooooooooooooooooooooooo@<<<<                ",
"                <<<<ooooooooooooooooooooooooooooooo@<<<<ooooooooooooooo@<<<<ooooooooooooooooooooooooooooooo@<<<<                ",
"                <<<<ooooooooooooooooooooooooooooooo@<<<<ooooooooooooooo@<<<<ooooooooooooooooooooooooooooooo@<<<<                ",
"                <<<<ooooooooooooooooooooooooooooooo@<<<<ooooooooooooooo@<<<<ooooooooooooooooooooooooooooooo@<<<<                ",
"                <<<<oooooooooooooooooooooooooooooooO@@@%<<<<ooooooo@<<<<@@@@ooooooooooooooooooooooooooooooo@<<<<                ",
"                <<<<ooooooooooooooooooooooooooooooooooo@<<<<ooooooo@<<<<ooooooooooooooooooooooooooooooooooo@<<<<                ",
"                <<<<ooooooooooooooooooooooooooooooooooo@<<<<ooooooo@<<<<ooooooooooooooooooooooooooooooooooo@<<<<                ",
"                <<<<ooooooooooooooooooooooooooooooooooo@<<<<ooooooo@<<<<ooooooooooooooooooooooooooooooooooo@<<<<                ",
"                <<<<oooooooooooooooooooooooooooooooooooO@@@@oooooooO@@@@ooooooooooooooooooooooooooooooooooo@<<<<                ",
"                <<<<ooooooooooooooooooooooooooooooooooooooooooooooooooooooooooooooooooooooooooooooooooooooo@<<<<                ",
"                <<<<ooooooooooooooooooooooooooooooooooooooooooooooooooooooooooooooooooooooooooooooooooooooo@<<<<                ",
"                <<<<ooooooooooooooooooooooooooooooooooooooooooooooooooooooooooooooooooooooooooooooooooooooo@<<<<                ",
"                <<<<oooooooooooooooooooooooooooooooooooooooX........ooooooooooooooooooooooooooooooooooooooo@<<<<                ",
"                <<<<oooooooooooooooooooooooooooooooooooooooX........ooooooooooooooooooooooooooooooooooooooo@<<<<                ",
"                <<<<oooooooooooooooooooooooooooooooooooooooX........ooooooooooooooooooooooooooooooooooooooo@<<<<                ",
"                <<<<oooooooooooooooooooooooooooooooooooooooX........ooooooooooooooooooooooooooooooooooooooo@<<<<                ",
"            <<<<@@@@ooooooooooooooooooooooooooooooooooo@<<<<<<<<<<<<<<<<oooooooooooooooooooooooooooooooooooO@@@*<<<<            ",
"            <<<<ooooooooooooooooooooooooooooooooooooooo@<<<<<<<<<<<<<<<<ooooooooooooooooooooooooooooooooooooooo@<<<<            ",
"            <<<<ooooooooooooooooooooooooooooooooooooooo@<<<<<<<<<<<<<<<<ooooooooooooooooooooooooooooooooooooooo@<<<<            ",
"            <<<<ooooooooooooooooooooooooooooooooooooooo@<<<<<<<<<<<<<<<<ooooooooooooooooooooooooooooooooooooooo@<<<<            ",
"        <<<<@@@@oooooooooooooooooooooooooooooooooooooooO@@@@@@@@@@@@@@@@oooooooooooooooooooooooooooooooooooooooO@@@%<<<<        ",
"        <<<<ooooooooooooooooooooooooooooooooooooooooooooooooooooooooooooooooooooooooooooooooooooooooooooooooooooooo@<<<<        ",
"        <<<<ooooooooooooooooooooooooooooooooooooooooooooooooooooooooooooooooooooooooooooooooooooooooooooooooooooooo@<<<<        ",
"        <<<<ooooooooooooooooooooooooooooooooooooooooooooooooooooooooooooooooooooooooooooooooooooooooooooooooooooooo@<<<<        ",
"    <<<<>>>>;;;;;;;;;;;;;;;;;;;;;;;;;;;;;;;;;;;;;;;;;;;;;;;;;;;;;;;;;;;;;;;;;;;;;;;;;;;;;;;;;;;;;;;;;;;;;;;;;;;;;;;;>>>,<<<<    ",
"    <<<<<<<<<<<<<<<<<<<<<<<<<<<<<<<<<<<<<<<<<<<<<<<<<<<<<<<<<<<<<<<<<<<<<<<<<<<<<<<<<<<<<<<<<<<<<<<<<<<<<<<<<<<<<<<<<<<<<<<<    ",
"    <<<<<<<<<<<<<<<<<<<<<<<<<<<<<<<<<<<<<<<<<<<<<<<<<<<<<<<<<<<<<<<<<<<<<<<<<<<<<<<<<<<<<<<<<<<<<<<<<<<<<<<<<<<<<<<<<<<<<<<<    ",
"    <<<<<<<<<<<<<<<<<<<<<<<<<<<<<<<<<<<<<<<<<<<<<<<<<<<<<<<<<<<<<<<<<<<<<<<<<<<<<<<<<<<<<<<<<<<<<<<<<<<<<<<<<<<<<<<<<<<<<<<<    ",
"                    ooo@<<<<        ooo@<<<<       =<<<<oooo        ooo@<<<<       =<<<<oooo       =<<<<oooo                    ",
"                    ooo@<<<<        ooo@<<<<        <<<<oooo        ooo@<<<<        <<<<oooo        <<<<oooo                    ",
"                    ooo@<<<<        ooo@<<<<        <<<<oooo        ooo@<<<<        <<<<oooo        <<<<oooo                    ",
"                    ooo@<<<<        ooo@<<<<        <<<<oooo        ooo@<<<<        <<<<oooo        <<<<oooo                    ",
"                    <<<<@@@@        <<<<@@@@        @@@%<<<<        <<<<@@@@        @@@%<<<<        @@@%<<<<                    ",
"                    <<<<oooo        <<<<oooo        ooo@<<<<        <<<<oooo        ooo@<<<<        ooo@<<<<                    ",
"                    <<<<oooo        <<<<oooo        ooo@<<<<        <<<<oooo        ooo@<<<<        ooo@<<<<                    ",
"                    <<<<oooo        <<<<oooo        ooo@<<<<        <<<<oooo        ooo@<<<<        ooo@<<<<                    ",
"                    @@@%<<<<        @@@%<<<<        <<<<@@@@        @@@%<<<<        <<<<@@@@        <<<<@@@@                    ",
"                    ooo@<<<<        ooo@<<<<        <<<<oooo        ooo@<<<<        <<<<oooo        <<<<oooo                    ",
"                    ooo@<<<<        ooo@<<<<        <<<<oooo        ooo@<<<<        <<<<oooo        <<<<oooo                    ",
"                    ooo@<<<<        ooo@<<<<        <<<<oooo        ooo@<<<<        <<<<oooo        <<<<oooo                    ",
"                    <<<<@@@@        <<<<@@@@        @@@%<<<<        <<<<@@@@        @@@%<<<<        @@@%<<<<                    ",
"                    <<<<oooo        <<<<oooo        ooo@<<<<        <<<<oooo        ooo@<<<<        ooo@<<<<                    ",
"                    <<<<oooo        <<<<oooo        ooo@<<<<        <<<<oooo        ooo@<<<<        ooo@<<<<                    ",
"                    <<<<oooo        <<<<oooo        ooo@<<<<        <<<<oooo        ooo@<<<<        ooo@<<<<                    ",
"                    @@@%<<<<        @@@%<<<<        <<<<@@@@        @@@%<<<<        <<<<@@@@        <<<<@@@@                    ",
"                    ooo@<<<<        ooo@<<<<        <<<<oooo        ooo@<<<<        <<<<oooo        <<<<oooo                    ",
"                    ooo@<<<<        ooo@<<<<        <<<<oooo        ooo@<<<<        <<<<oooo        <<<<oooo                    ",
"                    ooo@<<<<        ooo@<<<<        <<<<oooo        ooo@<<<<        <<<<oooo        <<<<oooo                    ",
"                    <<<<@@@@        <<<<@@@@        @@@%<<<<        <<<<@@@@        @@@%<<<<        @@@%<<<<                    ",
"                    <<<<oooo        <<<<oooo        ooo@<<<<        <<<<oooo        ooo@<<<<        ooo@<<<<                    ",
"                    <<<<oooo        <<<<oooo        ooo@<<<<        <<<<oooo        ooo@<<<<        ooo@<<<<                    ",
"                    <<<<oooo        <<<<oooo        ooo@<<<<        <<<<oooo        ooo@<<<<        ooo@<<<<                    ",
"                    @@@%<<<<        @@@%<<<<        <<<<@@@@        @@@%<<<<        <<<<@@@@        <<<<@@@@                    ",
"                    ooo@<<<<        ooo@<<<<        <<<<oooo        ooo@<<<<        <<<<oooo        <<<<oooo                    ",
"                    ooo@<<<<        ooo@<<<<        <<<<oooo        ooo@<<<<        <<<<oooo        <<<<oooo                    ",
"                    ooo@<<<<        ooo@<<<<        <<<<oooo        ooo@<<<<        <<<<oooo        <<<<oooo                    ",
"                    <<<<@@@@        <<<<@@@@        @@@%<<<<        <<<<@@@@        @@@%<<<<        @@@%<<<<                    ",
"                    <<<<oooo        <<<<oooo        ooo@<<<<        <<<<oooo        ooo@<<<<        ooo@<<<<                    ",
"                    <<<<oooo        <<<<oooo        ooo@<<<<        <<<<oooo        ooo@<<<<        ooo@<<<<                    ",
"                    <<<<oooo        <<<<oooo        ooo@<<<<        <<<<oooo        ooo@<<<<        ooo@<<<<                    ",
"    ooo@<<<<ooo@<<<<@@@%<<<<        @@@%<<<<        <<<<@@@@        @@@%<<<<        <<<<@@@@        <<<<@@@%<<<<ooo@<<<<oooo    ",
"    ooo@<<<<ooo@<<<<ooo@<<<<        ooo@<<<<        <<<<oooo        ooo@<<<<        <<<<oooo        <<<<ooo@<<<<ooo@<<<<oooo    ",
"    ooo@<<<<ooo@<<<<ooo@<<<<        ooo@<<<<        <<<<oooo        ooo@<<<<        <<<<oooo        <<<<ooo@<<<<ooo@<<<<oooo    ",
"    ooo@<<<<ooo@<<<<ooo@<<<<        ooo@<<<<        <<<<oooo        ooo@<<<<        <<<<oooo        <<<<ooo@<<<<ooo@<<<<oooo    ",
"        @@@%<<<<@@@%<<<<@@@@        <<<<@@@@        @@@%<<<<        <<<<@@@@        @@@%<<<<        @@@%<<<<@@@%<<<<@@@@        ",
"        ooo@<<<<ooo@<<<<oooo        <<<<oooo        ooo@<<<<        <<<<oooo        ooo@<<<<        ooo@<<<<ooo@<<<<oooo        ",
"        ooo@<<<<ooo@<<<<oooo        <<<<oooo        ooo@<<<<        <<<<oooo        ooo@<<<<        ooo@<<<<ooo@<<<<oooo        ",
"        ooo@<<<<ooo@<<<<oooo        <<<<oooo        ooo@<<<<        <<<<oooo        ooo@<<<<        ooo@<<<<ooo@<<<<oooo        ",
"                                    @@@%<<<<        <<<<@@@@        @@@%<<<<        <<<<@@@@                                    ",
"                                    ooo@<<<<        <<<<oooo        ooo@<<<<        <<<<oooo                                    ",
"                                    ooo@<<<<        <<<<oooo        ooo@<<<<        <<<<oooo                                    ",
"                                    ooo@<<<<        <<<<oooo        ooo@<<<<        <<<<oooo                                    ",
"                                    <<<<@@@@        @@@%<<<<        <<<<@@@@        @@@%<<<<                                    ",
"                                    <<<<oooo        ooo@<<<<        <<<<oooo        ooo@<<<<                                    ",
"                                    <<<<oooo        ooo@<<<<        <<<<oooo        ooo@<<<<                                    ",
"                                    <<<<oooo        ooo@<<<<        <<<<oooo        ooo@<<<<                                    ",
"                                    @@@%<<<<        <<<<@@@@        @@@%<<<<        <<<<@@@@                                    ",
"                                    ooo@<<<<        <<<<oooo        ooo@<<<<        <<<<oooo                                    ",
"                                    ooo@<<<<        <<<<oooo        ooo@<<<<        <<<<oooo                                    ",
"                                    ooo@<<<<        <<<<oooo        ooo@<<<<        <<<<oooo                                    ",
"                                ooo@<<<<@@@@        @@@%<<<<        <<<<@@@@        @@@%<<<<oooo                                ",
"                                ooo@<<<<oooo        ooo@<<<<        <<<<oooo        ooo@<<<<oooo                                ",
"                                ooo@<<<<oooo        ooo@<<<<        <<<<oooo        ooo@<<<<oooo                                ",
"                                ooo@<<<<oooo        ooo@<<<<        <<<<oooo        ooo@<<<<oooo                                ",
"                                                    <<<<@@@@        @@@%<<<<                                                    ",
"                                                    <<<<oooo        ooo@<<<<                                                    ",
"                                                    <<<<oooo        ooo@<<<<                                                    ",
"                                                    <<<<oooo        ooo@<<<<                                                    ",
"                                                    @@@@                @@@@                                                    ",
"                                                    oooo                oooo                                                    ",
"                                                    oooo                oooo                                                    ",
"                                                    oooo                oooo                                                    ",
"                                                                                                                                ",
"                                                                                                                                ",
"                                                                                                                                ",
"                                                                                                                                "
};
