/* XPM */
static char *player_left_1[] = {
/* columns rows colors chars-per-pixel */
"128 128 50 1 ",
"  c gray20",
". c gray21",
"X c #383938",
"o c #3A3A39",
"O c #3F403F",
"+ c #434443",
"@ c #494949",
"# c gray30",
"$ c #4E4D4D",
"% c gray31",
"& c #565453",
"* c #575656",
"= c gray35",
"- c #676767",
"; c gray43",
": c #727272",
"> c #777473",
", c #767474",
"< c #7C7879",
"1 c #7C7A79",
"2 c #7C7B7B",
"3 c gray50",
"4 c #848383",
"5 c #898889",
"6 c #8B8B8B",
"7 c #8C8A8A",
"8 c #939191",
"9 c #949293",
"0 c #979797",
"q c gray60",
"w c #9B9999",
"e c #9B9A99",
"r c #9C9A9A",
"t c #A09E9D",
"y c #A5A5A5",
"u c #A7A7A7",
"i c #A8A7A7",
"p c #AEADAD",
"a c #B2B2B2",
"s c #BCBCBC",
"d c gray",
"f c gray75",
"g c gray80",
"h c #CECECF",
"j c gray83",
"k c #D7D8D7",
"l c #D8D8D9",
"z c gray85",
"x c white",
"c c None",
/* pixels */
"cccccccccccccccccccccccccccccccccccccccccccccccccccccccccccccccccccccccccccccccccccccccccccccccccccccccccccccccccccccccccccccccc",
"cccccccccccccccccccccccccccccccccccccccccccccccccccccccccccccccccccccccccccccccccccccccccccccccccccccccccccccccccccccccccccccccc",
"cccccccccccccccccccccccccccccccccccccccccccccccccccccccccccccccccccccccccccccccccccccccccccccccccccccccccccccccccccccccccccccccc",
"cccccccccccccccccccccccccccccccccccccccccccccccccccccccccccccccccccccccccccccccccccccccccccccccccccccccccccccccccccccccccccccccc",
"cccccccccccccccccccccccccccccccccccccccccccccccccccccccccccccccccccccccccccccccccccccccccccccccccccccccccccccccccccccccccccccccc",
"cccccccccccccccccccccccccccccccccccccccccccccccccccccccccccccccccccccccccccccccccccccccccccccccccccccccccccccccccccccccccccccccc",
"cccccccccccccccccccccccccccccccccccccccccccccccccccccccccccccccccccccccccccccccccccccccccccccccccccccccccccccccccccccccccccccccc",
"cccccccccccccccccccccccccccccccccccccccccccccccccccccccccccccccccccccccccccccccccccccccccccccccccccccccccccccccccccccccccccccccc",
"cccccccccccccccccccccccccccccccccccccccccccccccccccccccccccccccccccccccccccccccccccccccccccccccccccccccccccccccccccccccccccccccc",
"cccccccccccccccccccccccccccccccccccccccccccccccccccccccccccccccccccccccccccccccccccccccccccccccccccccccccccccccccccccccccccccccc",
"cccccccccccccccccccccccccccccccccccccccccccccccccccccccccccccccccccccccccccccccccccccccccccccccccccccccccccccccccccccccccccccccc",
"cccccccccccccccccccccccccccccccccccccccccccccccccccccccccccccccccccccccccccccccccccccccccccccccccccccccccccccccccccccccccccccccc",
"cccccccccccccccccccccccccccccccccccccccccccccccccccccccccccccccccccccccccccccccccccccccccccccccccccccccccccccccccccccccccccccccc",
"cccccccccccccccccccccccccccccccccccccccccccccccccccccccccccccccccccccccccccccccccccccccccccccccccccccccccccccccccccccccccccccccc",
"cccccccccccccccccccccccccccccccccccccccccccccccccccccccccccccccccccccccccccccccccccccccccccccccccccccccccccccccccccccccccccccccc",
"cccccccccccccccccccccccccccccccccccccccccccccccccccccccccccccccccccccccccccccccccccccccccccccccccccccccccccccccccccccccccccccccc",
"cccccccccccccccccccccccccccccccccccccccccccccccccccccccccccccccccccccccccccccccccccccccccccccccccccccccccccccccccccccccccccccccc",
"cccccccccccccccccccccccccccccccccccccccccccccccccccccccccccccccccccccccccccccccccccccccccccccccccccccccccccccccccccccccccccccccc",
"cccccccccccccccccccccccccccccccccccccccccccccccccccccccccccccccccccccccccccccccccccccccccccccccccccccccccccccccccccccccccccccccc",
"cccccccccccccccccccccccccccccccccccccccccccccccccccccccccccccccccccccccccccccccccccccccccccccccccccccccccccccccccccccccccccccccc",
"cccccccccccccccccccccccccccccccccccccccccccccccccccccccccccccccccccccccccccccccccccccccccccccccccccccccccccccccccccccccccccccccc",
"cccccccccccccccccccccccccccccccccccccccccccccccccccccccccccccccccccccccccccccccccccccccccccccccccccccccccccccccccccccccccccccccc",
"cccccccccccccccccccccccccccccccccccccccccccccccccccccccccccccccccccccccccccccccccccccccccccccccccccccccccccccccccccccccccccccccc",
"cccccccccccccccccccccccccccccccccccccccccccccccccccccccccccccccccccccccccccccccccccccccccccccccccccccccccccccccccccccccccccccccc",
"cccccccccccccccccccccccccccccccccccccccccccccccccccccccccccccccccccccccccccccccccccccccccccccccccccccccccccccccccccccccccccccccc",
"cccccccccccccccccccccccccccccccccccccccccccccccccccccccccccccccccccccccccccccccccccccccccccccccccccccccccccccccccccccccccccccccc",
"cccccccccccccccccccccccccccccccccccccccccccccccccccccccccccccccccccccccccccccccccccccccccccccccccccccccccccccccccccccccccccccccc",
"cccccccccccccccccccccccccccccccccccccccccccccccccccccccccccc    cccccccccccccccccccccccccccccccccccccccccccccccccccccccccccccccc",
"cccccccccccccccccccccccccccccccccccccccccccccccccccccccccccc    cccccccccccccccccccccccccccccccccccccccccccccccccccccccccccccccc",
"cccccccccccccccccccccccccccccccccccccccccccccccccccccccccccc    cccccccccccccccccccccccccccccccccccccccccccccccccccccccccccccccc",
"cccccccccccccccccccccccccccccccccccccccccccccccccccccccccccc    cccccccccccccccccccccccccccccccccccccccccccccccccccccccccccccccc",
"cccccccccccccccccccccccccccccccccccccccccccccccccccccccc    gggw    cccccccccccccccccccccccccccccccccccccccccccccccccccccccccccc",
"cccccccccccccccccccccccccccccccccccccccccccccccccccccccc    gggw    cccccccccccccccccccccccccccccccccccccccccccccccccccccccccccc",
"cccccccccccccccccccccccccccccccccccccccccccccccccccccccc    gggw    cccccccccccccccccccccccccccccccccccccccccccccccccccccccccccc",
"cccccccccccccccccccccccccccccccccccccccccccccccccccccccc    ggg8    cccccccccccccccccccccccccccccccccccccccccccccccccccccccccccc",
"cccccccccccccccccccccccccccccccccccccccccccccccccccc    gggggggw    cccccccccccccccccccccccccccccccccccccccccccccccccccccccccccc",
"cccccccccccccccccccccccccccccccccccccccccccccccccccc    gggggggw    cccccccccccccccccccccccccccccccccccccccccccccccccccccccccccc",
"cccccccccccccccccccccccccccccccccccccccccccccccccccc    gggggggw    cccccccccccccccccccccccccccccccccccccccccccccccccccccccccccc",
"cccccccccccccccccccccccccccccccccccccccccccccccccccc    ggggggg8    cccccccccccccccccccccccccccccccccccccccccccccccccccccccccccc",
"cccccccccccccccccccccccccccccccccccccccccccccccc    gggggggggggw    cccccccccccccccccccccccccccccccccccccccccccccccccccccccccccc",
"cccccccccccccccccccccccccccccccccccccccccccccccc    gggggggggggw    cccccccccccccccccccccccccccccccccccccccccccccccccccccccccccc",
"cccccccccccccccccccccccccccccccccccccccccccccccc    gggggggggggw    cccccccccccccccccccccccccccccccccccccccccccccccccccccccccccc",
"cccccccccccccccccccccccccccccccccccccccccccccccc    ggggggggggg8    ccccccccccccccccccc ccc cccccccccccccccccccccccccccccccccccc",
"cccccccccccccccccccccccc                        gggggggggggggggw                                        cccccccccccccccccccccccc",
"cccccccccccccccccccccccc                        gggggggggggggggw                                        cccccccccccccccccccccccc",
"cccccccccccccccccccccccc                        gggggggggggggggw                                        cccccccccccccccccccccccc",
"cccccccccccccccccccccccc                       Xdddsdddsdddsdddr@@@$@@@$@@@$@@@#@@@#@@@#@@@#@@@#@@@#@@@@cccccccccccccccccccccccc",
"cccccccccccccccccccc    gggggggggggggggp---2gggdqqqqqqqqqqqqqqqqqqqqqqqqqqqqqqqqqqqqqqqqqqqqqqqqqqqqqqqq    cccccccccccccccccccc",
"cccccccccccccccccccc    gggggggggggggggp---2gggdqqqqqqqqqqqqqqqqqqqqqqqqqqqqqqqqqqqqqqqqqqqqqqqqqqqqqqqq    cccccccccccccccccccc",
"cccccccccccccccccccc    gggggggggggggggp---2gggdqqqqqqqqqqqqqqqqqqqqqqqqqqqqqqqqqqqqqqqqqqqqqqqqqqqqqqqq    cccccccccccccccccccc",
"cccccccccccccccccccc   oggghkkkzkkkjdddu:::4dddaqqqqqqqqqqqqqqqqqqqqqqqqqqqqqqqqqqqqqqqqqqqqqqqqqqqqqqqq    cccccccccccccccccccc",
"cccccccccccccccc    gggggggkxxxxxxxxqqqqqqqqqqqqqqqqqqqqqqqqqqqqqqqqqqqqqqqqqqqqqqqqqqqqqqqqqqqqqqqqqqqqgggw    cccccccccccccccc",
"cccccccccccccccc    gggggggkxxxxxxxxqqqqqqqqqqqqqqqqqqqqqqqqqqqqqqqqqqqqqqqqqqqqqqqqqqqqqqqqqqqqqqqqqqqqgggw    cccccccccccccccc",
"cccccccccccccccc    gggggggkxxxxxxxxqqqqqqqqqqqqqqqqqqqqqqqqqqqqqqqqqqqqqqqqqqqqqqqqqqqqqqqqqqqqqqqqqqqqgggw    cccccccccccccccc",
"cccccccccccccccc   oggghkkklxxxxxxxxyyyiyyyyqqqqqqqqqqqqqqqqqqqqqqqqqqqqqqqqqqqqqqqqqqqqqqqqqqqqqqqqqqqqddde    cccccccccccccccc",
"cccccccccccc    gggggggkxxxx   &xxxxggggggggqqqqqqqqqqqqqqqqqqqqqqqqqqqqqqqqqqqqqqqqqqqqqqqqqqqqqqqqqqqqqqqqgggw    cccccccccccc",
"cccccccccccc    gggggggkxxxx   &xxxxggggggggqqqqqqqqqqqqqqqqqqqqqqqqqqqqqqqqqqqqqqqqqqqqqqqqqqqqqqqqqqqqqqqqgggw    cccccccccccc",
"cccccccccccc    gggggggkxxxx   &xxxxggggggggqqqqqqqqqqqqqqqqqqqqqqqqqqqqqqqqqqqqqqqqqqqqqqqqqqqqqqqqqqqqqqqqgggw    cccccccccccc",
"cccccccccccc    gggggggkxxxx&&&<xxxxggggggggqqqqqqqqqqqqqqqqqqqqqqqqqqqqqqqqqqqqqqqqqqqqqqqqqqqqqqqqqqqqqqqqddde    cccccccccccc",
"cccccccc    gggggggggggggggkxxxxxxxxggggggggqqqqqqqqqqqqqqqqqqqqqqqqqqqqqqqqqqq6-----------:qqqqqqqqqqqqqqqqqqqqgggw    cccccccc",
"cccccccc    gggggggggggggggkxxxxxxxxggggggggqqqqqqqqqqqqqqqqqqqqqqqqqqqqqqqqqqq6-----------:qqqqqqqqqqqqqqqqqqqqgggw    cccccccc",
"cccccccc    gggggggggggggggkxxxxxxxxggggggggqqqqqqqqqqqqqqqqqqqqqqqqqqqqqqqqqqq6-----------:qqqqqqqqqqqqqqqqqqqqgggw    cccccccc",
"cccccccc    gggggggggggggggkxxxxxxxxggggggggqqqqqqqqqqqqqqqqqqqqqqqqqqq066656663-----------;66656666qqqqqqqqqqqqddde    cccccccc",
"cccc    ggggggggggggggggggggggggggggggggggggqqqqqqqqqqqqqqqqqqqqqqqqqqqq----------------------------qqqqqqqqqqqqqqqqgggw    cccc",
"cccc    ggggggggggggggggggggggggggggggggggggqqqqqqqqqqqqqqqqqqqqqqqqqqqq----------------------------qqqqqqqqqqqqqqqqgggw    cccc",
"cccc    ggggggggggggggggggggggggggggggggggggqqqqqqqqqqqqqqqqqqqqqqqqqqqq----------------------------qqqqqqqqqqqqqqqqgggw    cccc",
"cccc    www8www8www8www8wwwtggggggggggggggggqqqqqqqqqqqqqqqqqqqqqqqqqqqq----------------------------qqqqqqqqqqqqqqqqddd9    cccc",
"cccccccc                                gggw        gggggggggggggggw                               O----qqqqqqqqqqqqqqqq    cccc",
"cccccccc                                gggw        gggggggggggggggw                               O----qqqqqqqqqqqqqqqq    cccc",
"cccccccc                                gggw        gggggggggggggggw                               O----qqqqqqqqqqqqqqqq    cccc",
"cccccccc                               .777,OOOO    wwwwgggggggfwww1                               O----qqqqqqqqqqqqqqqq    cccc",
"cccccccccccccccccccccccccccccccccccc   O--------        gggggggw    cccccccccccccccccccccccccccccccc       @qqqqqqqqqqqq    cccc",
"cccccccccccccccccccccccccccccccccccc   O--------        gggggggw    cccccccccccccccccccccccccccccccc       @qqqqqqqqqqqq    cccc",
"cccccccccccccccccccccccccccccccccccc   O--------        gggggggw    cccccccccccccccccccccccccccccccc       @qqqqqqqqqqqq    cccc",
"ccccccccccccccccccccccccccccccccccc+   O--------        wwwwggg8    cccccccccccccccccccccccccccccccc       #qqqqqqqqqqqq    cccc",
"cccccccccccccccccccccccccccccccccccc    ---=    cccccccc    gggw    cccccccccccccccccccccccccccccccccccc   @qqqqqqqqqqqq    cccc",
"cccccccccccccccccccccccccccccccccccc    ---=    cccccccc    gggw    cccccccccccccccccccccccccccccccccccc   @qqqqqqqqqqqq    cccc",
"cccccccccccccccccccccccccccccccccccc    ---=    cccccccc    gggw    cccccccccccccccccccccccccccccccccccc   @qqqqqqqqqqqq    cccc",
"cccccccccccccccccccccccccccccccccccc    ===%    cccccccc    www>    cccccccccccccccccccccccccccccccccccc   @qqqqqqqqqqqq    cccc",
"cccccccccccccccccccccccccccccccccccccccc    cccccccccccccccc        cccccccccccccccccccccccccccccccccccccccc   @qqqqqqqq    cccc",
"cccccccccccccccccccccccccccccccccccccccc    cccccccccccccccc        cccccccccccccccccccccccccccccccccccccccc   @qqqqqqqq    cccc",
"cccccccccccccccccccccccccccccccccccccccc    cccccccccccccccc        cccccccccccccccccccccccccccccccccccccccc   @qqqqqqqq    cccc",
"cccccccccccccccccccccccccccccccccccccccc    cccccccccccccccc        ccccccccccccccccccccccccccccccccccccccccOOO*qqqqqqqq    cccc",
"cccccccccccccccccccccccccccccccccccccccccccccccccccccccccccccccccccccccccccccccccccccccccccccccc            ----qqqqqqqq    cccc",
"cccccccccccccccccccccccccccccccccccccccccccccccccccccccccccccccccccccccccccccccccccccccccccccccc            ----qqqqqqqq    cccc",
"cccccccccccccccccccccccccccccccccccccccccccccccccccccccccccccccccccccccccccccccccccccccccccccccc            ----qqqqqqqq    cccc",
"ccccccccccccccccccccccccccccccccccccccccccccccccccccccccccccccccccccccccccccccccccccccccccccccccOOOOOOOOOOOO----qqqqqqqq    cccc",
"cccccccccccccccccccccccccccccccccccccccccccccccccccccccccccccccccccccccccccccccccccccccccccc    ------------qqqqqqqq    cccccccc",
"cccccccccccccccccccccccccccccccccccccccccccccccccccccccccccccccccccccccccccccccccccccccccccc    ------------qqqqqqqq    cccccccc",
"cccccccccccccccccccccccccccccccccccccccccccccccccccccccccccccccccccccccccccccccccccccccccccc    ------------qqqqqqqq    cccccccc",
"cccccccccccccccccccccccccccccccccccccccccccccccccccccccccccccccccccccccccccccccccccccccccccc    ------------qqqqqqqq    cccccccc",
"cccccccccccccccccccccccccccccccccccccccccccccccccccccccccccccccccccccccccccccccccccccccccccccccc   O--------qqqqqqqq    cccccccc",
"cccccccccccccccccccccccccccccccccccccccccccccccccccccccccccccccccccccccccccccccccccccccccccccccc   O--------qqqqqqqq    cccccccc",
"cccccccccccccccccccccccccccccccccccccccccccccccccccccccccccccccccccccccccccccccccccccccccccccccc   O--------qqqqqqqq    cccccccc",
"cccccccccccccccccccccccccccccccccccccccccccccccccccccccccccccccccccccccccccccccccccccccccccccccc   O--------qqqqqqqq    cccccccc",
"cccccccccccccccccccccccccccccccccccccccccccccccccccccccccccccccccccccccccccccccccccccccccccccccccccc   O----qqqq    cccccccccccc",
"cccccccccccccccccccccccccccccccccccccccccccccccccccccccccccccccccccccccccccccccccccccccccccccccccccc   O----qqqq    cccccccccccc",
"cccccccccccccccccccccccccccccccccccccccccccccccccccccccccccccccccccccccccccccccccccccccccccccccccccc   O----qqqq    cccccccccccc",
"cccccccccccccccccccccccccccccccccccccccccccccccccccccccccccccccccccccccccccccccccccccccccccccccccccc   O----qqqq    cccccccccccc",
"cccccccccccccccccccccccccccccccccccccccccccccccccccccccccccccccccccccccccccccccccccccccccccccccccccccccc   @qqqq    cccccccccccc",
"cccccccccccccccccccccccccccccccccccccccccccccccccccccccccccccccccccccccccccccccccccccccccccccccccccccccc   @qqqq    cccccccccccc",
"cccccccccccccccccccccccccccccccccccccccccccccccccccccccccccccccccccccccccccccccccccccccccccccccccccccccc   @qqqq    cccccccccccc",
"cccccccccccccccccccccccccccccccccccccccccccccccccccccccccccccccccccccccccccccccccccccccccccccccccccccccc   @qqqq    cccccccccccc",
"cccccccccccccccccccccccccccccccccccccccccccccccccccccccccccccccccccccccccccccccccccccccccccccccccccccccccccc    cccccccccccccccc",
"cccccccccccccccccccccccccccccccccccccccccccccccccccccccccccccccccccccccccccccccccccccccccccccccccccccccccccc    cccccccccccccccc",
"cccccccccccccccccccccccccccccccccccccccccccccccccccccccccccccccccccccccccccccccccccccccccccccccccccccccccccc    cccccccccccccccc",
"cccccccccccccccccccccccccccccccccccccccccccccccccccccccccccccccccccccccccccccccccccccccccccccccccccccccccccc    cccccccccccccccc",
"cccccccccccccccccccccccccccccccccccccccccccccccccccccccccccccccccccccccccccccccccccccccccccccccccccccccccccccccccccccccccccccccc",
"cccccccccccccccccccccccccccccccccccccccccccccccccccccccccccccccccccccccccccccccccccccccccccccccccccccccccccccccccccccccccccccccc",
"cccccccccccccccccccccccccccccccccccccccccccccccccccccccccccccccccccccccccccccccccccccccccccccccccccccccccccccccccccccccccccccccc",
"cccccccccccccccccccccccccccccccccccccccccccccccccccccccccccccccccccccccccccccccccccccccccccccccccccccccccccccccccccccccccccccccc",
"cccccccccccccccccccccccccccccccccccccccccccccccccccccccccccccccccccccccccccccccccccccccccccccccccccccccccccccccccccccccccccccccc",
"cccccccccccccccccccccccccccccccccccccccccccccccccccccccccccccccccccccccccccccccccccccccccccccccccccccccccccccccccccccccccccccccc",
"cccccccccccccccccccccccccccccccccccccccccccccccccccccccccccccccccccccccccccccccccccccccccccccccccccccccccccccccccccccccccccccccc",
"cccccccccccccccccccccccccccccccccccccccccccccccccccccccccccccccccccccccccccccccccccccccccccccccccccccccccccccccccccccccccccccccc",
"cccccccccccccccccccccccccccccccccccccccccccccccccccccccccccccccccccccccccccccccccccccccccccccccccccccccccccccccccccccccccccccccc",
"cccccccccccccccccccccccccccccccccccccccccccccccccccccccccccccccccccccccccccccccccccccccccccccccccccccccccccccccccccccccccccccccc",
"cccccccccccccccccccccccccccccccccccccccccccccccccccccccccccccccccccccccccccccccccccccccccccccccccccccccccccccccccccccccccccccccc",
"cccccccccccccccccccccccccccccccccccccccccccccccccccccccccccccccccccccccccccccccccccccccccccccccccccccccccccccccccccccccccccccccc",
"cccccccccccccccccccccccccccccccccccccccccccccccccccccccccccccccccccccccccccccccccccccccccccccccccccccccccccccccccccccccccccccccc",
"cccccccccccccccccccccccccccccccccccccccccccccccccccccccccccccccccccccccccccccccccccccccccccccccccccccccccccccccccccccccccccccccc",
"cccccccccccccccccccccccccccccccccccccccccccccccccccccccccccccccccccccccccccccccccccccccccccccccccccccccccccccccccccccccccccccccc",
"cccccccccccccccccccccccccccccccccccccccccccccccccccccccccccccccccccccccccccccccccccccccccccccccccccccccccccccccccccccccccccccccc",
"cccccccccccccccccccccccccccccccccccccccccccccccccccccccccccccccccccccccccccccccccccccccccccccccccccccccccccccccccccccccccccccccc",
"cccccccccccccccccccccccccccccccccccccccccccccccccccccccccccccccccccccccccccccccccccccccccccccccccccccccccccccccccccccccccccccccc",
"cccccccccccccccccccccccccccccccccccccccccccccccccccccccccccccccccccccccccccccccccccccccccccccccccccccccccccccccccccccccccccccccc",
"cccccccccccccccccccccccccccccccccccccccccccccccccccccccccccccccccccccccccccccccccccccccccccccccccccccccccccccccccccccccccccccccc",
"cccccccccccccccccccccccccccccccccccccccccccccccccccccccccccccccccccccccccccccccccccccccccccccccccccccccccccccccccccccccccccccccc"
};
