/* XPM */
static char *player_right_1[] = {
/* columns rows colors chars-per-pixel */
"128 128 47 1 ",
"  c gray20",
". c gray21",
"X c #383938",
"o c #3A3A39",
"O c #3E3F3E",
"+ c #3F403F",
"@ c #434443",
"# c #494949",
"$ c gray30",
"% c #4E4D4D",
"& c gray31",
"* c #565453",
"= c gray35",
"- c #5A5A5A",
"; c #676767",
": c #727272",
"> c #767474",
", c #7C7879",
"< c #7C7B7B",
"1 c #848383",
"2 c #898888",
"3 c #898889",
"4 c #8B8B8B",
"5 c #8C8A8A",
"6 c gray55",
"7 c #939191",
"8 c #959595",
"9 c #979797",
"0 c gray60",
"q c #9B9999",
"w c #A09E9D",
"e c #A5A5A5",
"r c #A7A7A7",
"t c #A8A7A7",
"y c #AEADAD",
"u c #B2B2B2",
"i c #B3B2B2",
"p c #BCBCBC",
"a c gray",
"s c gray80",
"d c #CECECF",
"f c gray83",
"g c #D7D8D7",
"h c #D8D8D9",
"j c gray85",
"k c white",
"l c None",
/* pixels */
"llllllllllllllllllllllllllllllllllllllllllllllllllllllllllllllllllllllllllllllllllllllllllllllllllllllllllllllllllllllllllllllll",
"llllllllllllllllllllllllllllllllllllllllllllllllllllllllllllllllllllllllllllllllllllllllllllllllllllllllllllllllllllllllllllllll",
"llllllllllllllllllllllllllllllllllllllllllllllllllllllllllllllllllllllllllllllllllllllllllllllllllllllllllllllllllllllllllllllll",
"llllllllllllllllllllllllllllllllllllllllllllllllllllllllllllllllllllllllllllllllllllllllllllllllllllllllllllllllllllllllllllllll",
"llllllllllllllllllllllllllllllllllllllllllllllllllllllllllllllllllllllllllllllllllllllllllllllllllllllllllllllllllllllllllllllll",
"llllllllllllllllllllllllllllllllllllllllllllllllllllllllllllllllllllllllllllllllllllllllllllllllllllllllllllllllllllllllllllllll",
"llllllllllllllllllllllllllllllllllllllllllllllllllllllllllllllllllllllllllllllllllllllllllllllllllllllllllllllllllllllllllllllll",
"llllllllllllllllllllllllllllllllllllllllllllllllllllllllllllllllllllllllllllllllllllllllllllllllllllllllllllllllllllllllllllllll",
"llllllllllllllllllllllllllllllllllllllllllllllllllllllllllllllllllllllllllllllllllllllllllllllllllllllllllllllllllllllllllllllll",
"llllllllllllllllllllllllllllllllllllllllllllllllllllllllllllllllllllllllllllllllllllllllllllllllllllllllllllllllllllllllllllllll",
"llllllllllllllllllllllllllllllllllllllllllllllllllllllllllllllllllllllllllllllllllllllllllllllllllllllllllllllllllllllllllllllll",
"llllllllllllllllllllllllllllllllllllllllllllllllllllllllllllllllllllllllllllllllllllllllllllllllllllllllllllllllllllllllllllllll",
"llllllllllllllllllllllllllllllllllllllllllllllllllllllllllllllllllllllllllllllllllllllllllllllllllllllllllllllllllllllllllllllll",
"llllllllllllllllllllllllllllllllllllllllllllllllllllllllllllllllllllllllllllllllllllllllllllllllllllllllllllllllllllllllllllllll",
"llllllllllllllllllllllllllllllllllllllllllllllllllllllllllllllllllllllllllllllllllllllllllllllllllllllllllllllllllllllllllllllll",
"llllllllllllllllllllllllllllllllllllllllllllllllllllllllllllllllllllllllllllllllllllllllllllllllllllllllllllllllllllllllllllllll",
"llllllllllllllllllllllllllllllllllllllllllllllllllllllllllllllllllllllllllllllllllllllllllllllllllllllllllllllllllllllllllllllll",
"llllllllllllllllllllllllllllllllllllllllllllllllllllllllllllllllllllllllllllllllllllllllllllllllllllllllllllllllllllllllllllllll",
"llllllllllllllllllllllllllllllllllllllllllllllllllllllllllllllllllllllllllllllllllllllllllllllllllllllllllllllllllllllllllllllll",
"llllllllllllllllllllllllllllllllllllllllllllllllllllllllllllllllllllllllllllllllllllllllllllllllllllllllllllllllllllllllllllllll",
"llllllllllllllllllllllllllllllllllllllllllllllllllllllllllllllllllllllllllllllllllllllllllllllllllllllllllllllllllllllllllllllll",
"llllllllllllllllllllllllllllllllllllllllllllllllllllllllllllllllllllllllllllllllllllllllllllllllllllllllllllllllllllllllllllllll",
"llllllllllllllllllllllllllllllllllllllllllllllllllllllllllllllllllllllllllllllllllllllllllllllllllllllllllllllllllllllllllllllll",
"llllllllllllllllllllllllllllllllllllllllllllllllllllllllllllllllllllllllllllllllllllllllllllllllllllllllllllllllllllllllllllllll",
"llllllllllllllllllllllllllllllllllllllllllllllllllllllllllllllllllllllllllllllllllllllllllllllllllllllllllllllllllllllllllllllll",
"llllllllllllllllllllllllllllllllllllllllllllllllllllllllllllllllllllllllllllllllllllllllllllllllllllllllllllllllllllllllllllllll",
"llllllllllllllllllllllllllllllllllllllllllllllllllllllllllllllllllllllllllllllllllllllllllllllllllllllllllllllllllllllllllllllll",
"llllllllllllllllllllllllllllllllllllllllllllllllllllllllllllllll    llllllllllllllllllllllllllllllllllllllllllllllllllllllllllll",
"llllllllllllllllllllllllllllllllllllllllllllllllllllllllllllllll    llllllllllllllllllllllllllllllllllllllllllllllllllllllllllll",
"llllllllllllllllllllllllllllllllllllllllllllllllllllllllllllllll    llllllllllllllllllllllllllllllllllllllllllllllllllllllllllll",
"llllllllllllllllllllllllllllllllllllllllllllllllllllllllllllllll    llllllllllllllllllllllllllllllllllllllllllllllllllllllllllll",
"llllllllllllllllllllllllllllllllllllllllllllllllllllllllllll    ssss    llllllllllllllllllllllllllllllllllllllllllllllllllllllll",
"llllllllllllllllllllllllllllllllllllllllllllllllllllllllllll    ssss    llllllllllllllllllllllllllllllllllllllllllllllllllllllll",
"llllllllllllllllllllllllllllllllllllllllllllllllllllllllllll    ssss    llllllllllllllllllllllllllllllllllllllllllllllllllllllll",
"llllllllllllllllllllllllllllllllllllllllllllllllllllllllllll    ssss    llllllllllllllllllllllllllllllllllllllllllllllllllllllll",
"llllllllllllllllllllllllllllllllllllllllllllllllllllllllllll    ssssssss    llllllllllllllllllllllllllllllllllllllllllllllllllll",
"llllllllllllllllllllllllllllllllllllllllllllllllllllllllllll    ssssssss    llllllllllllllllllllllllllllllllllllllllllllllllllll",
"llllllllllllllllllllllllllllllllllllllllllllllllllllllllllll    ssssssss    llllllllllllllllllllllllllllllllllllllllllllllllllll",
"llllllllllllllllllllllllllllllllllllllllllllllllllllllllllll    ssssssss    llllllllllllllllllllllllllllllllllllllllllllllllllll",
"llllllllllllllllllllllllllllllllllllllllllllllllllllllllllll    ssssssssssss    llllllllllllllllllllllllllllllllllllllllllllllll",
"llllllllllllllllllllllllllllllllllllllllllllllllllllllllllll    ssssssssssss    llllllllllllllllllllllllllllllllllllllllllllllll",
"llllllllllllllllllllllllllllllllllllllllllllllllllllllllllll    ssssssssssss    llllllllllllllllllllllllllllllllllllllllllllllll",
"lllllllllllllllllllllllllllllllllll lll llllllllllllllllllll    ssssssssssss    llllllllllllllllllllllllllllllllllllllllllllllll",
"llllllllllllllllllllllll                                        ssssssssssssssss                        llllllllllllllllllllllll",
"llllllllllllllllllllllll                                        ssssssssssssssss                        llllllllllllllllllllllll",
"llllllllllllllllllllllll                                        ssssssssssssssss                        llllllllllllllllllllllll",
"llllllllllllllllllllllll###%###%###%###%###%###%###$###$###$###$aaaapaaapaaapaaaX                       llllllllllllllllllllllll",
"llllllllllllllllllll   #00000000000000000000000000000000000000000000000000000000asss<;;;ysssssssssssssss    llllllllllllllllllll",
"llllllllllllllllllll   #00000000000000000000000000000000000000000000000000000000asss<;;;ysssssssssssssss    llllllllllllllllllll",
"llllllllllllllllllll   #00000000000000000000000000000000000000000000000000000000asss<;;;ysssssssssssssss    llllllllllllllllllll",
"llllllllllllllllllll   $00000000000000000000000000000000000000000000000000000000uaaa1:::raaafgggjgggdssso   llllllllllllllllllll",
"llllllllllllllll    sssa00000000000000000000000000000000000000000000000000000000000000000000kkkkkkkkgsssssss    llllllllllllllll",
"llllllllllllllll    sssa00000000000000000000000000000000000000000000000000000000000000000000kkkkkkkkgsssssss    llllllllllllllll",
"llllllllllllllll    sssa00000000000000000000000000000000000000000000000000000000000000000000kkkkkkkkgsssssss    llllllllllllllll",
"llllllllllllllll   Xaaau000000000000000000000000000000000000000000000000000000000000eeeeteeekkkkkkkkhgggdssso   llllllllllllllll",
"llllllllllll    sssa0000000000000000000000000000000000000000000000000000000000000000sssssssskkkk*   kkkkgsssssss    llllllllllll",
"llllllllllll    sssa0000000000000000000000000000000000000000000000000000000000000000sssssssskkkk*   kkkkgsssssss    llllllllllll",
"llllllllllll    sssa0000000000000000000000000000000000000000000000000000000000000000sssssssskkkk*   kkkkgsssssss    llllllllllll",
"llllllllllll   Xaaau0000000000000000000000000000000000000000000000000000000000000000sssssssskkkk,***kkkkgsssssss    llllllllllll",
"llllllll    sssa00000000000000000000;;;;;;;;;;;;000000000000000000000000000000000000sssssssskkkkkkkkgsssssssssssssss    llllllll",
"llllllll    sssa00000000000000000000;;;;;;;;;;;;000000000000000000000000000000000000sssssssskkkkkkkkgsssssssssssssss    llllllll",
"llllllll    sssa00000000000000000000;;;;;;;;;;;;000000000000000000000000000000000000sssssssskkkkkkkkgsssssssssssssss    llllllll",
"llllllll   Xaaau00000000000844424442;;;;;;;;;;;;444244460000000000000000000000000000sssssssskkkkkkkkgsssssssssssssss    llllllll",
"llll    sssa0000000000000004;;;;;;;;;;;;;;;;;;;;;;;;;;;:0000000000000000000000000000ssssssssssssssssssssssssssssssssssss    llll",
"llll    sssa0000000000000004;;;;;;;;;;;;;;;;;;;;;;;;;;;:0000000000000000000000000000ssssssssssssssssssssssssssssssssssss    llll",
"llll    sssa0000000000000004;;;;;;;;;;;;;;;;;;;;;;;;;;;:0000000000000000000000000000ssssssssssssssssssssssssssssssssssss    llll",
"llll   Xaaai0000000000090004;;;;;;;;;;;;;;;;;;;;;;;;;;;:0000000000000000000000000000sssssssssssssssswqqq7qqq7qqq7qqq7qqq    llll",
"llll   #0000000000000004;;;;                                ssssssssssssssss        qsss                                llllllll",
"llll   #0000000000000004;;;;                                ssssssssssssssss        qsss                                llllllll",
"llll   #0000000000000004;;;;                                ssssssssssssssss        qsss                                llllllll",
"llll   %0000000000000004;;;;                                qqqqssssssssqqqq    ++++>555.                               llllllll",
"llll   #000000000000        llllllllllllllllllllllllllllllll    ssssssss        ;;;;;;;;+   llllllllllllllllllllllllllllllllllll",
"llll   #000000000000        llllllllllllllllllllllllllllllll    ssssssss        ;;;;;;;;+   llllllllllllllllllllllllllllllllllll",
"llll   #000000000000        llllllllllllllllllllllllllllllll    ssssssss        ;;;;;;;;+   llllllllllllllllllllllllllllllllllll",
"llll   %000000000000        llllllllllllllllllllllllllllllll    ssssqqqq        ;;;;;;;;+   @lllllllllllllllllllllllllllllllllll",
"llll   #000000000000    llllllllllllllllllllllllllllllllllll    ssss    llllllll    =;;;    llllllllllllllllllllllllllllllllllll",
"llll   #000000000000    llllllllllllllllllllllllllllllllllll    ssss    llllllll    =;;;    llllllllllllllllllllllllllllllllllll",
"llll   #000000000000    llllllllllllllllllllllllllllllllllll    ssss    llllllll    =;;;    llllllllllllllllllllllllllllllllllll",
"llll   %000000000000    llllllllllllllllllllllllllllllllllll    qqqq    llllllll    &===    llllllllllllllllllllllllllllllllllll",
"llll   #00000000    llllllllllllllllllllllllllllllllllllllll        llllllllllllllll    llllllllllllllllllllllllllllllllllllllll",
"llll   #00000000    llllllllllllllllllllllllllllllllllllllll        llllllllllllllll    llllllllllllllllllllllllllllllllllllllll",
"llll   #00000000    llllllllllllllllllllllllllllllllllllllll        llllllllllllllll    llllllllllllllllllllllllllllllllllllllll",
"llll   %00000000+++Ollllllllllllllllllllllllllllllllllllllll        llllllllllllllll    llllllllllllllllllllllllllllllllllllllll",
"llll   #00000004;;;=            llllllllllllllllllllllllllllllllllllllllllllllllllllllllllllllllllllllllllllllllllllllllllllllll",
"llll   #00000004;;;=            llllllllllllllllllllllllllllllllllllllllllllllllllllllllllllllllllllllllllllllllllllllllllllllll",
"llll   #00000004;;;=            llllllllllllllllllllllllllllllllllllllllllllllllllllllllllllllllllllllllllllllllllllllllllllllll",
"llll   #00000004;;;-++++++++++++llllllllllllllllllllllllllllllllllllllllllllllllllllllllllllllllllllllllllllllllllllllllllllllll",
"llllllll   #00000004;;;;;;;;;;;;    llllllllllllllllllllllllllllllllllllllllllllllllllllllllllllllllllllllllllllllllllllllllllll",
"llllllll   #00000004;;;;;;;;;;;;    llllllllllllllllllllllllllllllllllllllllllllllllllllllllllllllllllllllllllllllllllllllllllll",
"llllllll   #00000004;;;;;;;;;;;;    llllllllllllllllllllllllllllllllllllllllllllllllllllllllllllllllllllllllllllllllllllllllllll",
"llllllll   %00000004;;;;;;;;;;;;    llllllllllllllllllllllllllllllllllllllllllllllllllllllllllllllllllllllllllllllllllllllllllll",
"llllllll   #00000004;;;;;;;;    llllllllllllllllllllllllllllllllllllllllllllllllllllllllllllllllllllllllllllllllllllllllllllllll",
"llllllll   #00000004;;;;;;;;    llllllllllllllllllllllllllllllllllllllllllllllllllllllllllllllllllllllllllllllllllllllllllllllll",
"llllllll   #00000004;;;;;;;;    llllllllllllllllllllllllllllllllllllllllllllllllllllllllllllllllllllllllllllllllllllllllllllllll",
"llllllll   #00000003;;;;;;;;    llllllllllllllllllllllllllllllllllllllllllllllllllllllllllllllllllllllllllllllllllllllllllllllll",
"llllllllllll   #0004;;;;    llllllllllllllllllllllllllllllllllllllllllllllllllllllllllllllllllllllllllllllllllllllllllllllllllll",
"llllllllllll   #0004;;;;    llllllllllllllllllllllllllllllllllllllllllllllllllllllllllllllllllllllllllllllllllllllllllllllllllll",
"llllllllllll   #0004;;;;    llllllllllllllllllllllllllllllllllllllllllllllllllllllllllllllllllllllllllllllllllllllllllllllllllll",
"llllllllllll   %0004;;;;    llllllllllllllllllllllllllllllllllllllllllllllllllllllllllllllllllllllllllllllllllllllllllllllllllll",
"llllllllllll   #0000    llllllllllllllllllllllllllllllllllllllllllllllllllllllllllllllllllllllllllllllllllllllllllllllllllllllll",
"llllllllllll   #0000    llllllllllllllllllllllllllllllllllllllllllllllllllllllllllllllllllllllllllllllllllllllllllllllllllllllll",
"llllllllllll   #0000    llllllllllllllllllllllllllllllllllllllllllllllllllllllllllllllllllllllllllllllllllllllllllllllllllllllll",
"llllllllllll   #0000    llllllllllllllllllllllllllllllllllllllllllllllllllllllllllllllllllllllllllllllllllllllllllllllllllllllll",
"llllllllllllllll    llllllllllllllllllllllllllllllllllllllllllllllllllllllllllllllllllllllllllllllllllllllllllllllllllllllllllll",
"llllllllllllllll    llllllllllllllllllllllllllllllllllllllllllllllllllllllllllllllllllllllllllllllllllllllllllllllllllllllllllll",
"llllllllllllllll    llllllllllllllllllllllllllllllllllllllllllllllllllllllllllllllllllllllllllllllllllllllllllllllllllllllllllll",
"llllllllllllllll    llllllllllllllllllllllllllllllllllllllllllllllllllllllllllllllllllllllllllllllllllllllllllllllllllllllllllll",
"llllllllllllllllllllllllllllllllllllllllllllllllllllllllllllllllllllllllllllllllllllllllllllllllllllllllllllllllllllllllllllllll",
"llllllllllllllllllllllllllllllllllllllllllllllllllllllllllllllllllllllllllllllllllllllllllllllllllllllllllllllllllllllllllllllll",
"llllllllllllllllllllllllllllllllllllllllllllllllllllllllllllllllllllllllllllllllllllllllllllllllllllllllllllllllllllllllllllllll",
"llllllllllllllllllllllllllllllllllllllllllllllllllllllllllllllllllllllllllllllllllllllllllllllllllllllllllllllllllllllllllllllll",
"llllllllllllllllllllllllllllllllllllllllllllllllllllllllllllllllllllllllllllllllllllllllllllllllllllllllllllllllllllllllllllllll",
"llllllllllllllllllllllllllllllllllllllllllllllllllllllllllllllllllllllllllllllllllllllllllllllllllllllllllllllllllllllllllllllll",
"llllllllllllllllllllllllllllllllllllllllllllllllllllllllllllllllllllllllllllllllllllllllllllllllllllllllllllllllllllllllllllllll",
"llllllllllllllllllllllllllllllllllllllllllllllllllllllllllllllllllllllllllllllllllllllllllllllllllllllllllllllllllllllllllllllll",
"llllllllllllllllllllllllllllllllllllllllllllllllllllllllllllllllllllllllllllllllllllllllllllllllllllllllllllllllllllllllllllllll",
"llllllllllllllllllllllllllllllllllllllllllllllllllllllllllllllllllllllllllllllllllllllllllllllllllllllllllllllllllllllllllllllll",
"llllllllllllllllllllllllllllllllllllllllllllllllllllllllllllllllllllllllllllllllllllllllllllllllllllllllllllllllllllllllllllllll",
"llllllllllllllllllllllllllllllllllllllllllllllllllllllllllllllllllllllllllllllllllllllllllllllllllllllllllllllllllllllllllllllll",
"llllllllllllllllllllllllllllllllllllllllllllllllllllllllllllllllllllllllllllllllllllllllllllllllllllllllllllllllllllllllllllllll",
"llllllllllllllllllllllllllllllllllllllllllllllllllllllllllllllllllllllllllllllllllllllllllllllllllllllllllllllllllllllllllllllll",
"llllllllllllllllllllllllllllllllllllllllllllllllllllllllllllllllllllllllllllllllllllllllllllllllllllllllllllllllllllllllllllllll",
"llllllllllllllllllllllllllllllllllllllllllllllllllllllllllllllllllllllllllllllllllllllllllllllllllllllllllllllllllllllllllllllll",
"llllllllllllllllllllllllllllllllllllllllllllllllllllllllllllllllllllllllllllllllllllllllllllllllllllllllllllllllllllllllllllllll",
"llllllllllllllllllllllllllllllllllllllllllllllllllllllllllllllllllllllllllllllllllllllllllllllllllllllllllllllllllllllllllllllll",
"llllllllllllllllllllllllllllllllllllllllllllllllllllllllllllllllllllllllllllllllllllllllllllllllllllllllllllllllllllllllllllllll",
"llllllllllllllllllllllllllllllllllllllllllllllllllllllllllllllllllllllllllllllllllllllllllllllllllllllllllllllllllllllllllllllll",
"llllllllllllllllllllllllllllllllllllllllllllllllllllllllllllllllllllllllllllllllllllllllllllllllllllllllllllllllllllllllllllllll"
};
