/* XPM */
static char *wall[] = {
/* columns rows colors chars-per-pixel */
"128 128 15 1 ",
"  c #2F1210",
". c #3C1110",
"X c #630C0D",
"o c #7B1719",
"O c #5B201D",
"+ c #5B281E",
"@ c #7C2419",
"# c #743126",
"$ c #744127",
"% c #CE3234",
"& c #CE4333",
"* c #CF5C34",
"= c #CF6733",
"- c #CF7533",
"; c #CC9A33",
/* pixels */
"                                                           O%%%%XXXXXXXX.                                                       ",
"                                                           O%%%%XXXXXXXX.                                                       ",
"                                                           O%%%%XXXXXXXX.                                                       ",
"                                                           O%%%%XXXXXXXX.                                                       ",
"                                                           .XXXXXXXXXXXX.                                                       ",
"                                                           .XXXXXXXXXXXX.                                                       ",
"                                                           .XXXXXXXXXXXX.                                                       ",
"                                                           .XXXXXXXXXXXX.                                                       ",
"       #====%%%%XXXXXXXXXXXX                               .XXXXXXXXXXXX.                   ====&%%%oXXXXXXXXXXXXXXXXXXX.       ",
"       #====%%%%XXXXXXXXXXXX                               .XXXXXXXXXXXX.                   ====&%%%oXXXXXXXXXXXXXXXXXXX.       ",
"       #====%%%%XXXXXXXXXXXX                               .XXXXXXXXXXXX.                   ====&%%%oXXXXXXXXXXXXXXXXXXX.       ",
"       #====%%%%XXXXXXXXXXXX                               .XXXXXXXXXXXX.                   ====&%%%oXXXXXXXXXXXXXXXXXXX.       ",
"       O%%%%%%%%XXXXXXXXXXXX                                                                %%%%%%%%oXXXXXXXXXXXXXXXXXXX.       ",
"       O%%%%%%%%XXXXXXXXXXXX                                                                %%%%%%%%oXXXXXXXXXXXXXXXXXXX.       ",
"       O%%%%%%%%XXXXXXXXXXXX                                                                %%%%%%%%oXXXXXXXXXXXXXXXXXXX.       ",
"       O%%%%%%%%XXXXXXXXXXXX                                                                %%%%%%%%oXXXXXXXXXXXXXXXXXXX.       ",
"       .XXXXXXXXXXXXXXXXXXXX                                                                XXXXXXXXXXXXXXXXXXXXXXXXXXXX.       ",
"       .XXXXXXXXXXXXXXXXXXXX                                                                XXXXXXXXXXXXXXXXXXXXXXXXXXXX.       ",
"       .XXXXXXXXXXXXXXXXXXXX                                                                XXXXXXXXXXXXXXXXXXXXXXXXXXXX.       ",
"       .XXXXXXXXXXXXXXXXXXXX                                                                XXXXXXXXXXXXXXXXXXXXXXXXXXXX.       ",
"       .XXXXXXXXXXXXXXXXXXXX                                                                XXXXXXXXXXXXXXXXXXXXXXXXXXXX.       ",
"       .XXXXXXXXXXXXXXXXXXXX                                                                XXXXXXXXXXXXXXXXXXXXXXXXXXXX.       ",
"       .XXXXXXXXXXXXXXXXXXXX                                                                XXXXXXXXXXXXXXXXXXXXXXXXXXXX.       ",
"       .XXXXXXXXXXXXXXXXXXXX                                                                XXXXXXXXXXXXXXXXXXXXXXXXXXXX.       ",
"       .XXXXXXXXXXXXXXXXXXXX                                                                XXXXXXXXXXXXXXXXXXXXXXXXXXXX.       ",
"       .XXXXXXXXXXXXXXXXXXXX                                                                XXXXXXXXXXXXXXXXXXXXXXXXXXXX.       ",
"       .XXXXXXXXXXXXXXXXXXXX                                                                XXXXXXXXXXXXXXXXXXXXXXXXXXXX.       ",
"       .XXXXXXXXXXXXXXXXXXXX                                                                XXXXXXXXXXXXXXXXXXXXXXXXXXXX.       ",
"                                                                                            XXXXXXXXXXXXXXXXXXXX%%%%%%%%O       ",
"                                                                                            XXXXXXXXXXXXXXXXXXXX%%%%%%%%O       ",
"                                                                                            XXXXXXXXXXXXXXXXXXXX%%%%%%%%O       ",
"                                                                                            XXXXXXXXXXXXXXXXXXXX%%%%%%%%O       ",
"                                                                                            XXXXXXXXXXXXXXXXXXXX%%%%====#       ",
"                                                                                            XXXXXXXXXXXXXXXXXXXX%%%%====#       ",
"                                                                                            XXXXXXXXXXXXXXXXXXXX%%%%====#       ",
"                                                                                            XXXXXXXXXXXXXXXXXXXX%%%%====#       ",
"                                                                                                                                ",
"                                                                                                                                ",
"                                                                                                                                ",
"                                                                                                                                ",
"                           $;;;;====XXXXXXXXXXXXXXXXXXXX                                                                        ",
"                           $;;;;====XXXXXXXXXXXXXXXXXXXX                                                                        ",
"                           $;;;;====XXXXXXXXXXXXXXXXXXXX                                                                        ",
"                           $;;;;====XXXXXXXXXXXXXXXXXXXX                                                                        ",
"                           +========XXXXXXXXXXXXXXXXXXXX                                                                        ",
"                           +========XXXXXXXXXXXXXXXXXXXX                                                                        ",
"                           +========XXXXXXXXXXXXXXXXXXXX                                                                        ",
"                           +========XXXXXXXXXXXXXXXXXXXX                                                                        ",
"                           .XXXXXXXXXXXXXXXXXXXXXXXXXXXX                                                                        ",
"                           .XXXXXXXXXXXXXXXXXXXXXXXXXXXX                                                                        ",
"                           .XXXXXXXXXXXXXXXXXXXXXXXXXXXX                                                                        ",
"                           .XXXXXXXXXXXXXXXXXXXXXXXXXXXX                                                                        ",
"                           .XXXXXXXXXXXXXXXXXXXXXXXXXXXX                                                                        ",
"                           .XXXXXXXXXXXXXXXXXXXXXXXXXXXX                                                                        ",
"                           .XXXXXXXXXXXXXXXXXXXXXXXXXXXX                                                                        ",
"                           .XXXXXXXXXXXXXXXXXXXXXXXXXXXX                                                                        ",
"                           .XXXXXXXXXXXXXXXXXXXXXXXXXXXX                        ;;;;-===@XXXXXXXXXXX.                           ",
"                           .XXXXXXXXXXXXXXXXXXXXXXXXXXXX                        ;;;;-===@XXXXXXXXXXX.                           ",
"                           .XXXXXXXXXXXXXXXXXXXXXXXXXXXX                        ;;;;-===@XXXXXXXXXXX.                           ",
"                           .XXXXXXXXXXXXXXXXXXXXXXXXXXXX                        ;;;;-===@XXXXXXXXXXX.                           ",
"                           .XXXXXXXXXXXXXXXXXXX@========                        ========@XXXXXXXXXXX.                           ",
"                           .XXXXXXXXXXXXXXXXXXX@========                        ========@XXXXXXXXXXX.                           ",
"                           .XXXXXXXXXXXXXXXXXXX@========                        ========@XXXXXXXXXXX.                           ",
"                           .XXXXXXXXXXXXXXXXXXX@========                        ========@XXXXXXXXXXX.                           ",
"                           .XXXXXXXXXXXXXXXXXXX@===-;;;;                        XXXXXXXXXXXXXXXXXXXX.                           ",
"                           .XXXXXXXXXXXXXXXXXXX@===-;;;;                        XXXXXXXXXXXXXXXXXXXX.                           ",
"                           .XXXXXXXXXXXXXXXXXXX@===-;;;;                        XXXXXXXXXXXXXXXXXXXX.                           ",
"                           .XXXXXXXXXXXXXXXXXXX@===-;;;;                        XXXXXXXXXXXXXXXXXXXX.                           ",
"                                                                                XXXXXXXXXXXXXXXXXXXX.                           ",
"                                                                                XXXXXXXXXXXXXXXXXXXX.                           ",
"                                                                                XXXXXXXXXXXXXXXXXXXX.                           ",
"                                                                                XXXXXXXXXXXXXXXXXXXX.                           ",
"                                                                                XXXXXXXXXXXXXXXXXXXX.                           ",
"                                                                                XXXXXXXXXXXXXXXXXXXX.                           ",
"                                                                                XXXXXXXXXXXXXXXXXXXX.                           ",
"                                                                                XXXXXXXXXXXXXXXXXXXX.                           ",
"                                                                                                                                ",
"                                                                                                                                ",
"                                                                                                                                ",
"                                                                                                                                ",
"                                                                                                                                ",
"                                                                                                                                ",
"                                                                                                                                ",
"                                                                                                                                ",
"       $;;;;;;;;=======*%%%%XXXXXXXXXXXXXXXX                                                                                    ",
"       $;;;;;;;;=======*%%%%XXXXXXXXXXXXXXXX                                                                                    ",
"       $;;;;;;;;=======*%%%%XXXXXXXXXXXXXXXX                                                                                    ",
"       $;;;;;;;;=======*%%%%XXXXXXXXXXXXXXXX                                                                                    ",
"       $;;;;;;;;=======*%%%%XXXXXXXXXXXXXXXX                                                                                    ",
"       $;;;;;;;;=======*%%%%XXXXXXXXXXXXXXXX                                                                                    ",
"       $;;;;;;;;=======*%%%%XXXXXXXXXXXXXXXX                                                                                    ",
"       $;;;;;;;;=======*%%%%XXXXXXXXXXXXXXXX                                                                                    ",
"       +===============*%%%%XXXXXXXXXXXXXXXX                        ====&%%%oXXXXXXXXXXX.                                       ",
"       +===============*%%%%XXXXXXXXXXXXXXXX                        ====&%%%oXXXXXXXXXXX.                                       ",
"       +===============*%%%%XXXXXXXXXXXXXXXX                        ====&%%%oXXXXXXXXXXX.                                       ",
"       +===============*%%%%XXXXXXXXXXXXXXXX                        ====&%%%oXXXXXXXXXXX.                                       ",
"       +===============*%%%%XXXXXXXXXXXXXXXX                        %%%%%%%%oXXXXXXXXXXX.                                       ",
"       +===============*%%%%XXXXXXXXXXXXXXXX                        %%%%%%%%oXXXXXXXXXXX.                                       ",
"       +===============*%%%%XXXXXXXXXXXXXXXX                        %%%%%%%%oXXXXXXXXXXX.                                       ",
"       +===============*%%%%XXXXXXXXXXXXXXXX                        %%%%%%%%oXXXXXXXXXXX.                                       ",
"       O%%%%%%%%%%%%%%%%%%%%XXXXXXXXXXXXXXXX                        XXXXXXXXXXXXXXXXXXXX.                                       ",
"       O%%%%%%%%%%%%%%%%%%%%XXXXXXXXXXXXXXXX                        XXXXXXXXXXXXXXXXXXXX.                                       ",
"       O%%%%%%%%%%%%%%%%%%%%XXXXXXXXXXXXXXXX                        XXXXXXXXXXXXXXXXXXXX.                                       ",
"       O%%%%%%%%%%%%%%%%%%%%XXXXXXXXXXXXXXXX                        XXXXXXXXXXXXXXXXXXXX.                                       ",
"       .XXXXXXXXXXXXXXXXXXXXXXXXXXXXXXXXXXXX                        XXXXXXXXXXXXXXXXXXXX.                                       ",
"       .XXXXXXXXXXXXXXXXXXXXXXXXXXXXXXXXXXXX                        XXXXXXXXXXXXXXXXXXXX.                                       ",
"       .XXXXXXXXXXXXXXXXXXXXXXXXXXXXXXXXXXXX                        XXXXXXXXXXXXXXXXXXXX.                                       ",
"       .XXXXXXXXXXXXXXXXXXXXXXXXXXXXXXXXXXXX                        XXXXXXXXXXXXXXXXXXXX.                                       ",
"       .XXXXXXXXXXXXXXXXXXXXXXXXXXXXXXXXXXXX                        XXXXXXXXXXXXXXXXXXXX.                                       ",
"       .XXXXXXXXXXXXXXXXXXXXXXXXXXXXXXXXXXXX                        XXXXXXXXXXXXXXXXXXXX.                                       ",
"       .XXXXXXXXXXXXXXXXXXXXXXXXXXXXXXXXXXXX                        XXXXXXXXXXXXXXXXXXXX.                                       ",
"       .XXXXXXXXXXXXXXXXXXXXXXXXXXXXXXXXXXXX                        XXXXXXXXXXXXXXXXXXXX.                                       ",
"       .XXXXXXXXXXXXXXXXXXXXXXXXXXXo%%%%%%%%                                                                                    ",
"       .XXXXXXXXXXXXXXXXXXXXXXXXXXXo%%%%%%%%                                                                                    ",
"       .XXXXXXXXXXXXXXXXXXXXXXXXXXXo%%%%%%%%                                                                                    ",
"       .XXXXXXXXXXXXXXXXXXXXXXXXXXXo%%%%%%%%                                                                                    ",
"       .XXXXXXXXXXXXXXXXXXXXXXXXXXXo%%%&====                                                                        %%%%oXXXXXXX",
"       .XXXXXXXXXXXXXXXXXXXXXXXXXXXo%%%&====                                                                        %%%%oXXXXXXX",
"       .XXXXXXXXXXXXXXXXXXXXXXXXXXXo%%%&====                                                                        %%%%oXXXXXXX",
"       .XXXXXXXXXXXXXXXXXXXXXXXXXXXo%%%&====                                                                        %%%%oXXXXXXX",
"                                                                                                                    XXXXXXXXXXXX",
"                                                                                                                    XXXXXXXXXXXX",
"                                                                                                                    XXXXXXXXXXXX",
"                                                                                                                    XXXXXXXXXXXX",
"                                                                                                                    XXXXXXXXXXXX",
"                                                                                                                    XXXXXXXXXXXX",
"                                                                                                                    XXXXXXXXXXXX",
"                                                                                                                    XXXXXXXXXXXX"
};
