/* XPM */
static char *background[] = {
/* columns rows colors chars-per-pixel */
"16 16 7 1 ",
"  c #0E1130",
". c #18153D",
"X c #23263E",
"o c #1C304E",
"O c #343642",
"+ c #3F5F7F",
"@ c #6E6D5F",
/* pixels */
"                ",
"  O             ",
" O@          .  ",
"                ",
"                ",
"                ",
"                ",
"                ",
"                ",
"                ",
"                ",
"                ",
"                ",
"  X          +o ",
"             o  ",
"                "
};
