/* XPM */
static char *exit[] = {
/* columns rows colors chars-per-pixel */
"16 16 27 1 ",
"  c #B62521",
". c #BB322E",
"X c #D93726",
"o c #DC4525",
"O c #CF6733",
"+ c #F26622",
"@ c #E96735",
"# c #F26634",
"$ c #F2663A",
"% c #F3733A",
"& c #CF6741",
"* c #CF675B",
"= c #E9675B",
"- c #F26658",
"; c #CE6667",
": c #F16667",
"> c #ED8C37",
", c #F4803A",
"< c #F68D39",
"1 c #F79239",
"2 c #F79639",
"3 c #F89939",
"4 c #FAA639",
"5 c #FEC036",
"6 c #FFCD32",
"7 c #ED8C4A",
"8 c None",
/* pixels */
"8888363883638888",
"8886343333436888",
"88333$3333$33388",
"88633<3,,3<33688",
"8333333113333338",
"853$3O;O;O;3$368",
"833<3;@=@=O3<338",
"883,3O:.o#;3,388",
"883%3*+X -&3%388",
"83333&:+:#*33338",
"863$3*O;O;&3$368",
"843<37>7>7>32348",
"8853333,,3333588",
"88333$3113$33488",
"88853<3333<35888",
"8888363883638888"
};
