/* XPM */
static char *fish[] = {
/* columns rows colors chars-per-pixel */
"16 16 87 1 ",
"  c gray20",
". c #3D3B36",
"X c #463B35",
"o c #4C3E36",
"O c #503F36",
"+ c #444038",
"@ c #554136",
"# c #544B3C",
"$ c #5E4B3C",
"% c #644736",
"& c #6B4A36",
"* c #714C36",
"= c #6A513E",
"- c #5D534D",
"; c #604E41",
": c #705A4B",
"> c #766542",
", c #7C6943",
"< c #A15C31",
"1 c #A55D30",
"2 c #9A6239",
"3 c #9D683D",
"4 c #A46334",
"5 c #BE7034",
"6 c #C96829",
"7 c #CA6C2C",
"8 c #CC7330",
"9 c #C47F3F",
"0 c #D27C34",
"q c #815E40",
"w c #835E40",
"e c #866040",
"r c #8B6240",
"t c #906540",
"y c #976941",
"u c #996A41",
"i c #9A6A41",
"p c #857044",
"a c #947B44",
"s c #997B44",
"d c #A36F41",
"f c #BB7D40",
"g c #D1863E",
"h c #D98A3D",
"j c #D39F3A",
"k c #E98834",
"l c #EA923B",
"z c #EE943A",
"x c #F39337",
"c c #F49739",
"v c #F59739",
"b c #F19D3A",
"n c #F89939",
"m c #F89A3B",
"M c #DBA33F",
"N c #F7A639",
"B c #F9AC39",
"V c #E7B23B",
"C c #E5B83B",
"Z c #F7BC38",
"A c #FDCB34",
"S c #A78744",
"D c #B78E43",
"F c #BE8654",
"G c #C28541",
"H c #CD8D40",
"J c #D38942",
"K c #C49F42",
"L c #F29944",
"P c #E69F51",
"I c #F9A14B",
"U c #F9A34D",
"Y c #FAAC61",
"T c #FAAF66",
"R c #FBB46F",
"E c #FBB571",
"W c #FCB876",
"Q c #FAB878",
"! c #FBB878",
"~ c #FCB979",
"^ c #FEC24A",
"/ c #F6BE86",
"( c #F7BF87",
") c #FCC288",
"_ c #FDC38A",
"` c #FAC794",
"' c None",
/* pixels */
"''''''''''''''''",
"''''''''''''''''",
"''''''''''''''''",
"'''''''D#'''''''",
"aK''''+GM#''''''",
",ZS.pCVfzH-;:=''",
">bNP^Ajs9~YEQ/t'",
"%7kL!B54F_)W`(g ",
"*61X0xvwhTRWUnl ",
"&<''O3u28cImJiy'",
"'''''''@orqed$''",
"''''''''''''''''",
"''''''''''''''''",
"''''''''''''''''",
"''''''''''''''''",
"''''''''''''''''"
};
