/* XPM */
static char *cd1ca944066349d1df6612f3e16a6e4dq7fqPbTJmhONpvYA[] = {
/* columns rows colors chars-per-pixel */
"16 16 52 1 ",
"  c None",
". c #693856",
"X c #584B50",
"o c #944A76",
"O c #816A75",
"+ c #CB3394",
"@ c #CD4298",
"# c #CD4398",
"$ c #CE4E9D",
"% c #CF509E",
"& c #D15BA3",
"* c #D15CA3",
"= c #D261A5",
"- c #D363A6",
"; c #D364A7",
": c #D469A9",
"> c #D674AF",
", c #D675B0",
"< c #AD849B",
"1 c #DA80B5",
"2 c #DA81B5",
"3 c #DB84B7",
"4 c #DB86B8",
"5 c #DC87B9",
"6 c #DC88B9",
"7 c #DC89BA",
"8 c #DC8ABB",
"9 c #DD8CBC",
"0 c #DD8EBD",
"q c #DD8FBD",
"w c #DE8EBD",
"e c #E097C2",
"r c #E099C3",
"t c #E19AC4",
"y c #E29CC5",
"u c #E29DC5",
"i c #E29DC6",
"p c #D4A3C0",
"a c #DDA8C7",
"s c #E3A1C8",
"d c #E4A3C9",
"f c #E4A4C9",
"g c #E5A6CB",
"h c #E5A8CC",
"j c #E5AACD",
"k c #E7ACCE",
"l c #E8B0D0",
"z c #E8B1D1",
"x c #E8B2D2",
"c c #EABAD6",
"v c #EFC9DF",
"b c #F1CEE2",
/* pixels */
"   bbbbbbbbbb   ",
"  z#$-++++>+&c  ",
"  5+#l-++9e++h  ",
"  5++<O+:X3++h  ",
"  5++#g-89+++h  ",
"  5+++#.o++++k  ",
" h%+++&pa++++,d ",
"vh3r3rt44rt4t6zb",
"  d6d7y9f6y9y9  ",
"  d6d7y9d6y9y9  ",
"  d6d5y9d6y9y7  ",
"-7k5d7y9d6y9yd7 ",
" dg d7t9d5y94y9 ",
"    d7y9d7y7    ",
"    y y9d743    ",
"      ;  -      "
};
