/* XPM */
static char *player_up_2[] = {
/* columns rows colors chars-per-pixel */
"16 16 51 1 ",
"  c gray20",
". c #353635",
"X c #393938",
"o c #393939",
"O c #3A3A3A",
"+ c #3D3D3C",
"@ c gray24",
"# c #3E3D3D",
"$ c #3E3E3E",
"% c #414141",
"& c #434242",
"* c #444343",
"= c #434444",
"- c #4A4848",
"; c #4B4948",
": c gray29",
"> c #4D4B4B",
", c #4E4E4E",
"< c #514F4F",
"1 c gray32",
"2 c #565554",
"3 c #575554",
"4 c #555556",
"5 c #555656",
"6 c gray34",
"7 c #5A5756",
"8 c #5E5C5C",
"9 c #626161",
"0 c #636161",
"q c gray42",
"w c #716F6E",
"e c gray46",
"r c #7A797A",
"t c gray49",
"y c #807E7E",
"u c #808080",
"i c #838281",
"p c gray52",
"a c #888788",
"s c #898888",
"d c gray60",
"f c #9A9A9A",
"g c #A5A5A5",
"h c #A9A7A6",
"j c #B8B7B7",
"k c #C7C6C6",
"l c #CFCDCD",
"z c gray88",
"x c #E9E8E7",
"c c #F2F2F3",
"v c None",
/* pixels */
"vvvvvvvvvvvvvvvv",
"vvvvvvvv-&vvvvvv",
"vvvvvvv3j*vvvvvv",
"vvvvvv@lz8vvvvvv",
"vvvvvv+xcw vvvvv",
"vvvvvvOgke5 vvvv",
"vvvvvv<fd,$vvvvv",
"vvvvv;hddi&vvvvv",
"vvvv#7sdda> vvvv",
"vvvvvv2ddrvvvvvv",
"vvvvvv0ddpvvvvvv",
"vvvvvv9ddtvvvvvv",
"vvvvvvXuy.vvvvvv",
"vvvvvvo,q vvvvvv",
"vvvvvv:146 vvvvv",
"vvvvvv%vv=vvvvvv"
};
