/* XPM */
static char *player_down_3[] = {
/* columns rows colors chars-per-pixel */
"16 16 57 1 ",
"  c gray20",
". c #373737",
"X c #393938",
"o c #3A3A3A",
"O c #3B3B3A",
"+ c gray24",
"@ c #3E3D3D",
"# c #403F3F",
"$ c gray25",
"% c #4B4948",
"& c #515050",
"* c gray33",
"= c #575554",
"- c #585655",
"; c #5A5756",
": c #5D5C5C",
"> c #5C5C5D",
", c #5F5F60",
"< c #666363",
"1 c #656565",
"2 c #686867",
"3 c #6A6969",
"4 c #6F6C6B",
"5 c #6D6B6C",
"6 c #757271",
"7 c #787777",
"8 c gray50",
"9 c #818080",
"0 c #828181",
"q c #848282",
"w c #868586",
"e c #898787",
"r c #898888",
"t c #8A8989",
"y c #8B8989",
"u c gray54",
"i c #8E8D8D",
"p c #919090",
"a c #929191",
"s c #959595",
"d c gray59",
"f c #979696",
"g c gray60",
"h c #9A9A99",
"j c #9A9A9A",
"k c #9B9C9B",
"l c gray62",
"z c #A29F9E",
"x c gray66",
"c c #B5B5B4",
"v c #B9B7B7",
"b c #C2C0BF",
"n c #C0C0C0",
"m c #CCCCCB",
"M c gray87",
"N c #E9E9EA",
"B c None",
/* pixels */
"BBBBBB  BBBBBBBB",
"BBBB&0da9#BBBBBB",
"BBB:725rjq#BBBBB",
"BBBB*,B+8jyBBBBB",
"BBBBB$B 2atBBBBB",
"BBBBBBB 1wiBBBBB",
"BBBBBBB 3siBBBBB",
"BBBBBB  ugaoBBBB",
"BBBBBB-ehgl6OBBB",
"BBBBBB#4kgf+BBBB",
"BBBBBBBOpcx>XBBB",
"BBBBBBB zNn$.BBB",
"BBBBBBB bMvBBBBB",
"BBBBBBBB=m<BBBBB",
"BBBBBBBBB%;BBBBB",
"BBBBBBBBBB@BBBBB"
};
