/* XPM */
static char *player_left_2[] = {
/* columns rows colors chars-per-pixel */
"16 16 43 1 ",
"  c gray20",
". c #3C3B3B",
"X c #3C3C3C",
"o c #3D3C3C",
"O c #3D3E3D",
"+ c #403F3F",
"@ c #424141",
"# c #434242",
"$ c #444343",
"% c #4A4848",
"& c #4B4A4A",
"* c #4C4C4C",
"= c #4E4F4F",
"- c #505050",
"; c gray33",
": c #565555",
"> c #575555",
", c #5C5959",
"< c #5F6060",
"1 c #636060",
"2 c #626161",
"3 c #636362",
"4 c #676666",
"5 c #6C6B6B",
"6 c #6E6D6D",
"7 c #727171",
"8 c #767576",
"9 c #787575",
"0 c #7E7C7C",
"q c gray50",
"w c #838080",
"e c #858484",
"r c #939292",
"t c gray60",
"y c gray63",
"u c #B2B2B2",
"i c #B9B8B8",
"p c #D0CECE",
"a c #D2D2D1",
"s c gray89",
"d c #E7E6E6",
"f c #E8E8E7",
"g c None",
/* pixels */
"gggggggggggggggg",
"gggggggggggggggg",
"gggggggggggggggg",
"gggggggg+ggggggg",
"ggggggg,$ggggggg",
"gggo.@1u7:3> g- ",
"ggwspytttttt5;*g",
"g,adfitttttr0<=g",
"+$#946&y8qe2 X=g",
"ggggO; %+ggggggg",
"gggggggg ggggggg",
"gggggggggggggggg",
"gggggggggggggggg",
"gggggggggggggggg",
"gggggggggggggggg",
"gggggggggggggggg"
};
