/* XPM */
static char *player_down_2[] = {
/* columns rows colors chars-per-pixel */
"16 16 44 1 ",
"  c gray20",
". c #3C3B3B",
"X c #3D3C3C",
"o c #3D3E3D",
"O c #3F3F3F",
"+ c #403F3F",
"@ c #424141",
"# c #434242",
"$ c #444343",
"% c #4A4848",
"& c #4B4A4A",
"* c #4B4B4B",
"= c #4C4C4C",
"- c #505050",
"; c #535353",
": c gray33",
"> c #565555",
", c #575555",
"< c #5C5959",
"1 c #636060",
"2 c #626161",
"3 c #636362",
"4 c #676666",
"5 c #686868",
"6 c #6C6B6B",
"7 c #6E6D6D",
"8 c #727171",
"9 c #767576",
"0 c #787575",
"q c #7E7C7C",
"w c gray50",
"e c #838080",
"r c #858484",
"t c #939292",
"y c gray60",
"u c gray63",
"i c #B2B2B2",
"p c #B9B8B8",
"a c #D0CECE",
"s c #D2D2D1",
"d c gray89",
"f c #E7E6E6",
"g c #E8E8E7",
"h c None",
/* pixels */
"hhhhhh hhhhhhhhh",
"hhhhhh-=*; hhhhh",
"hhhhhhh:5Ohhhhhh",
"hhhhhh 6q hhhhhh",
"hhhhhh,yt2hhhhhh",
"hhhhhh3yyrhhhhhh",
"hhhhhh>yywhhhhhh",
"hhhh+$8yy9+ hhhh",
"hhhhh<iyyu%hhhhh",
"hhhhhh1yy& hhhhh",
"hhhhhh@up7:hhhhh",
"hhhhhh.ag4ohhhhh",
"hhhhhhXdf0hhhhhh",
"hhhhhhhes#hhhhhh",
"hhhhhhhh<$hhhhhh",
"hhhhhhhhh+hhhhhh"
};
