/* XPM */
static char *player_right_3[] = {
/* columns rows colors chars-per-pixel */
"16 16 59 1 ",
"  c gray20",
". c #373837",
"X c #3A3A3A",
"o c #3B3B3A",
"O c #3C3C3C",
"+ c #3D3D3C",
"@ c gray24",
"# c #403F3F",
"$ c #434242",
"% c #444343",
"& c #444444",
"* c #444545",
"= c gray27",
"- c #474646",
"; c #484848",
": c #4A4848",
"> c #4F4F4E",
", c #4E4F4F",
"< c #525050",
"1 c gray33",
"2 c #575554",
"3 c #595857",
"4 c #5B5A5A",
"5 c #5E5C5C",
"6 c #5D5D5E",
"7 c #656363",
"8 c #686767",
"9 c DimGray",
"0 c gray42",
"q c #6F6C6B",
"w c #6E6D6D",
"e c #706F6F",
"r c gray44",
"t c #717070",
"y c #767575",
"u c #767777",
"i c #7A7777",
"p c #7A7A7B",
"a c #7B7B7B",
"s c #7C7978",
"d c #7F7D7D",
"f c gray50",
"g c #828181",
"h c #848283",
"j c #858484",
"k c #8F8E8E",
"l c #929191",
"z c #969695",
"x c gray60",
"c c #9A9A9A",
"v c #A5A5A5",
"b c #B8B7B7",
"n c #B9B9B9",
"m c #C7C6C6",
"M c #CFCDCD",
"N c gray88",
"B c #E9E8E7",
"V c #F2F2F3",
"C c None",
/* pixels */
"CCCCCCCCCCCCCCCC",
"CCyCCCCCCCCCCCCC",
"C7p6CCCCCCCCCCCC",
"Ck4,CCCC#CCCCCCC",
" zgCCCC+q#CCCCCC",
"&lu>*=;3niX+@CCC",
"#hcf09axxcvBM2CC",
"C#jxxxxxxxmVNb:C",
"CC-ewtrjv8ds5%$C",
"CCCCCCCo<O1.CCCC",
"CCCCCCCCCCCCCCCC",
"CCCCCCCCCCCCCCCC",
"CCCCCCCCCCCCCCCC",
"CCCCCCCCCCCCCCCC",
"CCCCCCCCCCCCCCCC",
"CCCCCCCCCCCCCCCC"
};
