/* XPM */
static char *player_up_3[] = {
/* columns rows colors chars-per-pixel */
"16 16 60 1 ",
"  c gray20",
". c #363635",
"X c #373737",
"o c gray22",
"O c #3A3A39",
"+ c gray23",
"@ c #3D3D3C",
"# c #3D3E3D",
"$ c #403F3F",
"% c gray25",
"& c #424141",
"* c #434242",
"= c #4A4949",
"- c #514F4E",
"; c #515050",
": c #525050",
"> c #535050",
", c #555454",
"< c #555555",
"1 c #5D5C5C",
"2 c #5D5D5D",
"3 c #5E5E5F",
"4 c #615E5D",
"5 c #656565",
"6 c #666566",
"7 c #676767",
"8 c #6B6969",
"9 c #6F6C6B",
"0 c #6E6D6E",
"q c #717171",
"w c #777677",
"e c #808080",
"r c #828181",
"t c #878586",
"y c #878888",
"u c #8A8989",
"i c #8B8B8B",
"p c #8E8D8D",
"a c #929191",
"s c #949393",
"d c gray59",
"f c #979796",
"g c #979797",
"h c #989797",
"j c #979798",
"k c gray60",
"l c #9B9998",
"z c #9A9A9A",
"x c #9B9B9A",
"c c #9F9D9D",
"v c #9D9E9E",
"b c #ACA9A9",
"n c #BBB9B9",
"m c gray73",
"M c gray",
"N c #C3C2C2",
"B c gray77",
"V c #E0DFDF",
"C c #F4F4F4",
"Z c None",
/* pixels */
"ZZZZZZZZZZZZZZZZ",
"ZZZZZZZZZ*-ZZZZZ",
"ZZZZZZZZ*c4ZZZZZ",
"ZZZZZZZ bVlZZZZZ",
"ZZZZZZZ nCNoZZZZ",
"ZZZZZZZ tBm2XZZZ",
"ZZZZZZZ>xka%ZZZZ",
"ZZZZZZ:Mzkv9$ZZZ",
"ZZZZZZ@Odkh&.ZZZ",
"ZZZZZZZ 0kpZZZZZ",
"ZZZZZZZ 5ypZZZZZ",
"ZZZZZZZ 6iuZZZZZ",
"ZZZZ<3Z#qkpZZZZZ",
"ZZZ1w78efg,ZZZZZ",
"ZZZZ;rdsj=ZZZZZZ",
"ZZZZZZ +*ZZZZZZZ"
};
