/* XPM */
static char *player_right_1[] = {
/* columns rows colors chars-per-pixel */
"16 16 60 1 ",
"  c #3B3B3A",
". c #3C3B3B",
"X c #3D3C3C",
"o c #3D3D3C",
"O c gray24",
"+ c #3F3E3E",
"@ c #403F3F",
"# c gray26",
"$ c #434242",
"% c #444343",
"& c #464444",
"* c #484847",
"= c #4F4E4E",
"- c #525151",
"; c #535251",
": c #525353",
"> c #545353",
", c gray33",
"< c #565454",
"1 c #565554",
"2 c #575655",
"3 c #595857",
"4 c #5A5A5A",
"5 c #5A5A5B",
"6 c #5C5959",
"7 c gray39",
"8 c #6A6969",
"9 c #6B6969",
"0 c gray42",
"q c #706F6E",
"w c #706F70",
"e c #757474",
"r c #767474",
"t c #787575",
"y c #797778",
"u c #7B7B7B",
"i c #7F7E7F",
"p c #838080",
"a c #858484",
"s c #898989",
"d c #8B8A8A",
"f c #8B8B8B",
"g c #8D8D8C",
"h c gray56",
"j c #979595",
"k c #989797",
"l c #989898",
"z c gray60",
"x c #9B9A9A",
"c c #9B9B9B",
"v c gray63",
"b c #ADADAC",
"n c #B9B8B8",
"m c #BCBBBB",
"M c #D0CECE",
"N c #D2D2D1",
"B c gray89",
"V c #E7E6E6",
"C c #E8E8E7",
"Z c None",
/* pixels */
"ZZZZZZZZZZZZZZZZ",
"ZZZZZZZZZZZZZZZZ",
"ZZZZZZZZZZZZZZZZ",
"ZZZZZZZZ+ZZZZZZZ",
"ZZZZZZZoj&ZZZZZZ",
"ZZZ<->13mk%.XZZZ",
"ZZezzzzzzzvMBpZZ",
"ZqxfiuszzznCVN6Z",
"=cg7,,4abyert$%@",
"2l8ZZZZ 9 :OZZZZ",
";h*#ZZZZZZZZZZZZ",
"Zdw5ZZZZZZZZZZZZ",
"Z;0ZZZZZZZZZZZZZ",
"ZZZZZZZZZZZZZZZZ",
"ZZZZZZZZZZZZZZZZ",
"ZZZZZZZZZZZZZZZZ"
};
