/* XPM */
static char *player_down_1[] = {
/* columns rows colors chars-per-pixel */
"16 16 54 1 ",
"  c gray20",
". c #3A3A3A",
"X c #3D3C3C",
"o c #3D3D3C",
"O c #403F3F",
"+ c #424140",
"@ c #434242",
"# c #464646",
"$ c #484848",
"% c #4A4848",
"& c #4F4E4D",
"* c #4E4F4F",
"= c #545352",
"- c #595555",
"; c #5B5A5A",
": c #5D5B5B",
"> c #5D5D5E",
", c #625F5F",
"< c #626161",
"1 c #636262",
"2 c #6B6A6A",
"3 c #6B6A6B",
"4 c #6C6B6B",
"5 c #6C6C6B",
"6 c #6F6C6B",
"7 c #6D6D6D",
"8 c #706F6F",
"9 c #717070",
"0 c gray45",
"q c gray46",
"w c #777676",
"e c #7B7B7B",
"r c #7C7978",
"t c #828181",
"y c #8B8A8A",
"u c #8F8E8E",
"i c gray58",
"p c #959595",
"a c #969695",
"s c #979797",
"d c gray60",
"f c #999A99",
"g c #9A9A9A",
"h c #A2A09F",
"j c gray63",
"k c #A5A6A6",
"l c #A9A7A6",
"z c gray72",
"x c #CECFCF",
"c c #DADADA",
"v c #DDDCDD",
"b c #E2E3E3",
"n c #E9E8E8",
"m c None",
/* pixels */
"mmmmmmmm  mmmmmm",
"mmmmmmm,pau1 mmm",
"mmmmmm,gpt;e0mmm",
"mmmmm2fy3m*>mmmm",
"mmmmm4dw#mmmmmmm",
"mmmmm5d7#mmmmmmm",
"mmmmm9dq#mmmmmmm",
"mmmm 8di: mmmmmm",
"mmm+rsddl%mmmmmm",
"mmmm%jdd:mmmmmmm",
"mmmmm&kz<$mmmmmm",
"mmmmm+cb=.mmmmmm",
"mmmmm@vn-mmmmmmm",
"mmmmmOhxXmmmmmmm",
"mmmmmmO6ommmmmmm",
"mmmmmmmOmmmmmmmm"
};
