/* XPM */
static char *player_left_3[] = {
/* columns rows colors chars-per-pixel */
"16 16 57 1 ",
"  c gray20",
". c #3B3B3A",
"X c #3C3B3B",
"o c #3D3C3C",
"O c gray24",
"+ c #3E3D3D",
"@ c #3E3E3E",
"# c #403F3F",
"$ c #434242",
"% c #444343",
"& c gray27",
"* c #464444",
"= c #464646",
"- c gray31",
"; c #525150",
": c #525353",
"> c #565453",
", c #5C5959",
"< c #5C5B5B",
"1 c #5E5F5F",
"2 c #625F5F",
"3 c #656363",
"4 c DimGray",
"5 c #6B6A6A",
"6 c #6E6B6B",
"7 c #6C6C6C",
"8 c #706F70",
"9 c gray44",
"0 c #717070",
"q c #747474",
"w c #757474",
"e c #767474",
"r c #767575",
"t c #787575",
"y c #787777",
"u c #797778",
"i c #7B7B7B",
"p c #838080",
"a c #858484",
"s c #888787",
"d c #8B8A8A",
"f c #8F8E8E",
"g c #929191",
"h c #969695",
"j c #989797",
"k c gray60",
"l c #999A99",
"z c #9A9A9A",
"x c gray63",
"c c #A5A6A6",
"v c #B9B8B8",
"b c #D0CECE",
"n c #D2D2D1",
"m c gray89",
"M c #E7E6E6",
"N c #E8E8E7",
"B c None",
/* pixels */
"BBBBBBBBBBBBBBBB",
"BBBBBBBBBBBBBrBB",
"BBBBBBBBBBBB1i3B",
"BBBBBBB+BBB@-<fB",
"BBBBBB*6 BBBBah ",
"BBBoX%jg;=&&-sf ",
"BBpmbxkkgq48dz2B",
"B,nMNvkkkkkkl2BB",
"#%$tewucy0975BBB",
"BBBBO:.> BBBBBBB",
"BBBBBBBBBBBBBBBB",
"BBBBBBBBBBBBBBBB",
"BBBBBBBBBBBBBBBB",
"BBBBBBBBBBBBBBBB",
"BBBBBBBBBBBBBBBB",
"BBBBBBBBBBBBBBBB"
};
