/* XPM */
static char *player_left_1[] = {
/* columns rows colors chars-per-pixel */
"16 16 56 1 ",
"  c gray20",
". c #3B3B3A",
"X c #3C3B3B",
"o c #3D3C3C",
"O c gray24",
"+ c #3E3D3D",
"@ c #403F3F",
"# c #414242",
"$ c #434242",
"% c #444343",
"& c #464444",
"* c #525150",
"= c #535150",
"- c #535251",
"; c #535252",
": c #525353",
"> c #545252",
", c #545353",
"< c #565453",
"1 c #535454",
"2 c #575656",
"3 c #5C5959",
"4 c #606161",
"5 c #6B6A6A",
"6 c #6E6B6B",
"7 c #737273",
"8 c #747373",
"9 c #757474",
"0 c #767474",
"q c #787575",
"w c #797778",
"e c #797879",
"r c #7A797A",
"t c #7D7E7E",
"y c #838080",
"u c #828283",
"i c #828383",
"p c #878586",
"a c #929191",
"s c #949393",
"d c #959494",
"f c gray59",
"g c #979796",
"h c #979797",
"j c #989797",
"k c gray60",
"l c #9B9A9A",
"z c gray63",
"x c #A5A6A6",
"c c #B9B8B8",
"v c #D0CECE",
"b c #D2D2D1",
"n c gray89",
"m c #E7E6E6",
"M c #E8E8E7",
"N c None",
/* pixels */
"NNNNNNNNNNNNNNNN",
"NNNNNNNNNNNNNNNN",
"NNNNNNNNNNNNNNNN",
"NNNNNNN+NNNNNNNN",
"NNNNNN&6 NNNNNNN",
"NNNoX%ja,2>-;NNN",
"NNynvzkkkkkkk*NN",
"N3bmMckkgurial=N",
"@%$q09wx71118hd ",
"NNNNO:.< NNNNpf ",
"NNNNNNNNNNNN#2s ",
"NNNNNNNNNNNN4t5N",
"NNNNNNNNNNNNNe N",
"NNNNNNNNNNNNNNNN",
"NNNNNNNNNNNNNNNN",
"NNNNNNNNNNNNNNNN"
};
