/* XPM */
static char *player_up_1[] = {
/* columns rows colors chars-per-pixel */
"16 16 58 1 ",
"  c gray21",
". c #393938",
"X c #3D3C3C",
"o c #3D3D3C",
"O c #3F3F3E",
"+ c #403F3F",
"@ c #434242",
"# c #444343",
"$ c #474646",
"% c gray28",
"& c #494949",
"* c #4A4848",
"= c #4B4949",
"- c #494A49",
"; c #4F4E4E",
": c #504F4F",
"> c #4F5050",
", c #515151",
"< c #535050",
"1 c #535252",
"2 c #525253",
"3 c #565353",
"4 c #565554",
"5 c #585858",
"6 c #646363",
"7 c #656364",
"8 c gray40",
"9 c #6B6868",
"0 c #6C6B6B",
"q c #6E6C6C",
"w c #6E6D6D",
"e c gray43",
"r c #6F6E6E",
"t c #706F6F",
"y c gray44",
"u c #727272",
"i c #7D7E7E",
"p c gray50",
"a c #848283",
"s c #858484",
"d c #888686",
"f c #888888",
"g c #8D8C8C",
"h c #908F8F",
"j c #979797",
"k c gray60",
"l c #9A9999",
"z c #9A9A9A",
"x c #A9A8A7",
"c c #ABABAA",
"v c #B0B0AF",
"b c #C0C0BF",
"n c #C6C7C7",
"m c #D0CFCF",
"M c gray87",
"N c gray93",
"B c #EFEFF0",
"V c None",
/* pixels */
"VVVVVVVVVVVVVVVV",
"VVVVVVV<oVVVVVVV",
"VVVVVV9boVVVVVVV",
"VVVVV@mM=VVVVVVV",
"VVVVV#NB3 VVVVVV",
"VVVVVOvn8&VVVVVV",
"VVVV@hzk:VVVVVVV",
"VVV@dckkx*VVVVVV",
"VVV+Xukkq.VVVVVV",
"VVVVVyki-VVVVVVV",
"VVVVVwke%VVVVVVV",
"VVVVV0ku%VVVVVVV",
"VVVVVtkp5V>2VVVV",
"VVVVV$szf6,r7VVV",
"VVVVVV+aljgs;VVV",
"VVVVVVV+14;VVVVV"
};
