/* XPM */
static char *wall[] = {
/* columns rows colors chars-per-pixel */
"16 16 38 1 ",
"  c #2F1210",
". c #361110",
"X c #3C1110",
"o c #43130F",
"O c #49140F",
"+ c #56100E",
"@ c #4C1B18",
"# c #571916",
"$ c #571E16",
"% c #630C0D",
"& c #6F1914",
"* c #651E1C",
"= c #54241E",
"- c #5B201D",
"; c #59231D",
": c #532C1F",
"> c #7C2419",
", c #672821",
"< c #7E2020",
"1 c #7E2C24",
"2 c #643323",
"3 c #743126",
"4 c #871C1E",
"5 c #8E1F21",
"6 c #952123",
"7 c #8E3C28",
"8 c #953923",
"9 c #96372A",
"0 c #B3332D",
"q c #B8382E",
"w c #B83A2E",
"e c #9D5C2D",
"r c #B74B2E",
"t c #AB6B30",
"y c #B86B30",
"u c #CE4333",
"i c #C27832",
"p c #CF7B34",
/* pixels */
"       <%X      ",
",u%O   oO. 90%%X",
"X%%O       O%%%X",
".OOX       O%%6@",
"           XOO9=",
"   y8%%         ",
"   +%%%         ",
"   +%&8   p>+   ",
"   oO$e   %%+   ",
"          OOo   ",
":t7*OX          ",
"2ir5%O  31O.    ",
";wq5%O  *4%X    ",
"X%%%%O  O%%X    ",
"X%%%09        -#",
"              O%"
};
